<svg version="1" xmlns="http://www.w3.org/2000/svg" width="682.667" height="682.667" viewBox="0 0 512.000000 512.000000"><path d="M0 256v256h512V0H0v256zM260.7 81.2c2.3 4.6 7.8 15.1 12.2 23.4l8 15.2-6.3 12.8c-3.4 7.1-15.6 32.5-26.9 56.4-11.4 23.9-42.9 89.8-70 146.5l-49.3 103-31.8.3c-20.5.1-31.7-.1-31.4-.8C66 435.5 255.6 73 256 73c.3 0 2.4 3.7 4.7 8.2zm133.7 256.1c28.9 55.4 52.6 100.9 52.6 101.2 0 .3-14.2.5-31.5.5H384l-3.4-6.7c-1.8-3.8-12-24.9-22.5-47L339 345.1v-56.3c0-48.1.2-56 1.4-54.3.7 1.1 25 47.3 54 102.8z"/></svg>