<svg version="1" xmlns="http://www.w3.org/2000/svg" width="1202.667" height="1202.667" viewBox="0 0 902.000000 902.000000"><path d="M449.4 21.3c-.9 2-8 15.5-20.9 40.2-6.9 13.1-22.3 42.7-35.9 68.7-11.5 22.2-18.8 36.2-23.6 45.3-2.6 4.9-8 15.3-12 23-4 7.7-9.4 18-12 23-2.6 4.9-8 15.3-12 23-4 7.7-9.4 18-12 23-2.6 4.9-7.6 14.4-11 21-3.5 6.6-8.8 16.7-11.8 22.5-8.9 17-16.5 31.7-23.2 44.5-12.6 24.2-19.4 37.2-24.3 46.5-2.7 5.2-8.1 15.6-12 23-3.9 7.4-9.2 17.5-11.8 22.5-2.6 4.9-6.3 12.1-8.3 16-1.9 3.8-6.9 13.5-11.1 21.5-4.2 8-10.8 20.6-14.7 28-3.9 7.4-9.5 18.2-12.6 24-12.5 24-17.3 33.2-23.7 45.5-3.7 7.1-9.1 17.5-12 23-2.9 5.5-8.3 15.8-12 23-3.7 7.1-8.7 16.6-11 21-2.3 4.4-7.4 14.1-11.2 21.5-16.8 32.3-20.3 39-23.6 45.1-1.9 3.5-7.4 14-12.2 23.4-4.8 9.3-10.7 20.6-13 25-6.6 12.5-14.5 27.7-23 44-4.3 8.2-9.7 18.6-12 23-2.4 4.4-6.8 12.9-9.9 19-3.1 6-8.1 15.6-11.1 21.2C2.6 877.4.4 882 .8 882.1c.9.1 138.3.1 145 0 4.5-.1 5.4-.4 6.1-2.4.5-1.2 4.4-9.4 8.6-18.2 7.2-14.9 11.1-23 22-46 2.3-5 7.5-15.8 11.5-24 4-8.3 8.8-18.4 10.7-22.5 2-4.1 7.8-16.2 12.9-26.8 5.2-10.7 9.4-19.5 9.4-19.7 0-.1 3.6-7.9 8.1-17.1 11.4-23.6 18.4-38.3 23.9-49.9 2.6-5.5 7.6-15.9 11-23 8.4-17.5 15.2-31.8 21.2-44.5 9.3-19.6 14.5-30.5 21.3-44.5 3.7-7.7 8.6-18.1 11-23 2.3-5 8.4-17.5 13.4-27.9 5-10.3 9.1-18.9 9.1-19.1 0-.2 4.2-9 9.4-19.6 10-20.8 15.1-31.4 21.4-44.9 2.2-4.7 6.9-14.6 10.5-22 11-23 17.8-37.1 22.7-47.5 4.8-10.2 8.8-18.4 22.7-47.5 4.4-9.1 10.1-21.1 12.8-26.8 2.6-5.6 5.1-10.2 5.5-10.2.4 0 2.1 3 3.8 6.7 3.4 7.6 13.1 28 22.9 48.3 8.1 16.8 16.4 34 21.3 44.5 2.1 4.4 6.6 13.8 10 21 13.4 28 18.4 38.4 23 48 2.6 5.5 7.2 15.2 10.2 21.5 3.1 6.3 7.6 15.8 10.1 21 2.4 5.2 7.3 15.3 10.7 22.5 3.4 7.1 8.4 17.5 11 23 2.6 5.5 7.8 16.3 11.5 24 10.1 21 16.8 35.1 20.8 43.5 1.9 4.1 6.5 13.8 10.2 21.5 14.5 30 19.8 41.3 23 48 1.8 3.8 7.4 15.5 12.4 25.8 5 10.4 9.1 19 9.1 19.2 0 .1 4.5 9.6 10.1 21.1 5.6 11.5 11.6 24 13.4 27.9 5.2 11 26.4 55.5 42.2 88.5 6.5 13.4 14.9 31 20.4 42.7 2.2 4.6 4.5 8.3 5.2 8.4 7.9.5 147.9 0 148.4-.5.4-.4.2-1.5-.3-2.4-.6-.9-4.6-8.5-8.9-16.7-4.3-8.3-9.9-19.1-12.5-24-2.6-5-8-15.3-12-23-4-7.7-9.4-18.1-12-23-2.6-5-7.6-14.4-11-21-11.9-22.8-18.3-35-23-44-2.6-5-8.5-16.2-13-25-4.6-8.8-10-19.2-12-23-2.1-3.9-6.4-12.2-9.7-18.5-15.9-30.7-20.9-40.2-25.3-48.5-5.1-9.6-12.6-24-23.5-45-9.1-17.6-17.8-34.1-23.5-45-2.6-5-8.5-16.2-13-25-4.6-8.8-9.5-18.3-11-21-1.5-2.8-6.5-12.2-11-21s-10.4-20.1-13-25c-2.6-5-7.6-14.4-11-21-3.5-6.6-8.6-16.5-11.5-22-2.9-5.5-8.5-16.3-12.5-24-4-7.7-8.9-17.2-11-21-2.1-3.9-7.5-14.2-12-23-4.6-8.8-9.9-19.2-12-23-2-3.9-7-13.3-11-21-4-7.7-9.4-18.1-12-23-2.6-5-8.5-16.2-13-25s-9.9-19.2-12-23c-2.1-3.9-7-13.3-11-21-7.7-14.9-15-28.9-23.5-45-12.5-23.9-16.7-31.8-23.5-45-7.2-13.9-13-25-23.4-44.8-2.9-5.6-7.5-14.2-10-19.2-5.6-10.8-5.8-11-7.2-8.2z"/></svg>