<?xml version="1.0" encoding="UTF-8" standalone="no"?>
<!DOCTYPE svg PUBLIC "-//W3C//DTD SVG 1.1//EN" "http://www.w3.org/Graphics/SVG/1.1/DTD/svg11.dtd">
<svg width="100%" height="100%" viewBox="0 0 23 19" version="1.1" xmlns="http://www.w3.org/2000/svg" xmlns:xlink="http://www.w3.org/1999/xlink" xml:space="preserve" xmlns:serif="http://www.serif.com/" style="fill-rule:evenodd;clip-rule:evenodd;stroke-linejoin:round;stroke-miterlimit:2;">
    <g transform="matrix(1,0,0,1,-1,-2)">
        <path d="M9,5C11.194,5 13,6.806 13,9C13,11.194 11.194,13 9,13C6.806,13 5,11.194 5,9C5,6.806 6.806,5 9,5M9,15C11.67,15 17,16.34 17,19L17,21L1,21L1,19C1,16.34 6.33,15 9,15M16.76,5.36C18.78,7.56 18.78,10.61 16.76,12.63L15.08,10.94C15.92,9.76 15.92,8.23 15.08,7.05L16.76,5.36M20.07,2C24,6.05 23.97,12.11 20.07,16L18.44,14.37C21.21,11.19 21.21,6.65 18.44,3.63L20.07,2Z" style="fill-rule:nonzero;"/>
    </g>
</svg>
