<svg xmlns="http://www.w3.org/2000/svg" xmlns:xlink="http://www.w3.org/1999/xlink" version="1.1" x="0px" y="0px" viewBox="0 0 100 100" enable-background="new 0 0 100 100" xml:space="preserve"><path d="M94.557,68.819l-8.117-0.038L86.395,60.4c-0.007-1.914-1.556-3.475-3.464-3.482c-0.915,0-1.774,0.357-2.422,1.013  c-0.655,0.657-1.011,1.532-1.009,2.474l0.04,8.342l-8.358-0.041c-0.935,0-1.811,0.364-2.465,1.021  c-0.65,0.651-1.004,1.511-0.999,2.432c0.011,1.89,1.573,3.433,3.478,3.441l8.379,0.043l0.039,8.124  c0.013,1.907,1.558,3.468,3.449,3.479h0.015c0.917,0,1.777-0.357,2.423-1.009c0.654-0.657,1.016-1.536,1.008-2.474l-0.036-8.084  l8.099,0.039c0.937,0,1.811-0.362,2.466-1.023c0.647-0.648,1.003-1.513,0.997-2.427C98.023,70.376,96.461,68.83,94.557,68.819z   M61.664,75.026H35.13c0-0.184,0.01-0.369,0.012-0.552c0.041-1.684,0.252-3.325,0.621-4.902c0.689-2.95,1.921-5.686,3.589-8.099  c0.985-1.425,2.119-2.735,3.378-3.912c4.263-3.972,9.982-6.408,16.268-6.408c5.624,0,10.785,1.948,14.862,5.193  c0.491-1.102,1.175-2.116,2.046-2.996c0.306-0.306,0.629-0.581,0.963-0.84c-2.518-2.005-5.365-3.608-8.46-4.685  c5.609-3.253,9.392-9.33,9.392-16.27c0-10.369-8.435-18.8-18.803-18.8c-10.363,0-18.793,8.432-18.793,18.8  c0,6.94,3.78,13.017,9.389,16.27c-3.729,1.295-7.099,3.348-9.958,5.958c-1.725-1.695-3.714-3.118-5.917-4.181  c3.27-2.742,5.352-6.857,5.352-11.447c0-8.246-6.708-14.949-14.949-14.949S9.179,29.911,9.179,38.157  c0,4.588,2.079,8.704,5.347,11.447c-7.424,3.584-12.56,11.188-12.56,19.969c0,2.708,2.198,4.902,4.903,4.902h23.379  c-0.003,0.183-0.022,0.366-0.022,0.552c0,2.706,2.196,4.9,4.903,4.9h29.895C63.454,78.684,62.262,76.983,61.664,75.026z   M45.106,31.557c0-7.677,6.222-13.898,13.896-13.898c7.676,0,13.897,6.223,13.897,13.898c0,7.676-6.222,13.895-13.897,13.895  C51.328,45.452,45.106,39.232,45.106,31.557z M14.078,38.157c0-5.549,4.497-10.045,10.043-10.045  c5.547,0,10.043,4.496,10.043,10.045c0,5.543-4.495,10.042-10.043,10.042C18.575,48.198,14.078,43.7,14.078,38.157z M6.87,69.572  c0-9.527,7.724-17.256,17.251-17.256c4.765,0,9.077,1.934,12.2,5.052c-2.739,3.515-4.682,7.667-5.554,12.204H6.87L6.87,69.572z"></path></svg>