<?xml version="1.0" encoding="UTF-8" standalone="no"?>
<!DOCTYPE svg PUBLIC "-//W3C//DTD SVG 1.1//EN" "http://www.w3.org/Graphics/SVG/1.1/DTD/svg11.dtd">
<svg width="100%" height="100%" viewBox="0 0 13 14" version="1.1" xmlns="http://www.w3.org/2000/svg" xmlns:xlink="http://www.w3.org/1999/xlink" xml:space="preserve" xmlns:serif="http://www.serif.com/" style="fill-rule:evenodd;clip-rule:evenodd;stroke-linejoin:round;stroke-miterlimit:2;">
    <g transform="matrix(0.190807,0,0,0.187942,-5.98316,-2.3972)">
        <path d="M94.557,68.819L86.44,68.781L86.395,60.4C86.388,58.486 84.839,56.925 82.931,56.918C82.016,56.918 81.157,57.275 80.509,57.931C79.854,58.588 79.498,59.463 79.5,60.405L79.54,68.747L71.182,68.706C70.247,68.706 69.371,69.07 68.717,69.727C68.067,70.378 67.713,71.238 67.718,72.159C67.729,74.049 69.291,75.592 71.196,75.6L79.575,75.643L79.614,83.767C79.627,85.674 81.172,87.235 83.063,87.246L83.078,87.246C83.995,87.246 84.855,86.889 85.501,86.237C86.155,85.58 86.517,84.701 86.509,83.763L86.473,75.679L94.572,75.718C95.509,75.718 96.383,75.356 97.038,74.695C97.685,74.047 98.041,73.182 98.035,72.268C98.023,70.376 96.461,68.83 94.557,68.819ZM61.664,75.026L35.13,75.026C35.13,74.842 35.14,74.657 35.142,74.474C35.183,72.79 35.394,71.149 35.763,69.572C36.452,66.622 37.684,63.886 39.352,61.473C40.337,60.048 41.471,58.738 42.73,57.561C46.993,53.589 52.712,51.153 58.998,51.153C64.622,51.153 69.783,53.101 73.86,56.346C74.351,55.244 75.035,54.23 75.906,53.35C76.212,53.044 76.535,52.769 76.869,52.51C74.351,50.505 71.504,48.902 68.409,47.825C74.018,44.572 77.801,38.495 77.801,31.555C77.801,21.186 69.366,12.755 58.998,12.755C48.635,12.755 40.205,21.187 40.205,31.555C40.205,38.495 43.985,44.572 49.594,47.825C45.865,49.12 39.975,54.065 37.374,57.176C33.752,61.509 32.51,65.426 32.51,65.426C31.376,69.002 31.357,73.71 31.357,73.896C31.357,76.602 32.422,79.927 35.129,79.927L65.024,79.927C63.454,78.684 62.262,76.983 61.664,75.026ZM45.106,31.557C45.106,23.88 51.328,17.659 59.002,17.659C66.678,17.659 72.899,23.882 72.899,31.557C72.899,39.233 66.677,45.452 59.002,45.452C51.328,45.452 45.106,39.232 45.106,31.557Z" style="fill:#333;fill-rule:nonzero;"/>
    </g>
</svg>
