<svg height='100px' width='100px'  fill="#000000" xmlns="http://www.w3.org/2000/svg" xmlns:xlink="http://www.w3.org/1999/xlink" viewBox="0 0 24 24" version="1.1" x="0px" y="0px"><title>icons / add</title><desc>Created with Sketch.</desc><g stroke="none" stroke-width="1" fill="none" fill-rule="evenodd"><path d="M12,3 C12.5128358,3 12.9355072,3.38604019 12.9932723,3.88337887 L13,4 L13,11 L20,11 C20.5522847,11 21,11.4477153 21,12 C21,12.5128358 20.6139598,12.9355072 20.1166211,12.9932723 L20,13 L13,13 L13,20 C13,20.5522847 12.5522847,21 12,21 C11.4871642,21 11.0644928,20.6139598 11.0067277,20.1166211 L11,20 L11,13 L4,13 C3.44771525,13 3,12.5522847 3,12 C3,11.4871642 3.38604019,11.0644928 3.88337887,11.0067277 L4,11 L11,11 L11,4 C11,3.44771525 11.4477153,3 12,3 Z" fill="#000000" fill-rule="nonzero"></path></g></svg>