<svg width="14" height="14" viewBox="0 0 14 14" version="1.1" xmlns="http://www.w3.org/2000/svg" xmlns:xlink="http://www.w3.org/1999/xlink">
<title>home-simple</title>
<desc>Created using Figma</desc>
<g id="Canvas" transform="translate(-1546 -1474)">
<g id="home-simple">
<g id="Group">
<g id="Vector">
<use xlink:href="#path0_fill" transform="translate(1546 1474)" fill="#333333"/>
</g>
</g>
</g>
</g>
<defs>
<path id="path0_fill" d="M 13.2323 6.89493L 7.14558 0.199494C 6.90394 -0.0664978 6.48578 -0.0664978 6.24474 0.199494L 0.157984 6.89493C -0.00392382 7.07327 -0.0453138 7.33013 0.0520744 7.55108C 0.149462 7.77142 0.367977 7.91324 0.608404 7.91324L 1.82576 7.91324L 1.82576 13.3913C 1.82576 13.7273 2.09844 14 2.43443 14L 5.47781 14L 5.47781 10.3479L 7.91251 10.3479L 7.91251 14L 10.9559 14C 11.2919 14 11.5646 13.7273 11.5646 13.3913L 11.5646 7.91324L 12.7819 7.91324C 13.023 7.91324 13.2409 7.77142 13.3383 7.55108C 13.4356 7.33013 13.3942 7.07327 13.2323 6.89493Z"/>
</defs>
</svg>
