<?xml version="1.0" encoding="UTF-8" standalone="no"?>
<!DOCTYPE svg PUBLIC "-//W3C//DTD SVG 1.1//EN" "http://www.w3.org/Graphics/SVG/1.1/DTD/svg11.dtd">
<svg width="14" height="14" viewBox="0 0 14 14" version="1.1" xmlns="http://www.w3.org/2000/svg" xmlns:xlink="http://www.w3.org/1999/xlink" xml:space="preserve" xmlns:serif="http://www.serif.com/" style="fill-rule:evenodd;clip-rule:evenodd;stroke-linejoin:round;stroke-miterlimit:2;">
    <path id="path0_fill" d="M0.608,7.913C0.368,7.913 0.149,7.771 0.052,7.551C-0.045,7.33 -0.004,7.073 0.158,6.895L6.245,0.199C6.486,-0.066 6.904,-0.066 7.146,0.199L13.232,6.895C13.394,7.073 13.436,7.33 13.338,7.551C13.241,7.771 13.023,7.913 12.782,7.913L11.565,7.913L11.565,13.391C11.565,13.727 11.292,14 10.956,14L7.913,14L7.913,10.348L5.478,10.348L5.478,14L2.434,14C2.098,14 1.826,13.727 1.826,13.391L1.826,7.913L0.608,7.913ZM6.695,3C5.547,3 4.347,3.887 4.347,5.348C4.347,6.73 6.434,8.843 6.513,8.922C6.565,8.974 6.617,9 6.695,9C6.773,9 6.826,8.974 6.878,8.922C6.956,8.843 9.043,6.73 9.043,5.348C9.043,3.887 7.843,3 6.695,3ZM6.695,6.13C6.252,6.13 5.913,5.791 5.913,5.348C5.913,4.904 6.252,4.565 6.695,4.565C7.139,4.565 7.478,4.904 7.478,5.348C7.478,5.791 7.139,6.13 6.695,6.13Z" style="fill:rgb(51,51,51);fill-rule:nonzero;"/>
</svg>
