<svg height='100px' width='100px'  fill="#000000" xmlns="http://www.w3.org/2000/svg" xmlns:xlink="http://www.w3.org/1999/xlink" version="1.1" x="0px" y="0px" viewBox="0 0 99.999 93.288" enable-background="new 0 0 99.999 93.288" xml:space="preserve"><path d="M45.88,7.37c0.783,4.792-2.46,9.311-7.246,10.1c-4.798,0.783-9.316-2.46-10.1-7.246c-0.784-4.798,2.454-9.322,7.251-10.106  C40.572-0.671,45.109,2.578,45.88,7.37z"></path><path d="M43.135,42.218l7.779,12.432c1.1,1.743,3.396,2.308,5.175,1.263c1.779-1.051,2.398-3.328,1.403-5.138l-1.975-3.571  c-1.706-3.055-3.383-6.115-5.083-9.176l-3.474-6.298c-0.395-0.723-0.784-1.537-1.203-2.405c-2.138-4.482-5.472-11.405-12.772-10.768  c-6.25,0.541-12.583,3.51-18.833,8.812C6.75,33.205,1.582,41.671,1.37,42.036c-0.237,0.383-0.461,0.753-0.65,1.105  c-0.012,0.018-0.024,0.03-0.036,0.042v0.006c-0.692,1.306-1.033,2.502-0.17,4.014c0.68,1.197,1.95,1.938,3.328,1.938  c1.658,0,2.515-0.783,3.334-1.979l0,0c0.012-0.006,0.012-0.019,0.024-0.031c0.225-0.34,0.449-0.71,0.698-1.099  c0.048-0.073,4.385-7.026,11.09-12.748c2.065-1.622,4.039-2.739,5.891-3.353l-1.5,18.092c-0.14,1.791-0.71,4.877-1.196,6.607  l-3.358,11.788c-0.443,1.488-1.713,3.96-2.697,5.169L7.042,82.847c-1.148,1.434-2.454,3.056-1.373,5.296  c0.625,1.324,1.968,2.169,3.443,2.169c1.755,0,2.703-1.015,3.905-2.302l9.201-9.93c1.633-1.768,3.771-4.847,4.828-7.021l4.573-9.292  l16.883,28.381c0.832,1.396,1.876,3.14,4.167,3.14l0,0c1.306,0,2.514-0.674,3.219-1.768c1.196-1.864,0.4-3.583-0.298-5.102  L41.939,56.757c-0.535-1.16-0.832-3.535-0.607-4.798L43.135,42.218z"></path><path d="M99.999,48.541c0-12.377-10.069-22.447-22.446-22.447h-9.535v11.339h9.535c6.128,0,11.107,4.98,11.107,11.108  c0,6.127-4.979,11.119-11.107,11.119h-1.986v-6.079l-20.333,11.74L75.566,77.06v-6.079h2.217v-0.024  C90.057,70.829,99.999,60.838,99.999,48.541z"></path></svg>