<svg height='100px' width='100px'  fill="#000000" xmlns:dc="http://purl.org/dc/elements/1.1/" xmlns:cc="http://creativecommons.org/ns#" xmlns:rdf="http://www.w3.org/1999/02/22-rdf-syntax-ns#" xmlns:svg="http://www.w3.org/2000/svg" xmlns="http://www.w3.org/2000/svg" xmlns:sodipodi="http://sodipodi.sourceforge.net/DTD/sodipodi-0.dtd" xmlns:inkscape="http://www.inkscape.org/namespaces/inkscape" version="1.1" x="0px" y="0px" viewBox="0 0 100 100"><g transform="translate(0,-952.36218)"><path style="" d="m 50.022,959.86217 c -4.201824,0 -7.620872,3.4103 -7.620872,7.6121 0.0021,4.228 3.420197,7.6297 7.620872,7.6297 4.228024,0 7.647272,-3.4017 7.647272,-7.6297 0,-4.2018 -3.419248,-7.6121 -7.647272,-7.6121 z m -10.181696,16.8346 c -5.420878,0 -9.768091,4.4165 -9.768091,9.9001 l 0,23.44343 c 0,4.5391 6.010457,4.5391 6.010457,0 l 0,-22.80983 3.625633,0 0,32.42833 c 2.596404,0.4695 4.519441,2.0517 6.089657,3.2384 0.936441,0.7077 1.746443,1.2759 2.446424,1.6632 l 0,-11.3433 3.581633,0 0,11.2993 c 0.685561,-0.3861 1.476541,-0.9327 2.384822,-1.6192 1.589563,-1.2015 3.534057,-2.8089 6.177659,-3.256 l 0.0088,-32.41074 3.564034,0 0,22.80984 c 0,4.5926 5.975256,4.5926 5.975256,0 l 0,-23.30264 c 0,-5.0643 -3.945788,-10.0145 -9.873693,-10.0145 l -20.222591,-0.026 z m -25.282637,45.63723 0,5.6321 c 0.969727,0 2.352213,0.836 4.21524,2.244 1.863055,1.408 4.210128,3.388 7.603271,3.388 3.3932,0 5.740245,-1.98 7.603272,-3.388 1.863055,-1.408 3.236684,-2.244 4.206439,-2.244 0.969698,0 2.352156,0.836 4.215239,2.244 1.863027,1.408 4.210044,3.388 7.603272,3.388 3.393199,0 5.740301,-1.98 7.603271,-3.388 1.863028,-1.408 3.236714,-2.244 4.206441,-2.244 0.969698,0 2.352156,0.836 4.215239,2.244 1.863027,1.408 4.210073,3.388 7.603271,3.388 3.393144,0 5.740188,-1.98 7.603272,-3.388 1.863027,-1.408 3.23677,-2.244 4.20644,-2.244 l 0,-5.6321 c -3.393143,0 -5.740217,1.9712 -7.603271,3.3792 -1.862999,1.4081 -3.236713,2.2529 -4.206441,2.2529 -0.969726,0 -2.35224,-0.8448 -4.215239,-2.2529 -1.863055,-1.408 -4.2101,-3.3792 -7.603271,-3.3792 -3.3932,0 -5.740303,1.9712 -7.603273,3.3792 -1.863055,1.4081 -3.236656,2.2529 -4.206439,2.2529 -0.969754,0 -2.343385,-0.8448 -4.206439,-2.2529 -1.863028,-1.408 -4.218987,-3.3792 -7.612072,-3.3792 -3.393199,0 -5.740301,1.9712 -7.603272,3.3792 -1.863055,1.4081 -3.236684,2.2529 -4.20644,2.2529 -0.969697,0 -2.352213,-0.8448 -4.215239,-2.2529 -1.862999,-1.408 -4.210072,-3.3792 -7.603272,-3.3792 z m 0,11.2641 0,5.6321 c 0.969727,0 2.352213,0.836 4.21524,2.244 1.863055,1.408 4.210128,3.388 7.603271,3.388 3.3932,0 5.740245,-1.98 7.603272,-3.388 1.863055,-1.408 3.236684,-2.244 4.206439,-2.244 0.969698,0 2.352156,0.836 4.215239,2.244 1.863027,1.408 4.210044,3.388 7.603272,3.388 3.393199,0 5.740301,-1.98 7.603271,-3.388 1.863028,-1.408 3.236714,-2.244 4.206441,-2.244 0.969698,0 2.352156,0.836 4.215239,2.244 1.863027,1.408 4.210073,3.388 7.603271,3.388 3.393144,0 5.740188,-1.98 7.603272,-3.388 1.863027,-1.408 3.23677,-2.244 4.20644,-2.244 l 0,-5.6321 c -3.393143,0 -5.740217,1.9712 -7.603271,3.3793 -1.862999,1.408 -3.236713,2.2528 -4.206441,2.2528 -0.969726,0 -2.35224,-0.8448 -4.215239,-2.2528 -1.863055,-1.4081 -4.2101,-3.3793 -7.603271,-3.3793 -3.3932,0 -5.740303,1.9712 -7.603273,3.3793 -1.863055,1.408 -3.236656,2.2528 -4.206439,2.2528 -0.969754,0 -2.343385,-0.8448 -4.206439,-2.2528 -1.863028,-1.4081 -4.218987,-3.3793 -7.612072,-3.3793 -3.393199,0 -5.740301,1.9712 -7.603272,3.3793 -1.863055,1.408 -3.236684,2.2528 -4.20644,2.2528 -0.969697,0 -2.352213,-0.8448 -4.215239,-2.2528 -1.862999,-1.4081 -4.210072,-3.3793 -7.603272,-3.3793 z" fill="#000000" fill-opacity="1"></path></g></svg>