<svg width="20" height="25" viewBox="0 0 20 25" version="1.1" xmlns="http://www.w3.org/2000/svg" xmlns:xlink="http://www.w3.org/1999/xlink">
<g id="Canvas" fill="none">
<g id="ic_notifications_24px">
<g id="Group">
<g id="Vector">
<path fill="#ffffff" d="M 9.84615 24.0317C 11.2 24.0317 12.3077 22.9225 12.3077 21.5669L 7.38462 21.5669C 7.38462 22.9225 8.48 24.0317 9.84615 24.0317ZM 17.2308 16.6373L 17.2308 10.4753C 17.2308 6.6919 15.2123 3.52465 11.6923 2.68662L 11.6923 1.84859C 11.6923 0.825704 10.8677 0 9.84615 0C 8.82462 0 8 0.825704 8 1.84859L 8 2.68662C 4.46769 3.52465 2.46154 6.67957 2.46154 10.4753L 2.46154 16.6373L 0 19.1021L 0 20.3345L 19.6923 20.3345L 19.6923 19.1021L 17.2308 16.6373Z"/>
</g>
</g>
</g>
</g>
</svg>
