<?xml version="1.0" encoding="UTF-8" standalone="no"?>
<!DOCTYPE svg PUBLIC "-//W3C//DTD SVG 1.1//EN" "http://www.w3.org/Graphics/SVG/1.1/DTD/svg11.dtd">
<svg width="100%" height="100%" viewBox="0 0 18 20" version="1.1" xmlns="http://www.w3.org/2000/svg" xmlns:xlink="http://www.w3.org/1999/xlink" xml:space="preserve" xmlns:serif="http://www.serif.com/" style="fill-rule:evenodd;clip-rule:evenodd;stroke-linejoin:round;stroke-miterlimit:2;">
    <g transform="matrix(1,0,0,1,-3,-1)">
        <path d="M9,10L7,10L7,12L9,12L9,10M13,10L11,10L11,12L13,12L13,10M17,10L15,10L15,12L17,12L17,10M19,3L18,3L18,1L16,1L16,3L8,3L8,1L6,1L6,3L5,3C3.89,3 3,3.9 3,5L3,19C3,20.097 3.903,21 5,21L19,21C20.097,21 21,20.097 21,19L21,5C21,3.903 20.097,3 19,3M19,19L5,19L5,8L19,8L19,19Z" style="fill-rule:nonzero;"/>
    </g>
</svg>
