<?xml version="1.0" encoding="UTF-8" standalone="no"?>
<!DOCTYPE svg PUBLIC "-//W3C//DTD SVG 1.1//EN" "http://www.w3.org/Graphics/SVG/1.1/DTD/svg11.dtd">
<svg width="100%" height="100%" viewBox="0 0 18 20" version="1.1" xmlns="http://www.w3.org/2000/svg" xmlns:xlink="http://www.w3.org/1999/xlink" xml:space="preserve" xmlns:serif="http://www.serif.com/" style="fill-rule:evenodd;clip-rule:evenodd;stroke-linejoin:round;stroke-miterlimit:2;">
    <g transform="matrix(1,0,0,1,-3,-2)">
        <path d="M19,20L19,9L5,9L5,20L19,20M16,2L18,2L18,4L19,4C20.097,4 21,4.903 21,6L21,20C21,21.097 20.097,22 19,22L5,22C3.903,22 3,21.097 3,20L3,6C3,4.903 3.903,4 5,4L6,4L6,2L8,2L8,4L16,4L16,2M12,18.17L11.42,17.64C9.36,15.77 8,14.54 8,13.03C8,11.8 8.97,10.83 10.2,10.83C10.9,10.83 11.56,11.15 12,11.66C12.44,11.15 13.1,10.83 13.8,10.83C15.03,10.83 16,11.8 16,13.03C16,14.54 14.64,15.77 12.58,17.64L12,18.17Z" style="fill-rule:nonzero;"/>
    </g>
</svg>
