<?xml version="1.0" encoding="UTF-8" standalone="no"?>
<!DOCTYPE svg PUBLIC "-//W3C//DTD SVG 1.1//EN" "http://www.w3.org/Graphics/SVG/1.1/DTD/svg11.dtd">
<svg width="100%" height="100%" viewBox="0 0 20 22" version="1.1" xmlns="http://www.w3.org/2000/svg" xmlns:xlink="http://www.w3.org/1999/xlink" xml:space="preserve" xmlns:serif="http://www.serif.com/" style="fill-rule:evenodd;clip-rule:evenodd;stroke-linejoin:round;stroke-miterlimit:2;">
    <g transform="matrix(1,0,0,1,-3,-1)">
        <path d="M15,13L16.5,13L16.5,15.82L18.94,17.23L18.19,18.53L15,16.69L15,13M19,8L5,8L5,19L9.67,19C9.24,18.09 9,17.07 9,16C9,12.16 12.16,9 16,9C17.07,9 18.09,9.24 19,9.67L19,8M5,21C3.89,21 3,20.1 3,19L3,5C3,3.89 3.89,3 5,3L6,3L6,1L8,1L8,3L16,3L16,1L18,1L18,3L19,3C20.097,3 21,3.903 21,5L21,11.1C22.24,12.36 23,14.09 23,16C23,19.84 19.84,23 16,23C14.09,23 12.36,22.24 11.1,21L5,21M16,11.15C13.339,11.15 11.15,13.339 11.15,16C11.15,18.68 13.32,20.85 16,20.85C18.661,20.85 20.85,18.661 20.85,16C20.85,13.32 18.68,11.15 16,11.15Z" style="fill-rule:nonzero;"/>
    </g>
</svg>
