<svg height='100px' width='100px'  fill="#000000" version="1.1" xmlns="http://www.w3.org/2000/svg" xmlns:xlink="http://www.w3.org/1999/xlink" x="0px" y="0px" viewBox="0 0 100 74.999" enable-background="new 0 0 100 74.999" xml:space="preserve"><path fill="#000000" d="M67.582,6.101c-2.319-5.236-8.562-7.547-13.947-5.16c-3.801,1.685-6.142,5.262-6.378,9.062
	c-2.973-2.375-7.196-3.042-11.003-1.354c-5.377,2.386-7.857,8.564-5.534,13.801c0.015,0.03,0.026,0.056,0.041,0.088
	c0.408,1.054,4.953,10.978,28.025,13.279l0.07-0.048c0,0.001,0,0.001,0,0.001s0,0,0-0.001l-0.07,0.048
	C73.629,15.998,67.582,6.101,67.582,6.101z"></path><path fill="#000000" d="M69.458,29.758l8.087,5.711l-7.145,10.229c0.416,1.37,0.531,2.852,0.264,4.356l-0.247,1.375
	c-0.467,2.607-1.985,4.796-4.072,6.169c1.696,0.077,3.453,0.119,5.264,0.119h2.015L85.331,40.97l8.085,5.711
	c1.156,0.815,2.765,0.536,3.58-0.615l2.537-3.593c0.813-1.154,0.537-2.766-0.616-3.579l-8.085-5.713l6.135-8.683
	c0.814-1.155,0.536-2.765-0.614-3.579l-3.597-2.538c-1.15-0.813-2.765-0.539-3.577,0.614l-6.134,8.687l-8.09-5.714
	c-1.154-0.813-2.76-0.536-3.572,0.618l-2.544,3.594C68.027,27.332,68.304,28.943,69.458,29.758z"></path><path fill="#000000" d="M92.175,60.6H71.609c-14.516,0-25.9-2.702-26.663-2.702c-0.764,0-2.286-0.853-2.286-2.115
	c0-1.264,1.023-2.199,2.286-2.199l15.072,2.582c3.527,0.632,6.932-1.717,7.563-5.246l0.247-1.367
	c0.632-3.527-1.74-6.929-5.269-7.558l-19.757-3.53c-0.049-0.012-0.091-0.019-0.144-0.031c-4.488-0.996-8.476-1.662-11.825-2.114
	c-6.879-0.929-15.307-0.93-15.307-0.93C7.147,35.388,0,42.921,0,51.303v2.496c1.526,18.282,33.118,21.2,54.716,21.2V74.92
	c0,0.029,0.632,0.079,0.895,0.079h36.563c3.786,0,6.857-3.414,6.857-7.2C99.032,64.011,95.962,60.6,92.175,60.6z"></path></svg>