<svg height='100px' width='100px'  fill="#000000" xmlns:x="http://ns.adobe.com/Extensibility/1.0/" xmlns:i="http://ns.adobe.com/AdobeIllustrator/10.0/" xmlns:graph="http://ns.adobe.com/Graphs/1.0/" xmlns="http://www.w3.org/2000/svg" xmlns:xlink="http://www.w3.org/1999/xlink" version="1.1" x="0px" y="0px" viewBox="0 0 100 100" style="enable-background:new 0 0 100 100;" xml:space="preserve"><g><g i:extraneous="self"><g><path d="M47.7,35.9C45.9,25.2,36.5,17,25.3,17C12.7,17,2.5,27.2,2.5,39.8c0,11.3,8.2,20.6,18.9,22.4V44.3c0-4.6,3.7-8.4,8.4-8.4     H47.7z"></path><path d="M47.4,66c-1.5-2.6-1.5-5.8,0-8.4l9.3-16.1h-27c-1.5,0-2.7,1.2-2.7,2.7v36c0,1.5,1.2,2.7,2.7,2.7h36     c1.5,0,2.7-1.2,2.7-2.7V70.2H54.7C51.7,70.2,48.9,68.6,47.4,66z"></path><path d="M97.1,60.5l-20-34.7c-1-1.8-3.7-1.8-4.7,0l-20,34.7c-1,1.8,0.3,4.1,2.4,4.1h40.1C96.9,64.6,98.2,62.3,97.1,60.5z"></path></g></g></g></svg>