<?xml version="1.0" encoding="UTF-8" standalone="no"?>
<!DOCTYPE svg PUBLIC "-//W3C//DTD SVG 1.1//EN" "http://www.w3.org/Graphics/SVG/1.1/DTD/svg11.dtd">
<svg width="100%" height="100%" viewBox="0 0 100 100" version="1.1" xmlns="http://www.w3.org/2000/svg" xmlns:xlink="http://www.w3.org/1999/xlink" xml:space="preserve" xmlns:serif="http://www.serif.com/" style="fill-rule:evenodd;clip-rule:evenodd;stroke-linejoin:round;stroke-miterlimit:2;">
    <g transform="matrix(0.599822,0,0,0.599822,-511.469,-1077.86)">
        <circle cx="936.06" cy="1880.32" r="83.358" style="fill:rgb(63,114,155);"/>
    </g>
    <g transform="matrix(3.125,0,0,3.125,25,25)">
        <path d="M8.1,3.5L0.3,11.3C0.1,11.5 0,11.7 0,12L0,15C0,15.6 0.4,16 1,16L4,16C4.3,16 4.5,15.9 4.7,15.7L12.5,7.9L8.1,3.5Z" style="fill:white;fill-rule:nonzero;"/>
        <path d="M15.7,3.3L12.7,0.3C12.3,-0.1 11.7,-0.1 11.3,0.3L9.5,2.1L13.9,6.5L15.7,4.7C16.1,4.3 16.1,3.7 15.7,3.3Z" style="fill:white;fill-rule:nonzero;"/>
    </g>
</svg>
