<svg width="13" height="14" viewBox="0 0 13 14" version="1.1" xmlns="http://www.w3.org/2000/svg" xmlns:xlink="http://www.w3.org/1999/xlink">
<g id="Canvas" fill="none">
<g id="ic_assignment_returned_24px">
<g id="Group">
<g id="Vector">
<path d="M 11.2 1.4L 8.274 1.4C 7.98 0.588 7.21 0 6.3 0C 5.39 0 4.62 0.588 4.326 1.4L 1.4 1.4C 0.63 1.4 0 2.03 0 2.8L 0 12.6C 0 13.37 0.63 14 1.4 14L 11.2 14C 11.97 14 12.6 13.37 12.6 12.6L 12.6 2.8C 12.6 2.03 11.97 1.4 11.2 1.4ZM 6.3 1.4C 6.685 1.4 7 1.715 7 2.1C 7 2.485 6.685 2.8 6.3 2.8C 5.915 2.8 5.6 2.485 5.6 2.1C 5.6 1.715 5.915 1.4 6.3 1.4ZM 6.3 11.9L 2.8 8.4L 4.9 8.4L 4.9 5.6L 7.7 5.6L 7.7 8.4L 9.8 8.4L 6.3 11.9Z" fill="#444444"/>
</g>
</g>
</g>
</g>
</svg>

