<svg height='100px' width='100px'  fill="#000000" xmlns="http://www.w3.org/2000/svg" viewBox="0 0 68 57" x="0px" y="0px"><path fill="#000000" d="M316,450 L316,472 C316,473.104569 315.104569,474 314,474 L298,474 C296.895431,474 296,473.104569 296,472 L296,446 C296,441.581722 299.581722,438 304,438 L334,438 C337.313708,438 340,440.686292 340,444 C340,447.313708 337.313708,450 334,450 L316,450 Z M305,433 C300.581722,433 297,429.418278 297,425 C297,420.581722 300.581722,417 305,417 C309.418278,417 313,420.581722 313,425 C313,429.418278 309.418278,433 305,433 Z M320,422 C318.895431,422 318,421.104569 318,420 C318,418.895431 318.895431,418 320,418 L358,418 C361.313708,418 364,420.686292 364,424 L364,454 C364,457.313708 361.313708,460 358,460 L338,460 C336.895431,460 336,459.104569 336,458 C336,456.895431 336.895431,456 338,456 L358,456 C359.104569,456 360,455.104569 360,454 L360,424 C360,422.895431 359.104569,422 358,422 L320,422 Z" transform="translate(-296 -417)"></path></svg>