<?xml version="1.0" encoding="UTF-8" standalone="no"?>
<!DOCTYPE svg PUBLIC "-//W3C//DTD SVG 1.1//EN" "http://www.w3.org/Graphics/SVG/1.1/DTD/svg11.dtd">
<svg width="100%" height="100%" viewBox="0 0 100 100" version="1.1" xmlns="http://www.w3.org/2000/svg" xmlns:xlink="http://www.w3.org/1999/xlink" xml:space="preserve" xmlns:serif="http://www.serif.com/" style="fill-rule:evenodd;clip-rule:evenodd;stroke-linejoin:round;stroke-miterlimit:2;">
    <g transform="matrix(-1,0,0,1,535.294,-613.235)">
        <path d="M464.706,669.853L464.706,702.206C464.706,703.83 463.389,705.147 461.765,705.147L438.235,705.147C436.611,705.147 435.294,703.83 435.294,702.206L435.294,663.971C435.294,657.473 440.561,652.206 447.059,652.206L491.176,652.206C496.05,652.206 500,656.156 500,661.029C500,665.903 496.05,669.853 491.176,669.853L464.706,669.853ZM448.529,644.853C442.032,644.853 436.765,639.586 436.765,633.088C436.765,626.591 442.032,621.324 448.529,621.324C455.027,621.324 460.294,626.591 460.294,633.088C460.294,639.586 455.027,644.853 448.529,644.853ZM470.588,628.676C468.964,628.676 467.647,627.36 467.647,625.735C467.647,624.111 468.964,622.794 470.588,622.794L526.471,622.794C531.344,622.794 535.294,626.745 535.294,631.618L535.294,675.735C535.294,680.608 531.344,684.559 526.471,684.559L497.059,684.559C495.434,684.559 494.118,683.242 494.118,681.618C494.118,679.993 495.434,678.676 497.059,678.676L526.471,678.676C528.095,678.676 529.412,677.36 529.412,675.735L529.412,631.618C529.412,629.993 528.095,628.676 526.471,628.676L470.588,628.676Z" style="fill-rule:nonzero;"/>
    </g>
</svg>
