<svg height='100px' width='100px'  fill="#000000" xmlns="http://www.w3.org/2000/svg" xmlns:xlink="http://www.w3.org/1999/xlink" version="1.1" x="0px" y="0px" viewBox="0 0 100 100" enable-background="new 0 0 100 100" xml:space="preserve"><path fill="#000000" d="M82.35,37.543c-7.291-5.784-17.076-6.266-24.722-1.997c-2.523,1.383-4.821,3.278-6.725,5.673l-4.178,5.265  c-0.002,0.012-0.006,0.021-0.006,0.03c0.651,2.217,1.96,4.264,3.904,5.815c1.104,0.871,2.317,1.498,3.581,1.913l5.066-6.382  c0.937-1.176,2.061-2.119,3.294-2.824c0,0,0.005,0.002,0.005,0.007c0.244-0.147,0.493-0.281,0.747-0.406  c1.519-0.73,3.183-1.11,4.853-1.141l0.063-0.078c2.615-0.067,5.261,0.742,7.479,2.492c3.575,2.852,5.014,7.378,4.101,11.569  l-0.137,0.166c-0.368,1.653-1.092,3.244-2.211,4.658l-17.791,22.41c-3.996,5.017-11.291,5.852-16.319,1.877  c-5.013-4.002-5.853-11.291-1.875-16.324l1.34-1.684c-1.16-0.621-2.287-1.353-3.355-2.198c-1.824-1.448-3.358-3.126-4.599-4.959  l-1.75,2.201c-7.653,9.654-6.047,23.665,3.599,31.326c9.647,7.658,23.664,6.045,31.324-3.6l17.791-22.41  c0.883-1.116,1.637-2.298,2.277-3.518c0.016,0.025,0.034,0.045,0.051,0.066C93.138,56.173,90.915,44.352,82.35,37.543z   M87.425,6.009C77.776-1.641,63.762-0.032,56.1,9.61L38.311,32.02c-7.653,9.644-6.042,23.665,3.6,31.322  c9.647,7.657,23.663,6.041,31.322-3.601l4.446-5.597c-0.645-2.218-1.95-4.262-3.895-5.809c-1.109-0.88-2.329-1.519-3.597-1.934  l-5.32,6.701c-3.996,5.016-11.289,5.854-16.314,1.877c-5.016-3.998-5.855-11.291-1.877-16.321l17.79-22.41  c3.995-5.011,11.291-5.85,16.318-1.874c5.017,3.995,5.853,11.288,1.874,16.318l-1.756,2.218c1.168,0.625,2.296,1.36,3.369,2.212  c1.82,1.441,3.348,3.117,4.588,4.938l2.166-2.724C98.679,27.684,97.067,13.669,87.425,6.009z"></path></svg>