<?xml version="1.0" encoding="UTF-8" standalone="no"?>
<!DOCTYPE svg PUBLIC "-//W3C//DTD SVG 1.1//EN" "http://www.w3.org/Graphics/SVG/1.1/DTD/svg11.dtd">
<svg width="100%" height="100%" viewBox="0 0 14 14" version="1.1" xmlns="http://www.w3.org/2000/svg" xmlns:xlink="http://www.w3.org/1999/xlink" xml:space="preserve" xmlns:serif="http://www.serif.com/" style="fill-rule:evenodd;clip-rule:evenodd;stroke-linejoin:round;stroke-miterlimit:2;">
    <g transform="matrix(0.0243056,0,0,0.0243056,0,0)">
        <path d="M96,128C131.109,128 160,99.109 160,64C160,28.891 131.109,0 96,0C60.891,-0 32,28.891 32,64C32,99.109 60.891,128 96,128ZM96,304.08C95.971,292 100.906,280.424 109.64,272.08L181.77,204C183.42,202.45 185.54,201.69 187.38,200.43C177.771,176.104 154.156,160.025 128,160L64,160C28.891,160 -0,188.891 0,224L0,320C0,337.555 14.445,352 32,352L32,480C32,497.555 46.445,512 64,512L128,512C145.555,512 160,497.555 160,480L160,383.61L109.64,336.08C100.903,327.738 95.968,316.16 96,304.08ZM480,128C515.109,128 544,99.109 544,64C544,28.891 515.109,0 480,0C444.891,-0 416,28.891 416,64C416,99.109 444.891,128 480,128ZM512,160L448,160C421.847,160.023 398.233,176.098 388.62,200.42C390.46,201.69 392.62,202.42 394.24,204.01L466.36,272.07C475.067,280.433 479.994,291.997 479.994,304.07C479.994,316.143 475.067,327.707 466.36,336.07L416,383.62L416,480C416,497.555 430.445,512 448,512L512,512C529.555,512 544,497.555 544,480L544,352C561.555,352 576,337.555 576,320L576,224C576,188.891 547.109,160 512,160ZM444.4,295.34L372.28,227.28C370.049,225.153 367.082,223.966 364,223.966C357.417,223.966 352,229.383 352,235.966L352,272L224,272L224,235.956C224,229.373 218.583,223.956 212,223.956C208.918,223.956 205.951,225.143 203.72,227.27L131.6,295.34C126.833,300.143 126.833,308.007 131.6,312.81L203.72,380.88C205.951,383.007 208.918,384.194 212,384.194C218.583,384.194 224,378.777 224,372.194L224,336L352,336L352,372.194C352,378.777 357.417,384.194 364,384.194C367.082,384.194 370.049,383.007 372.28,380.88L444.4,312.81C449.167,308.007 449.167,300.143 444.4,295.34Z" style="fill-rule:nonzero;"/>
    </g>
</svg>
