<svg width="15" height="14" viewBox="0 0 15 14" version="1.1" xmlns="http://www.w3.org/2000/svg" xmlns:xlink="http://www.w3.org/1999/xlink">
<title>parent</title>
<desc>Created using Figma</desc>
<g id="Canvas" transform="translate(-1546 -1417)">
<g id="parent">
<g id="Group">
<g id="Vector">
<use xlink:href="#path0_fill" transform="translate(1553 1417)" fill="#333333"/>
</g>
<g id="Vector">
<use xlink:href="#path1_fill" transform="translate(1547.5 1421.5)" fill="#333333"/>
</g>
<g id="Vector">
<use xlink:href="#path2_fill" transform="translate(1551.99 1424.5)" fill="#333333"/>
</g>
<g id="Vector">
<use xlink:href="#path3_fill" transform="translate(1546 1428)" fill="#333333"/>
</g>
</g>
</g>
</g>
<defs>
<path id="path0_fill" d="M 0 3C 0 1.343 1.343 0 3 0C 4.657 0 6 1.343 6 3C 6 4.657 4.657 6.5 3 6.5C 1.343 6.5 0 4.657 0 3Z"/>
<path id="path1_fill" d="M 0 2.5C 0 1.1195 1.1195 0 2.5 0C 3.8805 0 5 1.1195 5 2.5C 5 3.8805 3.8805 5.5 2.5 5.5C 1.1195 5.5 0 3.8805 0 2.5Z"/>
<path id="path2_fill" d="M 7.8395 0.8255C 6.974 0.427 5.6615 0 4.011 0C 3.0095 0 2.1345 0.158 1.406 0.371C 1.202 1.2665 0.6965 2.125 -1.56403e-07 2.717C 0.545 2.8345 1.0145 2.9825 1.3795 3.118C 2.355 3.4815 3.011 4.424 3.011 5.463L 3.011 6.5L 9.011 6.5L 9.011 2.6465C 9.011 1.8615 8.5525 1.1535 7.8395 0.8255Z"/>
<path id="path3_fill" d="M 8 1.963C 8 1.334 7.609 0.7745 7.0195 0.555C 6.3025 0.288 5.2415 0 4 0C 2.7585 0 1.6975 0.288 0.9805 0.555C 0.391 0.7745 0 1.334 0 1.963L 0 3L 8 3L 8 1.963Z"/>
</defs>
</svg>
