<?xml version="1.0" encoding="UTF-8" standalone="no"?>
<!DOCTYPE svg PUBLIC "-//W3C//DTD SVG 1.1//EN" "http://www.w3.org/Graphics/SVG/1.1/DTD/svg11.dtd">
<svg width="14" height="14" viewBox="0 0 14 14" version="1.1" xmlns="http://www.w3.org/2000/svg" xmlns:xlink="http://www.w3.org/1999/xlink" xml:space="preserve" xmlns:serif="http://www.serif.com/" style="fill-rule:evenodd;clip-rule:evenodd;stroke-linecap:round;stroke-linejoin:round;stroke-miterlimit:1.5;">
    <g transform="matrix(1,0,0,1.05513,0,-0.77184)">
        <path d="M12.256,14L1.744,14C0.781,14 0,13.219 0,12.256L0,3.744C0,2.814 0.73,2.052 1.744,2L2.374,2L2.374,2.041C2.374,2.939 3.103,3.667 4,3.667C4.897,3.667 5.626,2.939 5.626,2.041L5.626,2L8.374,2L8.374,2.033C8.374,2.93 9.103,3.659 10,3.659C10.897,3.659 11.626,2.93 11.626,2.033L11.626,2L12.256,2C13.27,2.052 14,2.814 14,3.744L14,12.256C14,13.219 13.219,14 12.256,14ZM12.276,4.624L1.724,4.624C1.325,4.624 1,4.948 1,5.348L1,12.286C1,12.686 1.325,13.01 1.724,13.01L12.276,13.01C12.675,13.01 13,12.686 13,12.286L13,5.348C13,4.948 12.675,4.624 12.276,4.624Z" style="fill:rgb(51,51,51);"/>
    </g>
    <g transform="matrix(0.968954,0,0,1.06376,0.173373,-0.847942)">
        <path d="M13.238,5.376C13.238,4.98 12.884,4.658 12.449,4.658L1.642,4.658C1.207,4.658 0.853,4.98 0.853,5.376L0.853,12.258C0.853,12.654 1.207,12.976 1.642,12.976L12.449,12.976C12.884,12.976 13.238,12.654 13.238,12.258L13.238,5.376Z" style="fill:white;"/>
    </g>
    <g transform="matrix(1.40446,0,0,0.80163,-6.43122,0)">
        <path d="M7.854,0.748C7.854,0.335 7.663,0 7.427,0C7.191,0 7,0.335 7,0.748L7,1.928C7,2.341 7.191,2.677 7.427,2.677C7.663,2.677 7.854,2.341 7.854,1.928L7.854,0.748Z" style="fill:rgb(51,51,51);"/>
    </g>
    <g transform="matrix(1.40446,0,0,0.80163,-0.431218,0)">
        <path d="M7.854,0.748C7.854,0.335 7.663,0 7.427,0C7.191,0 7,0.335 7,0.748L7,1.928C7,2.341 7.191,2.677 7.427,2.677C7.663,2.677 7.854,2.341 7.854,1.928L7.854,0.748Z" style="fill:rgb(51,51,51);"/>
    </g>
    <g id="Layer1">
        <g transform="matrix(4.95623,0,0,7.97831,-8.82493,-51.361)">
            <rect x="2.386" y="7" width="1.614" height="1" style="fill:rgb(51,51,51);"/>
            <path d="M4.03,8.019L2.356,8.019L2.356,6.981L4.03,6.981L4.03,8.019ZM2.386,7L2.386,8L4,8L4,7L2.386,7Z" style="fill:white;"/>
        </g>
        <g transform="matrix(0.630026,0,0,0.825462,2.79917,2.30163)">
            <path d="M2.169,7.795L5.6,10.5L11.275,4.613" style="fill:none;stroke:white;stroke-width:2.04px;"/>
        </g>
    </g>
</svg>
