<?xml version="1.0" encoding="UTF-8" standalone="no"?>
<!DOCTYPE svg PUBLIC "-//W3C//DTD SVG 1.1//EN" "http://www.w3.org/Graphics/SVG/1.1/DTD/svg11.dtd">
<svg width="14" height="14" viewBox="0 0 14 14" version="1.1" xmlns="http://www.w3.org/2000/svg" xmlns:xlink="http://www.w3.org/1999/xlink" xml:space="preserve" xmlns:serif="http://www.serif.com/" style="fill-rule:evenodd;clip-rule:evenodd;stroke-linejoin:round;stroke-miterlimit:2;">
    <g transform="matrix(1,0,0,1.05513,0,-0.77184)">
        <path d="M12.256,14L1.744,14C0.781,14 0,13.219 0,12.256L0,3.744C0,2.814 0.73,2.052 1.744,2L2.374,2L2.374,2.041C2.374,2.939 3.103,3.667 4,3.667C4.897,3.667 5.626,2.939 5.626,2.041L5.626,2L8.374,2L8.374,2.033C8.374,2.93 9.103,3.659 10,3.659C10.897,3.659 11.626,2.93 11.626,2.033L11.626,2L12.256,2C13.27,2.052 14,2.814 14,3.744L14,12.256C14,13.219 13.219,14 12.256,14ZM12.276,4.624L1.724,4.624C1.325,4.624 1,4.948 1,5.348L1,12.286C1,12.686 1.325,13.01 1.724,13.01L12.276,13.01C12.675,13.01 13,12.686 13,12.286L13,5.348C13,4.948 12.675,4.624 12.276,4.624Z" style="fill:rgb(51,51,51);"/>
    </g>
    <g transform="matrix(0.968954,0,0,1.06376,0.173373,-0.847942)">
        <path d="M13.238,5.376C13.238,4.98 12.884,4.658 12.449,4.658L1.642,4.658C1.207,4.658 0.853,4.98 0.853,5.376L0.853,12.258C0.853,12.654 1.207,12.976 1.642,12.976L12.449,12.976C12.884,12.976 13.238,12.654 13.238,12.258L13.238,5.376Z" style="fill:white;"/>
    </g>
    <g transform="matrix(1.40446,0,0,0.80163,-6.43122,0)">
        <path d="M7.854,0.748C7.854,0.335 7.663,0 7.427,0C7.191,0 7,0.335 7,0.748L7,1.928C7,2.341 7.191,2.677 7.427,2.677C7.663,2.677 7.854,2.341 7.854,1.928L7.854,0.748Z" style="fill:rgb(51,51,51);"/>
    </g>
    <g transform="matrix(1.40446,0,0,0.80163,-0.431218,0)">
        <path d="M7.854,0.748C7.854,0.335 7.663,0 7.427,0C7.191,0 7,0.335 7,0.748L7,1.928C7,2.341 7.191,2.677 7.427,2.677C7.663,2.677 7.854,2.341 7.854,1.928L7.854,0.748Z" style="fill:rgb(51,51,51);"/>
    </g>
    <g id="Layer1">
        <g transform="matrix(4.95623,0,0,7.97831,-8.82493,-51.361)">
            <rect x="2.386" y="7" width="1.614" height="1" style="fill:rgb(51,51,51);"/>
            <path d="M4.03,8.019L2.356,8.019L2.356,6.981L4.03,6.981L4.03,8.019ZM2.386,7L2.386,8L4,8L4,7L2.386,7Z" style="fill:white;"/>
        </g>
        <g transform="matrix(0.450779,0.450779,-0.450779,0.450779,15.114,-8.65328)">
            <path d="M15.833,26.833L11.167,26.833L11.167,22.167C11.167,21.467 10.7,21 10,21C9.3,21 8.833,21.467 8.833,22.167L8.833,26.833L4.167,26.833C3.467,26.833 3,27.3 3,28C3,28.7 3.467,29.167 4.167,29.167L8.833,29.167L8.833,33.833C8.833,34.533 9.3,35 10,35C10.7,35 11.167,34.533 11.167,33.833L11.167,29.167L15.833,29.167C16.533,29.167 17,28.7 17,28C17,27.3 16.533,26.833 15.833,26.833Z" style="fill:rgb(51,51,51);fill-rule:nonzero;"/>
            <path d="M3.36,27.117L3.401,27.082L3.445,27.049L3.49,27.018L3.537,26.989L3.586,26.963L3.637,26.939L3.689,26.917L3.743,26.898L3.799,26.881L3.857,26.867L3.916,26.855L3.976,26.845L4.038,26.839L4.102,26.835L4.167,26.833L8.833,26.833L8.833,22.167L8.835,22.102L8.839,22.038L8.845,21.976L8.855,21.916L8.867,21.857L8.881,21.799L8.898,21.743L8.917,21.689L8.939,21.637L8.963,21.586L8.989,21.537L9.018,21.49L9.049,21.445L9.082,21.401L9.117,21.36L9.154,21.321L9.193,21.284L9.235,21.248L9.278,21.215L9.323,21.185L9.37,21.156L9.419,21.13L9.47,21.106L9.522,21.084L9.577,21.065L9.632,21.048L9.69,21.033L9.749,21.021L9.809,21.012L9.872,21.005L9.935,21.001L10,21L10.065,21.001L10.128,21.005L10.191,21.012L10.251,21.021L10.31,21.033L10.368,21.048L10.423,21.065L10.478,21.084L10.53,21.106L10.581,21.13L10.63,21.156L10.677,21.185L10.722,21.215L10.765,21.248L10.807,21.284L10.846,21.321L10.883,21.36L10.918,21.401L10.951,21.445L10.982,21.49L11.011,21.537L11.037,21.586L11.061,21.637L11.083,21.689L11.102,21.743L11.119,21.799L11.133,21.857L11.145,21.916L11.155,21.976L11.161,22.038L11.165,22.102L11.167,22.167L11.167,26.833L15.833,26.833L15.898,26.835L15.962,26.839L16.024,26.845L16.084,26.855L16.143,26.867L16.201,26.881L16.257,26.898L16.311,26.917L16.363,26.939L16.414,26.963L16.463,26.989L16.51,27.018L16.555,27.049L16.599,27.082L16.64,27.117L16.679,27.154L16.716,27.193L16.752,27.235L16.785,27.278L16.815,27.323L16.844,27.37L16.87,27.419L16.894,27.47L16.916,27.522L16.935,27.577L16.952,27.632L16.967,27.69L16.979,27.749L16.988,27.809L16.995,27.872L16.999,27.935L17,28L16.999,28.065L16.995,28.128L16.988,28.191L16.979,28.251L16.967,28.31L16.952,28.368L16.935,28.423L16.916,28.478L16.894,28.53L16.87,28.581L16.844,28.63L16.815,28.677L16.785,28.722L16.752,28.765L16.716,28.807L16.679,28.846L16.64,28.883L16.599,28.918L16.555,28.951L16.51,28.982L16.463,29.011L16.414,29.037L16.363,29.061L16.311,29.083L16.257,29.102L16.201,29.119L16.143,29.133L16.084,29.145L16.024,29.155L15.962,29.161L15.898,29.165L15.833,29.167L11.167,29.167L11.167,33.833L11.165,33.898L11.161,33.962L11.155,34.024L11.145,34.084L11.133,34.143L11.119,34.201L11.102,34.257L11.083,34.311L11.061,34.363L11.037,34.414L11.011,34.463L10.982,34.51L10.951,34.555L10.918,34.599L10.883,34.64L10.846,34.679L10.807,34.716L10.765,34.752L10.722,34.785L10.677,34.815L10.63,34.844L10.581,34.87L10.53,34.894L10.478,34.916L10.423,34.935L10.368,34.952L10.31,34.967L10.251,34.979L10.191,34.988L10.128,34.995L10.065,34.999L10,35L9.935,34.999L9.872,34.995L9.809,34.988L9.749,34.979L9.69,34.967L9.632,34.952L9.577,34.935L9.522,34.916L9.47,34.894L9.419,34.87L9.37,34.844L9.323,34.815L9.278,34.785L9.235,34.752L9.193,34.716L9.154,34.679L9.117,34.64L9.082,34.599L9.049,34.555L9.018,34.51L8.989,34.463L8.963,34.414L8.939,34.363L8.917,34.311L8.898,34.257L8.881,34.201L8.867,34.143L8.855,34.084L8.845,34.024L8.839,33.962L8.835,33.898L8.833,33.833L8.833,29.167L4.167,29.167L4.102,29.165L4.038,29.161L3.976,29.155L3.916,29.145L3.857,29.133L3.799,29.119L3.743,29.102L3.689,29.083L3.637,29.061L3.586,29.037L3.537,29.011L3.49,28.982L3.445,28.951L3.401,28.918L3.36,28.883L3.321,28.846L3.284,28.807L3.248,28.765L3.215,28.722L3.185,28.677L3.156,28.63L3.13,28.581L3.106,28.53L3.084,28.478L3.065,28.423L3.048,28.368L3.033,28.31L3.021,28.251L3.012,28.191L3.005,28.128L3.001,28.065L3,28L3.001,27.935L3.005,27.872L3.012,27.809L3.021,27.749L3.033,27.69L3.048,27.632L3.065,27.577L3.084,27.522L3.106,27.47L3.13,27.419L3.156,27.37L3.185,27.323L3.215,27.278L3.248,27.235L3.284,27.193L3.321,27.154L3.36,27.117Z" style="fill:white;"/>
        </g>
    </g>
</svg>
