<svg height='100px' width='100px'  fill="#000000" xmlns="http://www.w3.org/2000/svg" xmlns:xlink="http://www.w3.org/1999/xlink" version="1.1" x="0px" y="0px" viewBox="0 0 100 100" enable-background="new 0 0 100 100" xml:space="preserve"><g><circle fill-rule="evenodd" clip-rule="evenodd" cx="72.294" cy="79.009" r="9.049"></circle><path fill-rule="evenodd" clip-rule="evenodd" d="M35.401,75.165c2.124-1.687,5.213-1.333,6.9,0.792   c1.688,2.124,1.333,5.211-0.792,6.898c-2.121,1.688-5.212,1.334-6.899-0.792C32.922,79.94,33.278,76.852,35.401,75.165z"></path><circle fill-rule="evenodd" clip-rule="evenodd" cx="77.2" cy="22.822" r="9.049"></circle><circle fill-rule="evenodd" clip-rule="evenodd" cx="85.088" cy="53.516" r="4.911"></circle><circle fill-rule="evenodd" clip-rule="evenodd" cx="13.087" cy="49.707" r="9.049"></circle><circle fill-rule="evenodd" clip-rule="evenodd" cx="31.573" cy="17.913" r="4.911"></circle><path fill-rule="evenodd" clip-rule="evenodd" d="M63.318,62.857c-7.261,7.262-19.036,7.262-26.298,0   c-7.262-7.264-7.262-19.039-0.001-26.3c7.263-7.264,19.038-7.264,26.299,0C70.582,43.819,70.582,55.594,63.318,62.857z    M60.062,39.814c-5.464-5.465-14.322-5.465-19.785,0c-5.463,5.465-5.463,14.32,0,19.788c5.463,5.463,14.321,5.463,19.785,0   C65.526,54.134,65.526,45.279,60.062,39.814z"></path></g><g display="none"><g display="inline"><path fill-rule="evenodd" clip-rule="evenodd" d="M54.908,31.077V87.12C52.475,94.536,44.166,100,34.289,100    c-11.789,0-21.34-7.78-21.34-17.375s9.551-17.374,21.34-17.374c3.8,0,7.368,0.811,10.455,2.225V0h1.536    c1.106,6.982,5.842,11.393,11.381,15.077c6.533,4.351,12.525,9.223,16.934,15.826c7.53,11.269,7.183,23.541-0.974,33.865    c-0.301,0.38-0.654,0.725-1.349,1.492C76.53,50.32,69.703,36.93,54.908,31.077z"></path></g></g></svg>