<?xml version="1.0" encoding="utf-8"?>
<!-- Generator: Adobe Illustrator 22.0.1, SVG Export Plug-In . SVG Version: 6.00 Build 0)  -->
<svg version="1.1" id="Layer_1" xmlns="http://www.w3.org/2000/svg" xmlns:xlink="http://www.w3.org/1999/xlink" x="0px" y="0px"
	 viewBox="0 0 20 20" style="enable-background:new 0 0 20 20;" xml:space="preserve">
<style type="text/css">
	.st0{fill:#000000;}
</style>
<path class="st0" d="M19.4,0H6.9C6.5,0,6.3,0.3,6.3,0.6V5h6.9c1,0,1.9,0.8,1.9,1.9v6.9h4.4c0.3,0,0.6-0.3,0.6-0.6V0.6
	C20,0.3,19.7,0,19.4,0z"/>
<path class="st0" d="M13.1,6.3H0.6C0.3,6.3,0,6.5,0,6.9v12.5C0,19.7,0.3,20,0.6,20h12.5c0.3,0,0.6-0.3,0.6-0.6V6.9
	C13.8,6.5,13.5,6.3,13.1,6.3z"/>
</svg>
