<svg width="12" height="7" viewBox="0 0 12 7" version="1.1" xmlns="http://www.w3.org/2000/svg" xmlns:xlink="http://www.w3.org/1999/xlink">
<g id="Canvas" transform="translate(-754 1281)">
<rect x="754" y="-1281" width="12" height="7" fill="#E5E5E5"/>
<clipPath id="clip-0" clip-rule="evenodd">
<path d="M 273 -1517L 1713 -1517L 1713 -493L 273 -493L 273 -1517Z" fill="#FFFFFF"/>
</clipPath>
<g id="Contacts LIst" clip-path="url(#clip-0)">
<path d="M 273 -1517L 1713 -1517L 1713 -493L 273 -493L 273 -1517Z" fill="#E2E2E2"/>
<g id="Contact List">
<path d="M 643 -1387L 1343 -1387L 1343 -523L 643 -523L 643 -1387Z" fill="#E2E2E2"/>
<g id="Rectangle 12">
<use xlink:href="#path0_fill" transform="translate(643 -1387)" fill="#FFFFFF"/>
</g>
</g>
<g id="Group">
<g id="Rectangle 19">
<use xlink:href="#path1_fill" transform="translate(643 -1327)" fill="#FFFFFF"/>
</g>
<g id="email">
<g id="Group">
<g id="Vector">
<use xlink:href="#path2_fill" transform="translate(754 -1284)" fill="#444444"/>
</g>
<g id="Vector">
<use xlink:href="#path3_fill" transform="translate(754 -1280.55)" fill="#444444"/>
</g>
</g>
</g>
</g>
</g>
</g>
<defs>
<path id="path0_fill" d="M 0 10C 0 4.47715 4.47715 0 10 0L 690 0C 695.523 0 700 4.47715 700 10L 700 854C 700 859.523 695.523 864 690 864L 10 864C 4.47715 864 0 859.523 0 854L 0 10Z"/>
<path id="path1_fill" d="M 0 0L 700 0L 700 60L 0 60L 0 0Z"/>
<path id="path2_fill" d="M 11.5 0L 0.5 0C 0.2 0 0 0.2 0 0.5L 0 2C 0 2.2 0.1 2.35 0.25 2.45L 5.75 5.45C 5.85 5.5 5.9 5.5 6 5.5C 6.1 5.5 6.15 5.5 6.25 5.45L 11.75 2.45C 11.9 2.35 12 2.2 12 2L 12 0.5C 12 0.2 11.8 0 11.5 0Z"/>
<path id="path3_fill" d="M 6.7 2.85C 6.5 3 6.25 3.05 6 3.05C 5.75 3.05 5.5 3 5.3 2.85L 0 -1.90735e-07L 0 6.05C 0 6.35 0.2 6.55 0.5 6.55L 11.5 6.55C 11.8 6.55 12 6.35 12 6.05L 12 -1.90735e-07L 6.7 2.85Z"/>
</defs>
</svg>

