<?xml version="1.0" encoding="utf-8"?>
<!-- Generator: Adobe Illustrator 26.2.1, SVG Export Plug-In . SVG Version: 6.00 Build 0)  -->
<svg version="1.1" xmlns="http://www.w3.org/2000/svg" xmlns:xlink="http://www.w3.org/1999/xlink" x="0px" y="0px"
	 viewBox="0 0 14 14" style="enable-background:new 0 0 14 14;" xml:space="preserve">
<style type="text/css">
	.st0{fill:none;stroke:#000000;stroke-linecap:round;stroke-miterlimit:10;}
</style>
<g id="Layer_1">
	<g id="Canvas">
		<g id="filter">
			<g id="Group">
				<g id="Vector">
					<path d="M13.1,0H0.9C0.3,0,0,0.3,0,0.9v1.8c0,0.3,0.1,0.5,0.3,0.7l4.9,4.1v5.7c0,0.4,0.2,0.7,0.5,0.8C5.9,14,6,14,6.1,14
						c0.3,0,0.4-0.1,0.6-0.3l0.8-0.8c-1.8-3,0.8-5.2,0.8-5.2l0.3-0.3l4.9-4.1C13.9,3.2,14,2.9,14,2.6V0.9C14,0.3,13.6,0,13.1,0z"/>
				</g>
			</g>
		</g>
	</g>
</g>
<g id="Layer_2">
	<g>
		<line class="st0" x1="10.9" y1="8.3" x2="10.9" y2="13.5"/>
		<line class="st0" x1="8.3" y1="10.9" x2="13.5" y2="10.9"/>
	</g>
</g>
</svg>
