<svg width="14" height="14" viewBox="0 0 14 14" version="1.1" xmlns="http://www.w3.org/2000/svg" xmlns:xlink="http://www.w3.org/1999/xlink">
<g id="Canvas" fill="none">
<g id="filter">
<g id="Group">
<g id="Vector">
<path d="M 13.125 0L 0.875 0C 0.35 0 0 0.35 0 0.875L 0 2.625C 0 2.8875 0.0875 3.15 0.35 3.325L 5.25 7.4375L 5.25 13.125C 5.25 13.475 5.425 13.825 5.775 13.9125C 5.8625 14 6.0375 14 6.125 14C 6.3875 14 6.5625 13.9125 6.7375 13.7375L 8.4875 11.9875C 8.6625 11.8125 8.75 11.6375 8.75 11.375L 8.75 7.4375L 13.65 3.325C 13.9125 3.15 14 2.8875 14 2.625L 14 0.875C 14 0.35 13.65 0 13.125 0Z" fill="white"/>
</g>
</g>
</g>
</g>
</svg>

