<svg xmlns="http://www.w3.org/2000/svg" xmlns:xlink="http://www.w3.org/1999/xlink" width="100" height="100" viewBox="0 0 100 100"><g transform="translate(50 50) scale(-1 1) rotate(0) translate(-50 -50)" style="fill:#000000"><svg fill="#000000" xmlns="http://www.w3.org/2000/svg" xmlns:xlink="http://www.w3.org/1999/xlink" version="1.1" x="0px" y="0px" viewBox="0 0 100 100" enable-background="new 0 0 100 100" xml:space="preserve"><path fill-rule="evenodd" clip-rule="evenodd" d="M57.95,16.601c0.8,1.1,1.2,2.417,1.2,3.95s-0.4,2.833-1.2,3.899  c-0.733,1.233-1.733,1.851-3,1.851c-1.167,0-2.184-0.617-3.05-1.851c-0.7-1.1-1.051-2.399-1.051-3.899s0.351-2.816,1.051-3.95  c0.833-1.2,1.85-1.8,3.05-1.8C56.184,14.801,57.184,15.4,57.95,16.601z M63.9,20.4c1.133,0,2.066,0.566,2.8,1.7  c0.666,1,1,2.184,1,3.55c0,1.267-0.334,2.434-1,3.5c-0.767,1.1-1.7,1.65-2.8,1.65c-1.134,0-2.067-0.551-2.801-1.65  c-0.699-1.066-1.05-2.233-1.05-3.5c0-1.333,0.351-2.533,1.05-3.6C61.8,20.95,62.733,20.4,63.9,20.4z M67.45,33.65  c0-1.233,0.333-2.267,1-3.1c0.833-0.9,1.767-1.351,2.8-1.351c1,0,1.9,0.45,2.7,1.351c0.733,0.899,1.1,1.934,1.1,3.1  c0,1.033-0.333,1.983-1,2.85L74,36.601l-0.1,0.1c-0.768,0.834-1.65,1.25-2.65,1.25c-1.033,0-1.967-0.45-2.8-1.35l-0.15-0.3  C67.733,35.601,67.45,34.717,67.45,33.65z M62.95,35.101c6.467,6.467,9.7,13.95,9.7,22.45c0,1.6-0.617,4.35-1.851,8.25  c-1.467,4.399-3.2,8.55-5.2,12.449C59.833,89.417,53.566,95,46.8,95c-3.366,0-5.899-0.85-7.6-2.55  c-1.634-1.733-2.45-4.183-2.45-7.35c0-3.533,1.35-7.866,4.05-13c2.5-4.866,3.75-9.184,3.75-12.95c0-4.066-3.05-8.4-9.149-13  c-3.834-2.833-6.034-4.55-6.601-5.15c-1.866-1.732-2.95-3.399-3.25-5l-0.1-0.85c0-0.3,0.066-0.783,0.2-1.45  c0.666-4.866,4.616-7.25,11.85-7.149c10.733,0,18.7,2.366,23.9,7.1L62.95,35.101z M35.8,7.9c1.2,1.7,1.8,3.75,1.8,6.15  c0,2.434-0.6,4.533-1.8,6.3c-1.167,1.899-2.667,2.85-4.5,2.85c-1.866,0-3.417-0.95-4.649-2.85v-0.05  c-1.134-1.733-1.7-3.816-1.7-6.25c0-2.367,0.566-4.417,1.7-6.15C27.883,5.967,29.434,5,31.3,5C33.167,5,34.667,5.967,35.8,7.9z   M47.75,21.45c-0.867,1.367-1.934,2.05-3.2,2.05c-1.399,0-2.533-0.699-3.399-2.1c-0.801-1.166-1.2-2.6-1.2-4.3  c0-1.566,0.399-2.967,1.2-4.2c0.866-1.366,2-2.05,3.399-2.05c1.3,0,2.367,0.684,3.2,2.05c0.8,1.2,1.2,2.6,1.2,4.2  C48.95,18.834,48.55,20.284,47.75,21.45z"></path></svg></g></svg>
