<svg width="17" height="16" viewBox="0 0 17 16" version="1.1" xmlns="http://www.w3.org/2000/svg" xmlns:xlink="http://www.w3.org/1999/xlink">
<title>woman-man</title>
<desc>Created using Figma</desc>
<g id="Canvas" transform="translate(-1344 -1418)">
<g id="woman-man">
<g id="Group">
<g id="Vector">
<use xlink:href="#path0_stroke" transform="translate(1345 1421)" fill="#333333"/>
</g>
<g id="Vector">
<use xlink:href="#path1_stroke" transform="translate(1349 1429)" fill="#333333"/>
</g>
<g id="Vector">
<use xlink:href="#path2_stroke" transform="translate(1347.67 1431.67)" fill="#333333"/>
</g>
<g id="Vector">
<use xlink:href="#path3_stroke" transform="translate(1356.47 1419)" fill="#333333"/>
</g>
<g id="Vector">
<use xlink:href="#path0_stroke" transform="translate(1349.67 1421)" fill="#333333"/>
</g>
<g id="Vector">
<use xlink:href="#path4_stroke" transform="translate(1357 1419)" fill="#333333"/>
</g>
</g>
</g>
</g>
<defs>
<path id="path0_stroke" d="M 7.5 4C 7.5 5.933 5.933 7.5 4 7.5L 4 8.5C 6.48528 8.5 8.5 6.48528 8.5 4L 7.5 4ZM 4 7.5C 2.067 7.5 0.5 5.933 0.5 4L -0.5 4C -0.5 6.48528 1.51472 8.5 4 8.5L 4 7.5ZM 0.5 4C 0.5 2.067 2.067 0.5 4 0.5L 4 -0.5C 1.51472 -0.5 -0.5 1.51472 -0.5 4L 0.5 4ZM 4 0.5C 5.933 0.5 7.5 2.067 7.5 4L 8.5 4C 8.5 1.51472 6.48528 -0.5 4 -0.5L 4 0.5Z"/>
<path id="path1_stroke" d="M 0.5 0L 0.5 -0.5L -0.5 -0.5L -0.5 0L 0.5 0ZM -0.5 4L -0.5 4.5L 0.5 4.5L 0.5 4L -0.5 4ZM -0.5 0L -0.5 4L 0.5 4L 0.5 0L -0.5 0Z"/>
<path id="path2_stroke" d="M 0 -0.5L -0.5 -0.5L -0.5 0.5L 0 0.5L 0 -0.5ZM 2.66667 0.5L 3.16667 0.5L 3.16667 -0.5L 2.66667 -0.5L 2.66667 0.5ZM 0 0.5L 2.66667 0.5L 2.66667 -0.5L 0 -0.5L 0 0.5Z"/>
<path id="path3_stroke" d="M 0.353554 3.55355L 3.55355 0.353553L 2.84645 -0.353553L -0.353553 2.84645L 0.353554 3.55355Z"/>
<path id="path4_stroke" d="M 0 -0.5L -0.5 -0.5L -0.5 0.5L 0 0.5L 0 -0.5ZM 2.66667 0L 3.16667 0L 3.16667 -0.5L 2.66667 -0.5L 2.66667 0ZM 2.16667 2.66667L 2.16667 3.16667L 3.16667 3.16667L 3.16667 2.66667L 2.16667 2.66667ZM 0 0.5L 2.66667 0.5L 2.66667 -0.5L 0 -0.5L 0 0.5ZM 2.16667 0L 2.16667 2.66667L 3.16667 2.66667L 3.16667 0L 2.16667 0Z"/>
</defs>
</svg>
