<svg height='100px' width='100px'  fill="#000000" xmlns:dc="http://purl.org/dc/elements/1.1/" xmlns:cc="http://creativecommons.org/ns#" xmlns:rdf="http://www.w3.org/1999/02/22-rdf-syntax-ns#" xmlns:svg="http://www.w3.org/2000/svg" xmlns="http://www.w3.org/2000/svg" xmlns:sodipodi="http://sodipodi.sourceforge.net/DTD/sodipodi-0.dtd" xmlns:inkscape="http://www.inkscape.org/namespaces/inkscape" version="1.1" x="0px" y="0px" viewBox="0 0 100 100"><g transform="translate(0,-952.36218)"><path d="m 49.984132,957.36221 c -24.82036,0 -44.9841297,20.17796 -44.9841297,45.01559 0,24.8377 20.1637697,44.9844 44.9841297,44.9844 24.82037,0 45.01537,-20.1467 45.01537,-44.9844 0.11573,-25.03333 -20.0656,-45.03329 -45.01537,-45.01559 z m 0,3.9702 c 2.3428,0 4.6382,0.2163 6.87258,0.5939 -1.28018,1.2678 -2.43239,2.6664 -3.53001,4.31396 -0.40649,0.5982 -0.45183,1.423 -0.11331,2.0622 0.33851,0.6391 1.04611,1.0647 1.76898,1.0639 2.9669,0 4.22219,0.64 4.68585,1.1254 1.07366,2.0776 0.006,4.4042 -0.5623,6.471 -0.47114,1.6618 -0.59257,3.7058 0.46858,4.8141 0.78927,0.7899 1.79155,0.8994 2.53036,0.8441 -0.50891,0.3971 -0.93256,0.6949 -1.53071,1.1879 -2.23881,1.845 -4.92746,4.4205 -5.56054,8.2215 -0.0602,2.5677 0.007,5.586 1.21837,7.5026 1.15062,1.75033 3.01781,2.51563 4.65461,2.81363 3.15573,0.574 5.93444,0.3302 7.62231,1.5005 1.52185,2.0187 2.55041,5.3847 3.53,8.8155 1.00656,3.5254 1.896,7.175 4.74833,9.3158 1.07816,0.8025 2.89573,0.1 3.15514,-1.2192 0.42944,-2.1488 1.16725,-3.2455 2.2492,-4.6891 3.00443,-3.5859 4.04655,-7.7022 6.84129,-11.504 0.59458,-0.7957 1.24064,-1.4597 1.93682,-2.0007 -0.10051,22.5888 -18.38861,40.8266 -40.98555,40.8266 -22.65937,0 -40.9855397,-18.3388 -40.9855397,-41.0142 0,-2.92333 0.32719,-5.75233 0.90593,-8.50293 2.0820797,1.3063 2.6686697,4.0396 3.1551397,5.9708 0.0874,0.35323 0.27327,0.68133 0.53106,0.93783 4.7155,4.7189 6.40399,9.0413 6.40399,14.5988 0.001,0.4643 0.17018,0.9262 0.46859,1.2817 2.69495,3.2362 5.90867,5.7084 8.34081,8.7218 2.43213,3.0133 4.18602,6.4466 4.18602,12.0041 0.0104,0.8273 0.58915,1.6172 1.37451,1.8757 l 2.99895,1.0003 c 0.89894,0.2937 1.97922,-0.1556 2.4054,-1.0003 0.93249,-8.1832 4.59914,-12.8665 9.02806,-17.5061 2.64995,-2.778 5.18567,-5.8437 5.18567,-11.3789 3.8e-4,-0.8794 -0.64864,-1.7183 -1.49947,-1.9382 -3.23796,-0.8101 -6.15732,-3.8802 -10.30886,-6.0958 -3.84271,-2.051 -9.00515,-2.66083 -15.61949,0.5939 -0.69761,-0.8917 -0.56182,-2.4331 -0.5623,-3.56373 0.0111,-0.6605 -0.32893,-1.3167 -0.87469,-1.6881 -1.30959,-0.8737 -2.16644,-1.6475 -2.68656,-2.4071 0.88982,0.2561 1.93046,-0.2021 2.34293,-1.0316 2.22492,-4.4529 6.36992,-7.4963 10.52753,-10.066 4.15761,-2.5697 8.33838,-4.3411 10.40258,-7.784 0.85387,-2.8307 0.0671,-6.1639 -0.87469,-8.4403 -0.81972,-1.9483 -1.9327,-3.87136 -3.06142,-5.78326 2.6508,-0.5393 5.4045,-0.844 8.21585,-0.844 z" style="text-indent:0;text-transform:none;direction:ltr;block-progression:tb;baseline-shift:baseline;color:#000000;enable-background:accumulate;" fill="#000000" fill-opacity="1" stroke="none" marker="none" visibility="visible" display="inline" overflow="visible"></path></g></svg>