<?xml version="1.0" encoding="UTF-8" standalone="no"?>
<!DOCTYPE svg PUBLIC "-//W3C//DTD SVG 1.1//EN" "http://www.w3.org/Graphics/SVG/1.1/DTD/svg11.dtd">
<svg width="16" height="15" viewBox="0 0 16 15" version="1.1" xmlns="http://www.w3.org/2000/svg" xmlns:xlink="http://www.w3.org/1999/xlink" xml:space="preserve" xmlns:serif="http://www.serif.com/" style="fill-rule:evenodd;clip-rule:evenodd;stroke-linecap:square;stroke-miterlimit:1.5;">
    <g>
        <g transform="matrix(1,0,0,1,0,1)">
            <path d="M10.928,7.36L9.788,5.516" style="fill:none;stroke:rgb(51,51,51);stroke-width:1.87px;"/>
        </g>
        <g transform="matrix(1,0,0,1,0,1)">
            <path d="M5.036,7.321L6.212,5.516" style="fill:none;stroke:rgb(51,51,51);stroke-width:1.87px;"/>
        </g>
    </g>
    <g transform="matrix(-1.82883e-16,0.995568,-0.995568,-1.82883e-16,16.4456,-2.29691)">
        <circle cx="13.855" cy="3.967" r="3.519" style="fill:white;"/>
        <path d="M10.337,3.876L10.34,3.786L10.346,3.696L10.354,3.607L10.364,3.519L10.376,3.431L10.391,3.344L10.407,3.258L10.426,3.172L10.447,3.088L10.47,3.004L10.494,2.921L10.521,2.838L10.55,2.757L10.58,2.677L10.613,2.597L10.647,2.519L10.683,2.441L10.721,2.365L10.761,2.29L10.802,2.216L10.846,2.142L10.891,2.07L10.937,2L10.986,1.93L11.035,1.862L11.087,1.795L11.14,1.729L11.194,1.664L11.251,1.601L11.308,1.539L11.367,1.479L11.428,1.42L11.489,1.362L11.553,1.306L11.617,1.252L11.683,1.198L11.75,1.147L11.818,1.097L11.888,1.049L11.959,1.002L12.031,0.957L12.104,0.914L12.178,0.873L12.253,0.833L12.33,0.795L12.407,0.759L12.486,0.724L12.565,0.692L12.645,0.661L12.727,0.633L12.809,0.606L12.892,0.581L12.976,0.558L13.061,0.538L13.146,0.519L13.232,0.503L13.319,0.488L13.407,0.476L13.495,0.466L13.584,0.458L13.674,0.452L13.764,0.449L13.855,0.448L13.946,0.449L14.036,0.452L14.126,0.458L14.214,0.466L14.303,0.476L14.391,0.488L14.477,0.503L14.564,0.519L14.649,0.538L14.734,0.558L14.818,0.581L14.901,0.606L14.983,0.633L15.064,0.661L15.145,0.692L15.224,0.724L15.303,0.759L15.38,0.795L15.456,0.833L15.532,0.873L15.606,0.914L15.679,0.957L15.751,1.002L15.822,1.049L15.891,1.097L15.96,1.147L16.027,1.198L16.093,1.252L16.157,1.306L16.22,1.362L16.282,1.42L16.343,1.479L16.402,1.539L16.459,1.601L16.515,1.664L16.57,1.729L16.623,1.795L16.674,1.862L16.724,1.93L16.773,2L16.819,2.07L16.864,2.142L16.907,2.216L16.949,2.29L16.989,2.365L17.027,2.441L17.063,2.519L17.097,2.597L17.13,2.677L17.16,2.757L17.189,2.838L17.216,2.921L17.24,3.004L17.263,3.088L17.284,3.172L17.302,3.258L17.319,3.344L17.333,3.431L17.346,3.519L17.356,3.607L17.364,3.696L17.369,3.786L17.373,3.876L17.374,3.967L17.373,4.057L17.369,4.148L17.364,4.237L17.356,4.326L17.346,4.414L17.333,4.502L17.319,4.589L17.302,4.675L17.284,4.761L17.263,4.846L17.24,4.929L17.216,5.012L17.189,5.095L17.16,5.176L17.13,5.256L17.097,5.336L17.063,5.414L17.027,5.492L16.989,5.568L16.949,5.643L16.907,5.718L16.864,5.791L16.819,5.863L16.773,5.933L16.724,6.003L16.674,6.071L16.623,6.139L16.57,6.204L16.515,6.269L16.459,6.332L16.402,6.394L16.343,6.454L16.282,6.513L16.22,6.571L16.157,6.627L16.093,6.682L16.027,6.735L15.96,6.786L15.891,6.836L15.822,6.884L15.751,6.931L15.679,6.976L15.606,7.019L15.532,7.061L15.456,7.1L15.38,7.138L15.303,7.174L15.224,7.209L15.145,7.241L15.064,7.272L14.983,7.301L14.901,7.327L14.818,7.352L14.734,7.375L14.649,7.395L14.564,7.414L14.477,7.431L14.391,7.445L14.303,7.457L14.214,7.467L14.126,7.475L14.036,7.481L13.946,7.484L13.855,7.486L13.764,7.484L13.674,7.481L13.584,7.475L13.495,7.467L13.407,7.457L13.319,7.445L13.232,7.431L13.146,7.414L13.061,7.395L12.976,7.375L12.892,7.352L12.809,7.327L12.727,7.301L12.645,7.272L12.565,7.241L12.486,7.209L12.407,7.174L12.33,7.138L12.253,7.1L12.178,7.061L12.104,7.019L12.031,6.976L11.959,6.931L11.888,6.884L11.818,6.836L11.75,6.786L11.683,6.735L11.617,6.682L11.553,6.627L11.489,6.571L11.428,6.513L11.367,6.454L11.308,6.394L11.251,6.332L11.194,6.269L11.14,6.204L11.087,6.139L11.035,6.071L10.986,6.003L10.937,5.933L10.891,5.863L10.846,5.791L10.802,5.718L10.761,5.643L10.721,5.568L10.683,5.492L10.647,5.414L10.613,5.336L10.58,5.256L10.55,5.176L10.521,5.095L10.494,5.012L10.47,4.929L10.447,4.846L10.426,4.761L10.407,4.675L10.391,4.589L10.376,4.502L10.364,4.414L10.354,4.326L10.346,4.237L10.34,4.148L10.337,4.057L10.336,3.967L10.337,3.876ZM11.207,4.035L11.21,4.103L11.214,4.171L11.22,4.238L11.228,4.305L11.237,4.371L11.248,4.436L11.26,4.501L11.274,4.565L11.29,4.628L11.307,4.691L11.325,4.754L11.346,4.815L11.367,4.876L11.39,4.937L11.414,4.996L11.44,5.055L11.467,5.114L11.496,5.171L11.526,5.228L11.557,5.283L11.59,5.338L11.623,5.393L11.659,5.446L11.695,5.498L11.733,5.55L11.771,5.601L11.811,5.65L11.852,5.699L11.895,5.747L11.938,5.793L11.983,5.839L12.028,5.883L12.075,5.927L12.123,5.969L12.171,6.01L12.221,6.05L12.271,6.089L12.323,6.127L12.375,6.163L12.429,6.198L12.483,6.232L12.538,6.264L12.594,6.296L12.651,6.326L12.708,6.354L12.766,6.381L12.825,6.407L12.885,6.431L12.945,6.454L13.006,6.476L13.068,6.496L13.13,6.515L13.193,6.532L13.257,6.547L13.321,6.561L13.386,6.574L13.451,6.584L13.517,6.594L13.583,6.601L13.65,6.607L13.718,6.611L13.786,6.614L13.855,6.615L13.924,6.614L13.992,6.611L14.059,6.607L14.126,6.601L14.193,6.594L14.259,6.584L14.324,6.574L14.389,6.561L14.453,6.547L14.517,6.532L14.58,6.515L14.642,6.496L14.704,6.476L14.765,6.454L14.825,6.431L14.885,6.407L14.944,6.381L15.002,6.354L15.059,6.326L15.116,6.296L15.172,6.264L15.227,6.232L15.281,6.198L15.334,6.163L15.387,6.127L15.438,6.089L15.489,6.05L15.539,6.01L15.587,5.969L15.635,5.927L15.682,5.883L15.727,5.839L15.772,5.793L15.815,5.747L15.857,5.699L15.899,5.65L15.939,5.601L15.977,5.55L16.015,5.498L16.051,5.446L16.086,5.393L16.12,5.338L16.153,5.283L16.184,5.228L16.214,5.171L16.242,5.114L16.27,5.055L16.295,4.996L16.32,4.937L16.343,4.876L16.364,4.815L16.384,4.754L16.403,4.691L16.42,4.628L16.435,4.565L16.449,4.501L16.462,4.436L16.473,4.371L16.482,4.305L16.49,4.238L16.496,4.171L16.5,4.103L16.502,4.035L16.503,3.967L16.502,3.898L16.5,3.83L16.496,3.762L16.49,3.695L16.482,3.629L16.473,3.563L16.462,3.497L16.449,3.432L16.435,3.368L16.42,3.305L16.403,3.242L16.384,3.179L16.364,3.118L16.343,3.057L16.32,2.996L16.295,2.937L16.27,2.878L16.242,2.82L16.214,2.762L16.184,2.705L16.153,2.65L16.12,2.595L16.086,2.54L16.051,2.487L16.015,2.435L15.977,2.383L15.939,2.333L15.899,2.283L15.857,2.234L15.815,2.187L15.772,2.14L15.727,2.094L15.682,2.05L15.635,2.006L15.587,1.964L15.539,1.923L15.489,1.883L15.438,1.844L15.387,1.807L15.334,1.77L15.281,1.735L15.227,1.701L15.172,1.669L15.116,1.637L15.059,1.608L15.002,1.579L14.944,1.552L14.885,1.526L14.825,1.502L14.765,1.479L14.704,1.457L14.642,1.437L14.58,1.419L14.517,1.401L14.453,1.386L14.389,1.372L14.324,1.36L14.259,1.349L14.193,1.339L14.126,1.332L14.059,1.326L13.992,1.322L13.924,1.319L13.855,1.318L13.786,1.319L13.718,1.322L13.65,1.326L13.583,1.332L13.517,1.339L13.451,1.349L13.386,1.36L13.321,1.372L13.257,1.386L13.193,1.401L13.13,1.419L13.068,1.437L13.006,1.457L12.945,1.479L12.885,1.502L12.825,1.526L12.766,1.552L12.708,1.579L12.651,1.608L12.594,1.637L12.538,1.669L12.483,1.701L12.429,1.735L12.375,1.77L12.323,1.807L12.271,1.844L12.221,1.883L12.171,1.923L12.123,1.964L12.075,2.006L12.028,2.05L11.983,2.094L11.938,2.14L11.895,2.187L11.852,2.234L11.811,2.283L11.771,2.333L11.733,2.383L11.695,2.435L11.659,2.487L11.623,2.54L11.59,2.595L11.557,2.65L11.526,2.705L11.496,2.762L11.467,2.82L11.44,2.878L11.414,2.937L11.39,2.996L11.367,3.057L11.346,3.118L11.325,3.179L11.307,3.242L11.29,3.305L11.274,3.368L11.26,3.432L11.248,3.497L11.237,3.563L11.228,3.629L11.22,3.695L11.214,3.762L11.21,3.83L11.207,3.898L11.207,3.967L11.207,4.035Z" style="fill:rgb(51,51,51);"/>
    </g>
    <g transform="matrix(-1.82883e-16,0.995568,-0.995568,-1.82883e-16,7.45236,-2.32142)">
        <circle cx="13.855" cy="3.967" r="3.519" style="fill:white;"/>
        <path d="M10.337,3.876L10.34,3.786L10.346,3.696L10.354,3.607L10.364,3.519L10.376,3.431L10.391,3.344L10.407,3.258L10.426,3.172L10.447,3.088L10.47,3.004L10.494,2.921L10.521,2.838L10.55,2.757L10.58,2.677L10.613,2.597L10.647,2.519L10.683,2.441L10.721,2.365L10.761,2.29L10.802,2.216L10.846,2.142L10.891,2.07L10.937,2L10.986,1.93L11.035,1.862L11.087,1.795L11.14,1.729L11.194,1.664L11.251,1.601L11.308,1.539L11.367,1.479L11.428,1.42L11.489,1.362L11.553,1.306L11.617,1.252L11.683,1.198L11.75,1.147L11.818,1.097L11.888,1.049L11.959,1.002L12.031,0.957L12.104,0.914L12.178,0.873L12.253,0.833L12.33,0.795L12.407,0.759L12.486,0.724L12.565,0.692L12.645,0.661L12.727,0.633L12.809,0.606L12.892,0.581L12.976,0.558L13.061,0.538L13.146,0.519L13.232,0.503L13.319,0.488L13.407,0.476L13.495,0.466L13.584,0.458L13.674,0.452L13.764,0.449L13.855,0.448L13.946,0.449L14.036,0.452L14.126,0.458L14.214,0.466L14.303,0.476L14.391,0.488L14.477,0.503L14.564,0.519L14.649,0.538L14.734,0.558L14.818,0.581L14.901,0.606L14.983,0.633L15.064,0.661L15.145,0.692L15.224,0.724L15.303,0.759L15.38,0.795L15.456,0.833L15.532,0.873L15.606,0.914L15.679,0.957L15.751,1.002L15.822,1.049L15.891,1.097L15.96,1.147L16.027,1.198L16.093,1.252L16.157,1.306L16.22,1.362L16.282,1.42L16.343,1.479L16.402,1.539L16.459,1.601L16.515,1.664L16.57,1.729L16.623,1.795L16.674,1.862L16.724,1.93L16.773,2L16.819,2.07L16.864,2.142L16.907,2.216L16.949,2.29L16.989,2.365L17.027,2.441L17.063,2.519L17.097,2.597L17.13,2.677L17.16,2.757L17.189,2.838L17.216,2.921L17.24,3.004L17.263,3.088L17.284,3.172L17.302,3.258L17.319,3.344L17.333,3.431L17.346,3.519L17.356,3.607L17.364,3.696L17.369,3.786L17.373,3.876L17.374,3.967L17.373,4.057L17.369,4.148L17.364,4.237L17.356,4.326L17.346,4.414L17.333,4.502L17.319,4.589L17.302,4.675L17.284,4.761L17.263,4.846L17.24,4.929L17.216,5.012L17.189,5.095L17.16,5.176L17.13,5.256L17.097,5.336L17.063,5.414L17.027,5.492L16.989,5.568L16.949,5.643L16.907,5.718L16.864,5.791L16.819,5.863L16.773,5.933L16.724,6.003L16.674,6.071L16.623,6.139L16.57,6.204L16.515,6.269L16.459,6.332L16.402,6.394L16.343,6.454L16.282,6.513L16.22,6.571L16.157,6.627L16.093,6.682L16.027,6.735L15.96,6.786L15.891,6.836L15.822,6.884L15.751,6.931L15.679,6.976L15.606,7.019L15.532,7.061L15.456,7.1L15.38,7.138L15.303,7.174L15.224,7.209L15.145,7.241L15.064,7.272L14.983,7.301L14.901,7.327L14.818,7.352L14.734,7.375L14.649,7.395L14.564,7.414L14.477,7.431L14.391,7.445L14.303,7.457L14.214,7.467L14.126,7.475L14.036,7.481L13.946,7.484L13.855,7.486L13.764,7.484L13.674,7.481L13.584,7.475L13.495,7.467L13.407,7.457L13.319,7.445L13.232,7.431L13.146,7.414L13.061,7.395L12.976,7.375L12.892,7.352L12.809,7.327L12.727,7.301L12.645,7.272L12.565,7.241L12.486,7.209L12.407,7.174L12.33,7.138L12.253,7.1L12.178,7.061L12.104,7.019L12.031,6.976L11.959,6.931L11.888,6.884L11.818,6.836L11.75,6.786L11.683,6.735L11.617,6.682L11.553,6.627L11.489,6.571L11.428,6.513L11.367,6.454L11.308,6.394L11.251,6.332L11.194,6.269L11.14,6.204L11.087,6.139L11.035,6.071L10.986,6.003L10.937,5.933L10.891,5.863L10.846,5.791L10.802,5.718L10.761,5.643L10.721,5.568L10.683,5.492L10.647,5.414L10.613,5.336L10.58,5.256L10.55,5.176L10.521,5.095L10.494,5.012L10.47,4.929L10.447,4.846L10.426,4.761L10.407,4.675L10.391,4.589L10.376,4.502L10.364,4.414L10.354,4.326L10.346,4.237L10.34,4.148L10.337,4.057L10.336,3.967L10.337,3.876ZM11.207,4.035L11.21,4.103L11.214,4.171L11.22,4.238L11.228,4.305L11.237,4.371L11.248,4.436L11.26,4.501L11.274,4.565L11.29,4.628L11.307,4.691L11.325,4.754L11.346,4.815L11.367,4.876L11.39,4.937L11.414,4.996L11.44,5.055L11.467,5.114L11.496,5.171L11.526,5.228L11.557,5.283L11.59,5.338L11.623,5.393L11.659,5.446L11.695,5.498L11.733,5.55L11.771,5.601L11.811,5.65L11.852,5.699L11.895,5.747L11.938,5.793L11.983,5.839L12.028,5.883L12.075,5.927L12.123,5.969L12.171,6.01L12.221,6.05L12.271,6.089L12.323,6.127L12.375,6.163L12.429,6.198L12.483,6.232L12.538,6.264L12.594,6.296L12.651,6.326L12.708,6.354L12.766,6.381L12.825,6.407L12.885,6.431L12.945,6.454L13.006,6.476L13.068,6.496L13.13,6.515L13.193,6.532L13.257,6.547L13.321,6.561L13.386,6.574L13.451,6.584L13.517,6.594L13.583,6.601L13.65,6.607L13.718,6.611L13.786,6.614L13.855,6.615L13.924,6.614L13.992,6.611L14.059,6.607L14.126,6.601L14.193,6.594L14.259,6.584L14.324,6.574L14.389,6.561L14.453,6.547L14.517,6.532L14.58,6.515L14.642,6.496L14.704,6.476L14.765,6.454L14.825,6.431L14.885,6.407L14.944,6.381L15.002,6.354L15.059,6.326L15.116,6.296L15.172,6.264L15.227,6.232L15.281,6.198L15.334,6.163L15.387,6.127L15.438,6.089L15.489,6.05L15.539,6.01L15.587,5.969L15.635,5.927L15.682,5.883L15.727,5.839L15.772,5.793L15.815,5.747L15.857,5.699L15.899,5.65L15.939,5.601L15.977,5.55L16.015,5.498L16.051,5.446L16.086,5.393L16.12,5.338L16.153,5.283L16.184,5.228L16.214,5.171L16.242,5.114L16.27,5.055L16.295,4.996L16.32,4.937L16.343,4.876L16.364,4.815L16.384,4.754L16.403,4.691L16.42,4.628L16.435,4.565L16.449,4.501L16.462,4.436L16.473,4.371L16.482,4.305L16.49,4.238L16.496,4.171L16.5,4.103L16.502,4.035L16.503,3.967L16.502,3.898L16.5,3.83L16.496,3.762L16.49,3.695L16.482,3.629L16.473,3.563L16.462,3.497L16.449,3.432L16.435,3.368L16.42,3.305L16.403,3.242L16.384,3.179L16.364,3.118L16.343,3.057L16.32,2.996L16.295,2.937L16.27,2.878L16.242,2.82L16.214,2.762L16.184,2.705L16.153,2.65L16.12,2.595L16.086,2.54L16.051,2.487L16.015,2.435L15.977,2.383L15.939,2.333L15.899,2.283L15.857,2.234L15.815,2.187L15.772,2.14L15.727,2.094L15.682,2.05L15.635,2.006L15.587,1.964L15.539,1.923L15.489,1.883L15.438,1.844L15.387,1.807L15.334,1.77L15.281,1.735L15.227,1.701L15.172,1.669L15.116,1.637L15.059,1.608L15.002,1.579L14.944,1.552L14.885,1.526L14.825,1.502L14.765,1.479L14.704,1.457L14.642,1.437L14.58,1.419L14.517,1.401L14.453,1.386L14.389,1.372L14.324,1.36L14.259,1.349L14.193,1.339L14.126,1.332L14.059,1.326L13.992,1.322L13.924,1.319L13.855,1.318L13.786,1.319L13.718,1.322L13.65,1.326L13.583,1.332L13.517,1.339L13.451,1.349L13.386,1.36L13.321,1.372L13.257,1.386L13.193,1.401L13.13,1.419L13.068,1.437L13.006,1.457L12.945,1.479L12.885,1.502L12.825,1.526L12.766,1.552L12.708,1.579L12.651,1.608L12.594,1.637L12.538,1.669L12.483,1.701L12.429,1.735L12.375,1.77L12.323,1.807L12.271,1.844L12.221,1.883L12.171,1.923L12.123,1.964L12.075,2.006L12.028,2.05L11.983,2.094L11.938,2.14L11.895,2.187L11.852,2.234L11.811,2.283L11.771,2.333L11.733,2.383L11.695,2.435L11.659,2.487L11.623,2.54L11.59,2.595L11.557,2.65L11.526,2.705L11.496,2.762L11.467,2.82L11.44,2.878L11.414,2.937L11.39,2.996L11.367,3.057L11.346,3.118L11.325,3.179L11.307,3.242L11.29,3.305L11.274,3.368L11.26,3.432L11.248,3.497L11.237,3.563L11.228,3.629L11.22,3.695L11.214,3.762L11.21,3.83L11.207,3.898L11.207,3.967L11.207,4.035Z" style="fill:rgb(51,51,51);"/>
    </g>
    <g transform="matrix(-1.82883e-16,0.995568,-0.995568,-1.82883e-16,11.949,-10.2901)">
        <circle cx="13.855" cy="3.967" r="3.519" style="fill:white;"/>
        <path d="M10.337,3.876L10.34,3.786L10.346,3.696L10.354,3.607L10.364,3.519L10.376,3.431L10.391,3.344L10.407,3.258L10.426,3.172L10.447,3.088L10.47,3.004L10.494,2.921L10.521,2.838L10.55,2.757L10.58,2.677L10.613,2.597L10.647,2.519L10.683,2.441L10.721,2.365L10.761,2.29L10.802,2.216L10.846,2.142L10.891,2.07L10.937,2L10.986,1.93L11.035,1.862L11.087,1.795L11.14,1.729L11.194,1.664L11.251,1.601L11.308,1.539L11.367,1.479L11.428,1.42L11.489,1.362L11.553,1.306L11.617,1.252L11.683,1.198L11.75,1.147L11.818,1.097L11.888,1.049L11.959,1.002L12.031,0.957L12.104,0.914L12.178,0.873L12.253,0.833L12.33,0.795L12.407,0.759L12.486,0.724L12.565,0.692L12.645,0.661L12.727,0.633L12.809,0.606L12.892,0.581L12.976,0.558L13.061,0.538L13.146,0.519L13.232,0.503L13.319,0.488L13.407,0.476L13.495,0.466L13.584,0.458L13.674,0.452L13.764,0.449L13.855,0.448L13.946,0.449L14.036,0.452L14.126,0.458L14.214,0.466L14.303,0.476L14.391,0.488L14.477,0.503L14.564,0.519L14.649,0.538L14.734,0.558L14.818,0.581L14.901,0.606L14.983,0.633L15.064,0.661L15.145,0.692L15.224,0.724L15.303,0.759L15.38,0.795L15.456,0.833L15.532,0.873L15.606,0.914L15.679,0.957L15.751,1.002L15.822,1.049L15.891,1.097L15.96,1.147L16.027,1.198L16.093,1.252L16.157,1.306L16.22,1.362L16.282,1.42L16.343,1.479L16.402,1.539L16.459,1.601L16.515,1.664L16.57,1.729L16.623,1.795L16.674,1.862L16.724,1.93L16.773,2L16.819,2.07L16.864,2.142L16.907,2.216L16.949,2.29L16.989,2.365L17.027,2.441L17.063,2.519L17.097,2.597L17.13,2.677L17.16,2.757L17.189,2.838L17.216,2.921L17.24,3.004L17.263,3.088L17.284,3.172L17.302,3.258L17.319,3.344L17.333,3.431L17.346,3.519L17.356,3.607L17.364,3.696L17.369,3.786L17.373,3.876L17.374,3.967L17.373,4.057L17.369,4.148L17.364,4.237L17.356,4.326L17.346,4.414L17.333,4.502L17.319,4.589L17.302,4.675L17.284,4.761L17.263,4.846L17.24,4.929L17.216,5.012L17.189,5.095L17.16,5.176L17.13,5.256L17.097,5.336L17.063,5.414L17.027,5.492L16.989,5.568L16.949,5.643L16.907,5.718L16.864,5.791L16.819,5.863L16.773,5.933L16.724,6.003L16.674,6.071L16.623,6.139L16.57,6.204L16.515,6.269L16.459,6.332L16.402,6.394L16.343,6.454L16.282,6.513L16.22,6.571L16.157,6.627L16.093,6.682L16.027,6.735L15.96,6.786L15.891,6.836L15.822,6.884L15.751,6.931L15.679,6.976L15.606,7.019L15.532,7.061L15.456,7.1L15.38,7.138L15.303,7.174L15.224,7.209L15.145,7.241L15.064,7.272L14.983,7.301L14.901,7.327L14.818,7.352L14.734,7.375L14.649,7.395L14.564,7.414L14.477,7.431L14.391,7.445L14.303,7.457L14.214,7.467L14.126,7.475L14.036,7.481L13.946,7.484L13.855,7.486L13.764,7.484L13.674,7.481L13.584,7.475L13.495,7.467L13.407,7.457L13.319,7.445L13.232,7.431L13.146,7.414L13.061,7.395L12.976,7.375L12.892,7.352L12.809,7.327L12.727,7.301L12.645,7.272L12.565,7.241L12.486,7.209L12.407,7.174L12.33,7.138L12.253,7.1L12.178,7.061L12.104,7.019L12.031,6.976L11.959,6.931L11.888,6.884L11.818,6.836L11.75,6.786L11.683,6.735L11.617,6.682L11.553,6.627L11.489,6.571L11.428,6.513L11.367,6.454L11.308,6.394L11.251,6.332L11.194,6.269L11.14,6.204L11.087,6.139L11.035,6.071L10.986,6.003L10.937,5.933L10.891,5.863L10.846,5.791L10.802,5.718L10.761,5.643L10.721,5.568L10.683,5.492L10.647,5.414L10.613,5.336L10.58,5.256L10.55,5.176L10.521,5.095L10.494,5.012L10.47,4.929L10.447,4.846L10.426,4.761L10.407,4.675L10.391,4.589L10.376,4.502L10.364,4.414L10.354,4.326L10.346,4.237L10.34,4.148L10.337,4.057L10.336,3.967L10.337,3.876ZM12.345,4.006L12.347,4.046L12.349,4.085L12.353,4.123L12.357,4.161L12.362,4.198L12.369,4.235L12.376,4.272L12.384,4.309L12.392,4.345L12.402,4.38L12.412,4.415L12.424,4.45L12.436,4.485L12.449,4.519L12.463,4.553L12.477,4.586L12.493,4.619L12.509,4.652L12.526,4.684L12.544,4.716L12.562,4.747L12.582,4.778L12.602,4.809L12.623,4.839L12.644,4.868L12.666,4.897L12.689,4.926L12.713,4.953L12.737,4.981L12.762,5.008L12.788,5.034L12.814,5.059L12.841,5.084L12.868,5.109L12.896,5.132L12.924,5.155L12.953,5.177L12.983,5.199L13.013,5.22L13.043,5.24L13.074,5.259L13.106,5.278L13.138,5.295L13.17,5.312L13.202,5.329L13.235,5.344L13.269,5.359L13.303,5.372L13.337,5.385L13.371,5.398L13.406,5.409L13.441,5.419L13.477,5.429L13.513,5.438L13.549,5.446L13.586,5.453L13.623,5.459L13.661,5.464L13.699,5.469L13.737,5.472L13.776,5.474L13.815,5.476L13.855,5.476L13.895,5.476L13.934,5.474L13.973,5.472L14.011,5.469L14.049,5.464L14.087,5.459L14.124,5.453L14.161,5.446L14.197,5.438L14.233,5.429L14.268,5.419L14.304,5.409L14.339,5.398L14.373,5.385L14.407,5.372L14.441,5.359L14.474,5.344L14.507,5.329L14.54,5.312L14.572,5.295L14.604,5.278L14.636,5.259L14.666,5.24L14.697,5.22L14.727,5.199L14.756,5.177L14.785,5.155L14.814,5.132L14.842,5.109L14.869,5.084L14.896,5.059L14.922,5.034L14.948,5.008L14.973,4.981L14.997,4.953L15.021,4.926L15.043,4.897L15.066,4.868L15.087,4.839L15.108,4.809L15.128,4.778L15.147,4.747L15.166,4.716L15.184,4.684L15.201,4.652L15.217,4.619L15.232,4.586L15.247,4.553L15.261,4.519L15.274,4.485L15.286,4.45L15.297,4.415L15.308,4.38L15.317,4.345L15.326,4.309L15.334,4.272L15.341,4.235L15.347,4.198L15.353,4.161L15.357,4.123L15.36,4.085L15.363,4.046L15.364,4.006L15.365,3.967L15.364,3.927L15.363,3.887L15.36,3.849L15.357,3.81L15.353,3.772L15.347,3.735L15.341,3.698L15.334,3.661L15.326,3.625L15.317,3.589L15.308,3.553L15.297,3.518L15.286,3.483L15.274,3.448L15.261,3.414L15.247,3.38L15.232,3.347L15.217,3.314L15.201,3.281L15.184,3.249L15.166,3.217L15.147,3.186L15.128,3.155L15.108,3.125L15.087,3.095L15.066,3.065L15.043,3.036L15.021,3.008L14.997,2.98L14.973,2.952L14.948,2.926L14.922,2.899L14.896,2.874L14.869,2.849L14.842,2.825L14.814,2.801L14.785,2.778L14.756,2.756L14.727,2.734L14.697,2.713L14.666,2.693L14.636,2.674L14.604,2.655L14.572,2.638L14.54,2.621L14.507,2.604L14.474,2.589L14.441,2.574L14.407,2.561L14.373,2.548L14.339,2.535L14.304,2.524L14.268,2.514L14.233,2.504L14.197,2.495L14.161,2.487L14.124,2.48L14.087,2.474L14.049,2.469L14.011,2.464L13.973,2.461L13.934,2.459L13.895,2.457L13.855,2.457L13.815,2.457L13.776,2.459L13.737,2.461L13.699,2.464L13.661,2.469L13.623,2.474L13.586,2.48L13.549,2.487L13.513,2.495L13.477,2.504L13.441,2.514L13.406,2.524L13.371,2.535L13.337,2.548L13.303,2.561L13.269,2.574L13.235,2.589L13.202,2.604L13.17,2.621L13.138,2.638L13.106,2.655L13.074,2.674L13.043,2.693L13.013,2.713L12.983,2.734L12.953,2.756L12.924,2.778L12.896,2.801L12.868,2.825L12.841,2.849L12.814,2.874L12.788,2.899L12.762,2.926L12.737,2.952L12.713,2.98L12.689,3.008L12.666,3.036L12.644,3.065L12.623,3.095L12.602,3.125L12.582,3.155L12.562,3.186L12.544,3.217L12.526,3.249L12.509,3.281L12.493,3.314L12.477,3.347L12.463,3.38L12.449,3.414L12.436,3.448L12.424,3.483L12.412,3.518L12.402,3.553L12.392,3.589L12.384,3.625L12.376,3.661L12.369,3.698L12.362,3.735L12.357,3.772L12.353,3.81L12.349,3.849L12.347,3.887L12.345,3.927L12.345,3.967L12.345,4.006Z" style="fill:rgb(51,51,51);"/>
    </g>
</svg>
