<?xml version="1.0" encoding="UTF-8" standalone="no"?>
<!DOCTYPE svg PUBLIC "-//W3C//DTD SVG 1.1//EN" "http://www.w3.org/Graphics/SVG/1.1/DTD/svg11.dtd">
<svg width="16" height="15" viewBox="0 0 16 15" version="1.1" xmlns="http://www.w3.org/2000/svg" xmlns:xlink="http://www.w3.org/1999/xlink" xml:space="preserve" xmlns:serif="http://www.serif.com/" style="fill-rule:evenodd;clip-rule:evenodd;stroke-linecap:round;stroke-linejoin:round;stroke-miterlimit:1.5;">
    <g>
        <g transform="matrix(1,0,0,1,-0.006805,0.45)">
            <path d="M7.007,11.047L9,11.047" style="fill:none;stroke:rgb(51,51,51);stroke-width:1.87px;"/>
        </g>
        <g transform="matrix(1,0,0,1,0,1)">
            <path d="M10.928,7.36L9.788,5.516" style="fill:none;stroke:rgb(51,51,51);stroke-width:1.87px;stroke-linecap:square;stroke-linejoin:miter;"/>
        </g>
        <g transform="matrix(1,0,0,1,0,1)">
            <path d="M5.036,7.321L6.212,5.516" style="fill:none;stroke:rgb(51,51,51);stroke-width:1.87px;stroke-linecap:square;stroke-linejoin:miter;"/>
        </g>
    </g>
    <g transform="matrix(-1.82883e-16,0.995568,-0.995568,-1.82883e-16,16.4456,-2.29691)">
        <circle cx="13.855" cy="3.967" r="3.519" style="fill:white;"/>
        <path d="M10.337,3.876L10.34,3.786L10.346,3.696L10.354,3.607L10.364,3.519L10.376,3.431L10.391,3.344L10.407,3.258L10.426,3.172L10.447,3.088L10.47,3.004L10.494,2.921L10.521,2.838L10.55,2.757L10.58,2.677L10.613,2.597L10.647,2.519L10.683,2.441L10.721,2.365L10.761,2.29L10.802,2.216L10.846,2.142L10.891,2.07L10.937,2L10.986,1.93L11.035,1.862L11.087,1.795L11.14,1.729L11.194,1.664L11.251,1.601L11.308,1.539L11.367,1.479L11.428,1.42L11.489,1.362L11.553,1.306L11.617,1.252L11.683,1.198L11.75,1.147L11.818,1.097L11.888,1.049L11.959,1.002L12.031,0.957L12.104,0.914L12.178,0.873L12.253,0.833L12.33,0.795L12.407,0.759L12.486,0.724L12.565,0.692L12.645,0.661L12.727,0.633L12.809,0.606L12.892,0.581L12.976,0.558L13.061,0.538L13.146,0.519L13.232,0.503L13.319,0.488L13.407,0.476L13.495,0.466L13.584,0.458L13.674,0.452L13.764,0.449L13.855,0.448L13.946,0.449L14.036,0.452L14.126,0.458L14.214,0.466L14.303,0.476L14.391,0.488L14.477,0.503L14.564,0.519L14.649,0.538L14.734,0.558L14.818,0.581L14.901,0.606L14.983,0.633L15.064,0.661L15.145,0.692L15.224,0.724L15.303,0.759L15.38,0.795L15.456,0.833L15.532,0.873L15.606,0.914L15.679,0.957L15.751,1.002L15.822,1.049L15.891,1.097L15.96,1.147L16.027,1.198L16.093,1.252L16.157,1.306L16.22,1.362L16.282,1.42L16.343,1.479L16.402,1.539L16.459,1.601L16.515,1.664L16.57,1.729L16.623,1.795L16.674,1.862L16.724,1.93L16.773,2L16.819,2.07L16.864,2.142L16.907,2.216L16.949,2.29L16.989,2.365L17.027,2.441L17.063,2.519L17.097,2.597L17.13,2.677L17.16,2.757L17.189,2.838L17.216,2.921L17.24,3.004L17.263,3.088L17.284,3.172L17.302,3.258L17.319,3.344L17.333,3.431L17.346,3.519L17.356,3.607L17.364,3.696L17.369,3.786L17.373,3.876L17.374,3.967L17.373,4.057L17.369,4.148L17.364,4.237L17.356,4.326L17.346,4.414L17.333,4.502L17.319,4.589L17.302,4.675L17.284,4.761L17.263,4.846L17.24,4.929L17.216,5.012L17.189,5.095L17.16,5.176L17.13,5.256L17.097,5.336L17.063,5.414L17.027,5.492L16.989,5.568L16.949,5.643L16.907,5.718L16.864,5.791L16.819,5.863L16.773,5.933L16.724,6.003L16.674,6.071L16.623,6.139L16.57,6.204L16.515,6.269L16.459,6.332L16.402,6.394L16.343,6.454L16.282,6.513L16.22,6.571L16.157,6.627L16.093,6.682L16.027,6.735L15.96,6.786L15.891,6.836L15.822,6.884L15.751,6.931L15.679,6.976L15.606,7.019L15.532,7.061L15.456,7.1L15.38,7.138L15.303,7.174L15.224,7.209L15.145,7.241L15.064,7.272L14.983,7.301L14.901,7.327L14.818,7.352L14.734,7.375L14.649,7.395L14.564,7.414L14.477,7.431L14.391,7.445L14.303,7.457L14.214,7.467L14.126,7.475L14.036,7.481L13.946,7.484L13.855,7.486L13.764,7.484L13.674,7.481L13.584,7.475L13.495,7.467L13.407,7.457L13.319,7.445L13.232,7.431L13.146,7.414L13.061,7.395L12.976,7.375L12.892,7.352L12.809,7.327L12.727,7.301L12.645,7.272L12.565,7.241L12.486,7.209L12.407,7.174L12.33,7.138L12.253,7.1L12.178,7.061L12.104,7.019L12.031,6.976L11.959,6.931L11.888,6.884L11.818,6.836L11.75,6.786L11.683,6.735L11.617,6.682L11.553,6.627L11.489,6.571L11.428,6.513L11.367,6.454L11.308,6.394L11.251,6.332L11.194,6.269L11.14,6.204L11.087,6.139L11.035,6.071L10.986,6.003L10.937,5.933L10.891,5.863L10.846,5.791L10.802,5.718L10.761,5.643L10.721,5.568L10.683,5.492L10.647,5.414L10.613,5.336L10.58,5.256L10.55,5.176L10.521,5.095L10.494,5.012L10.47,4.929L10.447,4.846L10.426,4.761L10.407,4.675L10.391,4.589L10.376,4.502L10.364,4.414L10.354,4.326L10.346,4.237L10.34,4.148L10.337,4.057L10.336,3.967L10.337,3.876ZM11.14,4.037L11.143,4.107L11.147,4.176L11.154,4.245L11.161,4.313L11.171,4.381L11.182,4.448L11.195,4.514L11.209,4.58L11.225,4.645L11.243,4.71L11.262,4.774L11.282,4.837L11.304,4.899L11.328,4.961L11.353,5.023L11.379,5.083L11.407,5.143L11.436,5.201L11.467,5.26L11.499,5.317L11.532,5.373L11.567,5.429L11.603,5.483L11.64,5.537L11.679,5.59L11.719,5.642L11.76,5.693L11.802,5.743L11.845,5.792L11.89,5.839L11.935,5.886L11.982,5.932L12.03,5.976L12.079,6.02L12.129,6.062L12.179,6.103L12.231,6.143L12.284,6.181L12.338,6.218L12.393,6.254L12.448,6.289L12.505,6.322L12.562,6.354L12.62,6.385L12.679,6.414L12.739,6.442L12.799,6.469L12.86,6.494L12.922,6.517L12.985,6.539L13.048,6.56L13.112,6.579L13.176,6.596L13.242,6.612L13.307,6.627L13.374,6.639L13.441,6.651L13.508,6.66L13.577,6.668L13.645,6.674L13.715,6.678L13.785,6.681L13.855,6.682L13.925,6.681L13.995,6.678L14.064,6.674L14.133,6.668L14.201,6.66L14.269,6.651L14.336,6.639L14.402,6.627L14.468,6.612L14.534,6.596L14.598,6.579L14.662,6.56L14.725,6.539L14.788,6.517L14.85,6.494L14.911,6.469L14.971,6.442L15.031,6.414L15.09,6.385L15.148,6.354L15.205,6.322L15.262,6.289L15.317,6.254L15.372,6.218L15.426,6.181L15.478,6.143L15.53,6.103L15.581,6.062L15.631,6.02L15.68,5.976L15.728,5.932L15.774,5.886L15.82,5.839L15.865,5.792L15.908,5.743L15.95,5.693L15.991,5.642L16.031,5.59L16.069,5.537L16.107,5.483L16.143,5.429L16.177,5.373L16.211,5.317L16.243,5.26L16.274,5.201L16.303,5.143L16.331,5.083L16.357,5.023L16.382,4.961L16.406,4.899L16.428,4.837L16.448,4.774L16.467,4.71L16.485,4.645L16.501,4.58L16.515,4.514L16.528,4.448L16.539,4.381L16.548,4.313L16.556,4.245L16.562,4.176L16.567,4.107L16.569,4.037L16.57,3.967L16.569,3.896L16.567,3.826L16.562,3.757L16.556,3.688L16.548,3.62L16.539,3.552L16.528,3.485L16.515,3.419L16.501,3.353L16.485,3.288L16.467,3.223L16.448,3.159L16.428,3.096L16.406,3.034L16.382,2.972L16.357,2.911L16.331,2.85L16.303,2.79L16.274,2.732L16.243,2.674L16.211,2.616L16.177,2.56L16.143,2.504L16.107,2.45L16.069,2.396L16.031,2.343L15.991,2.291L15.95,2.24L15.908,2.19L15.865,2.141L15.82,2.094L15.774,2.047L15.728,2.001L15.68,1.957L15.631,1.913L15.581,1.871L15.53,1.83L15.478,1.791L15.426,1.752L15.372,1.715L15.317,1.679L15.262,1.644L15.205,1.611L15.148,1.579L15.09,1.548L15.031,1.519L14.971,1.491L14.911,1.464L14.85,1.439L14.788,1.416L14.725,1.394L14.662,1.373L14.598,1.354L14.534,1.337L14.468,1.321L14.402,1.306L14.336,1.294L14.269,1.283L14.201,1.273L14.133,1.265L14.064,1.259L13.995,1.255L13.925,1.252L13.855,1.251L13.785,1.252L13.715,1.255L13.645,1.259L13.577,1.265L13.508,1.273L13.441,1.283L13.374,1.294L13.307,1.306L13.242,1.321L13.176,1.337L13.112,1.354L13.048,1.373L12.985,1.394L12.922,1.416L12.86,1.439L12.799,1.464L12.739,1.491L12.679,1.519L12.62,1.548L12.562,1.579L12.505,1.611L12.448,1.644L12.393,1.679L12.338,1.715L12.284,1.752L12.231,1.791L12.179,1.83L12.129,1.871L12.079,1.913L12.03,1.957L11.982,2.001L11.935,2.047L11.89,2.094L11.845,2.141L11.802,2.19L11.76,2.24L11.719,2.291L11.679,2.343L11.64,2.396L11.603,2.45L11.567,2.504L11.532,2.56L11.499,2.616L11.467,2.674L11.436,2.732L11.407,2.79L11.379,2.85L11.353,2.911L11.328,2.972L11.304,3.034L11.282,3.096L11.262,3.159L11.243,3.223L11.225,3.288L11.209,3.353L11.195,3.419L11.182,3.485L11.171,3.552L11.161,3.62L11.154,3.688L11.147,3.757L11.143,3.826L11.14,3.896L11.14,3.967L11.14,4.037Z" style="fill:rgb(51,51,51);"/>
    </g>
    <g transform="matrix(-1.82883e-16,0.995568,-0.995568,-1.82883e-16,7.45236,-2.32142)">
        <circle cx="13.855" cy="3.967" r="3.519" style="fill:rgb(51,51,51);"/>
        <path d="M10.337,3.876L10.34,3.786L10.346,3.696L10.354,3.607L10.364,3.519L10.376,3.431L10.391,3.344L10.407,3.258L10.426,3.172L10.447,3.088L10.47,3.004L10.494,2.921L10.521,2.838L10.55,2.757L10.58,2.677L10.613,2.597L10.647,2.519L10.683,2.441L10.721,2.365L10.761,2.29L10.802,2.216L10.846,2.142L10.891,2.07L10.937,2L10.986,1.93L11.035,1.862L11.087,1.795L11.14,1.729L11.194,1.664L11.251,1.601L11.308,1.539L11.367,1.479L11.428,1.42L11.489,1.362L11.553,1.306L11.617,1.252L11.683,1.198L11.75,1.147L11.818,1.097L11.888,1.049L11.959,1.002L12.031,0.957L12.104,0.914L12.178,0.873L12.253,0.833L12.33,0.795L12.407,0.759L12.486,0.724L12.565,0.692L12.645,0.661L12.727,0.633L12.809,0.606L12.892,0.581L12.976,0.558L13.061,0.538L13.146,0.519L13.232,0.503L13.319,0.488L13.407,0.476L13.495,0.466L13.584,0.458L13.674,0.452L13.764,0.449L13.855,0.448L13.946,0.449L14.036,0.452L14.126,0.458L14.214,0.466L14.303,0.476L14.391,0.488L14.477,0.503L14.564,0.519L14.649,0.538L14.734,0.558L14.818,0.581L14.901,0.606L14.983,0.633L15.064,0.661L15.145,0.692L15.224,0.724L15.303,0.759L15.38,0.795L15.456,0.833L15.532,0.873L15.606,0.914L15.679,0.957L15.751,1.002L15.822,1.049L15.891,1.097L15.96,1.147L16.027,1.198L16.093,1.252L16.157,1.306L16.22,1.362L16.282,1.42L16.343,1.479L16.402,1.539L16.459,1.601L16.515,1.664L16.57,1.729L16.623,1.795L16.674,1.862L16.724,1.93L16.773,2L16.819,2.07L16.864,2.142L16.907,2.216L16.949,2.29L16.989,2.365L17.027,2.441L17.063,2.519L17.097,2.597L17.13,2.677L17.16,2.757L17.189,2.838L17.216,2.921L17.24,3.004L17.263,3.088L17.284,3.172L17.302,3.258L17.319,3.344L17.333,3.431L17.346,3.519L17.356,3.607L17.364,3.696L17.369,3.786L17.373,3.876L17.374,3.967L17.373,4.057L17.369,4.148L17.364,4.237L17.356,4.326L17.346,4.414L17.333,4.502L17.319,4.589L17.302,4.675L17.284,4.761L17.263,4.846L17.24,4.929L17.216,5.012L17.189,5.095L17.16,5.176L17.13,5.256L17.097,5.336L17.063,5.414L17.027,5.492L16.989,5.568L16.949,5.643L16.907,5.718L16.864,5.791L16.819,5.863L16.773,5.933L16.724,6.003L16.674,6.071L16.623,6.139L16.57,6.204L16.515,6.269L16.459,6.332L16.402,6.394L16.343,6.454L16.282,6.513L16.22,6.571L16.157,6.627L16.093,6.682L16.027,6.735L15.96,6.786L15.891,6.836L15.822,6.884L15.751,6.931L15.679,6.976L15.606,7.019L15.532,7.061L15.456,7.1L15.38,7.138L15.303,7.174L15.224,7.209L15.145,7.241L15.064,7.272L14.983,7.301L14.901,7.327L14.818,7.352L14.734,7.375L14.649,7.395L14.564,7.414L14.477,7.431L14.391,7.445L14.303,7.457L14.214,7.467L14.126,7.475L14.036,7.481L13.946,7.484L13.855,7.486L13.764,7.484L13.674,7.481L13.584,7.475L13.495,7.467L13.407,7.457L13.319,7.445L13.232,7.431L13.146,7.414L13.061,7.395L12.976,7.375L12.892,7.352L12.809,7.327L12.727,7.301L12.645,7.272L12.565,7.241L12.486,7.209L12.407,7.174L12.33,7.138L12.253,7.1L12.178,7.061L12.104,7.019L12.031,6.976L11.959,6.931L11.888,6.884L11.818,6.836L11.75,6.786L11.683,6.735L11.617,6.682L11.553,6.627L11.489,6.571L11.428,6.513L11.367,6.454L11.308,6.394L11.251,6.332L11.194,6.269L11.14,6.204L11.087,6.139L11.035,6.071L10.986,6.003L10.937,5.933L10.891,5.863L10.846,5.791L10.802,5.718L10.761,5.643L10.721,5.568L10.683,5.492L10.647,5.414L10.613,5.336L10.58,5.256L10.55,5.176L10.521,5.095L10.494,5.012L10.47,4.929L10.447,4.846L10.426,4.761L10.407,4.675L10.391,4.589L10.376,4.502L10.364,4.414L10.354,4.326L10.346,4.237L10.34,4.148L10.337,4.057L10.336,3.967L10.337,3.876ZM11.207,4.035L11.21,4.103L11.214,4.171L11.22,4.238L11.228,4.305L11.237,4.371L11.248,4.436L11.26,4.501L11.274,4.565L11.29,4.628L11.307,4.691L11.325,4.754L11.346,4.815L11.367,4.876L11.39,4.937L11.414,4.996L11.44,5.055L11.467,5.114L11.496,5.171L11.526,5.228L11.557,5.283L11.59,5.338L11.623,5.393L11.659,5.446L11.695,5.498L11.733,5.55L11.771,5.601L11.811,5.65L11.852,5.699L11.895,5.747L11.938,5.793L11.983,5.839L12.028,5.883L12.075,5.927L12.123,5.969L12.171,6.01L12.221,6.05L12.271,6.089L12.323,6.127L12.375,6.163L12.429,6.198L12.483,6.232L12.538,6.264L12.594,6.296L12.651,6.326L12.708,6.354L12.766,6.381L12.825,6.407L12.885,6.431L12.945,6.454L13.006,6.476L13.068,6.496L13.13,6.515L13.193,6.532L13.257,6.547L13.321,6.561L13.386,6.574L13.451,6.584L13.517,6.594L13.583,6.601L13.65,6.607L13.718,6.611L13.786,6.614L13.855,6.615L13.924,6.614L13.992,6.611L14.059,6.607L14.126,6.601L14.193,6.594L14.259,6.584L14.324,6.574L14.389,6.561L14.453,6.547L14.517,6.532L14.58,6.515L14.642,6.496L14.704,6.476L14.765,6.454L14.825,6.431L14.885,6.407L14.944,6.381L15.002,6.354L15.059,6.326L15.116,6.296L15.172,6.264L15.227,6.232L15.281,6.198L15.334,6.163L15.387,6.127L15.438,6.089L15.489,6.05L15.539,6.01L15.587,5.969L15.635,5.927L15.682,5.883L15.727,5.839L15.772,5.793L15.815,5.747L15.857,5.699L15.899,5.65L15.939,5.601L15.977,5.55L16.015,5.498L16.051,5.446L16.086,5.393L16.12,5.338L16.153,5.283L16.184,5.228L16.214,5.171L16.242,5.114L16.27,5.055L16.295,4.996L16.32,4.937L16.343,4.876L16.364,4.815L16.384,4.754L16.403,4.691L16.42,4.628L16.435,4.565L16.449,4.501L16.462,4.436L16.473,4.371L16.482,4.305L16.49,4.238L16.496,4.171L16.5,4.103L16.502,4.035L16.503,3.967L16.502,3.898L16.5,3.83L16.496,3.762L16.49,3.695L16.482,3.629L16.473,3.563L16.462,3.497L16.449,3.432L16.435,3.368L16.42,3.305L16.403,3.242L16.384,3.179L16.364,3.118L16.343,3.057L16.32,2.996L16.295,2.937L16.27,2.878L16.242,2.82L16.214,2.762L16.184,2.705L16.153,2.65L16.12,2.595L16.086,2.54L16.051,2.487L16.015,2.435L15.977,2.383L15.939,2.333L15.899,2.283L15.857,2.234L15.815,2.187L15.772,2.14L15.727,2.094L15.682,2.05L15.635,2.006L15.587,1.964L15.539,1.923L15.489,1.883L15.438,1.844L15.387,1.807L15.334,1.77L15.281,1.735L15.227,1.701L15.172,1.669L15.116,1.637L15.059,1.608L15.002,1.579L14.944,1.552L14.885,1.526L14.825,1.502L14.765,1.479L14.704,1.457L14.642,1.437L14.58,1.419L14.517,1.401L14.453,1.386L14.389,1.372L14.324,1.36L14.259,1.349L14.193,1.339L14.126,1.332L14.059,1.326L13.992,1.322L13.924,1.319L13.855,1.318L13.786,1.319L13.718,1.322L13.65,1.326L13.583,1.332L13.517,1.339L13.451,1.349L13.386,1.36L13.321,1.372L13.257,1.386L13.193,1.401L13.13,1.419L13.068,1.437L13.006,1.457L12.945,1.479L12.885,1.502L12.825,1.526L12.766,1.552L12.708,1.579L12.651,1.608L12.594,1.637L12.538,1.669L12.483,1.701L12.429,1.735L12.375,1.77L12.323,1.807L12.271,1.844L12.221,1.883L12.171,1.923L12.123,1.964L12.075,2.006L12.028,2.05L11.983,2.094L11.938,2.14L11.895,2.187L11.852,2.234L11.811,2.283L11.771,2.333L11.733,2.383L11.695,2.435L11.659,2.487L11.623,2.54L11.59,2.595L11.557,2.65L11.526,2.705L11.496,2.762L11.467,2.82L11.44,2.878L11.414,2.937L11.39,2.996L11.367,3.057L11.346,3.118L11.325,3.179L11.307,3.242L11.29,3.305L11.274,3.368L11.26,3.432L11.248,3.497L11.237,3.563L11.228,3.629L11.22,3.695L11.214,3.762L11.21,3.83L11.207,3.898L11.207,3.967L11.207,4.035Z" style="fill:rgb(51,51,51);"/>
    </g>
    <g transform="matrix(-1.82883e-16,0.995568,-0.995568,-1.82883e-16,11.949,-10.2901)">
        <circle cx="13.855" cy="3.967" r="3.519" style="fill:white;"/>
        <path d="M10.337,3.876L10.34,3.786L10.346,3.696L10.354,3.607L10.364,3.519L10.376,3.431L10.391,3.344L10.407,3.258L10.426,3.172L10.447,3.088L10.47,3.004L10.494,2.921L10.521,2.838L10.55,2.757L10.58,2.677L10.613,2.597L10.647,2.519L10.683,2.441L10.721,2.365L10.761,2.29L10.802,2.216L10.846,2.142L10.891,2.07L10.937,2L10.986,1.93L11.035,1.862L11.087,1.795L11.14,1.729L11.194,1.664L11.251,1.601L11.308,1.539L11.367,1.479L11.428,1.42L11.489,1.362L11.553,1.306L11.617,1.252L11.683,1.198L11.75,1.147L11.818,1.097L11.888,1.049L11.959,1.002L12.031,0.957L12.104,0.914L12.178,0.873L12.253,0.833L12.33,0.795L12.407,0.759L12.486,0.724L12.565,0.692L12.645,0.661L12.727,0.633L12.809,0.606L12.892,0.581L12.976,0.558L13.061,0.538L13.146,0.519L13.232,0.503L13.319,0.488L13.407,0.476L13.495,0.466L13.584,0.458L13.674,0.452L13.764,0.449L13.855,0.448L13.946,0.449L14.036,0.452L14.126,0.458L14.214,0.466L14.303,0.476L14.391,0.488L14.477,0.503L14.564,0.519L14.649,0.538L14.734,0.558L14.818,0.581L14.901,0.606L14.983,0.633L15.064,0.661L15.145,0.692L15.224,0.724L15.303,0.759L15.38,0.795L15.456,0.833L15.532,0.873L15.606,0.914L15.679,0.957L15.751,1.002L15.822,1.049L15.891,1.097L15.96,1.147L16.027,1.198L16.093,1.252L16.157,1.306L16.22,1.362L16.282,1.42L16.343,1.479L16.402,1.539L16.459,1.601L16.515,1.664L16.57,1.729L16.623,1.795L16.674,1.862L16.724,1.93L16.773,2L16.819,2.07L16.864,2.142L16.907,2.216L16.949,2.29L16.989,2.365L17.027,2.441L17.063,2.519L17.097,2.597L17.13,2.677L17.16,2.757L17.189,2.838L17.216,2.921L17.24,3.004L17.263,3.088L17.284,3.172L17.302,3.258L17.319,3.344L17.333,3.431L17.346,3.519L17.356,3.607L17.364,3.696L17.369,3.786L17.373,3.876L17.374,3.967L17.373,4.057L17.369,4.148L17.364,4.237L17.356,4.326L17.346,4.414L17.333,4.502L17.319,4.589L17.302,4.675L17.284,4.761L17.263,4.846L17.24,4.929L17.216,5.012L17.189,5.095L17.16,5.176L17.13,5.256L17.097,5.336L17.063,5.414L17.027,5.492L16.989,5.568L16.949,5.643L16.907,5.718L16.864,5.791L16.819,5.863L16.773,5.933L16.724,6.003L16.674,6.071L16.623,6.139L16.57,6.204L16.515,6.269L16.459,6.332L16.402,6.394L16.343,6.454L16.282,6.513L16.22,6.571L16.157,6.627L16.093,6.682L16.027,6.735L15.96,6.786L15.891,6.836L15.822,6.884L15.751,6.931L15.679,6.976L15.606,7.019L15.532,7.061L15.456,7.1L15.38,7.138L15.303,7.174L15.224,7.209L15.145,7.241L15.064,7.272L14.983,7.301L14.901,7.327L14.818,7.352L14.734,7.375L14.649,7.395L14.564,7.414L14.477,7.431L14.391,7.445L14.303,7.457L14.214,7.467L14.126,7.475L14.036,7.481L13.946,7.484L13.855,7.486L13.764,7.484L13.674,7.481L13.584,7.475L13.495,7.467L13.407,7.457L13.319,7.445L13.232,7.431L13.146,7.414L13.061,7.395L12.976,7.375L12.892,7.352L12.809,7.327L12.727,7.301L12.645,7.272L12.565,7.241L12.486,7.209L12.407,7.174L12.33,7.138L12.253,7.1L12.178,7.061L12.104,7.019L12.031,6.976L11.959,6.931L11.888,6.884L11.818,6.836L11.75,6.786L11.683,6.735L11.617,6.682L11.553,6.627L11.489,6.571L11.428,6.513L11.367,6.454L11.308,6.394L11.251,6.332L11.194,6.269L11.14,6.204L11.087,6.139L11.035,6.071L10.986,6.003L10.937,5.933L10.891,5.863L10.846,5.791L10.802,5.718L10.761,5.643L10.721,5.568L10.683,5.492L10.647,5.414L10.613,5.336L10.58,5.256L10.55,5.176L10.521,5.095L10.494,5.012L10.47,4.929L10.447,4.846L10.426,4.761L10.407,4.675L10.391,4.589L10.376,4.502L10.364,4.414L10.354,4.326L10.346,4.237L10.34,4.148L10.337,4.057L10.336,3.967L10.337,3.876ZM12.212,4.01L12.213,4.052L12.216,4.095L12.22,4.136L12.224,4.178L12.23,4.219L12.237,4.259L12.244,4.299L12.253,4.339L12.263,4.378L12.273,4.417L12.285,4.455L12.297,4.493L12.31,4.531L12.324,4.568L12.339,4.605L12.355,4.641L12.372,4.677L12.39,4.713L12.408,4.748L12.428,4.783L12.448,4.817L12.469,4.85L12.491,4.884L12.513,4.916L12.537,4.948L12.561,4.98L12.586,5.011L12.612,5.041L12.638,5.071L12.665,5.1L12.693,5.128L12.721,5.156L12.751,5.183L12.78,5.21L12.811,5.235L12.842,5.26L12.873,5.285L12.905,5.308L12.938,5.331L12.971,5.352L13.005,5.373L13.039,5.394L13.074,5.413L13.109,5.432L13.144,5.449L13.18,5.466L13.217,5.482L13.253,5.497L13.291,5.511L13.328,5.524L13.366,5.537L13.405,5.548L13.444,5.559L13.483,5.568L13.522,5.577L13.562,5.585L13.603,5.591L13.644,5.597L13.685,5.602L13.727,5.606L13.769,5.608L13.812,5.61L13.855,5.61L13.898,5.61L13.941,5.608L13.983,5.606L14.025,5.602L14.066,5.597L14.107,5.591L14.147,5.585L14.187,5.577L14.227,5.568L14.266,5.559L14.305,5.548L14.344,5.537L14.382,5.524L14.419,5.511L14.456,5.497L14.493,5.482L14.53,5.466L14.566,5.449L14.601,5.432L14.636,5.413L14.671,5.394L14.705,5.373L14.739,5.352L14.772,5.331L14.805,5.308L14.837,5.285L14.868,5.26L14.899,5.235L14.93,5.21L14.959,5.183L14.988,5.156L15.017,5.128L15.045,5.1L15.072,5.071L15.098,5.041L15.124,5.011L15.149,4.98L15.173,4.948L15.196,4.916L15.219,4.884L15.241,4.85L15.262,4.817L15.282,4.783L15.301,4.748L15.32,4.713L15.338,4.677L15.354,4.641L15.37,4.605L15.385,4.568L15.4,4.531L15.413,4.493L15.425,4.455L15.437,4.417L15.447,4.378L15.457,4.339L15.465,4.299L15.473,4.259L15.48,4.219L15.485,4.178L15.49,4.136L15.494,4.095L15.497,4.052L15.498,4.01L15.499,3.967L15.498,3.923L15.497,3.881L15.494,3.838L15.49,3.797L15.485,3.755L15.48,3.714L15.473,3.674L15.465,3.634L15.457,3.594L15.447,3.555L15.437,3.516L15.425,3.478L15.413,3.44L15.4,3.402L15.385,3.365L15.37,3.328L15.354,3.292L15.338,3.256L15.32,3.22L15.301,3.185L15.282,3.151L15.262,3.116L15.241,3.083L15.219,3.05L15.196,3.017L15.173,2.985L15.149,2.953L15.124,2.922L15.098,2.892L15.072,2.862L15.045,2.833L15.017,2.805L14.988,2.777L14.959,2.75L14.93,2.723L14.899,2.698L14.868,2.673L14.837,2.649L14.805,2.625L14.772,2.602L14.739,2.581L14.705,2.56L14.671,2.539L14.636,2.52L14.601,2.501L14.566,2.484L14.53,2.467L14.493,2.451L14.456,2.436L14.419,2.422L14.382,2.409L14.344,2.396L14.305,2.385L14.266,2.374L14.227,2.365L14.187,2.356L14.147,2.348L14.107,2.342L14.066,2.336L14.025,2.331L13.983,2.328L13.941,2.325L13.898,2.323L13.855,2.323L13.812,2.323L13.769,2.325L13.727,2.328L13.685,2.331L13.644,2.336L13.603,2.342L13.562,2.348L13.522,2.356L13.483,2.365L13.444,2.374L13.405,2.385L13.366,2.396L13.328,2.409L13.291,2.422L13.253,2.436L13.217,2.451L13.18,2.467L13.144,2.484L13.109,2.501L13.074,2.52L13.039,2.539L13.005,2.56L12.971,2.581L12.938,2.602L12.905,2.625L12.873,2.649L12.842,2.673L12.811,2.698L12.78,2.723L12.751,2.75L12.721,2.777L12.693,2.805L12.665,2.833L12.638,2.862L12.612,2.892L12.586,2.922L12.561,2.953L12.537,2.985L12.513,3.017L12.491,3.05L12.469,3.083L12.448,3.116L12.428,3.151L12.408,3.185L12.39,3.22L12.372,3.256L12.355,3.292L12.339,3.328L12.324,3.365L12.31,3.402L12.297,3.44L12.285,3.478L12.273,3.516L12.263,3.555L12.253,3.594L12.244,3.634L12.237,3.674L12.23,3.714L12.224,3.755L12.22,3.797L12.216,3.838L12.213,3.881L12.212,3.923L12.211,3.967L12.212,4.01Z" style="fill:rgb(51,51,51);"/>
    </g>
</svg>
