<svg width="29" height="24" viewBox="0 0 29 24" version="1.1" xmlns="http://www.w3.org/2000/svg" xmlns:xlink="http://www.w3.org/1999/xlink">
<title>hamburger</title>
<desc>Created using Figma</desc>
<g id="Canvas" transform="translate(2612 6234)">
<g id="hamburger">
<g id="Group">
<g id="Vector">
<use xlink:href="#path0_fill" transform="translate(-2612 -6224)" fill="#FFFFFF"/>
</g>
<g id="Vector">
<use xlink:href="#path1_fill" transform="translate(-2612 -6234)" fill="#FFFFFF"/>
</g>
<g id="Vector">
<use xlink:href="#path1_fill" transform="translate(-2612 -6214.8)" fill="#FFFFFF"/>
</g>
</g>
</g>
</g>
<defs>
<path id="path0_fill" d="M 27.6 0L 1.2 0C 0.48 0 0 0.48 0 1.2L 0 3.6C 0 4.32 0.48 4.8 1.2 4.8L 27.6 4.8C 28.32 4.8 28.8 4.32 28.8 3.6L 28.8 1.2C 28.8 0.48 28.32 0 27.6 0Z"/>
<path id="path1_fill" d="M 27.6 0L 1.2 0C 0.48 0 0 0.48 0 1.2L 0 3.6C 0 4.32 0.48 4.8 1.2 4.8L 27.6 4.8C 28.32 4.8 28.8 4.32 28.8 3.6L 28.8 1.2C 28.8 0.48 28.32 0 27.6 0Z"/>
</defs>
</svg>
