<?xml version="1.0" encoding="UTF-8" standalone="no"?>
<!DOCTYPE svg PUBLIC "-//W3C//DTD SVG 1.1//EN" "http://www.w3.org/Graphics/SVG/1.1/DTD/svg11.dtd">
<svg width="100%" height="100%" viewBox="0 0 100 100" version="1.1" xmlns="http://www.w3.org/2000/svg" xmlns:xlink="http://www.w3.org/1999/xlink" xml:space="preserve" xmlns:serif="http://www.serif.com/" style="fill-rule:evenodd;clip-rule:evenodd;stroke-linejoin:round;stroke-miterlimit:2;">
    <path d="M50,1.1C23,1.1 1.1,23 1.1,50C1.1,77 23,98.9 50,98.9C77,98.9 98.9,77 98.9,50C98.9,23 77,1.1 50,1.1ZM55.3,77.7C55.3,79.4 53.9,80.8 52.2,80.8L44.3,80.8C42.6,80.8 41.2,79.4 41.2,77.7L41.2,72.6C41.2,70.9 42.6,69.5 44.3,69.5L52.2,69.5C53.9,69.5 55.3,70.9 55.3,72.6L55.3,77.7ZM67.8,47.3C65.7,50.2 63.1,52.5 59.9,54.2C58.1,55.4 56.9,56.6 56.3,58C55.9,58.9 55.6,60.1 55.4,61.5C55.3,62.6 54.3,63.4 53.2,63.4L43.5,63.4C42.2,63.4 41.2,62.3 41.3,61.1C41.5,58.4 42.2,56.3 43.3,54.7C44.7,52.8 47.2,50.5 50.8,48C52.7,46.8 54.1,45.4 55.2,43.7C56.3,42 56.8,40 56.8,37.7C56.8,35.4 56.2,33.5 54.9,32.1C53.6,30.7 51.9,30 49.6,30C47.7,30 46.2,30.6 44.9,31.7C44.1,32.4 43.6,33.3 43.3,34.5C42.9,35.9 41.6,36.8 40.1,36.8L31.1,36.6C30,36.6 29.1,35.6 29.2,34.5C29.5,29.7 31.4,26.1 34.7,23.5C38.5,20.6 43.4,19.1 49.6,19.1C56.2,19.1 61.4,20.8 65.2,24.1C69,27.4 70.9,31.9 70.9,37.6C70.9,41.2 69.8,44.4 67.8,47.3Z" style="fill:rgb(0,150,136);fill-rule:nonzero;"/>
</svg>
