<?xml version="1.0" encoding="UTF-8" standalone="no"?>
<!DOCTYPE svg PUBLIC "-//W3C//DTD SVG 1.1//EN" "http://www.w3.org/Graphics/SVG/1.1/DTD/svg11.dtd">
<svg width="100%" height="100%" viewBox="0 0 14 14" version="1.1" xmlns="http://www.w3.org/2000/svg" xmlns:xlink="http://www.w3.org/1999/xlink" xml:space="preserve" xmlns:serif="http://www.serif.com/" style="fill-rule:evenodd;clip-rule:evenodd;stroke-linejoin:round;stroke-miterlimit:2;">
    <path d="M7,0C5.099,0 4.861,0.008 4.114,0.042C2.976,0.094 1.977,0.372 1.175,1.175C0.373,1.977 0.094,2.976 0.042,4.114C0.008,4.861 0,5.099 0,7C0,8.901 0.008,9.139 0.042,9.886C0.094,11.024 0.372,12.023 1.175,12.825C1.977,13.627 2.976,13.906 4.114,13.958C4.861,13.992 5.099,14 7,14C8.901,14 9.139,13.992 9.886,13.958C11.023,13.906 12.023,13.628 12.825,12.825C13.627,12.023 13.906,11.024 13.958,9.886C13.992,9.139 14,8.901 14,7C14,5.099 13.992,4.861 13.958,4.114C13.906,2.976 13.628,1.977 12.825,1.175C12.023,0.373 11.024,0.094 9.886,0.042C9.139,0.008 8.901,0 7,0Z" style="fill-rule:nonzero;"/>
    <path d="M7,3.174C8.246,3.174 8.394,3.179 8.886,3.201C9.417,3.226 9.91,3.332 10.289,3.711C10.668,4.09 10.774,4.583 10.799,5.115C10.821,5.607 10.826,5.754 10.826,7C10.826,8.246 10.821,8.394 10.799,8.886C10.774,9.417 10.668,9.91 10.289,10.289C9.91,10.668 9.417,10.775 8.886,10.799C8.394,10.821 8.246,10.826 7,10.826C5.754,10.826 5.606,10.821 5.114,10.799C4.583,10.775 4.09,10.668 3.711,10.289C3.332,9.91 3.225,9.417 3.201,8.886C3.179,8.394 3.174,8.246 3.174,7C3.174,5.754 3.179,5.607 3.201,5.115C3.225,4.583 3.332,4.09 3.711,3.711C4.09,3.332 4.583,3.226 5.114,3.201C5.606,3.179 5.754,3.174 7,3.174ZM7,2.334C5.733,2.334 5.574,2.339 5.076,2.362C4.317,2.396 3.651,2.582 3.116,3.117C2.582,3.651 2.396,4.317 2.361,5.076C2.338,5.574 2.333,5.733 2.333,7C2.333,8.267 2.338,8.426 2.361,8.924C2.396,9.683 2.582,10.349 3.116,10.884C3.651,11.418 4.317,11.604 5.076,11.639C5.574,11.662 5.733,11.667 7,11.667C8.267,11.667 8.426,11.662 8.924,11.639C9.682,11.604 10.349,11.418 10.884,10.884C11.418,10.349 11.604,9.683 11.639,8.924C11.661,8.426 11.667,8.267 11.667,7C11.667,5.733 11.661,5.574 11.639,5.076C11.604,4.318 11.418,3.652 10.884,3.117C10.349,2.582 9.683,2.396 8.924,2.362C8.426,2.339 8.267,2.334 7,2.334Z" style="fill:white;fill-rule:nonzero;"/>
    <path d="M7,4.604C5.677,4.604 4.604,5.677 4.604,7C4.604,8.323 5.677,9.396 7,9.396C8.323,9.396 9.396,8.323 9.396,7C9.396,5.677 8.324,4.604 7,4.604ZM7,8.555C6.141,8.555 5.445,7.859 5.445,7C5.445,6.141 6.141,5.444 7,5.444C7.859,5.444 8.556,6.141 8.556,7C8.556,7.859 7.859,8.555 7,8.555Z" style="fill:white;fill-rule:nonzero;"/>
    <path d="M9.491,5.069C9.8,5.069 10.051,4.818 10.051,4.509C10.051,4.199 9.8,3.949 9.491,3.949C9.182,3.949 8.931,4.199 8.931,4.509C8.931,4.818 9.182,5.069 9.491,5.069Z" style="fill:white;fill-rule:nonzero;"/>
</svg>
