<?xml version="1.0" encoding="UTF-8" standalone="no"?>
<!DOCTYPE svg PUBLIC "-//W3C//DTD SVG 1.1//EN" "http://www.w3.org/Graphics/SVG/1.1/DTD/svg11.dtd">
<svg width="100%" height="100%" viewBox="0 0 20 10" version="1.1" xmlns="http://www.w3.org/2000/svg" xmlns:xlink="http://www.w3.org/1999/xlink" xml:space="preserve" xmlns:serif="http://www.serif.com/" style="fill-rule:evenodd;clip-rule:evenodd;stroke-linejoin:round;stroke-miterlimit:2;">
    <g transform="matrix(1,0,0,1,-2,-7)">
        <path d="M3.9,12C3.9,10.29 5.29,8.9 7,8.9L11,8.9L11,7L7,7C4.257,7 2,9.257 2,12C2,14.743 4.257,17 7,17L11,17L11,15.1L7,15.1C5.29,15.1 3.9,13.71 3.9,12M8,13L16,13L16,11L8,11L8,13M17,7L13,7L13,8.9L17,8.9C18.71,8.9 20.1,10.29 20.1,12C20.1,13.71 18.71,15.1 17,15.1L13,15.1L13,17L17,17C19.743,17 22,14.743 22,12C22,9.257 19.743,7 17,7Z" style="fill-rule:nonzero;"/>
    </g>
</svg>
