<svg height='100px' width='100px'  fill="#000000" xmlns="http://www.w3.org/2000/svg" xmlns:xlink="http://www.w3.org/1999/xlink" version="1.1" x="0px" y="0px" viewBox="0 0 24 24" enable-background="new 0 0 24 24" xml:space="preserve"><g><path d="M13,16c0,0.6-0.4,1-1,1H5c-0.6,0-1-0.4-1-1v-4c0-0.6,0.4-1,1-1h7c0.6,0,1,0.4,1,1v0h2v0c0-1.7-1.3-3-3-3H5   c-1.7,0-3,1.3-3,3v4c0,1.7,1.3,3,3,3h7c1.7,0,3-1.3,3-3L13,16L13,16z"></path><polygon points="15,16 15,16 15,16  "></polygon><path d="M19,5h-7c-1.7,0-3,1.3-3,3v0h2v0c0-0.6,0.4-1,1-1h7c0.6,0,1,0.4,1,1v4c0,0.6-0.4,1-1,1h-7c-0.6,0-1-0.4-1-1v0H9   c0,1.7,1.3,3,3,3h7c1.7,0,3-1.3,3-3V8C22,6.3,20.7,5,19,5z"></path><polygon points="9,12 9,12 9,12  "></polygon></g></svg>