<svg height='100px' width='100px'  fill="#000000" xmlns="http://www.w3.org/2000/svg" xmlns:xlink="http://www.w3.org/1999/xlink" version="1.1" x="0px" y="0px" viewBox="0 0 100 100" enable-background="new 0 0 100 100" xml:space="preserve"><path d="M95.183,53.068c-0.2-0.485-0.294-1.236-0.26-1.501c0.153-1.139-0.618-2.431-1.399-3.147l-3.881-3.569  c-0.371-0.341-0.755-1.173-0.771-1.681l-0.06-1.54c-0.052-1.429-1.144-2.755-2.538-3.083l-1.288-0.299  c-0.443-0.102-0.921-0.55-0.998-0.785c-0.366-1.096-1.492-1.859-2.742-1.859c-0.23,0-0.456,0.025-0.683,0.077l-1.983,0.452  c-0.593,0.132-1.8,0.12-2.388-0.03l-5.16-1.305c-0.397-0.102-0.956-0.618-1.093-1.006l-0.708-2.064  c-0.345-1.006-1.164-1.629-2.137-1.629c-0.559,0-1.1,0.209-1.586,0.619c-0.461,0.393-1.463,0.849-2.061,0.942l-0.674,0.107  c-0.759,0.115-1.428,0.546-1.825,1.177c-0.4,0.631-0.503,1.416-0.286,2.158l0.077,0.256c0.013,0.043,0.009,0.064,0.009,0.068  c-0.004,0.004-0.021,0.017-0.068,0.026l-4.913,0.797c-1.331,0.217-2.593,1.365-2.938,2.67l-0.132,0.499  c-0.154,0.58-0.712,1.514-1.147,1.923l-3.937,3.672c-0.184,0.175-0.491,0.346-0.815,0.469c-0.328,0.128-0.674,0.209-0.947,0.209  l-0.951-0.017c-1.139,0-2.606,0.499-3.484,1.19l-1.258,0.985c-0.41,0.32-1.327,0.614-1.873,0.584l-0.435-0.03  c-1.126-0.068-2.67,0.363-3.6,0.998l-0.64,0.439c-0.098,0.064-0.29,0.132-0.546,0.132c-0.26,0-0.452-0.068-0.546-0.132l-1.68-1.151  c-0.623-0.422-1.476-0.666-2.35-0.666c-0.567,0-1.105,0.102-1.561,0.303l-4.508,1.979c-0.695,0.307-1.245,0.882-1.51,1.583  c-0.255,0.678-0.23,1.416,0.073,2.068c0.047,0.103-0.017,0.337-0.196,0.439l-1.629,0.934c-1.049,0.597-2.018,1.945-2.252,3.126  l-0.192,0.955c-0.004,0.021-0.009,0.039-0.009,0.043c-0.008,0-0.021-0.004-0.042-0.013l-2.329-0.84  c-0.371-0.133-0.781-0.201-1.216-0.201c-0.998,0-1.996,0.354-2.661,0.943l-0.913,0.806c-1.028,0.913-1.476,2.495-1.036,3.681  c0.077,0.222-0.026,0.849-0.303,1.182l-2.252,2.687c-0.584,0.699-0.742,1.497-0.431,2.192c0.312,0.691,1.011,1.104,1.923,1.13  l13.648,0.393h0.081c1.463,0,2.764-1.113,2.973-2.537c0.021-0.146,0.213-0.324,0.427-0.324l48.253,2.034  c1.002,0.047,2.525-0.184,3.459-0.512l5.403-1.89c1.049-0.367,2.32-1.326,2.96-2.23l2.652-3.758c0.41-0.58,1.271-1.462,1.839-1.889  l4.87-3.646C95.162,55.799,95.665,54.255,95.183,53.068z M67.205,32.636c-0.009,0.004-0.029,0.013-0.063,0.017l-0.794-0.973  L67.205,32.636z"></path></svg>