<svg width="11" height="14" viewBox="0 0 11 14" version="1.1" xmlns="http://www.w3.org/2000/svg" xmlns:xlink="http://www.w3.org/1999/xlink">
    <title>pin-3</title>
    <desc>Created using Figma</desc>
    <g id="Canvas" transform="translate(-1345 -1308)">
        <g id="pin-3">
            <g id="Group">
                <g id="Vector">
                    <use xlink:href="#path0_fill" transform="translate(1345 1308)" fill="#333333"/>
                </g>
            </g>
        </g>
    </g>
    <defs>
        <path id="path0_fill" d="M 5.47826 0C 2.8 0 0 2.06957 0 5.47826C 0 8.70435 4.86957 13.6348 5.05217 13.8174C 5.17391 13.9391 5.29565 14 5.47826 14C 5.66087 14 5.78261 13.9391 5.90435 13.8174C 6.08696 13.6348 10.9565 8.70435 10.9565 5.47826C 10.9565 2.06957 8.15652 0 5.47826 0ZM 5.47826 7.30435C 4.44348 7.30435 3.65217 6.51304 3.65217 5.47826C 3.65217 4.44348 4.44348 3.65217 5.47826 3.65217C 6.51304 3.65217 7.30435 4.44348 7.30435 5.47826C 7.30435 6.51304 6.51304 7.30435 5.47826 7.30435Z"/>
    </defs>
</svg>
