<svg height='100px' width='100px'  fill="#000000" xmlns="http://www.w3.org/2000/svg" data-name="Layer 1" viewBox="0 0 512 512" x="0px" y="0px"><title>l8 - 11-2016</title><path d="M0,99.07c0.88-4.5,1.65-9,2.66-13.5C13.7,36.81,57.1,1.37,107.4.24c14.4-.33,28.81-0.29,43.21,0,24.11,0.41,43.16,19.39,43.48,43a43.67,43.67,0,0,1-42.41,44.51c-12.79.46-25.6,0.07-38.41,0.16-16.73.12-25.61,9.1-25.62,25.84q0,142,0,284.09c0,17.06,8.92,26,25.89,26.11,13.33,0.07,26.7-.4,40,0.34,31.22,1.74,50.41,36.47,35.46,64-7.43,13.67-19,22.62-34.76,23.22-19.15.72-38.5,1.1-57.53-.75C48.32,506,7.82,465.88,1.13,417.76,0.89,416,.38,414.32,0,412.61Q0,255.84,0,99.07Z"></path><path d="M361.56,219.69c-2.09-2.29-3.3-3.7-4.6-5C338.43,196,319.8,177.4,301.4,158.59c-14.85-15.19-16.68-38.47-4.69-55.24,12.73-17.81,35.68-24.18,54.87-14.75a49.58,49.58,0,0,1,12.84,9.32q67.06,66.82,133.83,133.93c18.35,18.43,18.32,44.83-.09,63.29Q432.82,360.66,367.28,426c-18.2,18.14-45.31,18.26-63.06.59-17.33-17.26-16.92-44.31,1.14-62.54q25.71-26,51.7-51.64a32.79,32.79,0,0,1,4.32-3.11l-0.82-1.93h-5.84q-89.64,0-179.28,0c-21.27,0-39.45-13.86-44.11-33.34-6.72-28.06,13.82-54.11,43.09-54.24,38.59-.18,77.19,0,115.79,0h71.35Z"></path></svg>