<?xml version="1.0" encoding="UTF-8" standalone="no"?>
<!DOCTYPE svg PUBLIC "-//W3C//DTD SVG 1.1//EN" "http://www.w3.org/Graphics/SVG/1.1/DTD/svg11.dtd">
<svg width="100%" height="100%" viewBox="0 0 14 20" version="1.1" xmlns="http://www.w3.org/2000/svg" xmlns:xlink="http://www.w3.org/1999/xlink" xml:space="preserve" xmlns:serif="http://www.serif.com/" style="fill-rule:evenodd;clip-rule:evenodd;stroke-linejoin:round;stroke-miterlimit:2;">
    <g transform="matrix(1,0,0,1,-5,-2)">
        <path d="M12,6.5C13.371,6.5 14.5,7.629 14.5,9C14.5,10.371 13.371,11.5 12,11.5C10.629,11.5 9.5,10.371 9.5,9C9.5,7.629 10.629,6.5 12,6.5M12,2C15.84,2 19,5.16 19,9C19,14.25 12,22 12,22C12,22 5,14.25 5,9C5,5.16 8.16,2 12,2M12,4C9.257,4 7,6.257 7,9C7,10 7,12 12,18.71C17,12 17,10 17,9C17,6.257 14.743,4 12,4Z" style="fill-rule:nonzero;"/>
    </g>
</svg>
