<svg width="20" height="20" viewBox="0 0 20 20" version="1.1" xmlns="http://www.w3.org/2000/svg" xmlns:xlink="http://www.w3.org/1999/xlink">
<title>meeting-complete</title>
<desc>Created using Figma</desc>
<g id="Canvas" transform="translate(979 164)">
<g id="meeting-complete">
<g id="Group">
<g id="Vector">
<use xlink:href="#path0_fill" transform="translate(-979 -164)" fill="#3F729B"/>
</g>
<g id="Vector">
<use xlink:href="#path1_fill" transform="translate(-979 -156.5)" fill="#3F729B"/>
</g>
</g>
</g>
</g>
<defs>
<path id="path0_fill" d="M 20 2.5C 20 2.04 19.6267 1.66667 19.1667 1.66667L 16.6667 1.66667L 16.6667 0.833333C 16.6667 0.373333 16.2933 0 15.8333 0L 12.5 0C 12.04 0 11.6667 0.373333 11.6667 0.833333L 11.6667 1.66667L 8.33333 1.66667L 8.33333 0.833333C 8.33333 0.373333 7.96 0 7.5 0L 4.16667 0C 3.70667 0 3.33333 0.373333 3.33333 0.833333L 3.33333 1.66667L 0.833333 1.66667C 0.373333 1.66667 0 2.04 0 2.5L 0 5.83333L 20 5.83333L 20 2.5ZM 6.66667 4.16667L 5 4.16667L 5 1.66667L 6.66667 1.66667L 6.66667 4.16667ZM 15 4.16667L 13.3333 4.16667L 13.3333 1.66667L 15 1.66667L 15 4.16667Z"/>
<path id="path1_fill" d="M 0 0L 0 11.6667C 0 12.1267 0.373333 12.5 0.833333 12.5L 19.1667 12.5C 19.6267 12.5 20 12.1267 20 11.6667L 20 0L 0 0ZM 8.9225 9.75583C 8.76 9.91833 8.54667 10 8.33333 10C 8.12 10 7.90667 9.91833 7.74417 9.75583L 5.24417 7.25583L 6.4225 6.0775L 8.33333 7.98833L 13.5775 2.74417L 14.7558 3.9225L 8.9225 9.75583Z"/>
</defs>
</svg>
