<svg id="Capa_1" enable-background="new 0 0 512 512" height="512" viewBox="0 0 512 512" width="512" xmlns="http://www.w3.org/2000/svg"><g><path d="m300.38 119.083c-30.475 16.712-72.468 26.546-115.19 31.254v156.883c42.722 4.708 84.715 14.542 115.19 31.254z"/><path d="m330.38 66.399h30v324.76h-30z"/><path d="m454.593 90.186-21.213 21.213c31.353 31.354 48.62 73.04 48.62 117.38s-17.267 86.026-48.62 117.38l21.213 21.213c37.019-37.02 57.407-86.24 57.407-138.593s-20.388-101.574-57.407-138.593z"/><path d="m412.167 132.612-21.213 21.213c41.329 41.33 41.329 108.578 0 149.907l21.213 21.213c53.026-53.026 53.026-139.307 0-192.333z"/><path d="m155.19 301.633v-148.807c-11.394.645-22.659.952-33.584.952h-121.606v150h63.853l28.21 141.823 88.271-17.559zm-70-87.854h40v30h-40z"/></g></svg>