<?xml version="1.0" encoding="UTF-8" standalone="no"?>
<!DOCTYPE svg PUBLIC "-//W3C//DTD SVG 1.1//EN" "http://www.w3.org/Graphics/SVG/1.1/DTD/svg11.dtd">
<svg width="14" height="14" viewBox="0 0 14 14" version="1.1" xmlns="http://www.w3.org/2000/svg" xmlns:xlink="http://www.w3.org/1999/xlink" xml:space="preserve" xmlns:serif="http://www.serif.com/" style="fill-rule:evenodd;clip-rule:evenodd;stroke-linejoin:round;stroke-miterlimit:2;">
    <g>
        <path d="M0.77,7.42C0.739,7.336 0.717,7.247 0.706,7.155C0.486,5.251 0.183,2.638 0.007,1.112C-0.028,0.809 0.077,0.507 0.292,0.292C0.507,0.077 0.809,-0.028 1.112,0.007C2.634,0.183 5.239,0.485 7.141,0.705C7.232,0.715 7.32,0.736 7.403,0.767C7.909,0.855 8.393,1.094 8.784,1.484L13.245,5.945C14.252,6.952 14.252,8.588 13.245,9.595L9.595,13.245C8.588,14.252 6.952,14.252 5.945,13.245L1.484,8.784C1.098,8.398 0.86,7.92 0.77,7.42Z"/>
        <g transform="matrix(0.638419,0,0,0.638419,0.463385,0.162939)">
            <circle cx="2.955" cy="3.426" r="1.958" style="fill:white;"/>
        </g>
    </g>
</svg>
