<svg xmlns="http://www.w3.org/2000/svg" xmlns:xlink="http://www.w3.org/1999/xlink" width="100" height="100" viewBox="0 0 100 100"><g transform="translate(50 50) scale(.8 1.1) rotate(90) translate(-50 -50)" style="fill:#000000"><svg fill="#000000" version="1.1" xmlns="http://www.w3.org/2000/svg" xmlns:xlink="http://www.w3.org/1999/xlink" x="0px" y="0px" viewBox="0 0 82 100" enable-background="new 0 0 82 100" xml:space="preserve"><polygon points="82,30 82,0 52,0 52,12 44,12 44,0 38,0 38,47 30,47 30,35 0,35 0,65 30,65 30,53 38,53 38,100 44,100 44,88 52,88
	52,100 82,100 82,70 52,70 52,82 44,82 44,18 52,18 52,30 "></polygon></svg></g></svg>
