<?xml version="1.0" encoding="UTF-8" standalone="no"?>
<!DOCTYPE svg PUBLIC "-//W3C//DTD SVG 1.1//EN" "http://www.w3.org/Graphics/SVG/1.1/DTD/svg11.dtd">
<svg width="100%" height="100%" viewBox="0 0 14 15" version="1.1" xmlns="http://www.w3.org/2000/svg" xmlns:xlink="http://www.w3.org/1999/xlink" xml:space="preserve" xmlns:serif="http://www.serif.com/" style="fill-rule:evenodd;clip-rule:evenodd;stroke-linejoin:round;stroke-miterlimit:2;">
    <g transform="matrix(0.304337,0,0,0.304337,-0.304337,-0.219122)">
        <path d="M1,38.15C1,38.15 4.58,39.17 9.41,40.54L6.09,19.23L1,38.15ZM16.55,42.54C25.81,45.12 35.6,47.78 34.66,47.2C34.13,46.87 34.42,43.85 35.09,39.84C28.97,40.78 21.71,41.81 16.55,42.54ZM46.92,34.8C44.89,34.51 39.4,4.77 39.4,4.77L30.34,6.18C30.98,7.18 31.37,8.36 31.37,9.63C31.37,13.15 28.5,16.02 24.97,16.02C21.45,16.02 18.58,13.15 18.58,9.63C18.58,9.05 18.68,8.5 18.83,7.97L7.73,9.7L12.47,40.16C12.47,40.16 48.95,35.08 46.92,34.8ZM24.98,13.31C27.66,13.31 29.85,11.13 29.85,8.45C29.85,6.97 29.17,5.65 28.12,4.76C28.17,4.99 28.2,5.22 28.2,5.46C28.2,7.23 26.76,8.67 24.98,8.67C23.21,8.67 21.77,7.23 21.77,5.46C21.77,5.22 21.8,4.98 21.85,4.76C20.8,5.65 20.12,6.97 20.12,8.45C20.12,11.12 22.3,13.31 24.98,13.31ZM24.98,6.66C26.62,6.66 27.96,5.32 27.96,3.69C27.96,2.05 26.63,0.72 24.98,0.72C23.34,0.72 22.01,2.05 22.01,3.69C22.01,5.32 23.34,6.66 24.98,6.66Z" style="fill-rule:nonzero;"/>
    </g>
</svg>
