<svg xmlns="http://www.w3.org/2000/svg" xmlns:xlink="http://www.w3.org/1999/xlink" version="1.1" x="0px" y="0px" viewBox="0 0 100 100" style="enable-background:new 0 0 100 100;" xml:space="preserve"><g><path d="M75.8656769,29.6435547H51.069294c-0.5522461,0-1,0.4472656-1,1s0.4477539,1,1,1h24.7963829c0.5522461,0,1-0.4472656,1-1   S76.417923,29.6435547,75.8656769,29.6435547z"></path><path d="M75.8656769,42.7431641H64.0199738c-0.5522423,0-0.9999962,0.4472656-0.9999962,1s0.4477539,1,0.9999962,1h11.8457031   c0.5522461,0,1-0.4472656,1-1S76.417923,42.7431641,75.8656769,42.7431641z"></path><path d="M75.8656769,55.6416016H64.0199738c-0.5522423,0-0.9999962,0.4472656-0.9999962,1s0.4477539,1,0.9999962,1h11.8457031   c0.5522461,0,1-0.4472656,1-1S76.417923,55.6416016,75.8656769,55.6416016z"></path><path d="M88.2206573,37.8154297l-5.0771484,6.3134766l-0.7983398-1.2861328   c-0.2919922-0.4697266-0.9091797-0.6132813-1.3769531-0.3222656c-0.4692383,0.2910156-0.6137695,0.9082031-0.3222656,1.3769531   l1.5429688,2.4853516c0.1708984,0.2753906,0.465332,0.4511719,0.7885742,0.4707031   c0.0205078,0.0009766,0.0410156,0.0019531,0.0610352,0.0019531c0.3017578,0,0.5888672-0.1367188,0.7792969-0.3730469   l5.9614258-7.4130859c0.3461914-0.4306641,0.277832-1.0605469-0.152832-1.40625   C89.1977081,37.3183594,88.5683136,37.3867188,88.2206573,37.8154297z"></path><path d="M88.2206573,50.7148438l-5.0771484,6.3134766l-0.7983398-1.2861328   c-0.2919922-0.46875-0.9091797-0.6132813-1.3769531-0.3222656c-0.4692383,0.2910156-0.6137695,0.9082031-0.3222656,1.3769531   l1.5429688,2.4853516c0.1708984,0.2753906,0.465332,0.4511719,0.7885742,0.4707031   c0.0205078,0.0009766,0.0410156,0.0019531,0.0610352,0.0019531c0.3017578,0,0.5888672-0.1367188,0.7792969-0.3730469   l5.9614258-7.4130859c0.3461914-0.4306641,0.277832-1.0605469-0.152832-1.40625   C89.1977081,50.2177734,88.5683136,50.2861328,88.2206573,50.7148438z"></path><path d="M82.1889191,33.2841797c0.1708984,0.2753906,0.465332,0.4511719,0.7885742,0.4707031   c0.0205078,0.0009766,0.0410156,0.0019531,0.0610352,0.0019531c0.3017578,0,0.5888672-0.1367188,0.7792969-0.3730469   l5.9614258-7.4130859c0.3461914-0.4306641,0.277832-1.0605469-0.152832-1.40625   c-0.4287109-0.3457031-1.0581055-0.2763672-1.4057617,0.1523438l-5.0771484,6.3134766l-0.7983398-1.2861328   c-0.2919922-0.46875-0.9091797-0.6123047-1.3769531-0.3222656c-0.4692383,0.2910156-0.6137695,0.9082031-0.3222656,1.3769531   L82.1889191,33.2841797z"></path><path d="M59.9897041,43.2050781h-0.000061l-8.4013062-8.2792969c-0.0001831-0.0001831-0.0004272-0.0002441-0.0006104-0.0004272   c-0.0001221-0.0001221-0.0002441-0.0004272-0.0003662-0.0005493l-0.1210938-0.1191406   c-0.1870117-0.1835938-0.4389648-0.2871094-0.7011719-0.2871094h-6.4921875v-4.6796875   c0-0.2675781-0.1074219-0.5244141-0.2988281-0.7128906l-0.1210938-0.1191406h-0.000061l-8.4013062-8.2792969   c-0.0001831-0.0001831-0.0004272-0.0002441-0.0006104-0.0004272c-0.0001221-0.0001221-0.0001831-0.0004272-0.0003662-0.0005493   l-0.1210938-0.1191406c-0.1870117-0.1835938-0.4389648-0.2871094-0.7011719-0.2871094H10.9999561c-0.5522461,0-1,0.4472656-1,1   v43.1611328c0,0.5527344,0.4477539,1,1,1h15.1367188v13.1982422c0,0.5527344,0.4477539,1,1,1H59.409626   c0.5522461,0,1-0.4472656,1-1V44.0371094c0-0.2675781-0.1074219-0.5244141-0.2988281-0.7128906L59.9897041,43.2050781z    M51.8861885,38.0273438l4.9628906,4.890625h-4.9628906V38.0273438z M35.7494698,23.8291016l4.9628906,4.890625h-4.9628906   V23.8291016z M26.1366749,35.5185547v27.9628906H11.9999561V22.3203125h21.7495136v7.3994141c0,0.5527344,0.4477539,1,1,1   h7.5234375v3.7988281H27.1366749C26.5844288,34.5185547,26.1366749,34.9658203,26.1366749,35.5185547z M58.409626,77.6796875   H28.1366749V64.4814453V36.5185547h15.1362324h6.6132813v7.3994141c0,0.5527344,0.4477539,1,1,1h7.5234375V77.6796875z"></path></g></svg>