<svg height='100px' width='100px'  fill="#000000" xmlns="http://www.w3.org/2000/svg" xmlns:xlink="http://www.w3.org/1999/xlink" version="1.1" x="0px" y="0px" viewBox="0 0 100 100" style="enable-background:new 0 0 100 100;" xml:space="preserve"><path d="M71.6,75.5c0,1.9-1.6,3.5-3.5,3.5H24.5c-1.9,0-3.5-1.6-3.5-3.5V31.9c0-1.9,1.6-3.5,3.5-3.5h30v-3h-30  c-3.6,0-6.5,2.9-6.5,6.5v43.6c0,3.6,2.9,6.5,6.5,6.5h43.6c3.6,0,6.5-2.9,6.5-6.5V46.7h-3V75.5z M58.3,18v3h18.5L36.2,61.6l2.1,2.1  L79,23.1v18.5h3V18H58.3z"></path></svg>