<svg height='100px' width='100px'  fill="#000000" xmlns:x="http://ns.adobe.com/Extensibility/1.0/" xmlns:i="http://ns.adobe.com/AdobeIllustrator/10.0/" xmlns:graph="http://ns.adobe.com/Graphs/1.0/" xmlns="http://www.w3.org/2000/svg" xmlns:xlink="http://www.w3.org/1999/xlink" version="1.1" x="0px" y="0px" viewBox="0 0 100 100" style="enable-background:new 0 0 100 100;" xml:space="preserve"><g><g i:extraneous="self"><g><path d="M94.4,63c0-5.7-3.6-10.5-8.6-12.5V7.3c0-2.7-2.2-4.8-4.8-4.8c-2.7,0-4.8,2.2-4.8,4.8v43.2c-5,1.9-8.6,6.8-8.6,12.5     s3.6,10.5,8.6,12.5v17.2c0,2.7,2.2,4.8,4.8,4.8c2.7,0,4.8-2.2,4.8-4.8V75.5C90.9,73.6,94.4,68.7,94.4,63z M81,66.7     c-2,0-3.7-1.7-3.7-3.7c0-2,1.7-3.7,3.7-3.7s3.7,1.7,3.7,3.7C84.7,65.1,83.1,66.7,81,66.7z"></path><path d="M54.8,24.5V7.3c0-2.7-2.2-4.8-4.8-4.8c-2.7,0-4.8,2.2-4.8,4.8v17.2c-5,1.9-8.6,6.8-8.6,12.5s3.6,10.5,8.6,12.5v43.2     c0,2.7,2.2,4.8,4.8,4.8c2.7,0,4.8-2.2,4.8-4.8V49.5c5-1.9,8.6-6.8,8.6-12.5S59.8,26.5,54.8,24.5z M50,40.7c-2,0-3.7-1.7-3.7-3.7     c0-2,1.7-3.7,3.7-3.7c2,0,3.7,1.7,3.7,3.7C53.7,39.1,52,40.7,50,40.7z"></path><path d="M23.8,50.5V7.3c0-2.7-2.2-4.8-4.8-4.8c-2.7,0-4.8,2.2-4.8,4.8v43.2c-5,1.9-8.6,6.8-8.6,12.5s3.6,10.5,8.6,12.5v17.2     c0,2.7,2.2,4.8,4.8,4.8c2.7,0,4.8-2.2,4.8-4.8V75.5c5-1.9,8.6-6.8,8.6-12.5S28.8,52.5,23.8,50.5z M19,66.7c-2,0-3.7-1.7-3.7-3.7     c0-2,1.7-3.7,3.7-3.7c2,0,3.7,1.7,3.7,3.7C22.7,65.1,21,66.7,19,66.7z"></path></g></g></g></svg>