<svg width="17" height="20" viewBox="0 0 17 20" version="1.1" xmlns="http://www.w3.org/2000/svg" xmlns:xlink="http://www.w3.org/1999/xlink">
<title>phone-off</title>
<desc>Created using Figma</desc>
<g id="Canvas" transform="translate(1184 164)">
<g id="phone-off">
<g id="Group">
<g id="Vector">
<use xlink:href="#path0_fill" transform="translate(-1184 -164)" fill="#3F729B"/>
</g>
</g>
</g>
</g>
<defs>
<path id="path0_fill" d="M 9.09091 6.54545L 8.18182 5.63636L 4.54545 9.27273L 0.909091 5.63636L 0 6.54545L 3.63636 10.1818L 0 13.8182L 0.909091 14.7273L 4.54545 11.0909L 8.18182 14.7273L 9.09091 13.8182L 5.45455 10.1818L 9.09091 6.54545ZM 14.5455 0L 5.45455 0C 4.45455 0 3.63636 0.818182 3.63636 1.81818L 3.63636 4.54545L 5.45455 4.54545L 5.45455 2.72727L 14.5455 2.72727L 14.5455 17.2727L 5.45455 17.2727L 5.45455 15.4545L 3.63636 15.4545L 3.63636 18.1818C 3.63636 19.1818 4.45455 20 5.45455 20L 14.5455 20C 15.5455 20 16.3636 19.1818 16.3636 18.1818L 16.3636 1.81818C 16.3636 0.818182 15.5455 0 14.5455 0Z"/>
</defs>
</svg>
