<svg width="24" height="25" viewBox="0 0 24 25" version="1.1" xmlns="http://www.w3.org/2000/svg" xmlns:xlink="http://www.w3.org/1999/xlink">
<g id="Canvas" fill="none">
<g id="zoom-bold">
<g id="Group">
<g id="Vector">
<path d="M 3.09677 5.0864e-07C 2.26916 1.21864 1.21703 2.27216 5.0797e-07 3.10086L 4.32619 7.43277L 7.42297 4.3319L 3.09677 5.0864e-07Z" transform="translate(16.5771 16.616)" fill="white"/>
</g>
<g id="Vector_2">
<path d="M 10.0645 0C 4.5151 0 0 4.52106 0 10.0778C 0 15.6345 4.5151 20.1556 10.0645 20.1556C 15.6139 20.1556 20.129 15.6345 20.129 10.0778C 20.129 4.52106 15.6139 0 10.0645 0ZM 10.0645 18.6052C 5.36129 18.6052 1.54839 14.7872 1.54839 10.0778C 1.54839 5.36837 5.36129 1.55043 10.0645 1.55043C 14.7677 1.55043 18.5806 5.36837 18.5806 10.0778C 18.5806 14.7872 14.7677 18.6052 10.0645 18.6052Z" transform="translate(0 0.0170898)" fill="white"/>
</g>
</g>
</g>
</g>
</svg>

