<svg fill="#FFFFFF" xmlns="http://www.w3.org/2000/svg" xmlns:xlink="http://www.w3.org/1999/xlink" version="1.1" x="0px" y="0px" viewBox="0 0 100 100" enable-background="new 0 0 100 100" xml:space="preserve"><g display="none"><rect x="35" y="35" display="inline" width="10" height="10"></rect><rect x="45" y="45" display="inline" width="10" height="10"></rect><rect x="55" y="55" display="inline" width="10" height="10"></rect><rect x="65" y="65" display="inline" width="10" height="10"></rect><rect x="65" y="75" display="inline" width="10" height="10"></rect><rect x="85" y="85" display="inline" width="10" height="10"></rect><rect x="65" y="85" display="inline" width="10" height="10"></rect><rect x="55" y="85" display="inline" width="10" height="10"></rect><rect x="85" y="65" display="inline" width="10" height="10"></rect><rect x="85" y="55" display="inline" width="10" height="10"></rect><rect x="85" y="45" display="inline" width="10" height="10"></rect><rect x="45" y="85" display="inline" width="10" height="10"></rect><rect x="25" y="25" display="inline" width="10" height="10"></rect><rect x="15" y="15" display="inline" width="10" height="10"></rect><rect x="5" y="5" display="inline" width="10" height="10"></rect><rect x="5" y="15" display="inline" width="10" height="10"></rect><rect x="15" y="25" display="inline" width="10" height="10"></rect><rect x="25" y="35" display="inline" width="10" height="10"></rect><rect x="35" y="45" display="inline" width="10" height="10"></rect><rect x="45" y="55" display="inline" width="10" height="10"></rect><rect x="55" y="65" display="inline" width="10" height="10"></rect><rect x="75" y="85" display="inline" width="10" height="10"></rect><rect x="85" y="75" display="inline" width="10" height="10"></rect><rect x="75" y="75" display="inline" width="10" height="10"></rect><rect x="35" y="85" display="inline" width="10" height="10"></rect><rect x="85" y="35" display="inline" width="10" height="10"></rect></g><g><polyline points="92.5,47.5 7.5,17.5 20,42.5  "></polyline><polyline points="92.5,47.5 7.5,77.5 20,52.5  "></polyline></g></svg>