<svg width="24" height="24" viewBox="0 0 24 24" version="1.1" xmlns="http://www.w3.org/2000/svg" xmlns:xlink="http://www.w3.org/1999/xlink">
<title>settings</title>
<desc>Created using Figma</desc>
<g id="Canvas" transform="translate(2527 6234)">
<g id="settings">
<g id="Group">
<g id="Vector">
<use xlink:href="#path0_fill" transform="translate(-2527 -6234)" fill="#FFFFFF"/>
</g>
</g>
</g>
</g>
<defs>
<path id="path0_fill" d="M 21.1688 13.176C 21.2182 12.792 21.2552 12.408 21.2552 12C 21.2552 11.592 21.2182 11.208 21.1688 10.824L 23.7719 8.844C 24.0063 8.664 24.068 8.34 23.9199 8.076L 21.4526 3.924C 21.3046 3.66 20.9715 3.564 20.7001 3.66L 17.6282 4.86C 16.9867 4.38 16.2959 3.984 15.5433 3.684L 15.0745 0.504C 15.0375 0.216 14.7785 0 14.4701 0L 9.5354 0C 9.22698 0 8.96791 0.216 8.9309 0.504L 8.46211 3.684C 7.70957 3.984 7.01872 4.392 6.37722 4.86L 3.30539 3.66C 3.02165 3.552 2.7009 3.66 2.55286 3.924L 0.0855318 8.076C -0.0748445 8.34 -0.000824534 8.664 0.233572 8.844L 2.8366 10.824C 2.78726 11.208 2.75025 11.604 2.75025 12C 2.75025 12.396 2.78726 12.792 2.8366 13.176L 0.233572 15.156C -0.000824534 15.336 -0.0625079 15.66 0.0855318 15.924L 2.55286 20.076C 2.7009 20.34 3.03399 20.436 3.30539 20.34L 6.37722 19.14C 7.01872 19.62 7.70957 20.016 8.46211 20.316L 8.9309 23.496C 8.96791 23.784 9.22698 24 9.5354 24L 14.4701 24C 14.7785 24 15.0375 23.784 15.0745 23.496L 15.5433 20.316C 16.2959 20.016 16.9867 19.608 17.6282 19.14L 20.7001 20.34C 20.9838 20.448 21.3046 20.34 21.4526 20.076L 23.9199 15.924C 24.068 15.66 24.0063 15.336 23.7719 15.156L 21.1688 13.176ZM 12.0027 16.2C 9.62175 16.2 7.6849 14.316 7.6849 12C 7.6849 9.684 9.62175 7.8 12.0027 7.8C 14.3837 7.8 16.3205 9.684 16.3205 12C 16.3205 14.316 14.3837 16.2 12.0027 16.2Z"/>
</defs>
</svg>
