<svg width="18" height="20" viewBox="0 0 18 20" version="1.1" xmlns="http://www.w3.org/2000/svg" xmlns:xlink="http://www.w3.org/1999/xlink">
<title>share</title>
<desc>Created using Figma</desc>
<g id="Canvas" transform="translate(945 161)">
<g id="share">
<g id="Group">
<g id="Vector">
<use xlink:href="#path0_fill" transform="translate(-945 -161)"/>
</g>
</g>
</g>
</g>
<defs>
<path id="path0_fill" d="M 13.75 7.5C 15.8175 7.5 17.5 5.8175 17.5 3.75C 17.5 1.6825 15.8175 0 13.75 0C 11.6825 0 10 1.6825 10 3.75C 10 4.02875 10.0363 4.29875 10.0938 4.56125L 6.06875 7.07625C 5.42875 6.5675 4.63 6.25 3.75 6.25C 1.6825 6.25 0 7.9325 0 10C 0 12.0675 1.6825 13.75 3.75 13.75C 4.63 13.75 5.42875 13.4325 6.06875 12.9237L 10.0938 15.4387C 10.0363 15.7013 10 15.9712 10 16.25C 10 18.3175 11.6825 20 13.75 20C 15.8175 20 17.5 18.3175 17.5 16.25C 17.5 14.1825 15.8175 12.5 13.75 12.5C 12.87 12.5 12.0713 12.8175 11.4313 13.3263L 7.40625 10.8113C 7.46375 10.5487 7.5 10.2788 7.5 10C 7.5 9.72125 7.46375 9.45125 7.40625 9.18875L 11.4313 6.67375C 12.0713 7.1825 12.87 7.5 13.75 7.5Z"/>
</defs>
</svg>
