<svg height='100px' width='100px'  fill="#000000" xmlns="http://www.w3.org/2000/svg" viewBox="0 0 64 64" x="0px" y="0px"><g data-name="Layer 22"><path d="M56,31H35.3V26.59H48a1,1,0,0,0,.68-.27l8-7.48a1,1,0,0,0,.32-.73,1,1,0,0,0-.32-.73l-8-7.48A1,1,0,0,0,48,9.63H35.3v-3a3.62,3.62,0,1,0-7.24,0v3H8a1,1,0,0,0-1,1v15a1,1,0,0,0,1,1H28.06V31H16a1,1,0,0,0-.68.27l-8,7.48a1,1,0,0,0,0,1.46l8,7.48A1,1,0,0,0,16,48H28.06V59H18.55a1,1,0,0,0,0,2h26.9a1,1,0,0,0,0-2H35.3V48H56a1,1,0,0,0,1-1V32A1,1,0,0,0,56,31ZM30.06,26.59H33.3V31H30.06Zm0-20a1.62,1.62,0,0,1,3.24,0v3H30.06ZM33.3,59H30.06V48H33.3Z"></path></g></svg>