<?xml version="1.0" encoding="UTF-8" standalone="no"?>
<!DOCTYPE svg PUBLIC "-//W3C//DTD SVG 1.1//EN" "http://www.w3.org/Graphics/SVG/1.1/DTD/svg11.dtd">
<svg width="15" height="14" viewBox="0 0 15 14" version="1.1" xmlns="http://www.w3.org/2000/svg" xmlns:xlink="http://www.w3.org/1999/xlink" xml:space="preserve" xmlns:serif="http://www.serif.com/" style="fill-rule:evenodd;clip-rule:evenodd;stroke-linejoin:round;stroke-miterlimit:2;">
    <path d="M0.505,5.753C0.501,5.777 0.498,5.801 0.493,5.825C0.506,5.847 0.517,5.87 0.529,5.892L0.505,5.753Z" style="fill:rgb(68,68,68);fill-rule:nonzero;"/>
    <path d="M13.525,8.243C13.529,8.218 13.532,8.193 13.537,8.169C13.525,8.146 13.514,8.124 13.501,8.102L13.525,8.243Z" style="fill:rgb(68,68,68);fill-rule:nonzero;"/>
    <path d="M8.114,13.455C8.136,13.468 8.159,13.479 8.181,13.492C8.206,13.487 8.231,13.484 8.255,13.479L8.114,13.455Z" style="fill:rgb(68,68,68);fill-rule:nonzero;"/>
    <path d="M13.537,8.169C13.533,8.193 13.53,8.218 13.525,8.243L13.501,8.102C13.514,8.124 13.525,8.146 13.537,8.169C13.609,7.774 13.647,7.371 13.647,6.967C13.647,6.073 13.472,5.205 13.126,4.388C12.792,3.599 12.315,2.89 11.706,2.282C11.098,1.673 10.389,1.195 9.6,0.862C8.783,0.516 7.915,0.341 7.021,0.341C6.599,0.341 6.177,0.381 5.766,0.459C5.765,0.459 5.764,0.46 5.763,0.46C5.786,0.472 5.809,0.483 5.832,0.496L5.692,0.474C5.716,0.469 5.739,0.465 5.763,0.46C5.199,0.16 4.565,0 3.923,0C2.875,0 1.89,0.408 1.149,1.149C0.408,1.89 0,2.875 0,3.923C0,4.59 0.171,5.246 0.494,5.825C0.498,5.801 0.501,5.777 0.505,5.753L0.529,5.892C0.517,5.87 0.506,5.847 0.494,5.825C0.428,6.201 0.394,6.584 0.394,6.967C0.394,7.862 0.569,8.73 0.915,9.547C1.248,10.336 1.726,11.045 2.334,11.653C2.943,12.262 3.652,12.74 4.441,13.073C5.258,13.419 6.126,13.595 7.021,13.595C7.41,13.595 7.8,13.559 8.181,13.492C8.159,13.479 8.136,13.468 8.114,13.455L8.255,13.479C8.231,13.484 8.206,13.487 8.181,13.492C8.768,13.824 9.433,14 10.111,14C11.159,14 12.144,13.592 12.885,12.851C13.626,12.111 14.034,11.125 14.034,10.077C14.034,9.408 13.861,8.75 13.537,8.169Z" style="fill-rule:nonzero;"/>
    <path d="M7.047,11.026C4.693,11.026 3.64,9.869 3.64,9.001C3.64,8.556 3.968,8.244 4.421,8.244C5.428,8.244 5.167,9.691 7.047,9.691C8.009,9.691 8.541,9.168 8.541,8.634C8.541,8.312 8.382,7.956 7.748,7.799L5.654,7.277C3.968,6.854 3.662,5.942 3.662,5.085C3.662,3.306 5.337,2.638 6.911,2.638C8.36,2.638 10.068,3.439 10.068,4.506C10.068,4.963 9.672,5.229 9.22,5.229C8.36,5.229 8.518,4.039 6.786,4.039C5.927,4.039 5.451,4.429 5.451,4.986C5.451,5.541 6.13,5.719 6.719,5.853L8.269,6.197C9.967,6.575 10.397,7.567 10.397,8.5C10.397,9.946 9.287,11.026 7.047,11.026Z" style="fill:white;fill-rule:nonzero;"/>
</svg>
