<?xml version="1.0" encoding="UTF-8" standalone="no"?>
<!DOCTYPE svg PUBLIC "-//W3C//DTD SVG 1.1//EN" "http://www.w3.org/Graphics/SVG/1.1/DTD/svg11.dtd">
<svg width="20" height="20" viewBox="0 0 20 20" version="1.1" xmlns="http://www.w3.org/2000/svg" xmlns:xlink="http://www.w3.org/1999/xlink" xml:space="preserve" xmlns:serif="http://www.serif.com/" style="fill-rule:evenodd;clip-rule:evenodd;stroke-linecap:round;stroke-linejoin:round;stroke-miterlimit:2;">
    <g id="path1_fill" transform="matrix(-0.699505,0,0,0.685522,19.2014,4.31317)">
        <path d="M19.167,0L0.833,0C0.373,0 0,0.373 0,0.833L0,14.167C0,14.628 0.373,15 0.833,15L4.167,15L4.167,21.459L10.833,15L19.167,15C19.627,15 20,14.628 20,14.167L20,0.833C20,0.373 19.627,0 19.167,0Z" style="fill:white;fill-rule:nonzero;stroke:rgb(51,51,51);stroke-width:2.17px;"/>
    </g>
    <g id="path1_fill1" serif:id="path1_fill" transform="matrix(0.78077,0,0,0.748211,0.82206,0.797994)">
        <path d="M19.167,0L0.833,0C0.373,0 0,0.373 0,0.833L0,14.167C0,14.628 0.373,15 0.833,15L4.167,15L4.167,21.337L10.833,15L19.167,15C19.627,15 20,14.628 20,14.167L20,0.833C20,0.373 19.627,0 19.167,0Z" style="fill:rgb(51,51,51);fill-rule:nonzero;"/>
        <clipPath id="_clip1">
            <path d="M19.167,0L0.833,0C0.373,0 0,0.373 0,0.833L0,14.167C0,14.628 0.373,15 0.833,15L4.167,15L4.167,21.337L10.833,15L19.167,15C19.627,15 20,14.628 20,14.167L20,0.833C20,0.373 19.627,0 19.167,0Z" clip-rule="nonzero"/>
        </clipPath>
        <g clip-path="url(#_clip1)">
            <g transform="matrix(1.07696,0,0,1.55927,-0.769567,-5.49274)">
                <path d="M3,5L17,5" style="fill:none;stroke:white;stroke-width:1.48px;stroke-miterlimit:1.5;"/>
                <g transform="matrix(1,0,0,1,0,3)">
                    <path d="M3,5L17,5" style="fill:none;stroke:white;stroke-width:1.48px;stroke-miterlimit:1.5;"/>
                </g>
                <g transform="matrix(1,0,0,1,0,6)">
                    <path d="M3,5L17,5" style="fill:none;stroke:white;stroke-width:1.48px;stroke-miterlimit:1.5;"/>
                </g>
            </g>
        </g>
        <path d="M19.167,0L0.833,0C0.373,0 0,0.373 0,0.833L0,14.167C0,14.628 0.373,15 0.833,15L4.167,15L4.167,21.337L10.833,15L19.167,15C19.627,15 20,14.628 20,14.167L20,0.833C20,0.373 19.627,0 19.167,0Z" style="fill:none;fill-rule:nonzero;stroke:rgb(51,51,51);stroke-width:1.96px;"/>
    </g>
    <g id="Layer1">
    </g>
</svg>
