<?xml version="1.0" encoding="UTF-8" standalone="no"?>
<!DOCTYPE svg PUBLIC "-//W3C//DTD SVG 1.1//EN" "http://www.w3.org/Graphics/SVG/1.1/DTD/svg11.dtd">
<svg width="100%" height="100%" viewBox="0 0 20 20" version="1.1" xmlns="http://www.w3.org/2000/svg" xmlns:xlink="http://www.w3.org/1999/xlink" xml:space="preserve" xmlns:serif="http://www.serif.com/" style="fill-rule:evenodd;clip-rule:evenodd;stroke-linejoin:round;stroke-miterlimit:2;">
    <g id="path1_fill" transform="matrix(-0.677064,0,0,0.679212,19.2847,3.99474)">
        <path d="M19.167,0L0.833,0C0.373,0 0,0.373 0,0.833L0,14.167C0,14.628 0.373,15 0.833,15L4.167,15L4.167,20L10.833,15L19.167,15C19.627,15 20,14.628 20,14.167L20,0.833C20,0.373 19.627,0 19.167,0Z" style="fill:white;fill-rule:nonzero;stroke:black;stroke-width:1.47px;"/>
    </g>
    <g transform="matrix(0.948146,0,0,1,0.322478,-0.139545)">
        <clipPath id="_clip1">
            <rect x="0.152" y="0.556" width="20.602" height="17.726"/>
        </clipPath>
        <g clip-path="url(#_clip1)">
            <g id="path1_fill1" serif:id="path1_fill" transform="matrix(0.797054,0,0,0.741323,0.714576,1.03576)">
                <path d="M19.167,0L0.833,0C0.373,0 0,0.373 0,0.833L0,14.167C0,14.628 0.373,15 0.833,15L4.167,15L4.167,20L10.833,15L19.167,15C19.627,15 20,14.628 20,14.167L20,0.833C20,0.373 19.627,0 19.167,0Z" style="fill-rule:nonzero;stroke:black;stroke-width:1.34px;"/>
            </g>
            <g transform="matrix(0.858392,0,0,0.885242,0.101189,-0.766381)">
                <path d="M3,5L17,5" style="fill:none;stroke:white;stroke-width:1.18px;stroke-linecap:round;stroke-miterlimit:1.5;"/>
                <g transform="matrix(1,0,0,1,0,3)">
                    <path d="M3,5L17,5" style="fill:none;stroke:white;stroke-width:1.18px;stroke-linecap:round;stroke-miterlimit:1.5;"/>
                </g>
                <g transform="matrix(1,0,0,1,0,6)">
                    <path d="M3,5L17,5" style="fill:none;stroke:white;stroke-width:1.18px;stroke-linecap:round;stroke-miterlimit:1.5;"/>
                </g>
            </g>
        </g>
    </g>
    <g id="Layer1">
    </g>
</svg>
