<svg height='100px' width='100px'  fill="#000000" xmlns="http://www.w3.org/2000/svg" xmlns:xlink="http://www.w3.org/1999/xlink" viewBox="0 0 48 48" version="1.1" x="0px" y="0px"><title>5.2</title><desc>Created with Sketch.</desc><g stroke="none" stroke-width="1" fill="none" fill-rule="evenodd"><g fill="#000000"><g><path d="M42,37.1701811 L42,5.99970728 C42,4.88989258 41.1045695,4 40,4 C38.8877296,4 38,4.89529944 38,5.99970728 L38,37.1802148 L37.166259,36.3464738 C36.3798277,35.5600425 35.1191304,35.5657197 34.3380544,36.3467957 C33.5515329,37.1333172 33.5568343,38.394102 34.3377326,39.1750002 L38.5809177,43.4181854 C39.0170657,43.8543333 39.5990845,44.0468513 40.1642632,43.9985894 C40.6181981,43.959957 41.0612263,43.7660076 41.4090486,43.4181854 L45.6522338,39.1750002 C46.438665,38.388569 46.4329879,37.1278717 45.6519119,36.3467957 C44.8653904,35.5602741 43.6046056,35.5655755 42.8237074,36.3464738 L42,37.1701811 Z M2,6 C2,4.8954305 2.89784041,4 3.99161703,4 L30.008383,4 C31.1083227,4 32,4.88772964 32,6 C32,7.1045695 31.1021596,8 30.008383,8 L3.99161703,8 C2.89167732,8 2,7.11227036 2,6 Z M2,18 C2,16.8954305 2.89497885,16 3.99700466,16 L26.0029953,16 C27.1059106,16 28,16.8877296 28,18 C28,19.1045695 27.1050211,20 26.0029953,20 L3.99700466,20 C2.89408944,20 2,19.1122704 2,18 Z M2,30 C2,28.8954305 2.88967395,28 3.991155,28 L22.008845,28 C23.1085295,28 24,28.8877296 24,30 C24,31.1045695 23.1103261,32 22.008845,32 L3.991155,32 C2.89147046,32 2,31.1122704 2,30 Z M2,42 C2,40.8954305 2.89451376,40 3.99406028,40 L16.0059397,40 C17.1072288,40 18,40.8877296 18,42 C18,43.1045695 17.1054862,44 16.0059397,44 L3.99406028,44 C2.8927712,44 2,43.1122704 2,42 Z"></path></g></g></g></svg>