<svg height='100px' width='100px'  fill="#000000" xmlns:x="http://ns.adobe.com/Extensibility/1.0/" xmlns:i="http://ns.adobe.com/AdobeIllustrator/10.0/" xmlns:graph="http://ns.adobe.com/Graphs/1.0/" xmlns="http://www.w3.org/2000/svg" xmlns:xlink="http://www.w3.org/1999/xlink" version="1.1" x="0px" y="0px" viewBox="0 0 32 32" enable-background="new 0 0 32 32" xml:space="preserve"><g><g i:extraneous="self"><title>speech</title><path d="M29.83,5.41c0-1.33-0.9-1.86-1.61-2.28c-1.39-0.71-2.95-1.06-4.46-1.01c-2.85-0.13-5.73-0.13-8.58,0    c-3.62,0.15-6.6,0.4-9.36,0.79C5.65,2.93,5.43,2.93,5.19,2.92C4.43,2.9,3.28,2.86,2.59,4.03C2.27,4.5,2.08,5.04,2.03,5.67v12.05    c0,2.24,0.04,3.58,0.11,4.06c0.15,1.75,1.65,2.07,2.76,2.15c1.41,0.1,2.84,0.16,4.24,0.22l0.78,0.03    c0.62,0.03,1.25,0.05,1.87,0.07c1.35,0.05,2.75,0.1,4.17,0.2c0.67,0.49,3.34,3.29,4.38,4.37c0.5,0.52,0.87,0.91,1,1.03    c0.15,0.14,0.33,0.21,0.52,0.21c0.2,0,0.39-0.08,0.54-0.23c0.05-0.05,0.08-0.1,0.12-0.16c0.06-0.06,0.11-0.12,0.15-0.2    c0.49-0.94,0.74-2.22,0.96-3.36c0.14-0.73,0.35-1.81,0.56-2.12c0.61-0.05,1.19-0.03,1.8-0.01c0.34,0.01,0.67,0.02,1.01,0.02    c2.38,0,2.92-1.16,3.05-3.21C30.05,20.37,29.89,7.77,29.83,5.41z M27,22.52c-0.33,0-0.64-0.01-0.96-0.02    c-0.67-0.02-1.36-0.04-2.11,0.03c-1.15,0.11-1.42,1.52-1.78,3.32c-0.14,0.72-0.3,1.51-0.51,2.18c-0.07-0.07-0.14-0.15-0.22-0.23    c-4.5-4.71-4.78-4.81-5.16-4.81c-0.01,0-0.02,0-0.03,0c-1.47-0.12-2.95-0.17-4.39-0.22c-0.62-0.02-1.24-0.04-1.86-0.07l-0.78-0.03    c-1.39-0.06-2.8-0.12-4.19-0.22c-1.32-0.1-1.35-0.43-1.39-0.83c-0.04-0.25-0.1-1.09-0.1-3.89l0-11.99c0.02-0.31,0.13-0.6,0.33-0.9    C4.1,4.42,4.39,4.39,5.15,4.42c0.29,0.01,0.59,0.02,0.89-0.03c2.71-0.38,5.63-0.62,9.21-0.77c2.8-0.13,5.64-0.13,8.5,0    c1.32-0.03,2.63,0.25,3.77,0.83c0.66,0.39,0.82,0.53,0.82,0.98c0.06,2.38,0.22,14.94,0.22,15.33C28.45,22.46,28.17,22.52,27,22.52    z"></path></g></g></svg>