<?xml version="1.0" encoding="UTF-8" standalone="no"?>
<!DOCTYPE svg PUBLIC "-//W3C//DTD SVG 1.1//EN" "http://www.w3.org/Graphics/SVG/1.1/DTD/svg11.dtd">
<svg width="14" height="14" viewBox="0 0 14 14" version="1.1" xmlns="http://www.w3.org/2000/svg" xmlns:xlink="http://www.w3.org/1999/xlink" xml:space="preserve" xmlns:serif="http://www.serif.com/" style="fill-rule:evenodd;clip-rule:evenodd;stroke-linecap:round;stroke-linejoin:round;stroke-miterlimit:1.5;">
    <g transform="matrix(1.80139,-0.746161,0.746161,1.80139,-7.19301,1.20115)">
        <path d="M5.566,1.639L8.313,2.777L9.452,5.525L8.313,8.272L5.566,9.41L2.818,8.272L1.68,5.525L2.818,2.777L5.566,1.639Z" style="fill:rgb(51,51,51);"/>
        <path d="M9.452,5.525L8.313,8.272L5.566,9.41L2.818,8.272L1.68,5.525L2.818,2.777L5.566,1.639L8.313,2.777L9.452,5.525ZM5.566,3.119L3.865,3.824L3.16,5.525L3.865,7.225L5.566,7.93L7.267,7.225L7.971,5.525L7.267,3.824L5.566,3.119Z" style="fill:rgb(51,51,51);"/>
    </g>
    <g transform="matrix(0.768722,0,0,1.00718,1.78791,-0.159212)">
        <path d="M2.169,7.795L5.6,10.5L11.275,4.613" style="fill:none;stroke:white;stroke-width:1.49px;"/>
    </g>
</svg>
