<svg height='100px' width='100px'  fill="#000000" xmlns:dc="http://purl.org/dc/elements/1.1/" xmlns:cc="http://creativecommons.org/ns#" xmlns:rdf="http://www.w3.org/1999/02/22-rdf-syntax-ns#" xmlns:svg="http://www.w3.org/2000/svg" xmlns="http://www.w3.org/2000/svg" version="1.1" viewBox="0 0 100 100" xml:space="preserve" x="0px" y="0px"><path d="m 45.4375,5 0,13.4375 c 0,4.146277 -3.13058,7.351707 -4.65625,9.09375 -2.092324,2.388869 -4.413126,3.522005 -7.46875,5.40625 -3.055385,1.884246 -6.743895,4.77236 -9.0625,9.8125 -2.186623,4.753146 -3.318137,11.134753 -3.40625,20.6875 L 7.25,63.4375 25.46875,95 l 18.25,-31.5625 -13.59375,0 c 0.09934,-8.744859 1.211515,-13.875251 2.5625,-16.8125 1.438584,-3.126995 2.953329,-4.210764 5.5,-5.78125 2.546908,-1.570485 6.231779,-3.379993 9.59375,-7.21875 0.776636,-0.886835 1.510879,-1.873815 2.21875,-2.96875 0.707633,1.094935 1.441876,2.081915 2.21875,2.96875 3.36209,3.838757 7.04708,5.648265 9.59375,7.21875 2.546671,1.570486 4.061416,2.654255 5.5,5.78125 1.351325,2.937249 2.463496,8.067641 2.5625,16.8125 l -13.59375,0 L 74.53125,95 92.75,63.4375 l -13.5625,0 C 79.099426,53.879517 77.93722,47.504755 75.75,42.75 c -2.318724,-5.04014 -6.006876,-7.928254 -9.0625,-9.8125 -3.055385,-1.884245 -5.376902,-3.017503 -7.46875,-5.40625 -1.525433,-1.74173 -4.558931,-4.714959 -4.5625,-9.09375 -0.0024,-3.581371 0,-8.6623707 0,-13.4375 L 45.4375,5 z" style="text-indent:0;text-transform:none;direction:ltr;block-progression:tb;baseline-shift:baseline;color:#000000;enable-background:accumulate;" fill="#000000" fill-opacity="1" fill-rule="evenodd" stroke="none" marker="none" visibility="visible" display="inline" overflow="visible"></path></svg>