<svg xmlns="http://www.w3.org/2000/svg" xmlns:xlink="http://www.w3.org/1999/xlink" width="100" height="100" viewBox="0 0 100 100"><g transform="translate(50 65) scale(0.99 0.89) rotate(45) translate(-50 -50)" style="fill:#000000"><svg fill="#000000" xmlns="http://www.w3.org/2000/svg" version="1.1" viewBox="0 0 32 32" x="0px" y="0px"><title>tag</title><path d="M1.149 0c-0.002 0-0.003 0-0.006 0-0.631 0-1.143 0.512-1.143 1.143 0 0.002 0 0.004 0 0.006v0l0.067 13.781c0.002 0.314 0.129 0.597 0.335 0.802l15.933 15.933c0.207 0.207 0.493 0.335 0.808 0.335s0.601-0.128 0.808-0.335l13.714-13.714c0.207-0.207 0.335-0.493 0.335-0.808s-0.128-0.601-0.335-0.808l-15.932-15.933c-0.206-0.206-0.49-0.334-0.803-0.335v0zM2.291 2.291l12.158 0.059 14.791 14.793-12.098 12.098-14.793-14.793-0.059-12.157zM9.143 6.857c-1.249 0-2.286 1.037-2.286 2.286s1.037 2.286 2.286 2.286c1.249 0 2.286-1.037 2.286-2.286s-1.037-2.286-2.286-2.286z"></path></svg></g></svg>
