<?xml version="1.0" encoding="UTF-8" standalone="no"?>
<!DOCTYPE svg PUBLIC "-//W3C//DTD SVG 1.1//EN" "http://www.w3.org/Graphics/SVG/1.1/DTD/svg11.dtd">
<svg width="100%" height="100%" viewBox="0 0 100 100" version="1.1" xmlns="http://www.w3.org/2000/svg" xmlns:xlink="http://www.w3.org/1999/xlink" xml:space="preserve" xmlns:serif="http://www.serif.com/" style="fill-rule:evenodd;clip-rule:evenodd;stroke-linejoin:round;stroke-miterlimit:2;">
    <g>
        <g>
            <circle cx="27" cy="19.1" r="16.6"/>
            <path d="M68.1,47.2L53.9,54.4C53.9,54.4 46,49 43.5,47.1C41.9,45.9 37.2,42.2 32.7,40.6C27.7,38.9 14.8,37.8 11.2,46.3C7.4,55.2 8,78.4 8.2,94.9C8.2,96.3 9.1,97.5 10.6,97.5L37.9,97.5C39.6,97.5 40.2,96.6 40.3,95.3C40.4,94.4 42,75.7 41.9,67.5L41.9,64.6L49.1,69.5C50.4,70.4 51.9,70.8 53.4,70.8C54.6,70.8 55.8,70.5 56.8,70L75,60.7C78.7,58.8 80.2,54.2 78.3,50.5C76.4,46.7 71.9,45.3 68.1,47.2Z" style="fill-rule:nonzero;"/>
            <path d="M89.8,15.5C88.8,15.9 87.7,16.4 86.7,16.9C86.7,16 86.7,15 86.6,14.1C86.5,11.8 82.9,11.8 83,14.1C83.1,15.5 83.1,17 83.1,18.4C81.8,19 80.5,19.5 79.3,20.1L79.3,14.2C79.3,11.9 75.7,11.9 75.7,14.2C75.7,16.7 75.7,19.3 75.8,21.8C74.2,22.6 72.7,23.3 71.1,24.1C71,21 70.9,17.9 70.7,14.7C70.6,12.4 67,12.4 67.1,14.7C67.3,18.4 67.5,22.2 67.6,25.9C65.8,26.8 64,27.8 62.2,28.8C62.3,23.9 62.4,19 62.7,14.2C62.8,11.9 59.3,11.9 59.1,14.2C58.8,19.8 58.6,25.3 58.6,30.9C57.1,31.8 55.6,32.6 54.1,33.5C52.1,34.7 53.9,37.8 55.9,36.6C56.8,36.1 57.7,35.6 58.6,35L58.6,38.6C58.6,40.9 62.2,40.9 62.2,38.6L62.2,32.9C64,31.9 65.8,30.9 67.6,29.9L67.6,38.4C67.5,40.7 71.1,40.7 71.2,38.4C71.3,34.9 71.3,31.5 71.2,28.1C72.7,27.3 74.3,26.5 75.8,25.8C75.8,30 75.9,34.2 75.9,38.5C75.9,40.8 79.5,40.8 79.5,38.5C79.5,33.7 79.4,28.9 79.4,24.1C80.7,23.5 82,22.9 83.3,22.3C83.4,27.8 83.3,33.3 83,38.7C82.9,41 86.4,41 86.6,38.7C87,32.7 87,26.7 86.9,20.7C88.2,20.1 89.5,19.5 90.9,18.9C92.9,18 91.9,14.6 89.8,15.5Z" style="fill-rule:nonzero;"/>
        </g>
    </g>
</svg>
