<svg height='100px' width='100px'  fill="#000000" xmlns="http://www.w3.org/2000/svg" viewBox="0 0 100 100" x="0px" y="0px"><path d="m19.906 20.75c-.365.025-.69.148-.969.375-1.136.924-.926 3.466-.969 4.75.269 14.493.31 17 .219 21.781-2.275.142-3.123.192-6.06.375-1.796.182-5.361.235-6.625 1.531-1.655 1.697 1.377 5.13 2.313 6.532 1.806 2.703 3.693 3.78 10.156 3.724-.057 3.227-.12 5.479-.188 10.806-.038 8.809 2.514 18.637 5.813 12.406 2.15-6.251 3.573-14.615 4.469-23.838 1.873-.174 3.876-.383 6.156-.625.514-.054 1.045-.131 1.563-.188-.062 3.399-.143 6.232-.219 12.244-.038 8.809 2.514 18.637 5.813 12.406 2.305-6.701 3.741-15.768 4.625-25.718 2.535-.316 5.063-.648 7.594-1-.066 3.586-.161 7.259-.25 14.312-.038 8.809 2.482 18.637 5.781 12.406 2.503-7.277 4.01-17.424 4.875-28.28 2.526-.414 4.99-.859 7.406-1.313-.074 3.739-.17 8.413-.281 17.19-.038 8.809 2.482 18.637 5.781 12.406 2.775-8.07 4.292-19.487 5.094-31.531 3.78-.901 7.271-1.63 10.313-2.657 6.84-3.283-.428-5.987-9.875-6.06.019-.445.045-.903.063-1.344.576-14.692-.128-16.84-4.344-18.781-1.133-.521-3.326-2.02-4.906-1.906-.365.025-.69.148-.969.375-1.136.924-.957 3.466-1 4.75.196 10.549.254 14.243.25 17.469-2.978.258-4.513.383-6.906.594.038-.832.093-1.679.125-2.5.576-14.692-.159-16.84-4.375-18.781-1.133-.521-3.326-2.02-4.906-1.906-.365.025-.69.148-.969.375-1.136.924-.957 3.466-1 4.75.224 12.09.281 15.445.25 19.03-2.838.257-5.076.451-6.969.625.069-1.372.135-2.75.188-4.094.576-14.692-.159-16.84-4.375-18.781-1.133-.521-3.326-2.02-4.906-1.906-.365.025-.69.148-.969.375-1.136.924-.926 3.466-.969 4.75.251 13.537.319 16.433.25 20.625-1.779.133-4.378.294-7.06.469.102-1.862.179-3.715.25-5.531.575-14.661-.151-16.844-4.344-18.781l-.031 0c-1.139-.529-3.335-2.01-4.906-1.906"></path></svg>
