<?xml version="1.0" encoding="UTF-8" standalone="no"?>
<!DOCTYPE svg PUBLIC "-//W3C//DTD SVG 1.1//EN" "http://www.w3.org/Graphics/SVG/1.1/DTD/svg11.dtd">
<svg width="100%" height="100%" viewBox="0 0 100 100" version="1.1" xmlns="http://www.w3.org/2000/svg" xmlns:xlink="http://www.w3.org/1999/xlink" xml:space="preserve" xmlns:serif="http://www.serif.com/" style="fill-rule:evenodd;clip-rule:evenodd;stroke-linejoin:round;stroke-miterlimit:2;">
    <path d="M16.838,26.792C16.006,27.774 16.052,29.552 16.067,30.575C16.232,42.121 16.313,44.117 16.241,47.925C14.429,48.038 13.751,48.043 11.414,48.224C9.98,48.334 7.144,48.411 6.137,49.443C4.818,50.795 7.233,53.53 7.979,54.646C9.417,56.8 10.921,57.657 16.069,57.613C16.024,60.183 15.951,61.977 15.919,66.22C15.867,73.237 18.303,81.249 20.55,76.102C22.656,71.277 23.396,64.461 24.109,57.114C26.398,56.886 28.221,56.719 30.258,56.466C30.209,59.174 30.12,61.43 30.084,66.219C30.03,73.236 32.481,81.255 34.714,76.102C36.958,70.922 37.694,63.541 38.398,55.616C40.417,55.364 42.431,55.1 44.447,54.819C44.394,57.676 44.293,60.601 44.248,66.219C44.192,73.236 46.636,81.262 48.853,76.102C51.272,70.469 52.047,62.222 52.736,53.575C54.748,53.245 56.711,52.891 58.635,52.529C58.576,55.507 58.471,59.23 58.411,66.222C58.352,73.239 60.821,81.273 63.016,76.104C65.674,69.847 66.435,60.581 67.074,50.988C70.085,50.27 72.945,49.894 75.289,48.871C80.828,46.455 74.948,44.102 67.423,44.044C67.786,32.11 67.328,31.817 64.013,28.013C63.095,26.96 61.502,26.496 60.105,26.495C59.829,26.495 59.512,26.584 59.333,26.794C58.498,27.776 58.523,29.554 58.537,30.578C58.645,38.981 58.739,41.923 58.736,44.493C56.364,44.698 55.141,44.798 53.235,44.966C53.265,44.303 53.309,43.628 53.334,42.974C53.793,31.271 53.204,31.882 49.849,28.014C48.934,26.959 47.339,26.497 45.941,26.496C45.665,26.496 45.348,26.585 45.17,26.795C44.335,27.777 44.359,29.555 44.373,30.578C44.503,40.21 44.597,42.881 44.572,45.737C42.311,45.942 40.529,46.096 39.021,46.235C39.076,45.142 39.129,44.044 39.171,42.974C39.63,31.271 39.041,31.881 35.686,28.013C34.77,26.958 33.175,26.496 31.778,26.495C31.502,26.495 31.184,26.583 31.006,26.794C30.175,27.777 30.22,29.554 30.234,30.578C30.385,41.361 30.488,43.667 30.433,47.007C29.016,47.113 26.946,47.241 24.81,47.38C24.891,45.897 24.952,44.421 25.009,42.974C25.467,31.296 24.903,31.88 21.548,28.014C20.627,26.952 19.019,26.496 17.613,26.494C17.337,26.494 17.017,26.581 16.838,26.792Z" style="fill-rule:nonzero;"/>
    <path d="M85.342,26.792C84.51,27.774 84.556,29.552 84.57,30.575C84.736,42.121 84.817,44.117 84.672,52.15C84.527,60.183 84.455,61.977 84.423,66.22C84.37,73.237 86.806,81.249 89.053,76.102C91.16,71.277 92.322,64.461 93.358,47.878C94.393,31.296 93.407,31.88 90.052,28.014C89.131,26.952 87.523,26.496 86.117,26.494C85.84,26.494 85.521,26.581 85.342,26.792Z" style="fill-rule:nonzero;"/>
</svg>
