<svg height='100px' width='100px'  fill="#000000" xmlns="http://www.w3.org/2000/svg" xmlns:xlink="http://www.w3.org/1999/xlink" version="1.1" x="0px" y="0px" viewBox="0 0 100 100" style="enable-background:new 0 0 100 100;" xml:space="preserve"><g><path d="M90.6,20c0-3.2-2.6-5.8-5.8-5.8H52V5.2c0-1.1-0.9-2-2-2s-2,0.9-2,2v8.9H15.2c-3.2,0-5.8,2.6-5.8,5.8v46.9   c0,3.2,2.6,5.8,5.8,5.8h18.3L23.1,92.1c-0.5,1-0.2,2.2,0.8,2.7c0.3,0.2,0.6,0.2,0.9,0.2c0.7,0,1.4-0.4,1.8-1.1L38,72.7h10v22.1   c0,1.1,0.9,2,2,2s2-0.9,2-2V72.7h10l11.4,21.2c0.4,0.7,1.1,1.1,1.8,1.1c0.3,0,0.6-0.1,0.9-0.2c1-0.5,1.3-1.7,0.8-2.7L66.5,72.7   h18.3c3.2,0,5.8-2.6,5.8-5.8V20z M86.6,66.9c0,1-0.8,1.8-1.8,1.8H15.2c-1,0-1.8-0.8-1.8-1.8V20c0-1,0.8-1.8,1.8-1.8h69.6   c1,0,1.8,0.8,1.8,1.8V66.9z"></path></g></svg>