<svg width="18" height="14" viewBox="0 0 18 14" version="1.1" xmlns="http://www.w3.org/2000/svg" xmlns:xlink="http://www.w3.org/1999/xlink">
<title>logo-twitter 2</title>
<desc>Created using Figma</desc>
<g id="Canvas" transform="translate(-1099 -1513)">
<g id="logo-twitter 2">
<g id="Group">
<g id="Vector">
<use xlink:href="#path0_fill" transform="translate(1099 1513)" fill="#333333"/>
</g>
</g>
</g>
</g>
<defs>
<path id="path0_fill" d="M 17.227 1.65728C 16.5931 1.93837 15.912 2.12839 15.197 2.21381C 15.9268 1.77641 16.4872 1.08377 16.751 0.258447C 16.0682 0.663478 15.3118 0.957614 14.5067 1.11613C 13.862 0.42921 12.9435 -5.19154e-08 11.927 -5.19154e-08C 9.97498 -5.19154e-08 8.39254 1.58245 8.39254 3.53424C 8.39254 3.81127 8.4238 4.08098 8.48404 4.33968C 5.5467 4.1923 2.94245 2.78523 1.19927 0.646926C 0.895037 1.16894 0.720769 1.77604 0.720769 2.42376C 0.720769 3.64993 1.34474 4.73172 2.29306 5.36554C 1.71371 5.3472 1.16875 5.18819 0.692211 4.92346C 0.691964 4.93823 0.69191 4.953 0.69191 4.9679C 0.69191 6.68034 1.91019 8.10883 3.52704 8.43349C 3.23044 8.51422 2.9182 8.55743 2.59588 8.55743C 2.36814 8.55743 2.14673 8.53527 1.93092 8.49404C 2.38069 9.89816 3.68592 10.92 5.2325 10.9486C 4.0229 11.8965 2.49896 12.4615 0.843102 12.4615C 0.55782 12.4615 0.276478 12.4448 0 12.4121C 1.56411 13.4149 3.42187 14 5.41778 14C 11.9187 14 15.4736 8.61453 15.4736 3.94407C 15.4736 3.79084 15.4702 3.63842 15.4634 3.48685C 16.1539 2.98854 16.7531 2.36604 17.227 1.65728Z"/>
</defs>
</svg>
