<svg height='100px' width='100px'  fill="#000000" xmlns:x="http://ns.adobe.com/Extensibility/1.0/" xmlns:i="http://ns.adobe.com/AdobeIllustrator/10.0/" xmlns:graph="http://ns.adobe.com/Graphs/1.0/" xmlns="http://www.w3.org/2000/svg" xmlns:xlink="http://www.w3.org/1999/xlink" version="1.1" x="0px" y="0px" viewBox="0 0 100 100" style="enable-background:new 0 0 100 100;" xml:space="preserve"><g><g i:extraneous="self"><g><path d="M5273.1,2400.1v-2c0-2.8-5-4-9.7-4s-9.7,1.3-9.7,4v2c0,1.8,0.7,3.6,2,4.9l5,4.9c0.3,0.3,0.4,0.6,0.4,1v6.4     c0,0.4,0.2,0.7,0.6,0.8l2.9,0.9c0.5,0.1,1-0.2,1-0.8v-7.2c0-0.4,0.2-0.7,0.4-1l5.1-5C5272.4,2403.7,5273.1,2401.9,5273.1,2400.1z      M5263.4,2400c-4.8,0-7.4-1.3-7.5-1.8v0c0.1-0.5,2.7-1.8,7.5-1.8c4.8,0,7.3,1.3,7.5,1.8C5270.7,2398.7,5268.2,2400,5263.4,2400z"></path><path d="M5268.4,2410.3c-0.6,0-1,0.4-1,1c0,0.6,0.4,1,1,1h4.3c0.6,0,1-0.4,1-1c0-0.6-0.4-1-1-1H5268.4z"></path><path d="M5272.7,2413.7h-4.3c-0.6,0-1,0.4-1,1c0,0.6,0.4,1,1,1h4.3c0.6,0,1-0.4,1-1C5273.7,2414.1,5273.3,2413.7,5272.7,2413.7z"></path><path d="M5272.7,2417h-4.3c-0.6,0-1,0.4-1,1c0,0.6,0.4,1,1,1h4.3c0.6,0,1-0.4,1-1C5273.7,2417.5,5273.3,2417,5272.7,2417z"></path></g><g><path d="M95.7,62.3C88.1,54.8,70.5,40.1,50,40.1S11.9,54.8,4.3,62.3c-2.4,2.3-2.4,6.1,0,8.5c7.6,7.5,25.2,22.2,45.7,22.2     s38.1-14.7,45.7-22.2C98.1,68.4,98.1,64.6,95.7,62.3z M50,83.6c-9.4,0-17.1-7.6-17.1-17.1S40.6,49.4,50,49.4s17.1,7.6,17.1,17.1     S59.4,83.6,50,83.6z"></path><circle cx="50" cy="66.5" r="8.9"></circle><path d="M24.1,32.6c0.8,1.9,2.6,3.1,4.6,3.1c0.6,0,1.3-0.1,1.9-0.4c2.5-1.1,3.7-4,2.7-6.5l-5.5-13.3c-1.1-2.5-4-3.7-6.5-2.7     c-2.5,1.1-3.7,4-2.7,6.5L24.1,32.6z"></path><path d="M69.4,35.3c0.6,0.3,1.3,0.4,1.9,0.4c2,0,3.8-1.2,4.6-3.1l5.5-13.3c1.1-2.5-0.2-5.4-2.7-6.5c-2.5-1-5.4,0.2-6.5,2.7     l-5.5,13.3C65.6,31.3,66.8,34.3,69.4,35.3z"></path><path d="M50,31.5c2.7,0,5-2.2,5-5V12.1c0-2.7-2.2-5-5-5s-5,2.2-5,5v14.4C45,29.2,47.3,31.5,50,31.5z"></path></g></g></g></svg>