<?xml version="1.0" encoding="UTF-8" standalone="no"?>
<!DOCTYPE svg PUBLIC "-//W3C//DTD SVG 1.1//EN" "http://www.w3.org/Graphics/SVG/1.1/DTD/svg11.dtd">
<svg width="100%" height="100%" viewBox="0 0 15 14" version="1.1" xmlns="http://www.w3.org/2000/svg" xmlns:xlink="http://www.w3.org/1999/xlink" xml:space="preserve" xmlns:serif="http://www.serif.com/" style="fill-rule:evenodd;clip-rule:evenodd;stroke-linejoin:round;stroke-miterlimit:2;">
    <g transform="matrix(0.586117,0,0,0.583333,-0.0334087,0)">
        <path d="M0.057,24L1.744,17.837C0.703,16.033 0.156,13.988 0.157,11.891C0.16,5.335 5.495,0 12.05,0C15.231,0.001 18.217,1.24 20.463,3.488C22.708,5.736 23.944,8.724 23.943,11.902C23.94,18.459 18.605,23.794 12.05,23.794C10.06,23.793 8.099,23.294 6.362,22.346L0.057,24ZM6.654,20.193C8.33,21.188 9.93,21.784 12.046,21.785C17.494,21.785 21.932,17.351 21.935,11.9C21.937,6.438 17.52,2.01 12.054,2.008C6.602,2.008 2.167,6.442 2.165,11.892C2.164,14.117 2.816,15.783 3.911,17.526L2.912,21.174L6.654,20.193ZM18.041,14.729C17.967,14.605 17.769,14.531 17.471,14.382C17.174,14.233 15.713,13.514 15.44,13.415C15.168,13.316 14.97,13.266 14.771,13.564C14.573,13.861 14.003,14.531 13.83,14.729C13.657,14.927 13.483,14.952 13.186,14.803C12.889,14.654 11.931,14.341 10.796,13.328C9.913,12.54 9.316,11.567 9.143,11.269C8.97,10.972 9.125,10.811 9.273,10.663C9.407,10.53 9.57,10.316 9.719,10.142C9.87,9.97 9.919,9.846 10.019,9.647C10.118,9.449 10.069,9.275 9.994,9.126C9.919,8.978 9.325,7.515 9.078,6.92C8.836,6.341 8.591,6.419 8.409,6.41L7.839,6.4C7.641,6.4 7.319,6.474 7.047,6.772C6.775,7.07 6.007,7.788 6.007,9.251C6.007,10.714 7.072,12.127 7.22,12.325C7.369,12.523 9.315,15.525 12.296,16.812C13.005,17.118 13.559,17.301 13.99,17.438C14.702,17.664 15.35,17.632 15.862,17.556C16.433,17.471 17.62,16.837 17.868,16.143C18.116,15.448 18.116,14.853 18.041,14.729Z" style="fill-rule:nonzero;"/>
    </g>
</svg>
