<?xml version="1.0" encoding="utf-8"?>
<svg viewBox="0 0 500 500" xmlns="http://www.w3.org/2000/svg">
  <path d="M 342.1 299.727 C 338.327 310.104 319.932 320.008 311.914 320.951 C 303.895 321.895 303.895 327.555 258.145 310.104 C 212.865 292.181 184.094 246.431 181.737 243.129 C 179.379 240.298 163.342 219.074 163.342 197.378 C 163.342 175.681 174.661 164.833 178.907 160.589 C 183.152 156.344 187.869 154.929 190.697 154.929 C 193.529 154.929 196.83 155.401 199.188 155.401 C 202.017 155.401 205.319 153.986 209.092 162.947 C 212.865 171.908 221.828 193.604 222.771 195.964 C 223.714 198.321 224.657 200.679 223.241 203.51 C 221.828 206.34 220.885 208.225 218.997 211.055 C 216.638 213.415 214.281 216.716 212.394 218.602 C 210.035 220.961 207.678 223.319 210.507 227.563 C 213.337 231.81 222.299 246.431 235.505 258.221 C 252.484 273.314 267.106 278.031 271.35 280.39 C 275.596 282.748 278.425 282.276 280.785 279.446 C 283.615 276.615 292.104 266.711 294.934 261.994 C 297.764 257.75 301.065 258.221 304.838 259.636 C 309.084 261.052 330.779 271.901 335.496 274.258 C 339.74 276.615 343.042 277.56 343.987 279.446 C 345.401 280.39 345.401 289.351 342.1 299.727 Z" style="">
    <title>Phone</title>
  </path>
  <path d="M 373.2 -4 L 122 -4 C 52.4 -4 -4.4 52.8 -4.4 122.4 L -4.4 374 C -4.4 443.2 52.4 500 122 500 L 373.6 500 C 443.2 500 500 443.2 500 373.6 L 500 122.4 C 499.6 52.8 442.8 -4 373.2 -4 Z M 250.4 397.2 C 223.2 397.2 198 390.4 175.6 378 L 90 405.2 L 118 323.2 C 104 300 96 272.8 96 244 C 96 159.2 165.2 90.8 250.4 90.8 C 335.6 90.8 404.8 159.2 404.8 244 C 404.8 328.8 335.6 397.2 250.4 397.2 Z">
    <title>box</title>
  </path>
  <path d="M 392.653 242.099 C 392.653 280.393 375.903 317.642 350.712 342.707 C 325.522 367.771 288.028 384.48 249.411 384.48 C 223.652 384.48 200.35 378.695 178.15 365.615 C 177.255 365.884 176.261 366.206 175.157 366.527 C 171.62 367.552 106.044 389.902 105.986 389.555 C 105.863 388.786 129.221 320.722 129.197 320.13 C 115.373 298.693 105.659 275.172 105.996 238.248 C 107.369 204.768 123.581 168.705 148.523 143.49 C 173.414 118.321 210.554 100 249.411 100 C 288.018 100 325.503 116.625 350.699 141.62 C 375.895 166.614 392.653 203.801 392.653 242.099 Z M 332.013 160.156 C 310.148 138.464 282.617 126.213 249.411 126.213 C 216.454 126.213 189.258 139.731 167.385 161.848 C 145.558 183.916 132.573 210.586 132.412 238.892 C 131.047 270.413 140.223 290.98 154.725 310.831 L 158.875 316.511 C 158.875 316.511 142.856 353.74 142.512 353.624 C 142.896 353.766 181.364 337.644 181.302 337.61 C 200.984 351.132 224.935 358.265 249.411 358.265 C 282.607 358.265 310.129 345.957 331.999 324.197 C 353.87 302.434 366.228 275.046 366.228 242.099 C 366.228 209.158 353.879 181.847 332.013 160.156 Z" style="visibility: hidden;">
    <title>bubble</title>
  </path>
</svg>