<svg width="20" height="25" viewBox="0 0 20 25" version="1.1" xmlns="http://www.w3.org/2000/svg" xmlns:xlink="http://www.w3.org/1999/xlink">
<title>Vector</title>
<g id="Canvas" transform="translate(-3544 1504)">
<rect x="3544" y="-1504" width="20" height="25" fill="#E5E5E5"/>
<clipPath id="clip-0" clip-rule="evenodd">
<path d="M 3262 -1517L 3621 -1517L 3621 -661L 3262 -661L 3262 -1517Z" fill="#FFFFFF"/>
</clipPath>
<g id="Group List Mobile" clip-path="url(#clip-0)">
<path d="M 3262 -1517L 3621 -1517L 3621 -661L 3262 -661L 3262 -1517Z" fill="#E2E2E2"/>
<g id="Rectangle 8" filter="url(#filter0_d)">
<use xlink:href="#path0_fill" transform="translate(3262 -1517)" fill="#3F729B"/>
</g>
<g id="ic_notifications_24px">
<g id="Group">
<g id="Vector">
<use xlink:href="#path1_fill" transform="translate(3544 -1503.98)" fill="#FFFFFF"/>
</g>
</g>
</g>
</g>
</g>
<defs>
<filter id="filter0_d" filterUnits="userSpaceOnUse" x="3262" y="-1517" width="359" height="58" color-interpolation-filters="sRGB">
<feFlood flood-opacity="0" result="BackgroundImageFix"/>
<feColorMatrix in="SourceAlpha" type="matrix" values="0 0 0 0 0 0 0 0 0 0 0 0 0 0 0 0 0 0 255 0"/>
<feOffset dx="0" dy="4"/>
<feGaussianBlur stdDeviation="2"/>
<feColorMatrix type="matrix" values="0 0 0 0 0 0 0 0 0 0 0 0 0 0 0 0 0 0 0.25 0"/>
<feBlend mode="normal" in2="BackgroundImageFix" result="effect1_dropShadow"/>
<feBlend mode="normal" in="SourceGraphic" in2="effect1_dropShadow" result="shape"/>
</filter>
<path id="path0_fill" d="M 0 0L 359 0L 359 50L 0 50L 0 0Z"/>
<path id="path1_fill" d="M 9.84615 24.0317C 11.2 24.0317 12.3077 22.9225 12.3077 21.5669L 7.38462 21.5669C 7.38462 22.9225 8.48 24.0317 9.84615 24.0317ZM 17.2308 16.6373L 17.2308 10.4753C 17.2308 6.6919 15.2123 3.52465 11.6923 2.68662L 11.6923 1.84859C 11.6923 0.825704 10.8677 0 9.84615 0C 8.82462 0 8 0.825704 8 1.84859L 8 2.68662C 4.46769 3.52465 2.46154 6.67957 2.46154 10.4753L 2.46154 16.6373L 0 19.1021L 0 20.3345L 19.6923 20.3345L 19.6923 19.1021L 17.2308 16.6373Z"/>
</defs>
</svg>

