<svg width="29" height="24" viewBox="0 0 29 24" version="1.1" xmlns="http://www.w3.org/2000/svg" xmlns:xlink="http://www.w3.org/1999/xlink">
<title>hamburger</title>
<desc>Created using Figma</desc>
<g id="Canvas" transform="translate(-1812 297)">
<rect x="1812" y="-297" width="29" height="24" fill="#E5E5E5"/>
<clipPath id="clip-0" clip-rule="evenodd">
<path d="M 1796 -310L 3236 -310L 3236 822.035L 1796 822.035L 1796 -310Z" fill="#FFFFFF"/>
</clipPath>
<g id="Contact Details" clip-path="url(#clip-0)">
<path d="M 1796 -310L 3236 -310L 3236 822.035L 1796 822.035L 1796 -310Z" fill="#E2E2E2"/>
<g id="nav-bar">
<g id="Rectangle 8" filter="url(#filter0_d)">
<use xlink:href="#path0_fill" transform="translate(1796 -310)" fill="#3F729B"/>
</g>
<g id="hamburger">
<g id="Group">
<g id="Vector">
<use xlink:href="#path1_fill" transform="translate(1812 -287.4)" fill="#FFFFFF"/>
</g>
<g id="Vector">
<use xlink:href="#path2_fill" transform="translate(1812 -297)" fill="#FFFFFF"/>
</g>
<g id="Vector">
<use xlink:href="#path2_fill" transform="translate(1812 -277.8)" fill="#FFFFFF"/>
</g>
</g>
</g>
</g>
</g>
</g>
<defs>
<filter id="filter0_d" filterUnits="userSpaceOnUse" x="1796" y="-310" width="1440" height="58" color-interpolation-filters="sRGB">
<feFlood flood-opacity="0" result="BackgroundImageFix"/>
<feColorMatrix in="SourceAlpha" type="matrix" values="0 0 0 0 0 0 0 0 0 0 0 0 0 0 0 0 0 0 255 0"/>
<feOffset dx="0" dy="4"/>
<feGaussianBlur stdDeviation="2"/>
<feColorMatrix type="matrix" values="0 0 0 0 0 0 0 0 0 0 0 0 0 0 0 0 0 0 0.25 0"/>
<feBlend mode="normal" in2="BackgroundImageFix" result="effect1_dropShadow"/>
<feBlend mode="normal" in="SourceGraphic" in2="effect1_dropShadow" result="shape"/>
</filter>
<path id="path0_fill" d="M 0 0L 1440 0L 1440 50L 0 50L 0 0Z"/>
<path id="path1_fill" d="M 27.6 2.13163e-15L 1.2 2.13163e-15C 0.48 2.13163e-15 0 0.48 0 1.2L 0 3.6C 0 4.32 0.48 4.8 1.2 4.8L 27.6 4.8C 28.32 4.8 28.8 4.32 28.8 3.6L 28.8 1.2C 28.8 0.48 28.32 2.13163e-15 27.6 2.13163e-15Z"/>
<path id="path2_fill" d="M 27.6 0L 1.2 0C 0.48 0 0 0.48 0 1.2L 0 3.6C 0 4.32 0.48 4.8 1.2 4.8L 27.6 4.8C 28.32 4.8 28.8 4.32 28.8 3.6L 28.8 1.2C 28.8 0.48 28.32 0 27.6 0Z"/>
</defs>
</svg>
