<svg width="20" height="20" viewBox="0 0 20 20" version="1.1" xmlns="http://www.w3.org/2000/svg" xmlns:xlink="http://www.w3.org/1999/xlink">
<title>no-answer</title>
<desc>Created using Figma</desc>
<g id="Canvas" transform="translate(1256 164)">
<g id="no-answer">
<g id="Group">
<g id="Vector">
<use xlink:href="#path0_fill" transform="translate(-1256 -164)" fill="#3F729B"/>
</g>
<g id="Vector">
<use xlink:href="#path1_fill" transform="translate(-1249.16 -152.696)" fill="#3F729B"/>
</g>
<g id="Vector">
<use xlink:href="#path2_fill" transform="translate(-1255.13 -164)" fill="#3F729B"/>
</g>
</g>
</g>
</g>
<defs>
<path id="path0_fill" d="M 4.83125 15.1687L 8.44078 11.5592L 5.57733 8.69578L 8.44078 5.83233C 8.78077 5.49233 8.78077 4.9419 8.44078 4.60278L 4.093 0.254997C 3.753 -0.0849991 3.20257 -0.0849991 2.86345 0.254997L 0 3.11844C 0 7.93057 1.81389 12.1505 4.83125 15.1687Z"/>
<path id="path1_fill" d="M 8.5573 0.254997C 8.2173 -0.0849989 7.66687 -0.0849989 7.32775 0.254997L 4.4643 3.11844L 3.44518 2.09932L 1.52586e-07 5.5445C 2.77127 7.53318 6.21298 8.69578 10.0416 8.69578L 12.9051 5.83233C 13.2451 5.49233 13.2451 4.9419 12.9051 4.60278L 8.5573 0.254997Z"/>
<path id="path2_fill" d="M 0.869773 19.1304C 0.647167 19.1304 0.424561 19.0452 0.254997 18.8757C -0.0849991 18.5357 -0.0849991 17.9861 0.254997 17.6461L 17.6461 0.254997C 17.9861 -0.0849991 18.5357 -0.0849991 18.8757 0.254997C 19.2157 0.594994 19.2157 1.14455 18.8757 1.48455L 1.48455 18.8757C 1.31499 19.0452 1.09238 19.1304 0.869773 19.1304Z"/>
</defs>
</svg>
