<svg width="32" height="40" viewBox="0 0 32 40" version="1.1" xmlns="http://www.w3.org/2000/svg" xmlns:xlink="http://www.w3.org/1999/xlink">
<title>Word</title>
<desc>Created using Figma</desc>
<g id="Canvas" transform="translate(-2418 -289)">
<g id="Word">
<g id="Group">
<g id="Vector">
<use xlink:href="#path0_fill" transform="translate(2418 289)" fill="#FFFFFF"/>
</g>
<g id="Vector">
<use xlink:href="#path1_fill" transform="translate(2427.3 300.717)" fill="#FFFFFF"/>
</g>
<g id="Vector">
<use xlink:href="#path2_fill" transform="translate(2427.3 304.757)" fill="#FFFFFF"/>
</g>
<g id="Vector">
<use xlink:href="#path3_fill" transform="translate(2427.3 308.797)" fill="#FFFFFF"/>
</g>
<g id="Vector">
<use xlink:href="#path4_fill" transform="translate(2426.89 324.958)" fill="#FFFFFF"/>
</g>
</g>
</g>
</g>
<defs>
<path id="path0_fill" d="M 31.9204 0.808C 31.9204 0.361778 31.5582 0 31.1124 0L 5.25378 0C 5.252 0 5.25022 0.000444412 5.24844 0.000444412L 3.89333 0.000444412C 1.71022 0.000444412 -1.11898e-07 1.78222 -1.11898e-07 4.05689L -1.11898e-07 36.3787C -1.11898e-07 36.4044 0.00444424 36.4284 0.00711091 36.4538C 0.00577757 36.4938 0.00133334 36.5324 0.00133334 36.5729C 0.00133334 38.5271 1.41289 40 3.28622 40L 31.112 40C 31.5578 40 31.92 39.6387 31.92 39.1911L 31.92 33.94C 31.92 33.9396 31.92 33.9396 31.92 33.9391C 31.92 33.9391 31.92 33.9387 31.92 33.9382L 31.92 0.808L 31.9204 0.808ZM 6.06222 1.616L 30.3049 1.616L 30.3049 33.1311L 6.06222 33.1311L 6.06222 1.616ZM 3.89333 1.61689L 4.44489 1.61689L 4.44489 33.1311L 3.34267 33.1311L 3.28667 33.1311C 2.672 33.1311 2.104 33.3022 1.61689 33.5987L 1.61689 4.05689C 1.61689 2.66622 2.59644 1.61689 3.89333 1.61689ZM 30.3044 38.384L 3.28667 38.384C 2.31955 38.384 1.61822 37.6231 1.61822 36.5693C 1.61822 36.5298 1.62133 36.4916 1.62311 36.4529L 1.73289 35.9987C 2.00667 35.2827 2.55067 34.8231 3.19378 34.7631L 3.28222 34.7547C 3.304 34.752 3.32578 34.7493 3.34222 34.748L 5.25333 34.748L 30.304 34.748L 30.304 38.384L 30.3044 38.384Z"/>
<path id="path1_fill" d="M 16.9684 1.42415e-07L 0.806667 1.42415e-07C 0.360445 1.42415e-07 7.18858e-07 0.362666 7.18858e-07 0.808888C 7.18858e-07 1.25511 0.360445 1.61644 0.806667 1.61644L 16.9684 1.61644C 17.4142 1.61644 17.776 1.25511 17.776 0.808888C 17.776 0.362666 17.4142 1.42415e-07 16.9684 1.42415e-07Z"/>
<path id="path2_fill" d="M 16.9684 -6.37478e-07L 0.806667 -6.37478e-07C 0.360445 -6.37478e-07 7.18858e-07 0.362666 7.18858e-07 0.808888C 7.18858e-07 1.25467 0.360445 1.61644 0.806667 1.61644L 16.9684 1.61644C 17.4142 1.61644 17.776 1.25467 17.776 0.808888C 17.776 0.362666 17.4142 -6.37478e-07 16.9684 -6.37478e-07Z"/>
<path id="path3_fill" d="M 12.9271 -5.69661e-07L 0.806667 -5.69661e-07C 0.360445 -5.69661e-07 7.18858e-07 0.362666 7.18858e-07 0.808888C 7.18858e-07 1.25467 0.360445 1.61733 0.806667 1.61733L 12.9271 1.61733C 13.3738 1.61733 13.7364 1.25467 13.7364 0.808888C 13.7364 0.362666 13.3738 -5.69661e-07 12.9271 -5.69661e-07Z"/>
<path id="path4_fill" d="M 0.807556 1.61778L 15.7569 1.61778C 16.2022 1.61778 16.5649 1.25511 16.5649 0.808888C 16.5649 0.362666 16.2022 -7.86675e-07 15.7569 -7.86675e-07L 0.807556 -7.86675e-07C 0.361778 -7.86675e-07 -6.64605e-07 0.362666 -6.64605e-07 0.808888C -6.64605e-07 1.25511 0.361778 1.61778 0.807556 1.61778Z"/>
</defs>
</svg>
