<?xml version="1.0" encoding="UTF-8" standalone="no"?>
<!DOCTYPE svg PUBLIC "-//W3C//DTD SVG 1.1//EN" "http://www.w3.org/Graphics/SVG/1.1/DTD/svg11.dtd">
<svg width="100%" height="100%" viewBox="0 0 20 20" version="1.1" xmlns="http://www.w3.org/2000/svg" xmlns:xlink="http://www.w3.org/1999/xlink" xml:space="preserve" xmlns:serif="http://www.serif.com/" style="fill-rule:evenodd;clip-rule:evenodd;stroke-linejoin:round;stroke-miterlimit:2;">
    <g transform="matrix(1,0,0,1,-2,-2)">
        <path d="M4,6L2,6L2,20C2,21.097 2.903,22 4,22L18,22L18,20L4,20L4,6M20,2C21.097,2 22,2.903 22,4L22,16C22,17.097 21.097,18 20,18L8,18C6.903,18 6,17.097 6,16L6,4C6,2.903 6.903,2 8,2L20,2M17,7C17,5.354 15.646,4 14,4C12.354,4 11,5.354 11,7C11,8.646 12.354,10 14,10C15.646,10 17,8.646 17,7M8,15L8,16L20,16L20,15C20,13 16,11.9 14,11.9C12,11.9 8,13 8,15Z" style="fill-rule:nonzero;"/>
    </g>
</svg>
