<?xml version="1.0" encoding="UTF-8" standalone="no"?>
<!DOCTYPE svg PUBLIC "-//W3C//DTD SVG 1.1//EN" "http://www.w3.org/Graphics/SVG/1.1/DTD/svg11.dtd">
<svg width="100%" height="100%" viewBox="0 0 20 22" version="1.1" xmlns="http://www.w3.org/2000/svg" xmlns:xlink="http://www.w3.org/1999/xlink" xml:space="preserve" xmlns:serif="http://www.serif.com/" style="fill-rule:evenodd;clip-rule:evenodd;stroke-linejoin:round;stroke-miterlimit:2;">
    <g transform="matrix(1,0,0,1,-2,-1)">
        <path d="M16,9C22,9 22,13 22,13L22,15L16,15L16,13C16,13 16,11.31 14.85,9.8C14.68,9.57 14.47,9.35 14.25,9.14C14.77,9.06 15.34,9 16,9M2,13C2,13 2,9 8,9C14,9 14,13 14,13L14,15L2,15L2,13M9,17L9,19L15,19L15,17L18,20L15,23L15,21L9,21L9,23L6,20L9,17M8,1C6.34,1 5,2.34 5,4C5,5.66 6.34,7 8,7C9.66,7 11,5.66 11,4C11,2.34 9.66,1 8,1M16,1C14.34,1 13,2.34 13,4C13,5.66 14.34,7 16,7C17.66,7 19,5.66 19,4C19,2.34 17.66,1 16,1Z" style="fill-rule:nonzero;"/>
    </g>
</svg>
