<?xml version="1.0" encoding="UTF-8" standalone="no"?>
<!DOCTYPE svg PUBLIC "-//W3C//DTD SVG 1.1//EN" "http://www.w3.org/Graphics/SVG/1.1/DTD/svg11.dtd">
<svg width="100%" height="100%" viewBox="0 0 24 15" version="1.1" xmlns="http://www.w3.org/2000/svg" xmlns:xlink="http://www.w3.org/1999/xlink" xml:space="preserve" xmlns:serif="http://www.serif.com/" style="fill-rule:evenodd;clip-rule:evenodd;stroke-linejoin:round;stroke-miterlimit:2;">
    <g transform="matrix(1,0,0,1,0,-5.5)">
        <path d="M12,5.5C13.92,5.5 15.5,7.08 15.5,9C15.5,10.92 13.92,12.5 12,12.5C10.08,12.5 8.5,10.92 8.5,9C8.5,7.08 10.08,5.5 12,5.5M5,8C5.56,8 6.08,8.15 6.53,8.42C6.38,9.85 6.8,11.27 7.66,12.38C7.16,13.34 6.16,14 5,14C3.354,14 2,12.646 2,11C2,9.354 3.354,8 5,8M19,8C20.646,8 22,9.354 22,11C22,12.646 20.646,14 19,14C17.84,14 16.84,13.34 16.34,12.38C17.2,11.27 17.62,9.85 17.47,8.42C17.92,8.15 18.44,8 19,8M5.5,18.25C5.5,16.18 8.41,14.5 12,14.5C15.59,14.5 18.5,16.18 18.5,18.25L18.5,20L5.5,20L5.5,18.25M0,20L0,18.5C0,17.11 1.89,15.94 4.45,15.6C3.86,16.28 3.5,17.22 3.5,18.25L3.5,20L0,20M24,20L20.5,20L20.5,18.25C20.5,17.22 20.14,16.28 19.55,15.6C22.11,15.94 24,17.11 24,18.5L24,20Z" style="fill-rule:nonzero;"/>
    </g>
</svg>
