<?xml version="1.0" encoding="UTF-8" standalone="no"?>
<!DOCTYPE svg PUBLIC "-//W3C//DTD SVG 1.1//EN" "http://www.w3.org/Graphics/SVG/1.1/DTD/svg11.dtd">
<svg width="100%" height="100%" viewBox="0 0 18 18" version="1.1" xmlns="http://www.w3.org/2000/svg" xmlns:xlink="http://www.w3.org/1999/xlink" xml:space="preserve" xmlns:serif="http://www.serif.com/" style="fill-rule:evenodd;clip-rule:evenodd;stroke-linejoin:round;stroke-miterlimit:2;">
    <g transform="matrix(1,0,0,1,-3,-3)">
        <path d="M8.27,3L3,8.27L3,15.73L8.27,21L15.73,21C17.5,19.24 21,15.73 21,15.73L21,8.27L15.73,3M9.1,5L14.9,5L19,9.1L19,14.9L14.9,19L9.1,19L5,14.9L5,9.1M11,15L13,15L13,17L11,17L11,15M11,7L13,7L13,13L11,13L11,7" style="fill-rule:nonzero;"/>
    </g>
</svg>
