<?xml version="1.0" encoding="UTF-8" standalone="no"?>
<!DOCTYPE svg PUBLIC "-//W3C//DTD SVG 1.1//EN" "http://www.w3.org/Graphics/SVG/1.1/DTD/svg11.dtd">
<svg width="100%" height="100%" viewBox="0 0 20 22" version="1.1" xmlns="http://www.w3.org/2000/svg" xmlns:xlink="http://www.w3.org/1999/xlink" xml:space="preserve" xmlns:serif="http://www.serif.com/" style="fill-rule:evenodd;clip-rule:evenodd;stroke-linejoin:round;stroke-miterlimit:2;">
    <g transform="matrix(1,0,0,1,-2,-1)">
        <path d="M11,5L8,5L12,1L16,5L13,5L13,9.43C12.25,9.89 11.58,10.46 11,11.12L11,5M22,11L18,7L18,10C14.39,9.85 11.31,12.57 11,16.17C9.44,16.72 8.62,18.44 9.17,20C9.72,21.56 11.44,22.38 13,21.83C14.56,21.27 15.38,19.56 14.83,18C14.53,17.14 13.85,16.47 13,16.17C13.47,12.17 17.47,11.97 17.95,11.97L17.95,14.97L22,11M10.63,11.59C9.3,10.57 7.67,10 6,10L6,7L2,11L6,15L6,12C7.34,12.03 8.63,12.5 9.64,13.4C9.89,12.76 10.22,12.15 10.63,11.59Z" style="fill-rule:nonzero;"/>
    </g>
</svg>
