<?xml version="1.0" encoding="UTF-8" standalone="no"?>
<!DOCTYPE svg PUBLIC "-//W3C//DTD SVG 1.1//EN" "http://www.w3.org/Graphics/SVG/1.1/DTD/svg11.dtd">
<svg width="100%" height="100%" viewBox="0 0 71 86" version="1.1" xmlns="http://www.w3.org/2000/svg" xmlns:xlink="http://www.w3.org/1999/xlink" xml:space="preserve" xmlns:serif="http://www.serif.com/" style="fill-rule:evenodd;clip-rule:evenodd;stroke-linejoin:round;stroke-miterlimit:2;">
    <g transform="matrix(1,0,0,1,-14.5577,-7.49999)">
        <g transform="matrix(1,0,0,1,0,-952.362)">
            <path d="M50.022,959.862C45.82,959.862 42.401,963.272 42.401,967.474C42.403,971.702 45.821,975.104 50.022,975.104C54.25,975.104 57.669,971.702 57.669,967.474C57.669,963.272 54.25,959.862 50.022,959.862ZM39.84,976.697C34.419,976.697 30.072,981.113 30.072,986.597L30.072,1010.04C30.072,1014.58 36.083,1014.58 36.083,1010.04L36.083,987.23L39.708,987.23L39.708,1019.66C42.305,1020.13 44.228,1021.71 45.798,1022.9C46.734,1023.61 47.544,1024.17 48.244,1024.56L48.244,1013.22L51.826,1013.22L51.826,1024.52C52.512,1024.13 53.303,1023.58 54.211,1022.9C55.8,1021.7 57.745,1020.09 60.388,1019.64L60.397,987.23L63.961,987.23L63.961,1010.04C63.961,1014.63 69.937,1014.63 69.937,1010.04L69.937,986.738C69.937,981.673 65.991,976.723 60.063,976.723L39.84,976.697L39.84,976.697ZM14.558,1022.33L14.558,1027.97C15.527,1027.97 16.91,1028.8 18.773,1030.21C20.636,1031.62 22.983,1033.6 26.376,1033.6C29.769,1033.6 32.116,1031.62 33.979,1030.21C35.843,1028.8 37.216,1027.97 38.186,1027.97C39.156,1027.97 40.538,1028.8 42.401,1030.21C44.264,1031.62 46.611,1033.6 50.004,1033.6C53.398,1033.6 55.745,1031.62 57.608,1030.21C59.471,1028.8 60.844,1027.97 61.814,1027.97C62.784,1027.97 64.166,1028.8 66.029,1030.21C67.892,1031.62 70.239,1033.6 73.633,1033.6C77.026,1033.6 79.373,1031.62 81.236,1030.21C83.099,1028.8 84.473,1027.97 85.442,1027.97L85.442,1022.33C82.049,1022.33 79.702,1024.31 77.839,1025.71C75.976,1027.12 74.602,1027.97 73.633,1027.97C72.663,1027.97 71.28,1027.12 69.417,1025.71C67.554,1024.31 65.207,1022.33 61.814,1022.33C58.421,1022.33 56.074,1024.31 54.211,1025.71C52.348,1027.12 50.974,1027.97 50.004,1027.97C49.035,1027.97 47.661,1027.12 45.798,1025.71C43.935,1024.31 41.579,1022.33 38.186,1022.33C34.793,1022.33 32.446,1024.31 30.583,1025.71C28.72,1027.12 27.346,1027.97 26.376,1027.97C25.406,1027.97 24.024,1027.12 22.161,1025.71C20.298,1024.31 17.951,1022.33 14.558,1022.33L14.558,1022.33ZM14.558,1033.6L14.558,1039.23C15.527,1039.23 16.91,1040.07 18.773,1041.47C20.636,1042.88 22.983,1044.86 26.376,1044.86C29.769,1044.86 32.116,1042.88 33.979,1041.47C35.843,1040.07 37.216,1039.23 38.186,1039.23C39.156,1039.23 40.538,1040.07 42.401,1041.47C44.264,1042.88 46.611,1044.86 50.004,1044.86C53.398,1044.86 55.745,1042.88 57.608,1041.47C59.471,1040.07 60.844,1039.23 61.814,1039.23C62.784,1039.23 64.166,1040.07 66.029,1041.47C67.892,1042.88 70.239,1044.86 73.633,1044.86C77.026,1044.86 79.373,1042.88 81.236,1041.47C83.099,1040.07 84.473,1039.23 85.442,1039.23L85.442,1033.6C82.049,1033.6 79.702,1035.57 77.839,1036.98C75.976,1038.38 74.602,1039.23 73.633,1039.23C72.663,1039.23 71.28,1038.38 69.417,1036.98C67.554,1035.57 65.207,1033.6 61.814,1033.6C58.421,1033.6 56.074,1035.57 54.211,1036.98C52.348,1038.38 50.974,1039.23 50.004,1039.23C49.035,1039.23 47.661,1038.38 45.798,1036.98C43.935,1035.57 41.579,1033.6 38.186,1033.6C34.793,1033.6 32.446,1035.57 30.583,1036.98C28.72,1038.38 27.346,1039.23 26.376,1039.23C25.406,1039.23 24.024,1038.38 22.161,1036.98C20.298,1035.57 17.951,1033.6 14.558,1033.6L14.558,1033.6Z" style="fill-rule:nonzero;"/>
        </g>
    </g>
</svg>
