<?xml version="1.0" encoding="UTF-8" standalone="no"?>
<!DOCTYPE svg PUBLIC "-//W3C//DTD SVG 1.1//EN" "http://www.w3.org/Graphics/SVG/1.1/DTD/svg11.dtd">
<svg width="100%" height="100%" viewBox="0 0 16 20" version="1.1" xmlns="http://www.w3.org/2000/svg" xmlns:xlink="http://www.w3.org/1999/xlink" xml:space="preserve" xmlns:serif="http://www.serif.com/" style="fill-rule:evenodd;clip-rule:evenodd;stroke-linejoin:round;stroke-miterlimit:2;">
    <g transform="matrix(1,0,0,1,-4,-2)">
        <path d="M5.81,2L7,2L7,9L9.5,7.5L12,9L12,2L18,2C19.097,2 20,2.903 20,4L20,20C20,21.05 19.05,22 18,22L6,22C4.95,22 4,21.05 4,20L4,4C4,3 4.83,2.09 5.81,2M13,10L13,13L10,13L10,15L13,15L13,20L15,20L15,15L18,15L18,13L15,13L15,10L13,10Z" style="fill-rule:nonzero;"/>
    </g>
</svg>
