<?xml version="1.0" encoding="UTF-8" standalone="no"?>
<!DOCTYPE svg PUBLIC "-//W3C//DTD SVG 1.1//EN" "http://www.w3.org/Graphics/SVG/1.1/DTD/svg11.dtd">
<svg width="100%" height="100%" viewBox="0 0 20 19" version="1.1" xmlns="http://www.w3.org/2000/svg" xmlns:xlink="http://www.w3.org/1999/xlink" xml:space="preserve" xmlns:serif="http://www.serif.com/" style="fill-rule:evenodd;clip-rule:evenodd;stroke-linejoin:round;stroke-miterlimit:2;">
    <g transform="matrix(1,0,0,1,-2,-2)">
        <path d="M20,6C20.58,6 21.05,6.2 21.42,6.59C21.8,7 22,7.45 22,8L22,19C22,19.55 21.8,20 21.42,20.41C21.05,20.8 20.58,21 20,21L4,21C3.42,21 2.95,20.8 2.58,20.41C2.2,20 2,19.55 2,19L2,8C2,7.45 2.2,7 2.58,6.59C2.95,6.2 3.42,6 4,6L8,6L8,4C8,3.42 8.2,2.95 8.58,2.58C8.95,2.2 9.42,2 10,2L14,2C14.58,2 15.05,2.2 15.42,2.58C15.8,2.95 16,3.42 16,4L16,6L20,6M4,8L4,19L20,19L20,8L4,8M14,6L14,4L10,4L10,6L14,6M12,9C13.234,9 14.25,10.016 14.25,11.25C14.25,12.5 13.24,13.5 12,13.5C10.766,13.5 9.75,12.484 9.75,11.25C9.75,10 10.76,9 12,9M16.5,18L7.5,18L7.5,16.88C7.5,15.63 9.5,14.63 12,14.63C14.5,14.63 16.5,15.63 16.5,16.88L16.5,18Z" style="fill-rule:nonzero;"/>
    </g>
</svg>
