<?xml version="1.0" encoding="UTF-8" standalone="no"?>
<!DOCTYPE svg PUBLIC "-//W3C//DTD SVG 1.1//EN" "http://www.w3.org/Graphics/SVG/1.1/DTD/svg11.dtd">
<svg width="100%" height="100%" viewBox="0 0 18 20" version="1.1" xmlns="http://www.w3.org/2000/svg" xmlns:xlink="http://www.w3.org/1999/xlink" xml:space="preserve" xmlns:serif="http://www.serif.com/" style="fill-rule:evenodd;clip-rule:evenodd;stroke-linejoin:round;stroke-miterlimit:2;">
    <g transform="matrix(1,0,0,1,-3,-1)">
        <path d="M19,19L19,8L5,8L5,19L19,19M16,1L18,1L18,3L19,3C20.11,3 21,3.9 21,5L21,19C21,20.11 20.11,21 19,21L5,21C3.89,21 3,20.1 3,19L3,5C3,3.89 3.89,3 5,3L6,3L6,1L8,1L8,3L16,3L16,1M11,9.5L13,9.5L13,12.5L16,12.5L16,14.5L13,14.5L13,17.5L11,17.5L11,14.5L8,14.5L8,12.5L11,12.5L11,9.5Z" style="fill-rule:nonzero;"/>
    </g>
</svg>
