<?xml version="1.0" encoding="UTF-8" standalone="no"?>
<!DOCTYPE svg PUBLIC "-//W3C//DTD SVG 1.1//EN" "http://www.w3.org/Graphics/SVG/1.1/DTD/svg11.dtd">
<svg width="100%" height="100%" viewBox="0 0 16 15" version="1.1" xmlns="http://www.w3.org/2000/svg" xmlns:xlink="http://www.w3.org/1999/xlink" xml:space="preserve" xmlns:serif="http://www.serif.com/" style="fill-rule:evenodd;clip-rule:evenodd;stroke-linejoin:round;stroke-miterlimit:2;">
    <path d="M5.477,5.934C4.87,5.303 4.497,4.447 4.497,3.503C4.497,1.57 6.066,-0 8,-0C9.934,-0 11.503,1.57 11.503,3.503C11.503,4.446 11.13,5.302 10.524,5.932L11.837,8.055C12.05,8.015 12.271,7.993 12.497,7.993C14.43,7.993 16,9.563 16,11.497C16,13.43 14.43,15 12.497,15C10.563,15 8.993,13.43 8.993,11.497C8.993,10.462 9.443,9.531 10.158,8.889L8.919,6.885C8.626,6.964 8.318,7.007 8,7.007C7.683,7.007 7.377,6.965 7.085,6.886L5.813,8.838C6.545,9.481 7.007,10.423 7.007,11.472C7.007,13.406 5.437,14.975 3.503,14.975C1.57,14.975 -0,13.406 -0,11.472C-0,9.539 1.57,7.969 3.503,7.969C3.713,7.969 3.918,7.987 4.117,8.022L5.477,5.934ZM14,11.497C14,12.326 13.326,13 12.497,13C11.667,13 10.993,12.326 10.993,11.497C10.993,10.667 11.667,9.993 12.497,9.993C13.326,9.993 14,10.667 14,11.497ZM5.007,11.472C5.007,12.302 4.333,12.975 3.503,12.975C2.674,12.975 2,12.302 2,11.472C2,10.642 2.674,9.969 3.503,9.969C4.333,9.969 5.007,10.642 5.007,11.472ZM9.391,5.664L9.305,5.718C8.922,5.944 8.476,6.073 8,6.073C7.528,6.073 7.085,5.946 6.704,5.723L6.499,5.589C5.852,5.122 5.43,4.362 5.43,3.503C5.43,2.085 6.582,0.933 8,0.933C9.418,0.933 10.57,2.085 10.57,3.503C10.57,4.41 10.1,5.207 9.391,5.664Z"/>
</svg>
