<?xml version="1.0" encoding="UTF-8" standalone="no"?>
<!DOCTYPE svg PUBLIC "-//W3C//DTD SVG 1.1//EN" "http://www.w3.org/Graphics/SVG/1.1/DTD/svg11.dtd">
<svg width="100%" height="100%" viewBox="0 0 20 21" version="1.1" xmlns="http://www.w3.org/2000/svg" xmlns:xlink="http://www.w3.org/1999/xlink" xml:space="preserve" xmlns:serif="http://www.serif.com/" style="fill-rule:evenodd;clip-rule:evenodd;stroke-linejoin:round;stroke-miterlimit:2;">
    <g transform="matrix(1,0,0,1,-2,-1)">
        <path d="M18,12.22L18,9L13,6.5L13,5L15,5L15,3L13,3L13,1L11,1L11,3L9,3L9,5L11,5L11,6.5L6,9L6,12.22L2,14L2,22L10,22L10,19C10,17.9 10.9,17 12,17C13.1,17 14,17.9 14,19L14,22L22,22L22,14L18,12.22M12,13.5C11.17,13.5 10.5,12.83 10.5,12C10.5,11.17 11.17,10.5 12,10.5C12.83,10.5 13.5,11.17 13.5,12C13.5,12.83 12.83,13.5 12,13.5Z" style="fill-rule:nonzero;"/>
    </g>
</svg>
