<?xml version="1.0" encoding="UTF-8" standalone="no"?>
<!DOCTYPE svg PUBLIC "-//W3C//DTD SVG 1.1//EN" "http://www.w3.org/Graphics/SVG/1.1/DTD/svg11.dtd">
<svg width="100%" height="100%" viewBox="0 0 20 20" version="1.1" xmlns="http://www.w3.org/2000/svg" xmlns:xlink="http://www.w3.org/1999/xlink" xml:space="preserve" xmlns:serif="http://www.serif.com/" style="fill-rule:evenodd;clip-rule:evenodd;stroke-linejoin:round;stroke-miterlimit:2;">
    <g transform="matrix(1,0,0,1,-2,-2)">
        <path d="M20,12L22,12L22,18L20,18L20,12M20,20L22,20L22,22L20,22L20,20M12,2C6.5,2 2,6.5 2,12C2,17.5 6.5,22 12,22C14.3,22 16.3,21.2 18,20L18,10L21.8,10C20.9,5.4 16.8,2 12,2M16.2,16.2L11,13L11,7L12.5,7L12.5,12.2L17,14.9L16.2,16.2Z" style="fill-rule:nonzero;"/>
    </g>
</svg>
