<?xml version="1.0" encoding="UTF-8" standalone="no"?>
<!DOCTYPE svg PUBLIC "-//W3C//DTD SVG 1.1//EN" "http://www.w3.org/Graphics/SVG/1.1/DTD/svg11.dtd">
<svg width="100%" height="100%" viewBox="0 0 21 21" version="1.1" xmlns="http://www.w3.org/2000/svg" xmlns:xlink="http://www.w3.org/1999/xlink" xml:space="preserve" xmlns:serif="http://www.serif.com/" style="fill-rule:evenodd;clip-rule:evenodd;stroke-linejoin:round;stroke-miterlimit:2;">
    <g transform="matrix(1,0,0,1,-1.9975,-1.9975)">
        <path d="M14,14.5L14,12L10,12L10,15L8,15L8,11C8,10.451 8.451,10 9,10L14,10L14,7.5L17.5,11M21.71,11.29L12.71,2.29L12.7,2.29C12.31,1.9 11.68,1.9 11.29,2.29L2.29,11.29C1.9,11.68 1.9,12.32 2.29,12.71L11.29,21.71C11.68,22.09 12.31,22.1 12.71,21.71L21.71,12.71C22.1,12.32 22.1,11.68 21.71,11.29Z" style="fill-rule:nonzero;"/>
    </g>
</svg>
