<?xml version="1.0" encoding="UTF-8" standalone="no"?>
<!DOCTYPE svg PUBLIC "-//W3C//DTD SVG 1.1//EN" "http://www.w3.org/Graphics/SVG/1.1/DTD/svg11.dtd">
<svg width="100%" height="100%" viewBox="0 0 22 19" version="1.1" xmlns="http://www.w3.org/2000/svg" xmlns:xlink="http://www.w3.org/1999/xlink" xml:space="preserve" xmlns:serif="http://www.serif.com/" style="fill-rule:evenodd;clip-rule:evenodd;stroke-linejoin:round;stroke-miterlimit:2;">
    <g transform="matrix(1,0,0,1,-1,-3)">
        <path d="M11.83,9L15,12.16L15,12C15,10.354 13.646,9 12,9L11.83,9M7.53,9.8L9.08,11.35C9.03,11.56 9,11.77 9,12C9,13.646 10.354,15 12,15C12.22,15 12.44,14.97 12.65,14.92L14.2,16.47C13.53,16.8 12.79,17 12,17C9.257,17 7,14.743 7,12C7,11.21 7.2,10.47 7.53,9.8M2,4.27L4.73,7C3.08,8.3 1.78,10 1,12C2.73,16.39 7,19.5 12,19.5C13.55,19.5 15.03,19.2 16.38,18.66L16.81,19.08L19.73,22L21,20.73L3.27,3M12,7C14.743,7 17,9.257 17,12C17,12.64 16.87,13.26 16.64,13.82L19.57,16.75C21.07,15.5 22.27,13.86 23,12C21.27,7.61 17,4.5 12,4.5C10.6,4.5 9.26,4.75 8,5.2L10.17,7.35C10.74,7.13 11.35,7 12,7Z" style="fill-rule:nonzero;"/>
    </g>
</svg>
