<?xml version="1.0" encoding="UTF-8" standalone="no"?>
<!DOCTYPE svg PUBLIC "-//W3C//DTD SVG 1.1//EN" "http://www.w3.org/Graphics/SVG/1.1/DTD/svg11.dtd">
<svg width="100%" height="100%" viewBox="0 0 22 15" version="1.1" xmlns="http://www.w3.org/2000/svg" xmlns:xlink="http://www.w3.org/1999/xlink" xml:space="preserve" xmlns:serif="http://www.serif.com/" style="fill-rule:evenodd;clip-rule:evenodd;stroke-linejoin:round;stroke-miterlimit:2;">
    <g transform="matrix(1,0,0,1,-1,-4.5)">
        <path d="M12,9C10.354,9 9,10.354 9,12C9,13.646 10.354,15 12,15C13.646,15 15,13.646 15,12C15,10.354 13.646,9 12,9M12,17C9.257,17 7,14.743 7,12C7,9.257 9.257,7 12,7C14.743,7 17,9.257 17,12C17,14.743 14.743,17 12,17M12,4.5C7,4.5 2.73,7.61 1,12C2.73,16.39 7,19.5 12,19.5C17,19.5 21.27,16.39 23,12C21.27,7.61 17,4.5 12,4.5Z" style="fill-rule:nonzero;"/>
    </g>
</svg>
