<?xml version="1.0" encoding="UTF-8" standalone="no"?>
<!DOCTYPE svg PUBLIC "-//W3C//DTD SVG 1.1//EN" "http://www.w3.org/Graphics/SVG/1.1/DTD/svg11.dtd">
<svg width="100%" height="100%" viewBox="0 0 21 20" version="1.1" xmlns="http://www.w3.org/2000/svg" xmlns:xlink="http://www.w3.org/1999/xlink" xml:space="preserve" xmlns:serif="http://www.serif.com/" style="fill-rule:evenodd;clip-rule:evenodd;stroke-linejoin:round;stroke-miterlimit:2;">
    <g transform="matrix(1,0,0,1,-2,-2.04)">
        <path d="M12,2.04C6.5,2.04 2,6.53 2,12.06C2,17.06 5.66,21.21 10.44,21.96L10.44,14.96L7.9,14.96L7.9,12.06L10.44,12.06L10.44,9.85C10.44,7.34 11.93,5.96 14.22,5.96C15.31,5.96 16.45,6.15 16.45,6.15L16.45,8.62L15.19,8.62C13.95,8.62 13.56,9.39 13.56,10.18L13.56,12.06L16.34,12.06L15.89,14.96L13.56,14.96L13.56,21.96C18.408,21.194 22.011,16.968 22,12.06C22,6.53 17.5,2.04 12,2.04Z" style="fill-rule:nonzero;"/>
    </g>
</svg>
