<?xml version="1.0" encoding="UTF-8" standalone="no"?>
<!DOCTYPE svg PUBLIC "-//W3C//DTD SVG 1.1//EN" "http://www.w3.org/Graphics/SVG/1.1/DTD/svg11.dtd">
<svg width="100%" height="100%" viewBox="0 0 12 21" version="1.1" xmlns="http://www.w3.org/2000/svg" xmlns:xlink="http://www.w3.org/1999/xlink" xml:space="preserve" xmlns:serif="http://www.serif.com/" style="fill-rule:evenodd;clip-rule:evenodd;stroke-linejoin:round;stroke-miterlimit:2;">
    <g transform="matrix(1,0,0,1,-6.04,-2)">
        <path d="M16,2C17.097,2 18,2.903 18,4C18,5.097 17.097,6 16,6C14.903,6 14,5.097 14,4C14,2.903 14.903,2 16,2M12.04,3C12.863,3 13.54,3.677 13.54,4.5C13.54,5.323 12.863,6 12.04,6C11.217,6 10.54,5.323 10.54,4.5C10.54,3.677 11.217,3 12.04,3M9.09,4.5C9.639,4.5 10.09,4.951 10.09,5.5C10.09,6.049 9.639,6.5 9.09,6.5C8.541,6.5 8.09,6.049 8.09,5.5C8.09,4.951 8.541,4.5 9.09,4.5M7.04,6C7.589,6 8.04,6.451 8.04,7C8.04,7.549 7.589,8 7.04,8C6.491,8 6.04,7.549 6.04,7C6.04,6.451 6.491,6 7.04,6M14.53,12C15.895,11.991 17.014,10.865 17.014,9.5C17.014,9.413 17.009,9.326 17,9.24C16.82,7.948 15.694,6.982 14.39,7L11.91,7C9.218,6.997 6.838,8.806 6.12,11.4C5.986,11.864 6.025,12.362 6.23,12.8C6.677,13.723 6.909,14.735 6.91,15.76C6.879,16.728 6.644,17.679 6.22,18.55C5.96,19.115 5.99,19.771 6.3,20.31C7.12,21.616 8.688,22.261 10.19,21.91C11.772,21.544 12.901,20.124 12.901,18.5C12.901,17.838 12.714,17.19 12.36,16.63C12.047,16.146 11.89,15.576 11.91,15C11.93,14.424 11.68,12 14.53,12Z" style="fill-rule:nonzero;"/>
    </g>
</svg>
