<?xml version="1.0" encoding="UTF-8" standalone="no"?>
<!DOCTYPE svg PUBLIC "-//W3C//DTD SVG 1.1//EN" "http://www.w3.org/Graphics/SVG/1.1/DTD/svg11.dtd">
<svg width="100%" height="100%" viewBox="0 0 20 15" version="1.1" xmlns="http://www.w3.org/2000/svg" xmlns:xlink="http://www.w3.org/1999/xlink" xml:space="preserve" xmlns:serif="http://www.serif.com/" style="fill-rule:evenodd;clip-rule:evenodd;stroke-linejoin:round;stroke-miterlimit:2;">
    <g transform="matrix(1,0,0,1,-1.5,-5)">
        <path d="M3,5L9,5L9,11L3,11L3,5M5,7L5,9L7,9L7,7L5,7M11,7L21,7L21,9L11,9L11,7M11,15L21,15L21,17L11,17L11,15M5,20L1.5,16.5L2.91,15.09L5,17.17L9.59,12.59L11,14L5,20Z" style="fill-rule:nonzero;"/>
    </g>
</svg>
