<?xml version="1.0" encoding="UTF-8" standalone="no"?>
<!DOCTYPE svg PUBLIC "-//W3C//DTD SVG 1.1//EN" "http://www.w3.org/Graphics/SVG/1.1/DTD/svg11.dtd">
<svg width="100%" height="100%" viewBox="0 0 19 15" version="1.1" xmlns="http://www.w3.org/2000/svg" xmlns:xlink="http://www.w3.org/1999/xlink" xml:space="preserve" xmlns:serif="http://www.serif.com/" style="fill-rule:evenodd;clip-rule:evenodd;stroke-linejoin:round;stroke-miterlimit:2;">
    <g transform="matrix(1,0,0,1,-2.5,-4.5)">
        <path d="M7,5L21,5L21,7L7,7L7,5M7,13L7,11L21,11L21,13L7,13M4,4.5C4.823,4.5 5.5,5.177 5.5,6C5.5,6.823 4.823,7.5 4,7.5C3.177,7.5 2.5,6.823 2.5,6C2.5,5.177 3.177,4.5 4,4.5M4,10.5C4.823,10.5 5.5,11.177 5.5,12C5.5,12.823 4.823,13.5 4,13.5C3.177,13.5 2.5,12.823 2.5,12C2.5,11.177 3.177,10.5 4,10.5M7,19L7,17L21,17L21,19L7,19M4,16.5C4.823,16.5 5.5,17.177 5.5,18C5.5,18.823 4.823,19.5 4,19.5C3.177,19.5 2.5,18.823 2.5,18C2.5,17.177 3.177,16.5 4,16.5Z" style="fill-rule:nonzero;"/>
    </g>
</svg>
