<?xml version="1.0" encoding="UTF-8" standalone="no"?>
<!DOCTYPE svg PUBLIC "-//W3C//DTD SVG 1.1//EN" "http://www.w3.org/Graphics/SVG/1.1/DTD/svg11.dtd">
<svg width="100%" height="100%" viewBox="0 0 21 20" version="1.1" xmlns="http://www.w3.org/2000/svg" xmlns:xlink="http://www.w3.org/1999/xlink" xml:space="preserve" xmlns:serif="http://www.serif.com/" style="fill-rule:evenodd;clip-rule:evenodd;stroke-linejoin:round;stroke-miterlimit:2;">
    <g transform="matrix(1,0,0,1,-1.5,-2)">
        <path d="M20,17C21.1,17 22,16.1 22,15L22,4C22,2.9 21.1,2 20,2L9.5,2C9.8,2.6 10,3.3 10,4L20,4L20,15L11,15L11,17M15,7L15,9L9,9L9,22L7,22L7,16L5,16L5,22L3,22L3,14L1.5,14L1.5,9C1.5,7.9 2.4,7 3.5,7L15,7M8,4C8,5.1 7.1,6 6,6C4.9,6 4,5.1 4,4C4,2.9 4.9,2 6,2C7.1,2 8,2.9 8,4M17,6L19,6L19,14L17,14L17,6M14,10L16,10L16,14L14,14L14,10M11,10L13,10L13,14L11,14L11,10Z" style="fill-rule:nonzero;"/>
    </g>
</svg>
