<?xml version="1.0" encoding="UTF-8" standalone="no"?>
<!DOCTYPE svg PUBLIC "-//W3C//DTD SVG 1.1//EN" "http://www.w3.org/Graphics/SVG/1.1/DTD/svg11.dtd">
<svg width="100%" height="100%" viewBox="0 0 19 19" version="1.1" xmlns="http://www.w3.org/2000/svg" xmlns:xlink="http://www.w3.org/1999/xlink" xml:space="preserve" xmlns:serif="http://www.serif.com/" style="fill-rule:evenodd;clip-rule:evenodd;stroke-linejoin:round;stroke-miterlimit:2;">
    <g transform="matrix(1,0,0,1,-3,-2.57)">
        <path d="M18,15C19.646,15 21,16.354 21,18C21,19.646 19.646,21 18,21C16.69,21 15.58,20.17 15.17,19L14,19L14,17L15.17,17C15.58,15.83 16.69,15 18,15M18,17C17.451,17 17,17.451 17,18C17,18.549 17.451,19 18,19C18.549,19 19,18.549 19,18C19,17.451 18.549,17 18,17M18,8C18.784,8 19.43,7.354 19.43,6.57C19.43,5.78 18.79,5.14 18,5.14C17.21,5.14 16.57,5.78 16.57,6.57C16.57,7.354 17.216,8 18,8M18,2.57C20.194,2.57 22,4.376 22,6.57C22,9.56 18,14 18,14C18,14 14,9.56 14,6.57C14,4.376 15.806,2.57 18,2.57M8.83,17L10,17L10,19L8.83,19C8.42,20.17 7.31,21 6,21C4.354,21 3,19.646 3,18C3,16.69 3.83,15.58 5,15.17L5,14L7,14L7,15.17C7.85,15.47 8.53,16.15 8.83,17M6,17C5.451,17 5,17.451 5,18C5,18.549 5.451,19 6,19C6.549,19 7,18.549 7,18C7,17.451 6.549,17 6,17M6,3C7.646,3 9,4.354 9,6C9,7.31 8.17,8.42 7,8.83L7,10L5,10L5,8.83C3.83,8.42 3,7.31 3,6C3,4.354 4.354,3 6,3M6,5C5.451,5 5,5.451 5,6C5,6.549 5.451,7 6,7C6.549,7 7,6.549 7,6C7,5.451 6.549,5 6,5M11,19L11,17L13,17L13,19L11,19M7,13L5,13L5,11L7,11L7,13Z" style="fill-rule:nonzero;"/>
    </g>
</svg>
