<?xml version="1.0" encoding="UTF-8" standalone="no"?>
<!DOCTYPE svg PUBLIC "-//W3C//DTD SVG 1.1//EN" "http://www.w3.org/Graphics/SVG/1.1/DTD/svg11.dtd">
<svg width="100%" height="100%" viewBox="0 0 18 20" version="1.1" xmlns="http://www.w3.org/2000/svg" xmlns:xlink="http://www.w3.org/1999/xlink" xml:space="preserve" xmlns:serif="http://www.serif.com/" style="fill-rule:evenodd;clip-rule:evenodd;stroke-linejoin:round;stroke-miterlimit:2;">
    <g transform="matrix(1,0,0,1,-3,-2)">
        <path d="M14,11.5C15.371,11.5 16.5,10.371 16.5,9C16.5,7.629 15.371,6.5 14,6.5C12.629,6.5 11.5,7.629 11.5,9C11.5,10.371 12.629,11.5 14,11.5M14,2C17.86,2 21,5.13 21,9C21,14.25 14,22 14,22C14,22 7,14.25 7,9C7,5.16 10.16,2 14,2M5,9C5,13.5 10.08,19.66 11,20.81L10,22C10,22 3,14.25 3,9C3,5.83 5.11,3.15 8,2.29C6.16,3.94 5,6.33 5,9Z" style="fill-rule:nonzero;"/>
    </g>
</svg>
