<?xml version="1.0" encoding="UTF-8" standalone="no"?>
<!DOCTYPE svg PUBLIC "-//W3C//DTD SVG 1.1//EN" "http://www.w3.org/Graphics/SVG/1.1/DTD/svg11.dtd">
<svg width="100%" height="100%" viewBox="0 0 18 18" version="1.1" xmlns="http://www.w3.org/2000/svg" xmlns:xlink="http://www.w3.org/1999/xlink" xml:space="preserve" xmlns:serif="http://www.serif.com/" style="fill-rule:evenodd;clip-rule:evenodd;stroke-linejoin:round;stroke-miterlimit:2;">
    <g transform="matrix(1,0,0,1,-3,-3)">
        <path d="M8,17L12,13L15.2,13C15.6,14.2 16.7,15 18,15C19.7,15 21,13.7 21,12C21,10.3 19.7,9 18,9C16.7,9 15.6,9.8 15.2,11L12,11L8,7L8,3L3,3L3,8L6,8L10.2,12L6,16L3,16L3,21L8,21L8,17Z" style="fill-rule:nonzero;"/>
    </g>
</svg>
