<?xml version="1.0" encoding="UTF-8" standalone="no"?>
<!DOCTYPE svg PUBLIC "-//W3C//DTD SVG 1.1//EN" "http://www.w3.org/Graphics/SVG/1.1/DTD/svg11.dtd">
<svg width="100%" height="100%" viewBox="0 0 18 18" version="1.1" xmlns="http://www.w3.org/2000/svg" xmlns:xlink="http://www.w3.org/1999/xlink" xml:space="preserve" xmlns:serif="http://www.serif.com/" style="fill-rule:evenodd;clip-rule:evenodd;stroke-linejoin:round;stroke-miterlimit:2;">
    <g transform="matrix(1,0,0,1,-3,-3)">
        <path d="M14,10L19.5,10L14,4.5L14,10M5,3L15,3L21,9L21,19C21,20.097 20.097,21 19,21L5,21C3.89,21 3,20.1 3,19L3,5C3,3.89 3.89,3 5,3M5,12L5,14L19,14L19,12L5,12M5,16L5,18L14,18L14,16L5,16Z" style="fill-rule:nonzero;"/>
    </g>
</svg>
