<?xml version="1.0" encoding="UTF-8" standalone="no"?>
<!DOCTYPE svg PUBLIC "-//W3C//DTD SVG 1.1//EN" "http://www.w3.org/Graphics/SVG/1.1/DTD/svg11.dtd">
<svg width="100%" height="100%" viewBox="0 0 18 18" version="1.1" xmlns="http://www.w3.org/2000/svg" xmlns:xlink="http://www.w3.org/1999/xlink" xml:space="preserve" xmlns:serif="http://www.serif.com/" style="fill-rule:evenodd;clip-rule:evenodd;stroke-linejoin:round;stroke-miterlimit:2;">
    <g transform="matrix(1,0,0,1,-3,-3)">
        <path d="M15,16L13,16L13,8L15,8L15,16M11,16L9,16L9,8L11,8L11,16M15.73,3L21,8.27L21,15.73L15.73,21L8.27,21L3,15.73L3,8.27L8.27,3L15.73,3M14.9,5L9.1,5L5,9.1L5,14.9L9.1,19L14.9,19L19,14.9L19,9.1L14.9,5Z" style="fill-rule:nonzero;"/>
    </g>
</svg>
