<?xml version="1.0" encoding="UTF-8" standalone="no"?>
<!DOCTYPE svg PUBLIC "-//W3C//DTD SVG 1.1//EN" "http://www.w3.org/Graphics/SVG/1.1/DTD/svg11.dtd">
<svg width="100%" height="100%" viewBox="0 0 16 15" version="1.1" xmlns="http://www.w3.org/2000/svg" xmlns:xlink="http://www.w3.org/1999/xlink" xml:space="preserve" xmlns:serif="http://www.serif.com/" style="fill-rule:evenodd;clip-rule:evenodd;stroke-linejoin:round;stroke-miterlimit:2;">
    <path d="M6.875,12.424C6.46,13.895 5.107,14.976 3.503,14.976C1.569,14.976 -0,13.406 -0,11.472C-0,9.539 1.569,7.969 3.503,7.969C5.124,7.969 6.489,9.072 6.889,10.569C6.925,10.564 6.962,10.562 7,10.562L8.993,10.562C9.035,10.562 9.076,10.565 9.117,10.57C9.524,9.085 10.883,7.993 12.496,7.993C14.43,7.993 16,9.563 16,11.497C16,13.43 14.43,15 12.496,15C10.884,15 9.524,13.908 9.117,12.424C9.076,12.429 9.035,12.432 8.993,12.432L7,12.432C6.958,12.432 6.916,12.429 6.875,12.424Z"/>
    <g transform="matrix(-1.82883e-16,0.995568,-0.995568,-1.82883e-16,11.949,-10.2901)">
        <path d="M10.337,3.876L10.34,3.786L10.346,3.696L10.354,3.607L10.364,3.519L10.376,3.431L10.391,3.344L10.407,3.258L10.426,3.172L10.447,3.088L10.47,3.004L10.494,2.921L10.521,2.838L10.55,2.757L10.58,2.677L10.613,2.597L10.647,2.519L10.683,2.441L10.721,2.365L10.761,2.29L10.802,2.216L10.846,2.142L10.891,2.07L10.937,2L10.986,1.93L11.035,1.862L11.087,1.795L11.14,1.729L11.194,1.664L11.251,1.601L11.308,1.539L11.367,1.479L11.428,1.42L11.489,1.362L11.553,1.306L11.617,1.252L11.683,1.198L11.75,1.147L11.818,1.097L11.888,1.049L11.959,1.002L12.031,0.957L12.104,0.914L12.178,0.873L12.253,0.833L12.33,0.795L12.407,0.759L12.486,0.724L12.565,0.692L12.645,0.661L12.727,0.633L12.809,0.606L12.892,0.581L12.976,0.558L13.061,0.538L13.146,0.519L13.232,0.503L13.319,0.488L13.407,0.476L13.495,0.466L13.584,0.458L13.674,0.452L13.764,0.449L13.855,0.448L13.946,0.449L14.036,0.452L14.126,0.458L14.214,0.466L14.303,0.476L14.391,0.488L14.477,0.503L14.564,0.519L14.649,0.538L14.734,0.558L14.818,0.581L14.901,0.606L14.983,0.633L15.064,0.661L15.145,0.692L15.224,0.724L15.303,0.759L15.38,0.795L15.456,0.833L15.532,0.873L15.606,0.914L15.679,0.957L15.751,1.002L15.822,1.049L15.891,1.097L15.96,1.147L16.027,1.198L16.093,1.252L16.157,1.306L16.22,1.362L16.282,1.42L16.343,1.479L16.402,1.539L16.459,1.601L16.515,1.664L16.57,1.729L16.623,1.795L16.674,1.862L16.724,1.93L16.773,2L16.819,2.07L16.864,2.142L16.907,2.216L16.949,2.29L16.989,2.365L17.027,2.441L17.063,2.519L17.097,2.597L17.13,2.677L17.16,2.757L17.189,2.838L17.216,2.921L17.24,3.004L17.263,3.088L17.284,3.172L17.302,3.258L17.319,3.344L17.333,3.431L17.346,3.519L17.356,3.607L17.364,3.696L17.369,3.786L17.373,3.876L17.374,3.967L17.373,4.057L17.369,4.148L17.364,4.237L17.356,4.326L17.346,4.414L17.333,4.502L17.319,4.589L17.302,4.675L17.284,4.761L17.263,4.846L17.24,4.929L17.216,5.012L17.189,5.095L17.16,5.176L17.13,5.256L17.097,5.336L17.063,5.414L17.027,5.492L16.989,5.568L16.949,5.643L16.907,5.718L16.864,5.791L16.819,5.863L16.773,5.933L16.724,6.003L16.674,6.071L16.623,6.139L16.57,6.204L16.515,6.269L16.459,6.332L16.402,6.394L16.343,6.454L16.282,6.513L16.22,6.571L16.157,6.627L16.093,6.682L16.027,6.735L15.96,6.786L15.891,6.836L15.822,6.884L15.751,6.931L15.679,6.976L15.606,7.019L15.532,7.061L15.456,7.1L15.38,7.138L15.303,7.174L15.224,7.209L15.145,7.241L15.064,7.272L14.983,7.301L14.901,7.327L14.818,7.352L14.734,7.375L14.649,7.395L14.564,7.414L14.477,7.431L14.391,7.445L14.303,7.457L14.214,7.467L14.126,7.475L14.036,7.481L13.946,7.484L13.855,7.486L13.764,7.484L13.674,7.481L13.584,7.475L13.495,7.467L13.407,7.457L13.319,7.445L13.232,7.431L13.146,7.414L13.061,7.395L12.976,7.375L12.892,7.352L12.809,7.327L12.727,7.301L12.645,7.272L12.565,7.241L12.486,7.209L12.407,7.174L12.33,7.138L12.253,7.1L12.178,7.061L12.104,7.019L12.031,6.976L11.959,6.931L11.888,6.884L11.818,6.836L11.75,6.786L11.683,6.735L11.617,6.682L11.553,6.627L11.489,6.571L11.428,6.513L11.367,6.454L11.308,6.394L11.251,6.332L11.194,6.269L11.14,6.204L11.087,6.139L11.035,6.071L10.986,6.003L10.937,5.933L10.891,5.863L10.846,5.791L10.802,5.718L10.761,5.643L10.721,5.568L10.683,5.492L10.647,5.414L10.613,5.336L10.58,5.256L10.55,5.176L10.521,5.095L10.494,5.012L10.47,4.929L10.447,4.846L10.426,4.761L10.407,4.675L10.391,4.589L10.376,4.502L10.364,4.414L10.354,4.326L10.346,4.237L10.34,4.148L10.337,4.057L10.336,3.967L10.337,3.876ZM12.211,3.967L12.213,4.052L12.216,4.095L12.22,4.136L12.224,4.178L12.23,4.219L12.244,4.299L12.253,4.339L12.273,4.417L12.297,4.493L12.31,4.531L12.324,4.568L12.339,4.605L12.355,4.641L12.372,4.677L12.39,4.713L12.408,4.748L12.428,4.783L12.448,4.817L12.469,4.85L12.491,4.884L12.513,4.916L12.561,4.98L12.586,5.011L12.638,5.071L12.665,5.1L12.721,5.156L12.751,5.183L12.78,5.21L12.873,5.285L12.905,5.308L12.938,5.331L12.971,5.352L13.039,5.394L13.109,5.432L13.144,5.449L13.18,5.466L13.217,5.482L13.253,5.497L13.291,5.511L13.328,5.524L13.366,5.537L13.444,5.559L13.522,5.577L13.562,5.585L13.644,5.597L13.685,5.602L13.727,5.606L13.769,5.608L13.812,5.61L13.898,5.61L13.941,5.608L13.983,5.606L14.025,5.602L14.066,5.597L14.107,5.591L14.147,5.585L14.187,5.577L14.227,5.568L14.266,5.559L14.344,5.537L14.382,5.524L14.419,5.511L14.456,5.497L14.493,5.482L14.53,5.466L14.566,5.449L14.601,5.432L14.671,5.394L14.739,5.352L14.772,5.331L14.805,5.308L14.837,5.285L14.93,5.21L14.988,5.156L15.017,5.128L15.045,5.1L15.072,5.071L15.124,5.011L15.149,4.98L15.173,4.948L15.219,4.884L15.241,4.85L15.262,4.817L15.282,4.783L15.32,4.713L15.338,4.677L15.37,4.605L15.4,4.531L15.413,4.493L15.437,4.417L15.457,4.339L15.473,4.259L15.48,4.219L15.485,4.178L15.49,4.136L15.494,4.095L15.497,4.052L15.499,3.967L15.497,3.881L15.494,3.838L15.49,3.797L15.485,3.755L15.48,3.714L15.473,3.674L15.457,3.594L15.437,3.516L15.413,3.44L15.4,3.402L15.37,3.328L15.338,3.256L15.32,3.22L15.301,3.185L15.282,3.151L15.262,3.116L15.241,3.083L15.219,3.05L15.196,3.017L15.173,2.985L15.149,2.953L15.124,2.922L15.072,2.862L15.045,2.833L15.017,2.805L14.988,2.777L14.93,2.723L14.868,2.673L14.837,2.649L14.805,2.625L14.772,2.602L14.739,2.581L14.671,2.539L14.601,2.501L14.566,2.484L14.53,2.467L14.493,2.451L14.456,2.436L14.419,2.422L14.382,2.409L14.344,2.396L14.266,2.374L14.227,2.365L14.187,2.356L14.147,2.348L14.107,2.342L14.066,2.336L14.025,2.331L13.941,2.325L13.898,2.323L13.812,2.323L13.769,2.325L13.685,2.331L13.644,2.336L13.562,2.348L13.522,2.356L13.444,2.374L13.366,2.396L13.328,2.409L13.291,2.422L13.253,2.436L13.217,2.451L13.18,2.467L13.144,2.484L13.109,2.501L13.039,2.539L12.971,2.581L12.938,2.602L12.905,2.625L12.873,2.649L12.842,2.673L12.78,2.723L12.751,2.75L12.721,2.777L12.665,2.833L12.638,2.862L12.586,2.922L12.561,2.953L12.513,3.017L12.469,3.083L12.448,3.116L12.428,3.151L12.408,3.185L12.39,3.22L12.372,3.256L12.355,3.292L12.339,3.328L12.324,3.365L12.31,3.402L12.297,3.44L12.273,3.516L12.253,3.594L12.244,3.634L12.23,3.714L12.224,3.755L12.22,3.797L12.216,3.838L12.213,3.881L12.212,3.923L12.211,3.967Z"/>
    </g>
</svg>
