<?xml version="1.0" encoding="UTF-8" standalone="no"?>
<!DOCTYPE svg PUBLIC "-//W3C//DTD SVG 1.1//EN" "http://www.w3.org/Graphics/SVG/1.1/DTD/svg11.dtd">
<svg width="100%" height="100%" viewBox="0 0 18 18" version="1.1" xmlns="http://www.w3.org/2000/svg" xmlns:xlink="http://www.w3.org/1999/xlink" xml:space="preserve" xmlns:serif="http://www.serif.com/" style="fill-rule:evenodd;clip-rule:evenodd;stroke-linejoin:round;stroke-miterlimit:2;">
    <g transform="matrix(1,0,0,1,-3,-3)">
        <path d="M3,5C3,3.903 3.903,3 5,3L19,3C20.097,3 21,3.903 21,5L21,19C21,20.097 20.097,21 19,21L5,21C3.89,21 3,20.1 3,19L3,5M7,18L9,18L9.35,16L13.35,16L13,18L15,18L15.35,16L17.35,16L17.71,14L15.71,14L16.41,10L18.41,10L18.76,8L16.76,8L17.12,6L15.12,6L14.76,8L10.76,8L11.12,6L9.12,6L8.76,8L6.76,8L6.41,10L8.41,10L7.71,14L5.71,14L5.35,16L7.35,16L7,18M10.41,10L14.41,10L13.71,14L9.71,14L10.41,10Z" style="fill-rule:nonzero;"/>
    </g>
</svg>
