<?xml version="1.0" encoding="UTF-8" standalone="no"?>
<!DOCTYPE svg PUBLIC "-//W3C//DTD SVG 1.1//EN" "http://www.w3.org/Graphics/SVG/1.1/DTD/svg11.dtd">
<svg width="100%" height="100%" viewBox="0 0 18 18" version="1.1" xmlns="http://www.w3.org/2000/svg" xmlns:xlink="http://www.w3.org/1999/xlink" xml:space="preserve" xmlns:serif="http://www.serif.com/" style="fill-rule:evenodd;clip-rule:evenodd;stroke-linejoin:round;stroke-miterlimit:2;">
    <g transform="matrix(1,0,0,1,-3,-3)">
        <path d="M19,19L5,19L5,5L19,5M19,3L5,3C3.903,3 3,3.903 3,5L3,19C3,20.097 3.903,21 5,21L19,21C20.097,21 21,20.097 21,19L21,5C21,3.903 20.097,3 19,3M7,9L9.31,9L9.63,6L11.63,6L11.31,9L13.31,9L13.63,6L15.63,6L15.31,9L17,9L17,11L15.1,11L14.9,13L17,13L17,15L14.69,15L14.37,18L12.37,18L12.69,15L10.69,15L10.37,18L8.37,18L8.69,15L7,15L7,13L8.9,13L9.1,11L7,11L7,9M11.1,11L10.9,13L12.9,13L13.1,11L11.1,11Z" style="fill-rule:nonzero;"/>
    </g>
</svg>
