<?xml version="1.0" encoding="UTF-8" standalone="no"?>
<!DOCTYPE svg PUBLIC "-//W3C//DTD SVG 1.1//EN" "http://www.w3.org/Graphics/SVG/1.1/DTD/svg11.dtd">
<svg width="100%" height="100%" viewBox="0 0 20 18" version="1.1" xmlns="http://www.w3.org/2000/svg" xmlns:xlink="http://www.w3.org/1999/xlink" xml:space="preserve" xmlns:serif="http://www.serif.com/" style="fill-rule:evenodd;clip-rule:evenodd;stroke-linejoin:round;stroke-miterlimit:2;">
    <g transform="matrix(1,0,0,1,-2.12,-3)">
        <path d="M5.41,21L6.12,17L2.12,17L2.47,15L6.47,15L7.53,9L3.53,9L3.88,7L7.88,7L8.59,3L10.59,3L9.88,7L15.88,7L16.59,3L18.59,3L17.88,7L21.88,7L21.53,9L17.53,9L16.47,15L20.47,15L20.12,17L16.12,17L15.41,21L13.41,21L14.12,17L8.12,17L7.41,21L5.41,21M9.53,9L8.47,15L14.47,15L15.53,9L9.53,9Z" style="fill-rule:nonzero;"/>
    </g>
</svg>
