<?xml version="1.0" encoding="UTF-8" standalone="no"?>
<!DOCTYPE svg PUBLIC "-//W3C//DTD SVG 1.1//EN" "http://www.w3.org/Graphics/SVG/1.1/DTD/svg11.dtd">
<svg width="100%" height="100%" viewBox="0 0 18 22" version="1.1" xmlns="http://www.w3.org/2000/svg" xmlns:xlink="http://www.w3.org/1999/xlink" xml:space="preserve" xmlns:serif="http://www.serif.com/" style="fill-rule:evenodd;clip-rule:evenodd;stroke-linejoin:round;stroke-miterlimit:2;">
    <g transform="matrix(1,0,0,1,-3,-1)">
        <path d="M12,1L3,5L3,11C3,16.55 6.84,21.74 12,23C17.16,21.74 21,16.55 21,11L21,5L12,1M12,3.18L19,6.3L19,11.22C19,12.92 18.5,14.65 17.65,16.17C16,14.94 13.26,14.5 12,14.5C10.74,14.5 8,14.94 6.35,16.17C5.5,14.65 5,12.92 5,11.22L5,6.3L12,3.18M12,6C10.08,6 8.5,7.58 8.5,9.5C8.5,11.42 10.08,13 12,13C13.92,13 15.5,11.42 15.5,9.5C15.5,7.58 13.92,6 12,6M12,8C12.823,8 13.5,8.677 13.5,9.5C13.5,10.323 12.823,11 12,11C11.177,11 10.5,10.323 10.5,9.5C10.5,8.677 11.177,8 12,8M12,16.5C13.57,16.5 15.64,17.11 16.53,17.84C15.29,19.38 13.7,20.55 12,21C10.3,20.55 8.71,19.38 7.47,17.84C8.37,17.11 10.43,16.5 12,16.5Z" style="fill-rule:nonzero;"/>
    </g>
</svg>
