<?xml version="1.0" encoding="UTF-8" standalone="no"?>
<!DOCTYPE svg PUBLIC "-//W3C//DTD SVG 1.1//EN" "http://www.w3.org/Graphics/SVG/1.1/DTD/svg11.dtd">
<svg width="100%" height="100%" viewBox="0 0 18 20" version="1.1" xmlns="http://www.w3.org/2000/svg" xmlns:xlink="http://www.w3.org/1999/xlink" xml:space="preserve" xmlns:serif="http://www.serif.com/" style="fill-rule:evenodd;clip-rule:evenodd;stroke-linejoin:round;stroke-miterlimit:2;">
    <g transform="matrix(1,0,0,1,-3,-2)">
        <path d="M11,3L12,2L13,3L13,5L20,5C20.549,5 21,5.451 21,6L21,16C21,16.549 20.549,17 20,17L13,17L13,20C14.097,20 15,20.903 15,22L9,22C9,20.903 9.903,20 11,20L11,17L4,17C3.451,17 3,16.549 3,16L3,6C3,5.451 3.451,5 4,5L11,5L11,3M6,8L6,10L18,10L18,8L6,8M6,12L6,14L13,14L13,12L6,12Z" style="fill-rule:nonzero;"/>
    </g>
</svg>
