<?xml version="1.0" encoding="UTF-8" standalone="no"?>
<!DOCTYPE svg PUBLIC "-//W3C//DTD SVG 1.1//EN" "http://www.w3.org/Graphics/SVG/1.1/DTD/svg11.dtd">
<svg width="100%" height="100%" viewBox="0 0 86 90" version="1.1" xmlns="http://www.w3.org/2000/svg" xmlns:xlink="http://www.w3.org/1999/xlink" xml:space="preserve" xmlns:serif="http://www.serif.com/" style="fill-rule:evenodd;clip-rule:evenodd;stroke-linejoin:round;stroke-miterlimit:2;">
    <g transform="matrix(1,0,0,1,-7.25,-5)">
        <path d="M45.438,5L45.438,18.438C45.438,22.584 42.307,25.789 40.781,27.531C38.689,29.92 36.368,31.053 33.313,32.938C30.257,34.822 26.569,37.71 24.25,42.75C22.063,47.503 20.932,53.885 20.844,63.438L7.25,63.438L25.469,95L43.719,63.438L30.125,63.438C30.224,54.693 31.337,49.562 32.688,46.625C34.126,43.498 35.641,42.414 38.188,40.844C40.734,39.273 44.419,37.464 47.781,33.625C48.558,32.738 49.292,31.751 50,30.656C50.708,31.751 51.442,32.738 52.219,33.625C55.581,37.464 59.266,39.273 61.813,40.844C64.359,42.414 65.874,43.498 67.313,46.625C68.664,49.562 69.776,54.693 69.875,63.438L56.281,63.438L74.531,95L92.75,63.438L79.188,63.438C79.099,53.88 77.937,47.505 75.75,42.75C73.431,37.71 69.743,34.822 66.688,32.938C63.632,31.053 61.311,29.92 59.219,27.531C57.693,25.79 54.66,22.816 54.656,18.438C54.654,14.856 54.656,9.775 54.656,5L45.438,5Z"/>
    </g>
</svg>
