<?xml version="1.0" encoding="UTF-8" standalone="no"?>
<!DOCTYPE svg PUBLIC "-//W3C//DTD SVG 1.1//EN" "http://www.w3.org/Graphics/SVG/1.1/DTD/svg11.dtd">
<svg width="100%" height="100%" viewBox="0 0 20 20" version="1.1" xmlns="http://www.w3.org/2000/svg" xmlns:xlink="http://www.w3.org/1999/xlink" xml:space="preserve" xmlns:serif="http://www.serif.com/" style="fill-rule:evenodd;clip-rule:evenodd;stroke-linejoin:round;stroke-miterlimit:2;">
    <g transform="matrix(1,0,0,1,-2,-2)">
        <path d="M5.5,7C4.677,7 4,6.323 4,5.5C4,4.677 4.677,4 5.5,4C6.323,4 7,4.677 7,5.5C7,6.323 6.323,7 5.5,7M21.41,11.58L12.41,2.58C12.05,2.22 11.55,2 11,2L4,2C2.89,2 2,2.89 2,4L2,11C2,11.55 2.22,12.05 2.59,12.41L11.58,21.41C11.95,21.77 12.45,22 13,22C13.55,22 14.05,21.77 14.41,21.41L21.41,14.41C21.78,14.05 22,13.55 22,13C22,12.44 21.77,11.94 21.41,11.58Z" style="fill-rule:nonzero;"/>
    </g>
</svg>
