<?xml version="1.0" encoding="UTF-8" standalone="no"?>
<!DOCTYPE svg PUBLIC "-//W3C//DTD SVG 1.1//EN" "http://www.w3.org/Graphics/SVG/1.1/DTD/svg11.dtd">
<svg width="100%" height="100%" viewBox="0 0 22 20" version="1.1" xmlns="http://www.w3.org/2000/svg" xmlns:xlink="http://www.w3.org/1999/xlink" xml:space="preserve" xmlns:serif="http://www.serif.com/" style="fill-rule:evenodd;clip-rule:evenodd;stroke-linejoin:round;stroke-miterlimit:2;">
    <g transform="matrix(1,0,0,1,-1,-2)">
        <path d="M12.87,15.07L10.33,12.56L10.36,12.53C12.1,10.59 13.34,8.36 14.07,6L17,6L17,4L10,4L10,2L8,2L8,4L1,4L1,6L12.17,6C11.5,7.92 10.44,9.75 9,11.35C8.07,10.32 7.3,9.19 6.69,8L4.69,8C5.42,9.63 6.42,11.17 7.67,12.56L2.58,17.58L4,19L9,14L12.11,17.11L12.87,15.07M18.5,10L16.5,10L12,22L14,22L15.12,19L19.87,19L21,22L23,22L18.5,10M15.88,17L17.5,12.67L19.12,17L15.88,17Z" style="fill-rule:nonzero;"/>
    </g>
</svg>
