<?xml version="1.0" encoding="UTF-8" standalone="no"?>
<!DOCTYPE svg PUBLIC "-//W3C//DTD SVG 1.1//EN" "http://www.w3.org/Graphics/SVG/1.1/DTD/svg11.dtd">
<svg width="100%" height="100%" viewBox="0 0 16 15" version="1.1" xmlns="http://www.w3.org/2000/svg" xmlns:xlink="http://www.w3.org/1999/xlink" xml:space="preserve" xmlns:serif="http://www.serif.com/" style="fill-rule:evenodd;clip-rule:evenodd;stroke-linejoin:round;stroke-miterlimit:2;">
    <path d="M5.48,5.927L5.351,5.795L5.096,5.462L4.919,5.173L4.74,4.788L4.607,4.379L4.537,4.037L4.501,3.684L4.501,3.323L4.551,2.883L4.654,2.462L4.807,2.062L5.004,1.688L5.244,1.341L5.524,1.027L5.837,0.748L6.184,0.508L6.559,0.31L6.959,0.157L7.295,0.071L7.731,0.01L8.09,0.001L8.533,0.04L8.958,0.133L9.364,0.276L9.743,0.464L10.095,0.696L10.417,0.968L10.703,1.275L10.951,1.616L11.158,1.985L11.291,2.299L11.393,2.628L11.463,2.97L11.499,3.323L11.499,3.684L11.463,4.037L11.371,4.462L11.228,4.866L11.039,5.247L10.807,5.599L10.535,5.92L10.468,5.983L11.744,8.076L11.791,8.064L12.227,8.003L12.587,7.994L13.03,8.033L13.455,8.127L13.86,8.269L14.239,8.457L14.592,8.689L14.913,8.961L15.199,9.269L15.448,9.609L15.654,9.978L15.788,10.292L15.89,10.622L15.96,10.963L15.996,11.316L15.996,11.677L15.96,12.03L15.867,12.455L15.725,12.86L15.536,13.24L15.304,13.592L15.032,13.913L14.724,14.2L14.385,14.448L14.015,14.655L13.62,14.816L13.288,14.91L12.855,14.982L12.407,14.999L12.051,14.972L11.621,14.89L11.213,14.757L10.828,14.577L10.469,14.353L10.142,14.089L9.848,13.788L9.592,13.455L9.416,13.166L9.237,12.781L9.115,12.407L6.97,12.432C6.939,12.432 6.909,12.43 6.878,12.427L6.874,12.427C6.459,13.897 5.106,14.976 3.503,14.976C1.569,14.976 -0,13.406 -0,11.472C-0,9.539 1.569,7.969 3.503,7.969C3.712,7.969 3.916,7.987 4.115,8.022L5.48,5.927ZM9.803,11.601L9.807,11.773L9.879,12.173L10.005,12.548L10.184,12.897L10.41,13.215L10.679,13.498L11.041,13.775L11.385,13.962L11.756,14.097L12.152,14.178L12.567,14.199L12.976,14.158L13.363,14.058L13.726,13.905L14.113,13.663L14.453,13.361L14.701,13.061L14.904,12.726L15.058,12.363L15.157,11.976L15.199,11.566L15.178,11.151L15.098,10.757L14.961,10.386L14.774,10.041L14.541,9.729L14.265,9.453L13.953,9.219L13.608,9.032L13.237,8.896L12.842,8.815L12.426,8.794L12.017,8.836L11.63,8.935L11.268,9.088L10.933,9.292L10.586,9.585L10.33,9.88L10.089,10.267L9.936,10.631L9.848,10.951L9.8,11.334C9.803,11.387 9.805,11.441 9.805,11.497C9.805,11.532 9.804,11.567 9.803,11.601ZM8.93,6.878L8.791,6.917L8.358,6.989L7.91,7.006L7.555,6.979L7.124,6.896L7.088,6.885L5.814,8.84C6.326,9.29 6.706,9.887 6.888,10.566C6.915,10.563 6.943,10.562 6.97,10.562L9.123,10.571L9.151,10.455L9.303,10.055L9.501,9.681L9.74,9.334L10.02,9.02L10.161,8.895L8.93,6.878ZM7.957,1.868L7.669,1.9L7.364,1.994L7.087,2.146L6.872,2.319L6.687,2.526L6.541,2.761L6.437,3.017L6.372,3.334L6.368,3.631L6.415,3.913L6.507,4.176L6.665,4.449L6.872,4.688L7.087,4.861L7.293,4.98L7.552,5.078L7.872,5.135L8.169,5.131L8.449,5.078L8.743,4.962L9.009,4.792L9.238,4.574L9.421,4.316L9.564,3.99L9.628,3.673L9.628,3.334L9.564,3.017L9.459,2.761L9.288,2.495L9.1,2.292L8.847,2.103L8.599,1.979L8.331,1.9L8.085,1.869L7.957,1.868Z"/>
</svg>
