<?xml version="1.0" encoding="UTF-8" standalone="no"?>
<!DOCTYPE svg PUBLIC "-//W3C//DTD SVG 1.1//EN" "http://www.w3.org/Graphics/SVG/1.1/DTD/svg11.dtd">
<svg width="100%" height="100%" viewBox="0 0 18 12" version="1.1" xmlns="http://www.w3.org/2000/svg" xmlns:xlink="http://www.w3.org/1999/xlink" xml:space="preserve" xmlns:serif="http://www.serif.com/" style="fill-rule:evenodd;clip-rule:evenodd;stroke-linejoin:round;stroke-miterlimit:2;">
    <g transform="matrix(1,0,0,1,-3,-6)">
        <path d="M17,10.5L21,6.5L21,17.5L17,13.5L17,17C17,17.549 16.549,18 16,18L4,18C3.451,18 3,17.549 3,17L3,7C3,6.451 3.451,6 4,6L16,6C16.549,6 17,6.451 17,7L17,10.5M10.91,9.55L9.2,11.82L10.5,13.55L9.77,14.09L7.73,11.36L5,15L15,15L10.91,9.55Z" style="fill-rule:nonzero;"/>
    </g>
</svg>
