<?xml version="1.0" encoding="UTF-8" standalone="no"?>
<!DOCTYPE svg PUBLIC "-//W3C//DTD SVG 1.1//EN" "http://www.w3.org/Graphics/SVG/1.1/DTD/svg11.dtd">
<svg width="100%" height="100%" viewBox="0 0 20 16" version="1.1" xmlns="http://www.w3.org/2000/svg" xmlns:xlink="http://www.w3.org/1999/xlink" xml:space="preserve" xmlns:serif="http://www.serif.com/" style="fill-rule:evenodd;clip-rule:evenodd;stroke-linejoin:round;stroke-miterlimit:2;">
    <g transform="matrix(1,0,0,1,-2,-4.67)">
        <path d="M20,12L22,12L22,14L20,14C18.62,14 17.26,13.65 16,13C13.5,14.3 10.5,14.3 8,13C6.74,13.65 5.37,14 4,14L2,14L2,12L4,12C5.39,12 6.78,11.53 8,10.67C10.44,12.38 13.56,12.38 16,10.67C17.22,11.53 18.61,12 20,12M20,6L22,6L22,8L20,8C18.62,8 17.26,7.65 16,7C13.5,8.3 10.5,8.3 8,7C6.74,7.65 5.37,8 4,8L2,8L2,6L4,6C5.39,6 6.78,5.53 8,4.67C10.44,6.38 13.56,6.38 16,4.67C17.22,5.53 18.61,6 20,6M20,18L22,18L22,20L20,20C18.62,20 17.26,19.65 16,19C13.5,20.3 10.5,20.3 8,19C6.74,19.65 5.37,20 4,20L2,20L2,18L4,18C5.39,18 6.78,17.53 8,16.67C10.44,18.38 13.56,18.38 16,16.67C17.22,17.53 18.61,18 20,18Z" style="fill-rule:nonzero;"/>
    </g>
</svg>
