<?xml version="1.0" encoding="UTF-8"?>
<svg id="Layer_1" xmlns="http://www.w3.org/2000/svg" version="1.1" viewBox="0 0 100 100">
  <!-- Generator: Adobe Illustrator 29.1.0, SVG Export Plug-In . SVG Version: 2.1.0 Build 142)  -->
  <rect width="100" height="100" fill="none"/>
  <g>
    <path d="M50,7.5C26.6,7.5,7.5,26.6,7.5,50s19.1,42.5,42.5,42.5,42.5-19.1,42.5-42.5S73.4,7.5,50,7.5ZM50,87.8c-20.9,0-37.8-16.9-37.8-37.8S29.1,12.2,50,12.2s37.8,16.9,37.8,37.8-16.9,37.8-37.8,37.8Z" fill="#231f20"/>
    <polygon points="69.8 31 44.3 56.4 32.5 44.6 24.8 52.4 44.3 71.9 52.1 64.2 52.1 64.1 77.5 38.7 69.8 31" fill="#231f20"/>
  </g>
</svg>