<?xml version="1.0" encoding="UTF-8"?>
<svg id="Layer_1" xmlns="http://www.w3.org/2000/svg" version="1.1" viewBox="0 0 100 100">
  <!-- Generator: Adobe Illustrator 29.1.0, SVG Export Plug-In . SVG Version: 2.1.0 Build 142)  -->
  <rect width="100" height="100" fill="none"/>
  <g>
    <path d="M40.2,48.9c-3.6-2.6-6.2-6.5-6.7-11-2.3-1.4-4.9-2.2-7.8-2.2h-5.8c-8.1,0-14.6,6.3-14.6,14v10.1s0,4,17.5,4,1.9,0,2.8,0c1.9-7.1,7.5-12.7,14.7-14.8Z" fill="#231f20"/>
    <ellipse cx="22.7" cy="23.7" rx="10.8" ry="10.4" fill="#231f20"/>
    <path d="M80.2,35.7h-5.8c-2.9,0-5.6.8-7.8,2.2-.6,4.5-3.1,8.5-6.7,11,7.2,2.1,12.8,7.7,14.7,14.8.9,0,1.8,0,2.8,0,17.3,0,17.5-4,17.5-4v-10.1c0-7.8-6.5-14-14.6-14Z" fill="#231f20"/>
    <ellipse cx="77.3" cy="23.7" rx="10.8" ry="10.4" fill="#231f20"/>
    <path d="M44.5,51.1c-9.4.9-16.7,8.5-16.7,17.7v12.8s0,5,22.2,5,22.2-5,22.2-5v-12.8c0-9.2-7.3-16.8-16.7-17.7-1.7.6-3.6.9-5.5.9s-3.8-.3-5.5-.9Z" fill="#231f20"/>
    <ellipse cx="50" cy="35.9" rx="13.7" ry="13.2" fill="#231f20"/>
  </g>
</svg>