<?xml version="1.0" encoding="UTF-8"?>
<svg id="Layer_1" xmlns="http://www.w3.org/2000/svg" version="1.1" viewBox="0 0 100 100">
  <!-- Generator: Adobe Illustrator 29.1.0, SVG Export Plug-In . SVG Version: 2.1.0 Build 142)  -->
  <rect width="100" height="100" fill="none"/>
  <g id="becX9B.tif">
    <path d="M37.7,16.8l2.2,4.4.3.2c6.6-1,13.3-.9,19.9,0l2.3-4.7c6.2,1.1,12.4,2.9,18.1,5.6,10.1,14.4,15,32.2,13,49.8-6.7,4.9-14.2,8.7-22.2,11.1-1.8-2.4-3.4-5-4.8-7.6,2.6-.8,5-2.1,7.3-3.4.2-.2,0-.2,0-.4s-1.4-1.2-1.5-1.2c-.2,0-3.9,1.6-4.5,1.8-13.1,4.7-27.3,4-39.9-1.8-.1,0-1.5,1-1.6,1.2s-.2.1-.2.3c2.4,1.3,4.8,2.6,7.4,3.4-1.4,2.7-2.9,5.3-4.8,7.6-8-2.4-15.5-6.2-22.2-11.1l-.3-4.4c-.5-14.1,2.8-27.5,9.8-39.7.6-1.1,3-5.2,3.8-5.8s3.1-1.4,4.2-1.8c4.5-1.7,9.1-2.9,13.8-3.7ZM34.7,44.5c-10.3,1-9.1,18.6,1.7,17.6,9.9-1,9-18.6-1.7-17.6ZM63.8,44.5c-7.9.9-9.7,12.7-2.9,16.6,5.4,3.1,11.1-1.2,11.6-6.9.4-5.1-3.3-10.3-8.7-9.7Z" fill="#231f20"/>
  </g>
</svg>