<?xml version="1.0" encoding="UTF-8"?>
<svg width="100pt" height="100pt" version="1.1" viewBox="0 0 100 100" xmlns="http://www.w3.org/2000/svg">
 <path d="m6.2031 42.434h1.3906v42.402l-4.0859 6.0078c-0.30859 0.45312-0.58594 0.9375-0.81641 1.4414l0.003906-46.344c0-1.9258 1.5781-3.5078 3.5078-3.5078zm31.516 10.398c-2.6367 0-6.2617 2.1562-8.0547 4.7969l-23.707 34.879c-1.793 2.6367-1.1016 4.7969 1.5352 4.7969h57.051c2.6367 0 6.2617-2.1562 8.0547-4.7969l23.707-34.879c1.793-2.6367 1.1016-4.7969-1.5352-4.7969zm2.7539 8.4297h40.086l-3.0352 4.4688-40.086-0.003907zm-16.285 25.438c-0.81641 0-1.4766-0.66016-1.4766-1.4766s0.66016-1.4766 1.4766-1.4766h40.086c0.81641 0 1.4766 0.66016 1.4766 1.4766s-0.66016 1.4766-1.4766 1.4766zm7.0391-10.355c-0.81641 0-1.4766-0.66016-1.4766-1.4766 0-0.81641 0.66016-1.4766 1.4766-1.4766h40.086c0.81641 0 1.4766 0.66016 1.4766 1.4766 0 0.81641-0.66016 1.4766-1.4766 1.4766zm-16.934-73.648h50.746v17.789c0 0.81641 0.66016 1.4766 1.4766 1.4766h17.789v27.91l-46.586 0.003906c-3.9102 0-8.3398 2.9102-10.5 6.0898l-16.664 24.52-0.003907-74.047c0-2.0586 1.6836-3.7422 3.7422-3.7422zm53.703 1.4805v14.832h14.832zm16.312 76.363v8.5156c0 2.0586-1.6836 3.7422-3.7422 3.7422h-4.5898zm-57.797-48.328 41.875-0.51953c0.8125-0.007812 1.4648-0.67578 1.4531-1.4883-0.007813-0.8125-0.67578-1.4648-1.4883-1.4531l-41.875 0.51953c-0.8125 0.007813-1.4648 0.67578-1.4531 1.4883 0.007812 0.8125 0.67187 1.4609 1.4883 1.4531zm0 8.8555 41.875-0.51953c0.8125-0.011719 1.4648-0.67578 1.4531-1.4883-0.007813-0.8125-0.67578-1.4648-1.4883-1.4531l-41.875 0.51953c-0.8125 0.011719-1.4648 0.67578-1.4531 1.4883 0.007812 0.8125 0.67187 1.4609 1.4883 1.4531zm0 8.8555 41.875-0.51953c0.8125-0.011719 1.4648-0.67578 1.4531-1.4883-0.007813-0.8125-0.67578-1.4648-1.4883-1.4531l-41.875 0.51953c-0.8125 0.011719-1.4648 0.67578-1.4531 1.4883 0.007812 0.8125 0.67187 1.4648 1.4883 1.4531zm5.582-39.004v11.781h30.668l0.003906-11.781z" fill-rule="evenodd"/>
</svg>
