<?xml version="1.0" encoding="UTF-8"?>
<svg id="Layer_1" xmlns="http://www.w3.org/2000/svg" version="1.1" viewBox="0 0 100 100">
  <!-- Generator: Adobe Illustrator 29.1.0, SVG Export Plug-In . SVG Version: 2.1.0 Build 142)  -->
  <rect width="100" height="100" fill="none"/>
  <g id="k2r1v2">
    <g>
      <path d="M56.8,46.1c-1.1-2.6-2.9-4.7-3.8-7.4-6.8-18.9,16.8-32.5,29.7-18.3,4.8,5.3,5.8,12.6,3,19.2-.9,2-6.1,9.2-6,10.4l14.2,33c.8,1.9-.9,2.6-2.5,2.6H8.6c-1.3,0-3.2-.4-2.6-2.2l14.6-34.2,2-3.1h34.1ZM69.5,60.9c3.4-7.2,9.2-13.9,12.8-20.9,12.7-25-30.8-32.2-27.6-5.2.5,4.3,10.4,19.9,13.4,24.4.2.3,1.1,1.9,1.4,1.7ZM9.7,82.5h57.7c-2.7-12.1-30-5.3-33.6-14.1-2-4.8,4.1-7.7,2.8-10.8-.5-1.2-6-2.8-7.6-4.3-1.3-1.2-1.6-2.7-2.2-4.3l-3.3.4-13.8,33.1ZM90.7,82.5l-12.7-29.5c-.4-.4-.8.4-1,.7-1.8,2.5-5,9.4-6.8,11s-.5.6-1.2.4c-1.8-.5-8.3-13.9-10.3-16.1h-28.6c1,5,9.4,3.7,9.6,9.6s-9,8.4,1.4,11.4c10.2,2.9,25.4-.5,29.3,12.5h20.4Z" fill="#231f20"/>
      <path d="M67.7,24.1c10.5-2,12.6,13.1,3.2,14.6s-11.9-13-3.2-14.6ZM69,26.6c-7.1.8-4.4,12.2,2.6,9,4.7-2.2,2.6-9.6-2.6-9Z" fill="#231f20"/>
    </g>
  </g>
</svg>