<?xml version="1.0" encoding="UTF-8"?>
<svg id="Layer_1" xmlns="http://www.w3.org/2000/svg" version="1.1" viewBox="0 0 100 100">
  <!-- Generator: Adobe Illustrator 29.1.0, SVG Export Plug-In . SVG Version: 2.1.0 Build 142)  -->
  <rect width="100" height="100" fill="none"/>
  <g id="YwAWSd.tif">
    <path d="M83.6,51.3l5.4,3c.8.3,1.4,0,2,.9s0,1.6,0,2.7c-.5,4.8.6,10.6,0,15.3,0,.4-.2.8-.5,1.1l-15.5,8.7c-1.2.9-4.3-2.1-5-1.9l-21,11.6h-1s-21-11.6-21-11.6c-.8-.1-4,3-5.2,1.8-4.6-2.9-10-5.1-14.6-8.1s-1-.6-1.2-1.3v-17.5s1-1.2,1-1.2l6.4-3.5v-16.5c.3-.8,1-1,1.6-1.4l16.7-9.3c.2-.1.1-.3.2-.5.2-1.5-.4-5.7.2-6.8s.4-.4.5-.6l15.4-8.6h1.2c0,0,14.1,7.9,14.1,7.9.9.1,1.6.2,2,1.1.7,1.2,0,1.3-.2,2.3s-.1,3.7,0,4.6,0,.3.2.5l17.9,10,.5,1.1v16.2ZM59.4,17.7l-11-6.1-10.9,6.1,10.9,5.7,11-5.7ZM46.6,26.6l-11.1-5.9c0,1.1,0,2.2,0,3.3s.1.6.1.9c0,2.4-.4,5.1-.1,7.6s0,.4.3.5l10.8,5.9v-12.3ZM50.3,26.6v12.3l10.8-5.9c.2-.1.2-.3.3-.5.3-2.4,0-6,0-8.5s0-2.2,0-3.3l-11.1,5.9ZM65.1,28.2v6.2c0,.2-.5,1-.7,1.1l-14.8,8.3c-1,.4-1.2.4-2.2,0-4.5-2.8-9.8-5.1-14.3-7.9s-1.3-.9-1.3-1.3v-6.4l-14.8,8.2v12.7l4.8-2.7h1.2c0,0,14.2,7.8,14.2,7.8,2.1.1,3,1.6,2,3.4v15.8c0,0-.7.9-.7.9l-7.5,4.2v.3c0,0,17.4,9.7,17.4,9.7l17.6-9.8c0-.2-.2-.3-.4-.4-2.1-1.4-4.8-2.4-6.9-3.8-.5-.3-.8-.5-1-1.1v-17.2c-.1-.7.5-1.2,1-1.6l15.1-8.3c.5,0,.8,0,1.2,0,1.4.4,3.4,2,4.8,2.7v-12.7l-14.8-8.2ZM33.5,56.5l-11-6.1-10.9,6.1,10.9,5.7,11-5.7ZM85.3,56.5l-11-6.1-10.9,6.1,10.9,5.7,11-5.7ZM20.7,65.5l-11.1-5.9v12.1l11.1,6.1v-12.3ZM35.5,59.6l-11.1,5.9v12.3l11.1-6.1v-12.1ZM72.5,65.5l-11.1-5.9v12.1l11.1,6.1v-12.3ZM87.3,59.6l-11.1,5.9v12.3l11.1-6.1v-12.1Z" fill="#231f20"/>
  </g>
</svg>