<?xml version="1.0" encoding="UTF-8"?>
<svg id="Layer_1" xmlns="http://www.w3.org/2000/svg" version="1.1" viewBox="0 0 100 100">
  <!-- Generator: Adobe Illustrator 29.1.0, SVG Export Plug-In . SVG Version: 2.1.0 Build 142)  -->
  <rect width="100" height="100" fill="none"/>
  <g>
    <path d="M46.1,36.5c.4.3.8.4,1.3.4s.8-.1,1.2-.4l.5-.3c.2-.1.3-.3.5-.5,1.8-2.6,3.9-5.1,6-7.6,2.2-2.7,4.6-5.5,6.5-8.3,1.9-2.8,2.1-6.5.6-9.1-1.3-2.2-3.6-3.4-6.4-3.2-2,.1-4.1,1.2-5.8,3l-12.9,16.5c-.7.9-.5,2.1.3,2.8l8.2,6.6ZM53.6,13.2c.8-.9,2-1.5,3-1.6,1.3,0,2.1.3,2.6,1.2.7,1.3.5,3.3-.5,4.8-1.8,2.7-4.1,5.4-6.2,8-1.8,2.1-3.6,4.3-5.3,6.6l-5.1-4.1,11.6-14.8Z" fill="#231f20"/>
    <path d="M27.9,25.1c-.4-.3-1-.5-1.6-.4-.6,0-1,.4-1.4.9-.5.8-1.1,1.5-1.6,2.2-.8,1.1-1.7,2.3-2.5,3.6-4.1,6.8-7.6,17.1-5,25.7.7,2.3,3.8,10.9,6.5,14.8l-8,10.3c-2.3,3.6-.8,7.3,1.8,9.1,1.1.8,2.5,1.3,4,1.3s3.8-.8,5.2-2.7l7.5-9.7c5.2,1.9,20.1,3.8,35-5.8,3.4-2.2,5.7-5.2,7.9-8.2l.4-.6c.7-.9.5-2.1-.4-2.8L27.9,25.1ZM65.8,70.9c-15.8,10.2-30.6,6.1-32,5.2-.2-.2-.5-.3-.8-.3h-.4c-.7-.2-1.4.1-1.9.7l-8.4,10.9c-1.5,2-3.3.8-3.7.6-1-.7-1.7-2-.8-3.5l8.8-11.3c.4-.6.6-1.3.3-2v-.3c-.2-.3-.4-.5-.6-.7-1.7-1.6-5.3-10.4-6.5-14.2-2.2-7.3,1.1-16.6,4.6-22.4.7-1.1,1.4-2.1,2.2-3.2.2-.2.3-.4.5-.7l44.8,35.1c-1.9,2.4-3.7,4.6-6.1,6.2Z" fill="#231f20"/>
    <path d="M86.5,30.7c-.8-3.3-4-5.6-7.4-5.2-2.1.2-4.1,1.3-5.9,3.3l-12.6,16.1c-.4.5-.5,1.2-.4,1.8v.4c.2.4.5.8.8,1l8.1,6.3c.2.2.5.3.8.4.2,0,.3,0,.5,0,1.1,0,1.8-.9,2.3-1.5l1.1-1.4c3.6-4.4,7.7-9.4,10.9-14,1.2-1.7,2.5-4.1,1.8-7.3ZM81.4,35.7c-3.1,4.4-7.1,9.4-10.7,13.7l-.5.7-5.3-4.1,11.4-14.6c1-1.1,2-1.7,3.1-1.8,1.5-.1,2.8.8,3.1,2.1.3,1.3,0,2.5-1.1,4.1Z" fill="#231f20"/>
  </g>
</svg>