<?xml version="1.0" encoding="UTF-8"?>
<svg id="Layer_1" xmlns="http://www.w3.org/2000/svg" version="1.1" viewBox="0 0 100 100">
  <!-- Generator: Adobe Illustrator 29.1.0, SVG Export Plug-In . SVG Version: 2.1.0 Build 142)  -->
  <rect width="100" height="100" fill="none"/>
  <g>
    <polygon points="4.5 92.5 21 92.5 21.2 65.1 4.5 74.5 4.5 92.5" fill="#231f20"/>
    <polygon points="95.5 74.6 78.9 65.1 79 92.5 95.5 92.5 95.5 74.6" fill="#231f20"/>
    <path d="M24,55.8v36.5h51.9v-36.5l-25.9-21.6-26,21.6ZM61.1,56.2c4.6,2.7,4.3,8,1.8,12.1-2.6,4.4-7.7,9.6-11.6,13-.4.3-.7.7-1.2.9h-.4c-.2-.1-.4-.2-.6-.4-1.6-1.3-3.5-3.3-5-4.9-3-3-7.7-8.1-8.7-12.3-1.9-8.1,7.5-12.8,12.9-6.7.6.7,1,1.4,1.5,2.2,0,0,0,0,0,0,2-4.2,6.8-6.6,11.1-4.1Z" fill="#231f20"/>
    <polygon points="50.1 30.1 83 57.3 87.3 52 87.2 51.7 52.1 23 52.1 16.4 58.4 16.4 58.4 12.1 52.1 12.1 52.1 7.8 51.9 7.5 48.1 7.5 47.9 7.8 47.9 12.1 41.6 12.1 41.6 16.4 47.9 16.4 47.9 23 12.8 51.7 12.7 52 16.9 57.2 50.1 30.1" fill="#231f20"/>
  </g>
</svg>