<?xml version="1.0" encoding="UTF-8"?>
<svg id="Layer_1" xmlns="http://www.w3.org/2000/svg" version="1.1" viewBox="0 0 100 100">
  <!-- Generator: Adobe Illustrator 29.1.0, SVG Export Plug-In . SVG Version: 2.1.0 Build 142)  -->
  <rect width="100" height="100" fill="none"/>
  <g id="Tl6Cz9">
    <g>
      <path d="M87.5,43.4v22.4c-.5.4-.8,1.1-1.2,1.4-1.8,1.2-13.4-.3-16.3.4-.8.2-5.4,5.2-6.6,6.2-3,2.2-1.3-4.4-1.9-5.9-.7-1-5.4.9-6.2-2.4.3-6.6-.7-14.1,0-20.6s.9-3.1,3-3.4c8.3.7,18.2-.9,26.3,0,1.5.2,2.2.5,3,1.8ZM62.1,52h19.2c.5,0,.7-1.4.5-1.9-.2-.6-1-.8-1.6-.9-3.3-.5-12.9-.4-16.4,0-.8,0-1.5,0-2.1.7-.4.6-.3,1.9.4,2.1ZM62.4,56.6c-1.1.4-1.2,2.8-.4,2.8h15.6c.3,0,1.1-1.1.9-1.6,0-.4-.7-1.3-.9-1.3h-15.3Z" fill="#231f20"/>
      <path d="M35.6,92.5c-2.9-.9-5.5-2.2-6.8-5.1-.2-.4-1-2.7-1-2.9v-27.2h3.2v22.4h42.3v-6h3.2v10.8c0,.2-.8,2.5-1,2.9-1.4,2.8-4,4.2-6.8,5.1h-33.1ZM51.5,82.6c-4.4.6-4.2,7.9.8,7.6,5.1-.3,4.4-8.3-.8-7.6Z" fill="#231f20"/>
      <path d="M68.7,7.5c2.9.9,5.5,2.3,6.8,5.1s1,2.7,1,2.9v19.4h-3.2v-18.1H31v2.8s-3.2,0-3.2,0c-.4-4.1.5-7.9,3.9-10.5l3.9-1.6h33.1Z" fill="#231f20"/>
      <path d="M12.5,49.1v-21.3c.9-1.5,1.5-2.3,3.4-2.5,8.6.6,18.2-.8,26.7,0,1.6.1,3.2,1,3.4,2.7-.5,6.6.6,14.2,0,20.7s-1.5,2.8-3.4,3c-8.6.8-18.4-.6-27.1,0-1.7-.2-2.2-1.3-3-2.5ZM44.5,48.2v-16.7l-.5-.5H14.3v17.6c0,.9,1.2,1.2,2,1.2,8.2.9,18-.7,26.3,0,.8.2,1.8-1,1.9-1.6Z" fill="#231f20"/>
      <path d="M25.3,35.2c.6,0,1.2,0,1.8.2s5.7,3.9,6,4.2.5.8.4,1.1c-.2.9-5.5,3.6-6.4,4.7l-1.8.2v-10.3Z" fill="#231f20"/>
    </g>
  </g>
</svg>