<?xml version="1.0" encoding="UTF-8"?>
<svg id="Layer_1" xmlns="http://www.w3.org/2000/svg" version="1.1" viewBox="0 0 100 100">
  <!-- Generator: Adobe Illustrator 29.1.0, SVG Export Plug-In . SVG Version: 2.1.0 Build 142)  -->
  <rect width="100" height="100" fill="none"/>
  <g>
    <ellipse cx="19.8" cy="19" rx="8.9" ry="8.6" fill="#231f20"/>
    <path d="M82.6,28.8h-4.8c-3.1,0-5.9,1.1-8.1,3-5.5-1.8-11.8-2.9-18.5-2.9s-14.4,1.3-20.3,3.5c-2.2-2.2-5.3-3.6-8.8-3.6h-4.8c-6.6,0-12,5.2-12,11.6v8.3s0,2,7,2.9c0,.4,0,.8,0,1.1,0,9.8,9.8,18.3,23.8,21.9-.3,1.1-.5,2.2-.5,3.4v8.3s0,3.3,14.4,3.3,14.4-3.3,14.4-3.3v-8.3c0-1-.1-2-.4-2.9,15.2-3.2,26.1-12.1,26.1-22.4s0-1,0-1.6c4.5-1,4.6-2.5,4.6-2.5v-8.3c0-6.4-5.4-11.6-12-11.6ZM87.2,52.7c0,9.1-10.2,16.9-24.3,19.7-2.1-3.6-6-6-10.5-6h-4.8c-4.3,0-8.1,2.2-10.2,5.5-13-3.1-22.1-10.6-22.1-19.2s0-.6,0-.9c1.3,0,2.8.1,4.5.1,14.3,0,14.4-3.3,14.4-3.3v-8.3c0-2-.5-3.9-1.5-5.5,5.4-1.9,11.7-3,18.5-3s11.5.8,16.5,2.3c-1.2,1.8-1.9,3.9-1.9,6.2v8.3s0,3.3,14.4,3.3,5.1-.1,6.9-.3c0,.4,0,.7,0,1.1Z" fill="#231f20"/>
    <ellipse cx="80.2" cy="19" rx="8.9" ry="8.6" fill="#231f20"/>
    <ellipse cx="50" cy="56.6" rx="8.9" ry="8.6" fill="#231f20"/>
  </g>
</svg>