<svg width="42" height="19" viewBox="0 0 42 19" version="1.1" xmlns="http://www.w3.org/2000/svg" xmlns:xlink="http://www.w3.org/1999/xlink">
<title>baptism</title>
<desc>Created using Figma</desc>
<g id="Canvas" transform="translate(-2567 -194)">
<g id="baptism">
<g id="Vector">
<use xlink:href="#path0_stroke" transform="translate(2568 195)" fill="#FFFFFF"/>
</g>
<g id="Vector">
<use xlink:href="#path1_stroke" transform="translate(2568 201.844)" fill="#FFFFFF"/>
</g>
<g id="Vector">
<use xlink:href="#path2_stroke" transform="translate(2568 208.689)" fill="#FFFFFF"/>
</g>
</g>
</g>
<defs>
<path id="path0_stroke" d="M 0.947145 -0.320807C 0.769968 -0.843901 0.202287 -1.12432 -0.320807 -0.947145C -0.843901 -0.769968 -1.12432 -0.202287 -0.947145 0.320807L 0.947145 -0.320807ZM 7.99998 0L 8.94713 -0.320807C 8.81456 -0.712198 8.4549 -0.981737 8.04204 -0.999115C 7.62917 -1.01649 7.24814 -0.778133 7.08315 -0.399267L 7.99998 0ZM 16 0L 16.9471 -0.320807C 16.8145 -0.712198 16.4549 -0.981737 16.042 -0.999115C 15.6292 -1.01649 15.2481 -0.778133 15.0831 -0.399267L 16 0ZM 23.9999 0L 24.9471 -0.320807C 24.8145 -0.712198 24.4549 -0.981737 24.042 -0.999115C 23.6291 -1.01649 23.2481 -0.778133 23.0831 -0.399267L 23.9999 0ZM 31.9999 0L 32.9471 -0.320807C 32.8145 -0.712198 32.4548 -0.981736 32.042 -0.999115C 31.6291 -1.01649 31.2481 -0.778133 31.0831 -0.399267L 31.9999 0ZM 40.9167 0.399267C 41.1373 -0.107087 40.9055 -0.696325 40.3992 -0.916835C 39.8928 -1.13734 39.3036 -0.905621 39.0831 -0.399267L 40.9167 0.399267ZM 0 0C -0.947145 0.320807 -0.946991 0.32126 -0.946834 0.321723C -0.946776 0.321892 -0.946615 0.322367 -0.9465 0.322705C -0.94637 0.323085 -0.946023 0.324102 -0.945762 0.324863C -0.945443 0.325794 -0.944651 0.328092 -0.944005 0.329955C -0.943124 0.33249 -0.941147 0.338129 -0.939351 0.343185C -0.936606 0.35089 -0.931046 0.366221 -0.925379 0.381407C -0.915838 0.406862 -0.897994 0.452804 -0.877872 0.501506C -0.841629 0.588676 -0.776469 0.734232 -0.696954 0.889197C -0.547639 1.17726 -0.274545 1.62268 0.0792498 2.03456C 0.818686 2.88354 2.04195 3.75555 3.86666 3.75555L 3.86666 1.75555C 2.75804 1.75555 2.04797 1.24979 1.58741 0.720994C 1.34121 0.44398 1.19764 0.200519 1.08029 -0.0280883C 1.02647 -0.131456 0.995796 -0.201177 0.969539 -0.264701C 0.958411 -0.291346 0.953337 -0.304605 0.947775 -0.319515C 0.94589 -0.324511 0.945851 -0.324653 0.944885 -0.327376C 0.944826 -0.327533 0.945342 -0.326074 0.94538 -0.325961C 0.945194 -0.326499 0.946195 -0.323596 0.946105 -0.323859C 0.945958 -0.324287 0.946658 -0.32224 0.946585 -0.322453C 0.946672 -0.322199 0.946812 -0.321787 0.946855 -0.32166C 0.946998 -0.321239 0.947145 -0.320807 0 0ZM 3.86666 3.75555C 5.6804 3.75555 6.95739 2.89421 7.75192 2.0732C 8.13764 1.67018 8.44432 1.23761 8.61925 0.953117C 8.71202 0.801079 8.78895 0.659716 8.83298 0.573803C 8.85724 0.526237 8.87872 0.481954 8.89048 0.457024C 8.89738 0.442337 8.90408 0.427744 8.90746 0.420279C 8.90964 0.415456 8.91201 0.410166 8.91309 0.407745C 8.91386 0.405995 8.9148 0.403866 8.91519 0.402991C 8.9155 0.402285 8.91591 0.401352 8.91606 0.400999C 8.9162 0.400689 8.91639 0.400256 8.91645 0.400101C 8.91664 0.399678 8.91682 0.399267 7.99998 0C 7.08315 -0.399267 7.08332 -0.399657 7.08348 -0.400038C 7.08353 -0.400151 7.08369 -0.400521 7.08379 -0.400748C 7.08371 -0.400563 7.0845 -0.402359 7.08434 -0.401987C 7.08425 -0.40178 7.0853 -0.404176 7.08512 -0.40375C 7.08522 -0.403978 7.08562 -0.40486 7.08544 -0.404469C 7.0841 -0.401507 7.0837 -0.400627 7.0811 -0.395132C 7.07385 -0.379697 7.06668 -0.364779 7.0524 -0.336998C 7.01935 -0.272216 6.97961 -0.198303 6.91405 -0.0920075C 6.77231 0.140169 6.59566 0.39648 6.31472 0.682353C 5.77591 1.23912 4.98624 1.75555 3.86666 1.75555L 3.86666 3.75555ZM 7.99998 0C 7.05284 0.320807 7.05299 0.32126 7.05315 0.321723C 7.05321 0.321892 7.05337 0.322367 7.05348 0.322705C 7.05361 0.323085 7.05396 0.324102 7.05422 0.324863C 7.05454 0.325794 7.05533 0.328092 7.05598 0.329955C 7.05686 0.332491 7.05883 0.338129 7.06063 0.343185C 7.06338 0.35089 7.06894 0.366221 7.0746 0.381407C 7.08414 0.406862 7.10199 0.452804 7.12211 0.501506C 7.15835 0.588677 7.22351 0.734232 7.30303 0.889198C 7.45234 1.17726 7.72544 1.62268 8.07923 2.03456C 8.81867 2.88354 10.0419 3.75555 11.8666 3.75555L 11.8666 1.75555C 10.758 1.75555 10.048 1.24979 9.58739 0.720994C 9.34119 0.44398 9.19762 0.200519 9.08027 -0.0280884C 9.02645 -0.131456 8.99578 -0.201177 8.96952 -0.264701C 8.95839 -0.291346 8.95332 -0.304605 8.94776 -0.319515C 8.94587 -0.324511 8.94583 -0.324653 8.94487 -0.327376C 8.94481 -0.327533 8.94532 -0.326074 8.94536 -0.325961C 8.94518 -0.326499 8.94618 -0.323596 8.94609 -0.323859C 8.94594 -0.324287 8.94664 -0.32224 8.94657 -0.322453C 8.94665 -0.322199 8.94679 -0.321787 8.94684 -0.32166C 8.94698 -0.321239 8.94713 -0.320807 7.99998 0ZM 11.8666 3.75555C 13.6804 3.75555 14.9574 2.89421 15.7519 2.0732C 16.1376 1.67018 16.4443 1.23761 16.6192 0.953117C 16.712 0.801079 16.7889 0.659716 16.833 0.573803C 16.8572 0.526237 16.8787 0.481954 16.8905 0.457024C 16.8974 0.442336 16.9041 0.427744 16.9074 0.420279C 16.9096 0.415456 16.912 0.410166 16.9131 0.407745C 16.9138 0.405995 16.9148 0.403866 16.9152 0.402991C 16.9155 0.402285 16.9159 0.401352 16.916 0.400999C 16.9162 0.400689 16.9164 0.400255 16.9164 0.4001C 16.9166 0.399678 16.9168 0.399267 16 0C 15.0831 -0.399267 15.0833 -0.399657 15.0835 -0.400037C 15.0835 -0.40015 15.0837 -0.400521 15.0838 -0.400748C 15.0837 -0.400563 15.0845 -0.402359 15.0843 -0.401987C 15.0842 -0.40178 15.0853 -0.404176 15.0851 -0.40375C 15.0852 -0.403978 15.0856 -0.40486 15.0854 -0.404469C 15.0841 -0.401507 15.0837 -0.400626 15.0811 -0.395132C 15.0738 -0.379697 15.0667 -0.364779 15.0524 -0.336998C 15.0193 -0.272216 14.9796 -0.198303 14.914 -0.0920074C 14.7723 0.140169 14.5956 0.39648 14.3147 0.682353C 13.7759 1.23912 12.9862 1.75555 11.8666 1.75555L 11.8666 3.75555ZM 16 0C 15.0528 0.320807 15.053 0.32126 15.0531 0.321723C 15.0532 0.321892 15.0533 0.322367 15.0535 0.322705C 15.0536 0.323085 15.0539 0.324102 15.0542 0.324863C 15.0545 0.325794 15.0553 0.328092 15.056 0.329955C 15.0568 0.332491 15.0588 0.338129 15.0606 0.343185C 15.0634 0.35089 15.0689 0.366221 15.0746 0.381407C 15.0841 0.406862 15.102 0.452804 15.1221 0.501506C 15.1583 0.588677 15.2235 0.734232 15.303 0.889198C 15.4523 1.17726 15.7254 1.62268 16.0792 2.03456C 16.8186 2.88354 18.0419 3.75555 19.8666 3.75555L 19.8666 1.75555C 18.758 1.75555 18.0479 1.24979 17.5874 0.720994C 17.3412 0.44398 17.1976 0.200519 17.0803 -0.0280884C 17.0264 -0.131456 16.9958 -0.201177 16.9695 -0.264701C 16.9584 -0.291346 16.9533 -0.304605 16.9477 -0.319515C 16.9459 -0.324511 16.9458 -0.324653 16.9448 -0.327376C 16.9448 -0.327533 16.9453 -0.326074 16.9453 -0.325961C 16.9452 -0.326499 16.9462 -0.323596 16.9461 -0.323859C 16.9459 -0.324287 16.9466 -0.32224 16.9465 -0.322453C 16.9466 -0.322199 16.9468 -0.321787 16.9468 -0.32166C 16.947 -0.321239 16.9471 -0.320807 16 0ZM 19.8666 3.75555C 21.6804 3.75555 22.9574 2.89421 23.7519 2.0732C 24.1376 1.67018 24.4443 1.23761 24.6192 0.953117C 24.712 0.801079 24.7889 0.659716 24.8329 0.573803C 24.8572 0.526237 24.8787 0.481954 24.8904 0.457024C 24.8973 0.442336 24.904 0.427744 24.9074 0.420279C 24.9096 0.415456 24.912 0.410166 24.913 0.407745C 24.9138 0.405995 24.9148 0.403866 24.9151 0.402991C 24.9155 0.402285 24.9159 0.401352 24.916 0.400999C 24.9162 0.400689 24.9163 0.400255 24.9164 0.4001C 24.9166 0.399678 24.9168 0.399267 23.9999 0C 23.0831 -0.399267 23.0833 -0.399657 23.0834 -0.400037C 23.0835 -0.40015 23.0837 -0.400521 23.0838 -0.400748C 23.0837 -0.400563 23.0845 -0.402359 23.0843 -0.401987C 23.0842 -0.40178 23.0853 -0.404176 23.0851 -0.40375C 23.0852 -0.403978 23.0856 -0.40486 23.0854 -0.404469C 23.0841 -0.401507 23.0837 -0.400626 23.0811 -0.395132C 23.0738 -0.379697 23.0666 -0.364779 23.0524 -0.336998C 23.0193 -0.272216 22.9796 -0.198303 22.914 -0.0920074C 22.7723 0.140169 22.5956 0.39648 22.3147 0.682353C 21.7759 1.23912 20.9862 1.75555 19.8666 1.75555L 19.8666 3.75555ZM 23.9999 0C 23.0528 0.320807 23.053 0.321259 23.0531 0.321723C 23.0532 0.321891 23.0533 0.322366 23.0534 0.322704C 23.0536 0.323084 23.0539 0.324101 23.0542 0.324863C 23.0545 0.325794 23.0553 0.328091 23.0559 0.329955C 23.0568 0.33249 23.0588 0.338128 23.0606 0.343185C 23.0633 0.35089 23.0689 0.36622 23.0746 0.381407C 23.0841 0.406861 23.102 0.452804 23.1221 0.501506C 23.1583 0.588676 23.2235 0.734232 23.303 0.889197C 23.4523 1.17726 23.7254 1.62268 24.0792 2.03456C 24.8186 2.88354 26.0419 3.75555 27.8666 3.75555L 27.8666 1.75555C 26.758 1.75555 26.0479 1.24979 25.5874 0.720994C 25.3412 0.44398 25.1976 0.20052 25.0802 -0.028088C 25.0264 -0.131455 24.9957 -0.201177 24.9695 -0.264701C 24.9584 -0.291346 24.9533 -0.304605 24.9477 -0.319515C 24.9458 -0.32451 24.9458 -0.324653 24.9448 -0.327375C 24.9448 -0.327533 24.9453 -0.326074 24.9453 -0.32596C 24.9451 -0.326499 24.9461 -0.323595 24.946 -0.323859C 24.9459 -0.324287 24.9466 -0.32224 24.9465 -0.322453C 24.9466 -0.322199 24.9468 -0.321786 24.9468 -0.32166C 24.9469 -0.321238 24.9471 -0.320807 23.9999 0ZM 27.8666 3.75555C 29.6803 3.75555 30.9573 2.89421 31.7519 2.0732C 32.1376 1.67018 32.4443 1.23761 32.6192 0.953117C 32.712 0.801079 32.7889 0.659716 32.8329 0.573803C 32.8572 0.526237 32.8787 0.481954 32.8904 0.457025C 32.8973 0.442337 32.904 0.427744 32.9074 0.420279C 32.9096 0.415456 32.912 0.410166 32.913 0.407745C 32.9138 0.405995 32.9147 0.403866 32.9151 0.402992C 32.9154 0.402286 32.9159 0.401352 32.916 0.401C 32.9161 0.40069 32.9163 0.400256 32.9164 0.400101C 32.9166 0.399679 32.9168 0.399267 31.9999 0C 31.0831 -0.399267 31.0833 -0.399658 31.0834 -0.400038C 31.0835 -0.400151 31.0836 -0.400522 31.0837 -0.400748C 31.0837 -0.400563 31.0844 -0.40236 31.0843 -0.401988C 31.0842 -0.40178 31.0852 -0.404176 31.0851 -0.403751C 31.0852 -0.403979 31.0856 -0.404861 31.0854 -0.40447C 31.084 -0.401507 31.0836 -0.400627 31.081 -0.395132C 31.0738 -0.379697 31.0666 -0.364779 31.0523 -0.336998C 31.0193 -0.272217 30.9796 -0.198303 30.914 -0.0920078C 30.7723 0.140169 30.5956 0.39648 30.3147 0.682353C 29.7759 1.23912 28.9862 1.75555 27.8666 1.75555L 27.8666 3.75555ZM 31.9999 0C 31.0528 0.320807 31.0529 0.321259 31.0531 0.321723C 31.0532 0.321891 31.0533 0.322366 31.0534 0.322704C 31.0536 0.323084 31.0539 0.324101 31.0542 0.324863C 31.0545 0.325794 31.0553 0.328091 31.0559 0.329955C 31.0568 0.33249 31.0588 0.338128 31.0606 0.343185C 31.0633 0.35089 31.0689 0.36622 31.0745 0.381407C 31.0841 0.406861 31.1019 0.452804 31.1221 0.501506C 31.1583 0.588676 31.2235 0.734232 31.303 0.889197C 31.4523 1.17726 31.7254 1.62268 32.0792 2.03456C 32.8186 2.88354 34.0419 3.75555 35.8666 3.75555L 35.8666 1.75555C 34.758 1.75555 34.0479 1.24979 33.5873 0.720994C 33.3411 0.44398 33.1976 0.20052 33.0802 -0.028088C 33.0264 -0.131455 32.9957 -0.201177 32.9695 -0.264701C 32.9583 -0.291346 32.9533 -0.304605 32.9477 -0.319515C 32.9458 -0.32451 32.9458 -0.324653 32.9448 -0.327375C 32.9448 -0.327533 32.9453 -0.326074 32.9453 -0.32596C 32.9451 -0.326499 32.9461 -0.323595 32.946 -0.323859C 32.9459 -0.324287 32.9466 -0.32224 32.9465 -0.322453C 32.9466 -0.322199 32.9467 -0.321786 32.9468 -0.32166C 32.9469 -0.321238 32.9471 -0.320807 31.9999 0ZM 35.8666 3.75555C 37.6803 3.75555 38.9573 2.89421 39.7518 2.0732C 40.1376 1.67018 40.4442 1.23761 40.6192 0.953117C 40.7119 0.801079 40.7889 0.659716 40.8329 0.573803C 40.8572 0.526237 40.8786 0.481954 40.8904 0.457025C 40.8973 0.442337 40.904 0.427744 40.9074 0.420279C 40.9096 0.415456 40.9119 0.410166 40.913 0.407745C 40.9138 0.405995 40.9147 0.403866 40.9151 0.402992C 40.9154 0.402286 40.9158 0.401352 40.916 0.401C 40.9161 0.40069 40.9163 0.400256 40.9164 0.400101C 40.9166 0.399679 40.9167 0.399267 39.9999 0C 39.0831 -0.399267 39.0832 -0.399658 39.0834 -0.400038C 39.0835 -0.400151 39.0836 -0.400522 39.0837 -0.400748C 39.0836 -0.400563 39.0844 -0.40236 39.0843 -0.401988C 39.0842 -0.40178 39.0852 -0.404176 39.085 -0.403751C 39.0851 -0.403979 39.0855 -0.404861 39.0854 -0.40447C 39.084 -0.401507 39.0836 -0.400627 39.081 -0.395132C 39.0738 -0.379697 39.0666 -0.364779 39.0523 -0.336998C 39.0193 -0.272217 38.9795 -0.198303 38.914 -0.0920078C 38.7722 0.140169 38.5956 0.39648 38.3146 0.682353C 37.7758 1.23912 36.9862 1.75555 35.8666 1.75555L 35.8666 3.75555Z"/>
<path id="path1_stroke" d="M 0.947145 -0.320807C 0.769968 -0.8439 0.202286 -1.12432 -0.320807 -0.947144C -0.843901 -0.769967 -1.12432 -0.202286 -0.947145 0.320808L 0.947145 -0.320807ZM 7.99998 6.78167e-07L 8.94713 -0.320807C 8.81456 -0.712198 8.4549 -0.981736 8.04204 -0.999115C 7.62917 -1.01649 7.24814 -0.778132 7.08315 -0.399266L 7.99998 6.78167e-07ZM 16 6.78167e-07L 16.9471 -0.320807C 16.8145 -0.712198 16.4549 -0.981736 16.042 -0.999115C 15.6292 -1.01649 15.2481 -0.778132 15.0831 -0.399266L 16 6.78167e-07ZM 23.9999 6.78167e-07L 24.9471 -0.320806C 24.8145 -0.712197 24.4549 -0.981736 24.042 -0.999115C 23.6291 -1.01649 23.2481 -0.778132 23.0831 -0.399266L 23.9999 6.78167e-07ZM 31.9999 6.78167e-07L 32.9471 -0.320806C 32.8145 -0.712197 32.4548 -0.981736 32.042 -0.999115C 31.6291 -1.01649 31.2481 -0.778133 31.0831 -0.399267L 31.9999 6.78167e-07ZM 40.9167 0.399268C 41.1373 -0.107086 40.9055 -0.696325 40.3992 -0.916834C 39.8928 -1.13734 39.3036 -0.90562 39.0831 -0.399267L 40.9167 0.399268ZM 0 6.78167e-07C -0.947145 0.320808 -0.946991 0.321261 -0.946834 0.321724C -0.946776 0.321893 -0.946615 0.322368 -0.9465 0.322705C -0.94637 0.323086 -0.946023 0.324102 -0.945762 0.324864C -0.945442 0.325795 -0.944651 0.328093 -0.944005 0.329956C -0.943124 0.332491 -0.941147 0.33813 -0.939351 0.343186C -0.936606 0.350891 -0.931046 0.366222 -0.925379 0.381408C -0.915837 0.406862 -0.897994 0.452805 -0.877872 0.501507C -0.841629 0.588677 -0.776469 0.734233 -0.696954 0.889198C -0.547638 1.17726 -0.274545 1.62268 0.07925 2.03456C 0.818686 2.88354 2.04195 3.75555 3.86666 3.75555L 3.86666 1.75555C 2.75804 1.75555 2.04797 1.24979 1.58741 0.720994C 1.34121 0.443979 1.19764 0.200519 1.08029 -0.0280881C 1.02647 -0.131455 0.995796 -0.201177 0.969539 -0.264701C 0.958411 -0.291346 0.953337 -0.304604 0.947775 -0.319515C 0.94589 -0.32451 0.94585 -0.324652 0.944885 -0.327375C 0.944826 -0.327533 0.945342 -0.326073 0.94538 -0.32596C 0.945194 -0.326499 0.946195 -0.323595 0.946105 -0.323859C 0.945958 -0.324286 0.946658 -0.32224 0.946585 -0.322453C 0.946672 -0.322199 0.946812 -0.321786 0.946855 -0.32166C 0.946998 -0.321238 0.947145 -0.320807 0 6.78167e-07ZM 3.86666 3.75555C 5.6804 3.75555 6.95739 2.89421 7.75192 2.0732C 8.13764 1.67018 8.44432 1.23761 8.61925 0.953117C 8.71202 0.80108 8.78895 0.659716 8.83298 0.573804C 8.85724 0.526238 8.87872 0.481955 8.89048 0.457025C 8.89738 0.442337 8.90408 0.427745 8.90746 0.42028C 8.90964 0.415457 8.91201 0.410167 8.91309 0.407746C 8.91386 0.405996 8.9148 0.403867 8.91519 0.402992C 8.9155 0.402286 8.91591 0.401353 8.91606 0.401C 8.9162 0.40069 8.91639 0.400256 8.91645 0.400101C 8.91664 0.399679 8.91682 0.399268 7.99998 6.78167e-07C 7.08315 -0.399266 7.08332 -0.399657 7.08348 -0.400037C 7.08353 -0.40015 7.08369 -0.400521 7.08379 -0.400747C 7.08371 -0.400562 7.0845 -0.402359 7.08434 -0.401987C 7.08425 -0.401779 7.0853 -0.404176 7.08512 -0.40375C 7.08522 -0.403978 7.08562 -0.40486 7.08544 -0.404469C 7.0841 -0.401506 7.0837 -0.400626 7.0811 -0.395132C 7.07385 -0.379697 7.06668 -0.364779 7.0524 -0.336997C 7.01935 -0.272216 6.97961 -0.198302 6.91405 -0.0920073C 6.77231 0.140169 6.59566 0.39648 6.31472 0.682353C 5.77591 1.23912 4.98624 1.75555 3.86666 1.75555L 3.86666 3.75555ZM 7.99998 6.78167e-07C 7.05284 0.320808 7.05299 0.321261 7.05315 0.321724C 7.05321 0.321893 7.05337 0.322368 7.05348 0.322706C 7.05361 0.323086 7.05396 0.324103 7.05422 0.324864C 7.05454 0.325795 7.05533 0.328093 7.05598 0.329956C 7.05686 0.332491 7.05883 0.33813 7.06063 0.343186C 7.06338 0.350891 7.06894 0.366222 7.0746 0.381408C 7.08414 0.406863 7.10199 0.452805 7.12211 0.501507C 7.15835 0.588677 7.22351 0.734233 7.30303 0.889198C 7.45234 1.17726 7.72544 1.62268 8.07923 2.03456C 8.81867 2.88354 10.0419 3.75555 11.8666 3.75555L 11.8666 1.75555C 10.758 1.75555 10.048 1.24979 9.58739 0.720993C 9.34119 0.443979 9.19762 0.200519 9.08027 -0.0280882C 9.02645 -0.131455 8.99578 -0.201177 8.96952 -0.264701C 8.95839 -0.291346 8.95332 -0.304605 8.94776 -0.319515C 8.94587 -0.32451 8.94583 -0.324653 8.94487 -0.327375C 8.94481 -0.327533 8.94532 -0.326074 8.94536 -0.32596C 8.94518 -0.326499 8.94618 -0.323595 8.94609 -0.323859C 8.94594 -0.324287 8.94664 -0.32224 8.94657 -0.322453C 8.94665 -0.322199 8.94679 -0.321786 8.94684 -0.32166C 8.94698 -0.321238 8.94713 -0.320807 7.99998 6.78167e-07ZM 11.8666 3.75555C 13.6804 3.75555 14.9574 2.89421 15.7519 2.0732C 16.1376 1.67018 16.4443 1.23761 16.6192 0.953117C 16.712 0.80108 16.7889 0.659716 16.833 0.573803C 16.8572 0.526238 16.8787 0.481955 16.8905 0.457025C 16.8974 0.442337 16.9041 0.427745 16.9074 0.420279C 16.9096 0.415457 16.912 0.410167 16.9131 0.407746C 16.9138 0.405996 16.9148 0.403867 16.9152 0.402992C 16.9155 0.402286 16.9159 0.401353 16.916 0.401C 16.9162 0.40069 16.9164 0.400256 16.9164 0.400101C 16.9166 0.399679 16.9168 0.399268 16 6.78167e-07C 15.0831 -0.399266 15.0833 -0.399657 15.0835 -0.400037C 15.0835 -0.40015 15.0837 -0.400521 15.0838 -0.400747C 15.0837 -0.400562 15.0845 -0.402359 15.0843 -0.401987C 15.0842 -0.401779 15.0853 -0.404175 15.0851 -0.40375C 15.0852 -0.403978 15.0856 -0.40486 15.0854 -0.404469C 15.0841 -0.401506 15.0837 -0.400626 15.0811 -0.395131C 15.0738 -0.379697 15.0667 -0.364778 15.0524 -0.336997C 15.0193 -0.272216 14.9796 -0.198302 14.914 -0.0920072C 14.7723 0.140169 14.5956 0.39648 14.3147 0.682353C 13.7759 1.23912 12.9862 1.75555 11.8666 1.75555L 11.8666 3.75555ZM 16 6.78167e-07C 15.0528 0.320808 15.053 0.321261 15.0531 0.321724C 15.0532 0.321893 15.0533 0.322368 15.0535 0.322706C 15.0536 0.323086 15.0539 0.324103 15.0542 0.324864C 15.0545 0.325795 15.0553 0.328093 15.056 0.329956C 15.0568 0.332491 15.0588 0.33813 15.0606 0.343186C 15.0634 0.350891 15.0689 0.366222 15.0746 0.381408C 15.0841 0.406863 15.102 0.452805 15.1221 0.501507C 15.1583 0.588677 15.2235 0.734233 15.303 0.889198C 15.4523 1.17726 15.7254 1.62268 16.0792 2.03456C 16.8186 2.88354 18.0419 3.75555 19.8666 3.75555L 19.8666 1.75555C 18.758 1.75555 18.0479 1.24979 17.5874 0.720993C 17.3412 0.443979 17.1976 0.200519 17.0803 -0.0280882C 17.0264 -0.131455 16.9958 -0.201177 16.9695 -0.264701C 16.9584 -0.291346 16.9533 -0.304605 16.9477 -0.319515C 16.9459 -0.32451 16.9458 -0.324653 16.9448 -0.327375C 16.9448 -0.327533 16.9453 -0.326074 16.9453 -0.32596C 16.9452 -0.326499 16.9462 -0.323595 16.9461 -0.323859C 16.9459 -0.324287 16.9466 -0.32224 16.9465 -0.322453C 16.9466 -0.322199 16.9468 -0.321786 16.9468 -0.32166C 16.947 -0.321238 16.9471 -0.320807 16 6.78167e-07ZM 19.8666 3.75555C 21.6804 3.75555 22.9574 2.89421 23.7519 2.0732C 24.1376 1.67018 24.4443 1.23761 24.6192 0.953117C 24.712 0.80108 24.7889 0.659716 24.8329 0.573803C 24.8572 0.526238 24.8787 0.481955 24.8904 0.457025C 24.8973 0.442337 24.904 0.427745 24.9074 0.420279C 24.9096 0.415457 24.912 0.410167 24.913 0.407746C 24.9138 0.405996 24.9148 0.403867 24.9151 0.402992C 24.9155 0.402286 24.9159 0.401353 24.916 0.401C 24.9162 0.40069 24.9163 0.400256 24.9164 0.400101C 24.9166 0.399679 24.9168 0.399268 23.9999 6.78167e-07C 23.0831 -0.399266 23.0833 -0.399657 23.0834 -0.400037C 23.0835 -0.40015 23.0837 -0.400521 23.0838 -0.400747C 23.0837 -0.400562 23.0845 -0.402359 23.0843 -0.401987C 23.0842 -0.401779 23.0853 -0.404175 23.0851 -0.40375C 23.0852 -0.403978 23.0856 -0.40486 23.0854 -0.404469C 23.0841 -0.401506 23.0837 -0.400626 23.0811 -0.395131C 23.0738 -0.379697 23.0666 -0.364778 23.0524 -0.336997C 23.0193 -0.272216 22.9796 -0.198302 22.914 -0.0920072C 22.7723 0.140169 22.5956 0.39648 22.3147 0.682353C 21.7759 1.23912 20.9862 1.75555 19.8666 1.75555L 19.8666 3.75555ZM 23.9999 6.78167e-07C 23.0528 0.320807 23.053 0.32126 23.0531 0.321724C 23.0532 0.321892 23.0533 0.322367 23.0534 0.322705C 23.0536 0.323085 23.0539 0.324102 23.0542 0.324864C 23.0545 0.325794 23.0553 0.328092 23.0559 0.329955C 23.0568 0.332491 23.0588 0.338129 23.0606 0.343186C 23.0633 0.35089 23.0689 0.366221 23.0746 0.381408C 23.0841 0.406862 23.102 0.452805 23.1221 0.501507C 23.1583 0.588677 23.2235 0.734232 23.303 0.889198C 23.4523 1.17726 23.7254 1.62268 24.0792 2.03456C 24.8186 2.88354 26.0419 3.75555 27.8666 3.75555L 27.8666 1.75555C 26.758 1.75555 26.0479 1.24979 25.5874 0.720994C 25.3412 0.44398 25.1976 0.20052 25.0802 -0.0280878C 25.0264 -0.131455 24.9957 -0.201177 24.9695 -0.2647C 24.9584 -0.291345 24.9533 -0.304604 24.9477 -0.319514C 24.9458 -0.32451 24.9458 -0.324652 24.9448 -0.327375C 24.9448 -0.327532 24.9453 -0.326073 24.9453 -0.32596C 24.9451 -0.326498 24.9461 -0.323595 24.946 -0.323858C 24.9459 -0.324286 24.9466 -0.322239 24.9465 -0.322452C 24.9466 -0.322198 24.9468 -0.321786 24.9468 -0.321659C 24.9469 -0.321238 24.9471 -0.320806 23.9999 6.78167e-07ZM 27.8666 3.75555C 29.6803 3.75555 30.9573 2.89421 31.7519 2.0732C 32.1376 1.67018 32.4443 1.23761 32.6192 0.953118C 32.712 0.80108 32.7889 0.659717 32.8329 0.573804C 32.8572 0.526238 32.8787 0.481955 32.8904 0.457025C 32.8973 0.442338 32.904 0.427745 32.9074 0.42028C 32.9096 0.415457 32.912 0.410167 32.913 0.407746C 32.9138 0.405996 32.9147 0.403867 32.9151 0.402992C 32.9154 0.402287 32.9159 0.401353 32.916 0.401001C 32.9161 0.40069 32.9163 0.400257 32.9164 0.400102C 32.9166 0.39968 32.9168 0.399268 31.9999 6.78167e-07C 31.0831 -0.399267 31.0833 -0.399657 31.0834 -0.400037C 31.0835 -0.40015 31.0836 -0.400521 31.0837 -0.400748C 31.0837 -0.400563 31.0844 -0.402359 31.0843 -0.401987C 31.0842 -0.40178 31.0852 -0.404176 31.0851 -0.40375C 31.0852 -0.403978 31.0856 -0.40486 31.0854 -0.404469C 31.084 -0.401507 31.0836 -0.400626 31.081 -0.395132C 31.0738 -0.379697 31.0666 -0.364779 31.0523 -0.336998C 31.0193 -0.272216 30.9796 -0.198303 30.914 -0.0920076C 30.7723 0.140169 30.5956 0.39648 30.3147 0.682353C 29.7759 1.23912 28.9862 1.75555 27.8666 1.75555L 27.8666 3.75555ZM 31.9999 6.78167e-07C 31.0528 0.320807 31.0529 0.32126 31.0531 0.321724C 31.0532 0.321892 31.0533 0.322367 31.0534 0.322705C 31.0536 0.323085 31.0539 0.324102 31.0542 0.324864C 31.0545 0.325794 31.0553 0.328092 31.0559 0.329955C 31.0568 0.332491 31.0588 0.338129 31.0606 0.343186C 31.0633 0.35089 31.0689 0.366221 31.0745 0.381408C 31.0841 0.406862 31.1019 0.452805 31.1221 0.501507C 31.1583 0.588677 31.2235 0.734232 31.303 0.889198C 31.4523 1.17726 31.7254 1.62268 32.0792 2.03456C 32.8186 2.88354 34.0419 3.75555 35.8666 3.75555L 35.8666 1.75555C 34.758 1.75555 34.0479 1.24979 33.5873 0.720994C 33.3411 0.44398 33.1976 0.20052 33.0802 -0.0280878C 33.0264 -0.131455 32.9957 -0.201177 32.9695 -0.2647C 32.9583 -0.291345 32.9533 -0.304604 32.9477 -0.319514C 32.9458 -0.32451 32.9458 -0.324652 32.9448 -0.327375C 32.9448 -0.327532 32.9453 -0.326073 32.9453 -0.32596C 32.9451 -0.326498 32.9461 -0.323595 32.946 -0.323858C 32.9459 -0.324286 32.9466 -0.322239 32.9465 -0.322452C 32.9466 -0.322198 32.9467 -0.321786 32.9468 -0.321659C 32.9469 -0.321238 32.9471 -0.320806 31.9999 6.78167e-07ZM 35.8666 3.75555C 37.6803 3.75555 38.9573 2.89421 39.7518 2.0732C 40.1376 1.67018 40.4442 1.23761 40.6192 0.953118C 40.7119 0.80108 40.7889 0.659717 40.8329 0.573804C 40.8572 0.526238 40.8786 0.481955 40.8904 0.457025C 40.8973 0.442338 40.904 0.427745 40.9074 0.42028C 40.9096 0.415457 40.9119 0.410167 40.913 0.407746C 40.9138 0.405996 40.9147 0.403867 40.9151 0.402992C 40.9154 0.402287 40.9158 0.401353 40.916 0.401001C 40.9161 0.40069 40.9163 0.400257 40.9164 0.400102C 40.9166 0.39968 40.9167 0.399268 39.9999 6.78167e-07C 39.0831 -0.399267 39.0832 -0.399657 39.0834 -0.400037C 39.0835 -0.40015 39.0836 -0.400521 39.0837 -0.400748C 39.0836 -0.400563 39.0844 -0.402359 39.0843 -0.401987C 39.0842 -0.40178 39.0852 -0.404176 39.085 -0.40375C 39.0851 -0.403978 39.0855 -0.40486 39.0854 -0.404469C 39.084 -0.401507 39.0836 -0.400626 39.081 -0.395132C 39.0738 -0.379697 39.0666 -0.364779 39.0523 -0.336998C 39.0193 -0.272216 38.9795 -0.198303 38.914 -0.0920076C 38.7722 0.140169 38.5956 0.39648 38.3146 0.682353C 37.7758 1.23912 36.9862 1.75555 35.8666 1.75555L 35.8666 3.75555Z"/>
<path id="path2_stroke" d="M 0.947145 -0.320807C 0.769968 -0.843901 0.202287 -1.12432 -0.320807 -0.947145C -0.843901 -0.769968 -1.12432 -0.202287 -0.947145 0.320807L 0.947145 -0.320807ZM 7.99998 -3.39083e-07L 8.94713 -0.320807C 8.81456 -0.712199 8.4549 -0.981737 8.04204 -0.999116C 7.62917 -1.01649 7.24814 -0.778133 7.08315 -0.399267L 7.99998 -3.39083e-07ZM 16 -3.39083e-07L 16.9471 -0.320807C 16.8145 -0.712199 16.4549 -0.981737 16.042 -0.999116C 15.6292 -1.01649 15.2481 -0.778133 15.0831 -0.399267L 16 -3.39083e-07ZM 23.9999 -3.39083e-07L 24.9471 -0.320807C 24.8145 -0.712198 24.4549 -0.981737 24.042 -0.999116C 23.6291 -1.01649 23.2481 -0.778133 23.0831 -0.399267L 23.9999 -3.39083e-07ZM 31.9999 -3.39083e-07L 32.9471 -0.320807C 32.8145 -0.712198 32.4548 -0.981737 32.042 -0.999116C 31.6291 -1.01649 31.2481 -0.778133 31.0831 -0.399267L 31.9999 -3.39083e-07ZM 40.9167 0.399267C 41.1373 -0.107087 40.9055 -0.696326 40.3992 -0.916835C 39.8928 -1.13734 39.3036 -0.905621 39.0831 -0.399267L 40.9167 0.399267ZM 0 -3.39083e-07C -0.947145 0.320807 -0.946991 0.321259 -0.946834 0.321723C -0.946776 0.321891 -0.946615 0.322367 -0.9465 0.322704C -0.94637 0.323085 -0.946023 0.324101 -0.945762 0.324863C -0.945443 0.325794 -0.944651 0.328091 -0.944005 0.329955C -0.943124 0.33249 -0.941147 0.338128 -0.939351 0.343185C -0.936606 0.35089 -0.931046 0.36622 -0.925379 0.381407C -0.915838 0.406861 -0.897994 0.452804 -0.877872 0.501506C -0.841629 0.588676 -0.776469 0.734232 -0.696954 0.889197C -0.547639 1.17726 -0.274545 1.62268 0.0792498 2.03456C 0.818686 2.88354 2.04195 3.75555 3.86666 3.75555L 3.86666 1.75555C 2.75804 1.75555 2.04797 1.24979 1.58741 0.720994C 1.34121 0.443979 1.19764 0.200519 1.08029 -0.0280886C 1.02647 -0.131456 0.995796 -0.201178 0.969539 -0.264701C 0.958411 -0.291347 0.953337 -0.304605 0.947775 -0.319515C 0.94589 -0.324511 0.945851 -0.324653 0.944885 -0.327376C 0.944826 -0.327533 0.945342 -0.326074 0.94538 -0.325961C 0.945194 -0.3265 0.946195 -0.323596 0.946105 -0.32386C 0.945958 -0.324287 0.946658 -0.322241 0.946585 -0.322453C 0.946672 -0.322199 0.946812 -0.321787 0.946855 -0.32166C 0.946998 -0.321239 0.947145 -0.320807 0 -3.39083e-07ZM 3.86666 3.75555C 5.6804 3.75555 6.95739 2.89421 7.75192 2.0732C 8.13764 1.67018 8.44432 1.23761 8.61925 0.953116C 8.71202 0.801079 8.78895 0.659715 8.83298 0.573802C 8.85724 0.526237 8.87872 0.481953 8.89048 0.457024C 8.89738 0.442336 8.90408 0.427743 8.90746 0.420278C 8.90964 0.415456 8.91201 0.410165 8.91309 0.407744C 8.91386 0.405994 8.9148 0.403866 8.91519 0.402991C 8.9155 0.402285 8.91591 0.401352 8.91606 0.400999C 8.9162 0.400689 8.91639 0.400255 8.91645 0.4001C 8.91664 0.399678 8.91682 0.399266 7.99998 -3.39083e-07C 7.08315 -0.399267 7.08332 -0.399658 7.08348 -0.400038C 7.08353 -0.400151 7.08369 -0.400522 7.08379 -0.400748C 7.08371 -0.400563 7.0845 -0.40236 7.08434 -0.401988C 7.08425 -0.40178 7.0853 -0.404176 7.08512 -0.403751C 7.08522 -0.403979 7.08562 -0.404861 7.08544 -0.40447C 7.0841 -0.401507 7.0837 -0.400627 7.0811 -0.395132C 7.07385 -0.379697 7.06668 -0.364779 7.0524 -0.336998C 7.01935 -0.272217 6.97961 -0.198303 6.91405 -0.0920078C 6.77231 0.140169 6.59566 0.39648 6.31472 0.682353C 5.77591 1.23912 4.98624 1.75555 3.86666 1.75555L 3.86666 3.75555ZM 7.99998 -3.39083e-07C 7.05284 0.320807 7.05299 0.32126 7.05315 0.321723C 7.05321 0.321892 7.05337 0.322367 7.05348 0.322704C 7.05361 0.323085 7.05396 0.324101 7.05422 0.324863C 7.05454 0.325794 7.05533 0.328091 7.05598 0.329955C 7.05686 0.33249 7.05883 0.338129 7.06063 0.343185C 7.06338 0.35089 7.06894 0.36622 7.0746 0.381407C 7.08414 0.406861 7.10199 0.452804 7.12211 0.501506C 7.15835 0.588676 7.22351 0.734232 7.30303 0.889197C 7.45234 1.17726 7.72544 1.62268 8.07923 2.03456C 8.81867 2.88354 10.0419 3.75555 11.8666 3.75555L 11.8666 1.75555C 10.758 1.75555 10.048 1.24979 9.58739 0.720994C 9.34119 0.443979 9.19762 0.200519 9.08027 -0.0280887C 9.02645 -0.131456 8.99578 -0.201178 8.96952 -0.264702C 8.95839 -0.291347 8.95332 -0.304605 8.94776 -0.319515C 8.94587 -0.324511 8.94583 -0.324653 8.94487 -0.327376C 8.94481 -0.327534 8.94532 -0.326074 8.94536 -0.325961C 8.94518 -0.3265 8.94618 -0.323596 8.94609 -0.32386C 8.94594 -0.324287 8.94664 -0.322241 8.94657 -0.322453C 8.94665 -0.322199 8.94679 -0.321787 8.94684 -0.321661C 8.94698 -0.321239 8.94713 -0.320807 7.99998 -3.39083e-07ZM 11.8666 3.75555C 13.6804 3.75555 14.9574 2.89421 15.7519 2.0732C 16.1376 1.67018 16.4443 1.23761 16.6192 0.953116C 16.712 0.801079 16.7889 0.659715 16.833 0.573802C 16.8572 0.526236 16.8787 0.481953 16.8905 0.457024C 16.8974 0.442336 16.9041 0.427743 16.9074 0.420278C 16.9096 0.415456 16.912 0.410165 16.9131 0.407744C 16.9138 0.405994 16.9148 0.403866 16.9152 0.402991C 16.9155 0.402285 16.9159 0.401351 16.916 0.400999C 16.9162 0.400689 16.9164 0.400255 16.9164 0.4001C 16.9166 0.399678 16.9168 0.399266 16 -3.39083e-07C 15.0831 -0.399267 15.0833 -0.399658 15.0835 -0.400038C 15.0835 -0.400151 15.0837 -0.400522 15.0838 -0.400748C 15.0837 -0.400563 15.0845 -0.40236 15.0843 -0.401988C 15.0842 -0.40178 15.0853 -0.404176 15.0851 -0.403751C 15.0852 -0.403979 15.0856 -0.404861 15.0854 -0.404469C 15.0841 -0.401507 15.0837 -0.400627 15.0811 -0.395132C 15.0738 -0.379697 15.0667 -0.364779 15.0524 -0.336998C 15.0193 -0.272217 14.9796 -0.198303 14.914 -0.0920077C 14.7723 0.140169 14.5956 0.39648 14.3147 0.682353C 13.7759 1.23912 12.9862 1.75555 11.8666 1.75555L 11.8666 3.75555ZM 16 -3.39083e-07C 15.0528 0.320807 15.053 0.32126 15.0531 0.321723C 15.0532 0.321892 15.0533 0.322367 15.0535 0.322704C 15.0536 0.323085 15.0539 0.324101 15.0542 0.324863C 15.0545 0.325794 15.0553 0.328091 15.056 0.329955C 15.0568 0.33249 15.0588 0.338129 15.0606 0.343185C 15.0634 0.35089 15.0689 0.36622 15.0746 0.381407C 15.0841 0.406861 15.102 0.452804 15.1221 0.501506C 15.1583 0.588676 15.2235 0.734232 15.303 0.889197C 15.4523 1.17726 15.7254 1.62268 16.0792 2.03456C 16.8186 2.88354 18.0419 3.75555 19.8666 3.75555L 19.8666 1.75555C 18.758 1.75555 18.0479 1.24979 17.5874 0.720994C 17.3412 0.443979 17.1976 0.200519 17.0803 -0.0280887C 17.0264 -0.131456 16.9958 -0.201178 16.9695 -0.264702C 16.9584 -0.291347 16.9533 -0.304605 16.9477 -0.319515C 16.9459 -0.324511 16.9458 -0.324653 16.9448 -0.327376C 16.9448 -0.327534 16.9453 -0.326074 16.9453 -0.325961C 16.9452 -0.3265 16.9462 -0.323596 16.9461 -0.32386C 16.9459 -0.324287 16.9466 -0.322241 16.9465 -0.322453C 16.9466 -0.322199 16.9468 -0.321787 16.9468 -0.321661C 16.947 -0.321239 16.9471 -0.320807 16 -3.39083e-07ZM 19.8666 3.75555C 21.6804 3.75555 22.9574 2.89421 23.7519 2.0732C 24.1376 1.67018 24.4443 1.23761 24.6192 0.953116C 24.712 0.801079 24.7889 0.659715 24.8329 0.573802C 24.8572 0.526236 24.8787 0.481953 24.8904 0.457024C 24.8973 0.442336 24.904 0.427743 24.9074 0.420278C 24.9096 0.415456 24.912 0.410165 24.913 0.407744C 24.9138 0.405994 24.9148 0.403866 24.9151 0.402991C 24.9155 0.402285 24.9159 0.401351 24.916 0.400999C 24.9162 0.400689 24.9163 0.400255 24.9164 0.4001C 24.9166 0.399678 24.9168 0.399266 23.9999 -3.39083e-07C 23.0831 -0.399267 23.0833 -0.399658 23.0834 -0.400038C 23.0835 -0.400151 23.0837 -0.400522 23.0838 -0.400748C 23.0837 -0.400563 23.0845 -0.40236 23.0843 -0.401988C 23.0842 -0.40178 23.0853 -0.404176 23.0851 -0.403751C 23.0852 -0.403979 23.0856 -0.404861 23.0854 -0.404469C 23.0841 -0.401507 23.0837 -0.400627 23.0811 -0.395132C 23.0738 -0.379697 23.0666 -0.364779 23.0524 -0.336998C 23.0193 -0.272217 22.9796 -0.198303 22.914 -0.0920077C 22.7723 0.140169 22.5956 0.39648 22.3147 0.682353C 21.7759 1.23912 20.9862 1.75555 19.8666 1.75555L 19.8666 3.75555ZM 23.9999 -3.39083e-07C 23.0528 0.320806 23.053 0.321259 23.0531 0.321722C 23.0532 0.321891 23.0533 0.322366 23.0534 0.322704C 23.0536 0.323084 23.0539 0.324101 23.0542 0.324862C 23.0545 0.325793 23.0553 0.328091 23.0559 0.329954C 23.0568 0.33249 23.0588 0.338128 23.0606 0.343184C 23.0633 0.350889 23.0689 0.36622 23.0746 0.381407C 23.0841 0.406861 23.102 0.452803 23.1221 0.501505C 23.1583 0.588676 23.2235 0.734231 23.303 0.889197C 23.4523 1.17725 23.7254 1.62268 24.0792 2.03455C 24.8186 2.88354 26.0419 3.75555 27.8666 3.75555L 27.8666 1.75555C 26.758 1.75555 26.0479 1.24979 25.5874 0.720994C 25.3412 0.44398 25.1976 0.200519 25.0802 -0.0280883C 25.0264 -0.131456 24.9957 -0.201177 24.9695 -0.264701C 24.9584 -0.291346 24.9533 -0.304605 24.9477 -0.319515C 24.9458 -0.324511 24.9458 -0.324653 24.9448 -0.327376C 24.9448 -0.327533 24.9453 -0.326074 24.9453 -0.32596C 24.9451 -0.326499 24.9461 -0.323596 24.946 -0.323859C 24.9459 -0.324287 24.9466 -0.32224 24.9465 -0.322453C 24.9466 -0.322199 24.9468 -0.321787 24.9468 -0.32166C 24.9469 -0.321239 24.9471 -0.320807 23.9999 -3.39083e-07ZM 27.8666 3.75555C 29.6803 3.75555 30.9573 2.89421 31.7519 2.0732C 32.1376 1.67018 32.4443 1.23761 32.6192 0.953117C 32.712 0.801079 32.7889 0.659716 32.8329 0.573803C 32.8572 0.526237 32.8787 0.481954 32.8904 0.457024C 32.8973 0.442337 32.904 0.427744 32.9074 0.420279C 32.9096 0.415456 32.912 0.410166 32.913 0.407745C 32.9138 0.405995 32.9147 0.403866 32.9151 0.402991C 32.9154 0.402285 32.9159 0.401352 32.916 0.400999C 32.9161 0.400689 32.9163 0.400256 32.9164 0.400101C 32.9166 0.399678 32.9168 0.399267 31.9999 -3.39083e-07C 31.0831 -0.399267 31.0833 -0.399658 31.0834 -0.400038C 31.0835 -0.400151 31.0836 -0.400522 31.0837 -0.400748C 31.0837 -0.400563 31.0844 -0.40236 31.0843 -0.401988C 31.0842 -0.401781 31.0852 -0.404177 31.0851 -0.403751C 31.0852 -0.403979 31.0856 -0.404861 31.0854 -0.40447C 31.084 -0.401508 31.0836 -0.400627 31.081 -0.395133C 31.0738 -0.379698 31.0666 -0.36478 31.0523 -0.336998C 31.0193 -0.272217 30.9796 -0.198303 30.914 -0.0920081C 30.7723 0.140168 30.5956 0.39648 30.3147 0.682353C 29.7759 1.23912 28.9862 1.75555 27.8666 1.75555L 27.8666 3.75555ZM 31.9999 -3.39083e-07C 31.0528 0.320806 31.0529 0.321259 31.0531 0.321722C 31.0532 0.321891 31.0533 0.322366 31.0534 0.322704C 31.0536 0.323084 31.0539 0.324101 31.0542 0.324862C 31.0545 0.325793 31.0553 0.328091 31.0559 0.329954C 31.0568 0.33249 31.0588 0.338128 31.0606 0.343184C 31.0633 0.350889 31.0689 0.36622 31.0745 0.381407C 31.0841 0.406861 31.1019 0.452803 31.1221 0.501505C 31.1583 0.588676 31.2235 0.734231 31.303 0.889197C 31.4523 1.17725 31.7254 1.62268 32.0792 2.03455C 32.8186 2.88354 34.0419 3.75555 35.8666 3.75555L 35.8666 1.75555C 34.758 1.75555 34.0479 1.24979 33.5873 0.720994C 33.3411 0.44398 33.1976 0.200519 33.0802 -0.0280883C 33.0264 -0.131456 32.9957 -0.201177 32.9695 -0.264701C 32.9583 -0.291346 32.9533 -0.304605 32.9477 -0.319515C 32.9458 -0.324511 32.9458 -0.324653 32.9448 -0.327376C 32.9448 -0.327533 32.9453 -0.326074 32.9453 -0.32596C 32.9451 -0.326499 32.9461 -0.323596 32.946 -0.323859C 32.9459 -0.324287 32.9466 -0.32224 32.9465 -0.322453C 32.9466 -0.322199 32.9467 -0.321787 32.9468 -0.32166C 32.9469 -0.321239 32.9471 -0.320807 31.9999 -3.39083e-07ZM 35.8666 3.75555C 37.6803 3.75555 38.9573 2.89421 39.7518 2.0732C 40.1376 1.67018 40.4442 1.23761 40.6192 0.953117C 40.7119 0.801079 40.7889 0.659716 40.8329 0.573803C 40.8572 0.526237 40.8786 0.481954 40.8904 0.457024C 40.8973 0.442337 40.904 0.427744 40.9074 0.420279C 40.9096 0.415456 40.9119 0.410166 40.913 0.407745C 40.9138 0.405995 40.9147 0.403866 40.9151 0.402991C 40.9154 0.402285 40.9158 0.401352 40.916 0.400999C 40.9161 0.400689 40.9163 0.400256 40.9164 0.400101C 40.9166 0.399678 40.9167 0.399267 39.9999 -3.39083e-07C 39.0831 -0.399267 39.0832 -0.399658 39.0834 -0.400038C 39.0835 -0.400151 39.0836 -0.400522 39.0837 -0.400748C 39.0836 -0.400563 39.0844 -0.40236 39.0843 -0.401988C 39.0842 -0.401781 39.0852 -0.404177 39.085 -0.403751C 39.0851 -0.403979 39.0855 -0.404861 39.0854 -0.40447C 39.084 -0.401508 39.0836 -0.400627 39.081 -0.395133C 39.0738 -0.379698 39.0666 -0.36478 39.0523 -0.336998C 39.0193 -0.272217 38.9795 -0.198303 38.914 -0.0920081C 38.7722 0.140168 38.5956 0.39648 38.3146 0.682353C 37.7758 1.23912 36.9862 1.75555 35.8666 1.75555L 35.8666 3.75555Z"/>
</defs>
</svg>
