<svg xmlns="http://www.w3.org/2000/svg" xmlns:xlink="http://www.w3.org/1999/xlink" width="46" height="39.403" viewBox="0 0 46 39.403">
  <defs>
    <clipPath id="clip-path">
      <rect width="46" height="39.403" fill="none"/>
    </clipPath>
  </defs>
  <g id="baptism-2" clip-path="url(#clip-path)">
    <path id="Path_735" data-name="Path 735" d="M47,21H1V9A1,1,0,0,1,2,8,9.179,9.179,0,0,0,8.766,4.921,1.033,1.033,0,0,1,9.512,4.6a1,1,0,0,1,.738.338A9,9,0,0,0,17,8a9,9,0,0,0,6.749-3.061.994.994,0,0,1,1.5,0A9,9,0,0,0,32,8a8.949,8.949,0,0,0,6.3-2.577,1,1,0,0,1,1.408.006A8.952,8.952,0,0,0,46.008,8,.993.993,0,0,1,47,9Z" transform="translate(-1 -4.597)" fill="#82adb2"/>
    <path id="Path_736" data-name="Path 736" d="M47,33H1V21a1,1,0,0,1,1-1,9.179,9.179,0,0,0,6.767-3.079,1.033,1.033,0,0,1,.746-.321,1,1,0,0,1,.738.338,8.971,8.971,0,0,0,13.5,0,.994.994,0,0,1,1.5,0,8.978,8.978,0,0,0,13.048.484,1,1,0,0,1,1.408.006A8.952,8.952,0,0,0,46.008,20,.993.993,0,0,1,47,21Z" transform="translate(-1 -4.597)" fill="#a4dae0"/>
    <path id="Path_737" data-name="Path 737" d="M46,44H2a1,1,0,0,1-1-1V33a1,1,0,0,1,1-1,9.18,9.18,0,0,0,6.766-3.079,1.033,1.033,0,0,1,.746-.321,1,1,0,0,1,.738.338,8.971,8.971,0,0,0,13.5,0,1.032,1.032,0,0,1,1.5,0,8.979,8.979,0,0,0,13.05.484,1,1,0,0,1,1.4,0A8.95,8.95,0,0,0,46,32a1,1,0,0,1,1,1V43A1,1,0,0,1,46,44Z" transform="translate(-1 -4.597)" fill="#c8e9ec"/>
  </g>
</svg>
