<svg width="302" height="302" viewBox="0 0 302 302" version="1.1" xmlns="http://www.w3.org/2000/svg" xmlns:xlink="http://www.w3.org/1999/xlink">
    <style>
        #church-wheel > g{
            opacity: .1
        }
    </style>
<title>church-wheel</title>
<desc>Created using Figma</desc>
<g id="Canvas" transform="translate(1002 -351)">
<g id="church-wheel">
<g id="commitment">
<g id="Ellipse 3">
<mask id="mask0_outline_ins">
<use xlink:href="#path0_fill" fill="white" transform="translate(-995.214 357.787)"/>
</mask>
<g mask="url(#mask0_outline_ins)">
<use xlink:href="#path1_stroke_2x" transform="translate(-995.214 357.787)" fill="#333333"/>
</g>
</g>
</g>
<g id="group">
<g id="Ellipse 3">
<mask id="mask1_outline_ins">
<use xlink:href="#path2_fill" fill="white" transform="translate(-1002 351)"/>
</mask>
<g mask="url(#mask1_outline_ins)">
<use xlink:href="#path3_stroke_2x" transform="translate(-1002 351)" fill="#333333"/>
</g>
</g>
</g>
<g id="communion">
<g id="Vector">
<use xlink:href="#path4_fill" transform="translate(-795 411)" fill="#4C4C4C"/>
</g>
</g>
<g id="baptism">
<g id="Vector">
<use xlink:href="#path5_stroke" transform="translate(-967 491)" fill="#4C4C4C"/>
</g>
<g id="Vector">
<use xlink:href="#path6_stroke" transform="translate(-967 500.29)" fill="#4C4C4C"/>
</g>
<g id="Vector">
<use xlink:href="#path7_stroke" transform="translate(-967 509.58)" fill="#4C4C4C"/>
</g>
</g>
<g id="bible">
<g id="Group">
<g id="Vector">
<use xlink:href="#path8_fill" transform="translate(-943 542)" fill="#4C4C4C"/>
</g>
<g id="Vector">
<use xlink:href="#path9_fill" transform="translate(-931.172 556.91)" fill="#4C4C4C"/>
</g>
<g id="Vector">
<use xlink:href="#path10_fill" transform="translate(-931.172 562.051)" fill="#4C4C4C"/>
</g>
<g id="Vector">
<use xlink:href="#path11_fill" transform="translate(-931.172 567.192)" fill="#4C4C4C"/>
</g>
<g id="Vector">
<use xlink:href="#path12_fill" transform="translate(-931.687 587.756)" fill="#4C4C4C"/>
</g>
</g>
</g>
<g id="leaders">
<g id="Union">
<use xlink:href="#path13_fill" transform="translate(-781.438 489)" fill="#4C4C4C"/>
</g>
</g>
<g id="giving">
<g id="Group">
<g id="Vector">
<use xlink:href="#path14_fill" transform="matrix(0.1 0 0 -0.1 -939 461.899)" fill="#4C4C4C"/>
</g>
</g>
</g>
<g id="fellowship">
<g id="Group">
<g id="Group">
<g id="Vector">
<use xlink:href="#path15_fill" transform="translate(-877 377.843)" fill="#4C4C4C"/>
</g>
</g>
</g>
</g>
<g id="sharing">
<g id="Union">
<use xlink:href="#path16_fill" transform="translate(-807 542)" fill="#4C4C4C"/>
</g>
</g>
<g id="praise">
<g id="Group">
<g id="Vector">
<use xlink:href="#path17_fill" transform="translate(-855.859 577.488)" fill="#4C4C4C"/>
</g>
<g id="Vector">
<use xlink:href="#path18_fill" transform="translate(-865 574.472)" fill="#4C4C4C"/>
</g>
</g>
</g>
<g id="prayer">
<g id="Group">
<g id="Vector">
<use xlink:href="#path19_fill" transform="matrix(-1 0 0 1 -828.63 477)" fill="#4C4C4C"/>
</g>
</g>
</g>
</g>
</g>
<defs>
<path id="path0_fill" d="M 288.427 144.214C 288.427 223.86 223.86 288.427 144.214 288.427C 64.5666 288.427 0 223.86 0 144.214C 0 64.5666 64.5666 0 144.214 0C 223.86 0 288.427 64.5666 288.427 144.214Z"/>
<path id="path1_stroke_2x" d="M 286.427 144.214C 286.427 222.756 222.756 286.427 144.214 286.427L 144.214 290.427C 224.965 290.427 290.427 224.965 290.427 144.214L 286.427 144.214ZM 144.214 286.427C 65.6712 286.427 2 222.756 2 144.214L -2 144.214C -2 224.965 63.462 290.427 144.214 290.427L 144.214 286.427ZM 2 144.214C 2 65.6712 65.6712 2 144.214 2L 144.214 -2C 63.462 -2 -2 63.462 -2 144.214L 2 144.214ZM 144.214 2C 222.756 2 286.427 65.6712 286.427 144.214L 290.427 144.214C 290.427 63.462 224.965 -2 144.214 -2L 144.214 2Z"/>
<path id="path2_fill" d="M 302 151C 302 234.395 234.395 302 151 302C 67.605 302 0 234.395 0 151C 0 67.605 67.605 0 151 0C 234.395 0 302 67.605 302 151Z"/>
<path id="path3_stroke_2x" d="M 303 151C 303 150.334 302.996 149.666 302.987 149.002L 300.987 149.028C 300.996 149.685 301 150.34 301 151L 303 151ZM 302.885 145.024C 302.833 143.697 302.765 142.368 302.68 141.05L 300.684 141.179C 300.768 142.484 300.835 143.788 300.886 145.102L 302.885 145.024ZM 302.371 137.084C 302.251 135.761 302.114 134.437 301.96 133.125L 299.973 133.357C 300.126 134.657 300.261 135.955 300.38 137.265L 302.371 137.084ZM 301.446 129.181C 301.256 127.866 301.05 126.551 300.827 125.247L 298.856 125.584C 299.076 126.874 299.279 128.164 299.466 129.465L 301.446 129.181ZM 300.107 121.336C 299.849 120.034 299.573 118.73 299.282 117.44L 297.331 117.88C 297.619 119.157 297.89 120.435 298.145 121.725L 300.107 121.336ZM 298.357 113.573C 298.031 112.286 297.687 110.999 297.329 109.725L 295.404 110.267C 295.759 111.528 296.096 112.79 296.419 114.064L 298.357 113.573ZM 296.201 105.913C 295.808 104.645 295.396 103.377 294.971 102.123L 293.077 102.766C 293.498 104.008 293.902 105.25 294.291 106.506L 296.201 105.913ZM 293.643 98.3756C 293.184 97.1305 292.706 95.8869 292.215 94.6573L 290.358 95.3991C 290.844 96.6164 291.312 97.8353 291.767 99.0681L 293.643 98.3756ZM 290.692 90.9832C 290.167 89.7648 289.625 88.5486 289.07 87.3469L 287.254 88.1854C 287.804 89.3751 288.335 90.5673 288.854 91.7736L 290.692 90.9832ZM 287.355 83.7569C 286.767 82.5684 286.162 81.3828 285.545 80.2121L 283.776 81.1448C 284.387 82.3039 284.98 83.4661 285.562 84.6429L 287.355 83.7569ZM 283.643 76.7164C 282.994 75.5608 282.328 74.4088 281.65 73.2722L 279.932 74.2963C 280.603 75.4218 281.257 76.551 281.899 77.6952L 283.643 76.7164ZM 279.567 69.8804C 278.859 68.7607 278.134 67.6454 277.397 66.5457L 275.735 67.6584C 276.464 68.7472 277.176 69.8405 277.877 70.9492L 279.567 69.8804ZM 275.14 63.2672C 274.374 62.1862 273.592 61.1104 272.799 60.0506L 271.197 61.2485C 271.982 62.2978 272.75 63.3526 273.508 64.4229L 275.14 63.2672ZM 270.373 56.8943C 269.553 55.8547 268.715 54.821 267.868 53.8036L 266.331 55.0833C 267.169 56.0906 267.991 57.1041 268.804 58.1335L 270.373 56.8943ZM 265.281 50.7784C 264.408 49.783 263.517 48.7942 262.618 47.8221L 261.15 49.18C 262.04 50.1426 262.913 51.112 263.778 52.0977L 265.281 50.7784ZM 259.878 44.9358C 258.954 43.9873 258.013 43.0462 257.064 42.122L 255.668 43.5545C 256.608 44.4696 257.53 45.3923 258.446 46.3315L 259.878 44.9358ZM 254.178 39.3822C 253.206 38.4831 252.217 37.5923 251.222 36.7186L 249.902 38.2218C 250.888 39.0868 251.857 39.9603 252.82 40.8505L 254.178 39.3822ZM 248.196 34.1324C 247.179 33.2854 246.145 32.4473 245.106 31.6266L 243.867 33.1964C 244.896 34.009 245.909 34.8307 246.917 35.6695L 248.196 34.1324ZM 241.949 29.2011C 240.89 28.4085 239.814 27.6255 238.733 26.8601L 237.577 28.4924C 238.647 29.2502 239.702 30.0178 240.752 30.8027L 241.949 29.2011ZM 235.454 24.6027C 234.355 23.8665 233.239 23.1407 232.12 22.4327L 231.051 24.1231C 232.159 24.8241 233.253 25.5356 234.342 26.2646L 235.454 24.6027ZM 228.728 20.3498C 227.591 19.6722 226.439 19.0057 225.284 18.3571L 224.305 20.1012C 225.449 20.7433 226.578 21.3967 227.704 22.0677L 228.728 20.3498ZM 221.788 16.4551C 220.617 15.8379 219.432 15.2326 218.243 14.6453L 217.357 16.4384C 218.534 17.0198 219.696 17.6132 220.855 18.2243L 221.788 16.4551ZM 214.653 12.9299C 213.451 12.375 212.235 11.8326 211.017 11.3084L 210.226 13.1456C 211.433 13.6646 212.625 14.1962 213.815 14.7456L 214.653 12.9299ZM 207.343 9.78482C 206.113 9.29385 204.87 8.8161 203.624 8.35656L 202.932 10.2329C 204.165 10.6878 205.384 11.1561 206.601 11.6422L 207.343 9.78482ZM 199.877 7.02926C 198.623 6.60375 197.355 6.19211 196.087 5.79868L 195.494 7.7089C 196.75 8.09836 197.992 8.50184 199.234 8.92317L 199.877 7.02926ZM 192.275 4.67131C 191.001 4.31267 189.714 3.96853 188.427 3.64252L 187.936 5.58133C 189.21 5.90405 190.472 6.24137 191.733 6.59648L 192.275 4.67131ZM 184.56 2.71752C 183.27 2.42669 181.966 2.15091 180.664 1.89315L 180.275 3.85513C 181.565 4.11028 182.843 4.3806 184.12 4.66859L 184.56 2.71752ZM 176.753 1.17278C 175.449 0.950348 174.134 0.743501 172.819 0.554499L 172.535 2.53415C 173.836 2.72123 175.126 2.924 176.416 3.14427L 176.753 1.17278ZM 168.875 0.0400923C 167.563 -0.11366 166.239 -0.251358 164.916 -0.371433L 164.735 1.62038C 166.045 1.73923 167.343 1.87423 168.643 2.02651L 168.875 0.0400923ZM 160.95 -0.679514C 159.632 -0.76467 158.303 -0.833352 156.976 -0.88468L 156.898 1.11383C 158.212 1.16461 159.516 1.23196 160.821 1.31632L 160.95 -0.679514ZM 152.998 -0.987135C 152.334 -0.995684 151.666 -0.999995 151 -1L 151 1C 151.66 0.999995 152.315 1.00422 152.972 1.0127L 152.998 -0.987135ZM 151 -1C 150.334 -0.999995 149.666 -0.995684 149.002 -0.987135L 149.028 1.0127C 149.685 1.00422 150.34 0.999995 151 1L 151 -1ZM 145.024 -0.884679C 143.697 -0.833352 142.368 -0.76467 141.05 -0.679514L 141.179 1.31632C 142.484 1.23196 143.788 1.16461 145.102 1.11383L 145.024 -0.884679ZM 137.084 -0.371432C 135.761 -0.251358 134.437 -0.11366 133.125 0.0400927L 133.357 2.02651C 134.657 1.87423 135.955 1.73923 137.265 1.62038L 137.084 -0.371432ZM 129.181 0.5545C 127.866 0.743501 126.551 0.950348 125.247 1.17278L 125.584 3.14427C 126.874 2.924 128.164 2.72123 129.465 2.53415L 129.181 0.5545ZM 121.336 1.89315C 120.034 2.15091 118.73 2.42669 117.44 2.71752L 117.88 4.66859C 119.157 4.3806 120.435 4.11028 121.725 3.85513L 121.336 1.89315ZM 113.573 3.64252C 112.286 3.96853 110.999 4.31268 109.725 4.67131L 110.267 6.59648C 111.528 6.24137 112.79 5.90405 114.064 5.58133L 113.573 3.64252ZM 105.913 5.79868C 104.645 6.19211 103.377 6.60375 102.123 7.02927L 102.766 8.92317C 104.008 8.50184 105.25 8.09837 106.506 7.7089L 105.913 5.79868ZM 98.3756 8.35656C 97.1305 8.8161 95.8869 9.29385 94.6573 9.78482L 95.3991 11.6422C 96.6164 11.1561 97.8353 10.6878 99.0681 10.2329L 98.3756 8.35656ZM 90.9832 11.3084C 89.7648 11.8326 88.5486 12.375 87.3469 12.9299L 88.1854 14.7456C 89.3751 14.1962 90.5673 13.6646 91.7736 13.1456L 90.9832 11.3084ZM 83.7569 14.6453C 82.5684 15.2326 81.3828 15.8379 80.2121 16.4551L 81.1448 18.2243C 82.3039 17.6132 83.4661 17.0198 84.6429 16.4384L 83.7569 14.6453ZM 76.7164 18.3571C 75.5608 19.0057 74.4088 19.6722 73.2722 20.3499L 74.2963 22.0677C 75.4218 21.3967 76.551 20.7433 77.6952 20.1012L 76.7164 18.3571ZM 69.8804 22.4327C 68.7607 23.1407 67.6454 23.8665 66.5457 24.6027L 67.6584 26.2646C 68.7472 25.5356 69.8405 24.8241 70.9492 24.1231L 69.8804 22.4327ZM 63.2672 26.8601C 62.1862 27.6255 61.1104 28.4085 60.0506 29.2011L 61.2485 30.8027C 62.2978 30.0178 63.3526 29.2502 64.4229 28.4924L 63.2672 26.8601ZM 56.8943 31.6266C 55.8547 32.4473 54.821 33.2854 53.8036 34.1324L 55.0833 35.6694C 56.0906 34.8307 57.1041 34.009 58.1335 33.1964L 56.8943 31.6266ZM 50.7784 36.7186C 49.783 37.5923 48.7942 38.4831 47.8221 39.3822L 49.18 40.8505C 50.1426 39.9603 51.112 39.0868 52.0977 38.2218L 50.7784 36.7186ZM 44.9358 42.122C 43.9873 43.0462 43.0462 43.9873 42.122 44.9358L 43.5545 46.3315C 44.4696 45.3923 45.3923 44.4696 46.3315 43.5545L 44.9358 42.122ZM 39.3822 47.8221C 38.4831 48.7942 37.5923 49.783 36.7186 50.7784L 38.2218 52.0977C 39.0868 51.112 39.9603 50.1426 40.8505 49.1801L 39.3822 47.8221ZM 34.1324 53.8036C 33.2854 54.821 32.4473 55.8547 31.6266 56.8943L 33.1964 58.1335C 34.009 57.1041 34.8307 56.0906 35.6695 55.0833L 34.1324 53.8036ZM 29.2011 60.0506C 28.4085 61.1104 27.6255 62.1862 26.8601 63.2672L 28.4924 64.4229C 29.2502 63.3526 30.0178 62.2978 30.8027 61.2485L 29.2011 60.0506ZM 24.6027 66.5457C 23.8665 67.6454 23.1407 68.7607 22.4327 69.8804L 24.1231 70.9492C 24.8241 69.8406 25.5356 68.7472 26.2646 67.6583L 24.6027 66.5457ZM 20.3498 73.2722C 19.6722 74.4088 19.0057 75.5608 18.3571 76.7164L 20.1012 77.6952C 20.7433 76.551 21.3967 75.4218 22.0677 74.2963L 20.3498 73.2722ZM 16.4551 80.2121C 15.8379 81.3828 15.2326 82.5684 14.6453 83.7569L 16.4384 84.6429C 17.0198 83.4661 17.6132 82.3039 18.2243 81.1448L 16.4551 80.2121ZM 12.9299 87.3469C 12.375 88.5486 11.8326 89.7648 11.3084 90.9832L 13.1456 91.7736C 13.6646 90.5673 14.1962 89.3751 14.7456 88.1854L 12.9299 87.3469ZM 9.78482 94.6573C 9.29385 95.8869 8.8161 97.1305 8.35656 98.3756L 10.2329 99.0681C 10.6878 97.8353 11.1561 96.6164 11.6422 95.3991L 9.78482 94.6573ZM 7.02926 102.123C 6.60375 103.377 6.19211 104.645 5.79868 105.913L 7.7089 106.506C 8.09836 105.25 8.50184 104.008 8.92317 102.766L 7.02926 102.123ZM 4.67131 109.725C 4.31267 110.999 3.96853 112.286 3.64252 113.573L 5.58133 114.064C 5.90405 112.79 6.24137 111.528 6.59648 110.267L 4.67131 109.725ZM 2.71752 117.44C 2.42669 118.73 2.15091 120.034 1.89315 121.336L 3.85513 121.725C 4.11028 120.435 4.3806 119.157 4.66859 117.88L 2.71752 117.44ZM 1.17278 125.247C 0.950348 126.551 0.743501 127.866 0.554499 129.181L 2.53415 129.465C 2.72123 128.164 2.924 126.874 3.14427 125.584L 1.17278 125.247ZM 0.0400923 133.125C -0.11366 134.437 -0.251358 135.761 -0.371433 137.084L 1.62038 137.265C 1.73923 135.955 1.87423 134.657 2.02651 133.357L 0.0400923 133.125ZM -0.679514 141.05C -0.76467 142.368 -0.833352 143.697 -0.88468 145.024L 1.11383 145.102C 1.16461 143.788 1.23196 142.484 1.31632 141.179L -0.679514 141.05ZM -0.987135 149.002C -0.995684 149.666 -0.999995 150.334 -1 151L 1 151C 0.999995 150.34 1.00422 149.685 1.0127 149.028L -0.987135 149.002ZM -1 151C -0.999995 151.666 -0.995684 152.334 -0.987135 152.998L 1.0127 152.972C 1.00422 152.315 0.999995 151.66 1 151L -1 151ZM -0.884679 156.976C -0.833352 158.303 -0.76467 159.632 -0.679514 160.95L 1.31632 160.821C 1.23196 159.516 1.16461 158.212 1.11383 156.898L -0.884679 156.976ZM -0.371432 164.916C -0.251358 166.239 -0.11366 167.563 0.0400927 168.875L 2.02651 168.643C 1.87423 167.343 1.73923 166.045 1.62038 164.735L -0.371432 164.916ZM 0.5545 172.819C 0.743501 174.134 0.950348 175.449 1.17278 176.753L 3.14427 176.416C 2.924 175.126 2.72123 173.836 2.53415 172.535L 0.5545 172.819ZM 1.89315 180.664C 2.15091 181.966 2.42669 183.27 2.71752 184.56L 4.66859 184.12C 4.3806 182.843 4.11028 181.565 3.85513 180.275L 1.89315 180.664ZM 3.64252 188.427C 3.96853 189.714 4.31268 191.001 4.67131 192.275L 6.59648 191.733C 6.24137 190.472 5.90405 189.21 5.58133 187.936L 3.64252 188.427ZM 5.79868 196.087C 6.19211 197.355 6.60375 198.623 7.02927 199.877L 8.92317 199.234C 8.50184 197.992 8.09837 196.75 7.7089 195.494L 5.79868 196.087ZM 8.35656 203.624C 8.8161 204.87 9.29385 206.113 9.78482 207.343L 11.6422 206.601C 11.1561 205.384 10.6878 204.165 10.2329 202.932L 8.35656 203.624ZM 11.3084 211.017C 11.8326 212.235 12.375 213.451 12.9299 214.653L 14.7456 213.815C 14.1962 212.625 13.6646 211.433 13.1456 210.226L 11.3084 211.017ZM 14.6453 218.243C 15.2326 219.432 15.8379 220.617 16.4551 221.788L 18.2243 220.855C 17.6132 219.696 17.0198 218.534 16.4384 217.357L 14.6453 218.243ZM 18.3571 225.284C 19.0057 226.439 19.6722 227.591 20.3499 228.728L 22.0677 227.704C 21.3967 226.578 20.7433 225.449 20.1012 224.305L 18.3571 225.284ZM 22.4327 232.12C 23.1407 233.239 23.8665 234.355 24.6027 235.454L 26.2646 234.342C 25.5356 233.253 24.8241 232.159 24.1231 231.051L 22.4327 232.12ZM 26.8601 238.733C 27.6255 239.814 28.4085 240.89 29.2011 241.949L 30.8027 240.752C 30.0178 239.702 29.2502 238.647 28.4924 237.577L 26.8601 238.733ZM 31.6266 245.106C 32.4473 246.145 33.2854 247.179 34.1324 248.196L 35.6694 246.917C 34.8307 245.909 34.009 244.896 33.1964 243.867L 31.6266 245.106ZM 36.7186 251.222C 37.5923 252.217 38.4831 253.206 39.3822 254.178L 40.8505 252.82C 39.9603 251.857 39.0868 250.888 38.2218 249.902L 36.7186 251.222ZM 42.122 257.064C 43.0462 258.013 43.9873 258.954 44.9358 259.878L 46.3315 258.446C 45.3923 257.53 44.4696 256.608 43.5545 255.668L 42.122 257.064ZM 47.8221 262.618C 48.7942 263.517 49.783 264.408 50.7784 265.281L 52.0977 263.778C 51.112 262.913 50.1426 262.04 49.1801 261.15L 47.8221 262.618ZM 53.8036 267.868C 54.821 268.715 55.8547 269.553 56.8943 270.373L 58.1335 268.804C 57.1041 267.991 56.0906 267.169 55.0833 266.331L 53.8036 267.868ZM 60.0506 272.799C 61.1104 273.592 62.1862 274.374 63.2672 275.14L 64.4229 273.508C 63.3526 272.75 62.2978 271.982 61.2485 271.197L 60.0506 272.799ZM 66.5457 277.397C 67.6454 278.134 68.7607 278.859 69.8804 279.567L 70.9492 277.877C 69.8406 277.176 68.7472 276.464 67.6583 275.735L 66.5457 277.397ZM 73.2722 281.65C 74.4088 282.328 75.5608 282.994 76.7164 283.643L 77.6952 281.899C 76.551 281.257 75.4218 280.603 74.2963 279.932L 73.2722 281.65ZM 80.2121 285.545C 81.3828 286.162 82.5684 286.767 83.7569 287.355L 84.6429 285.562C 83.4661 284.98 82.3039 284.387 81.1448 283.776L 80.2121 285.545ZM 87.3469 289.07C 88.5486 289.625 89.7648 290.167 90.9832 290.692L 91.7736 288.854C 90.5673 288.335 89.3751 287.804 88.1854 287.254L 87.3469 289.07ZM 94.6573 292.215C 95.8869 292.706 97.1305 293.184 98.3756 293.643L 99.0681 291.767C 97.8353 291.312 96.6164 290.844 95.3991 290.358L 94.6573 292.215ZM 102.123 294.971C 103.377 295.396 104.645 295.808 105.913 296.201L 106.506 294.291C 105.25 293.902 104.008 293.498 102.766 293.077L 102.123 294.971ZM 109.725 297.329C 110.999 297.687 112.286 298.031 113.573 298.357L 114.064 296.419C 112.79 296.096 111.528 295.759 110.267 295.404L 109.725 297.329ZM 117.44 299.282C 118.73 299.573 120.034 299.849 121.336 300.107L 121.725 298.145C 120.435 297.89 119.157 297.619 117.88 297.331L 117.44 299.282ZM 125.247 300.827C 126.551 301.05 127.866 301.256 129.181 301.446L 129.465 299.466C 128.164 299.279 126.874 299.076 125.584 298.856L 125.247 300.827ZM 133.125 301.96C 134.437 302.114 135.761 302.251 137.084 302.371L 137.265 300.38C 135.955 300.261 134.657 300.126 133.357 299.973L 133.125 301.96ZM 141.05 302.68C 142.368 302.765 143.697 302.833 145.024 302.885L 145.102 300.886C 143.788 300.835 142.484 300.768 141.179 300.684L 141.05 302.68ZM 149.002 302.987C 149.666 302.996 150.334 303 151 303L 151 301C 150.34 301 149.685 300.996 149.028 300.987L 149.002 302.987ZM 151 303C 151.666 303 152.334 302.996 152.998 302.987L 152.972 300.987C 152.315 300.996 151.66 301 151 301L 151 303ZM 156.976 302.885C 158.303 302.833 159.632 302.765 160.95 302.68L 160.821 300.684C 159.516 300.768 158.212 300.835 156.898 300.886L 156.976 302.885ZM 164.916 302.371C 166.239 302.251 167.563 302.114 168.875 301.96L 168.643 299.973C 167.343 300.126 166.045 300.261 164.735 300.38L 164.916 302.371ZM 172.819 301.446C 174.134 301.256 175.449 301.05 176.753 300.827L 176.416 298.856C 175.126 299.076 173.836 299.279 172.535 299.466L 172.819 301.446ZM 180.664 300.107C 181.966 299.849 183.27 299.573 184.56 299.282L 184.12 297.331C 182.843 297.619 181.565 297.89 180.275 298.145L 180.664 300.107ZM 188.427 298.357C 189.714 298.031 191.001 297.687 192.275 297.329L 191.733 295.404C 190.472 295.759 189.21 296.096 187.936 296.419L 188.427 298.357ZM 196.087 296.201C 197.355 295.808 198.623 295.396 199.877 294.971L 199.234 293.077C 197.992 293.498 196.75 293.902 195.494 294.291L 196.087 296.201ZM 203.624 293.643C 204.87 293.184 206.113 292.706 207.343 292.215L 206.601 290.358C 205.384 290.844 204.165 291.312 202.932 291.767L 203.624 293.643ZM 211.017 290.692C 212.235 290.167 213.451 289.625 214.653 289.07L 213.815 287.254C 212.625 287.804 211.433 288.335 210.226 288.854L 211.017 290.692ZM 218.243 287.355C 219.432 286.767 220.617 286.162 221.788 285.545L 220.855 283.776C 219.696 284.387 218.534 284.98 217.357 285.562L 218.243 287.355ZM 225.284 283.643C 226.439 282.994 227.591 282.328 228.728 281.65L 227.704 279.932C 226.578 280.603 225.449 281.257 224.305 281.899L 225.284 283.643ZM 232.12 279.567C 233.239 278.859 234.355 278.134 235.454 277.397L 234.342 275.735C 233.253 276.464 232.159 277.176 231.051 277.877L 232.12 279.567ZM 238.733 275.14C 239.814 274.374 240.89 273.592 241.949 272.799L 240.752 271.197C 239.702 271.982 238.647 272.75 237.577 273.508L 238.733 275.14ZM 245.106 270.373C 246.145 269.553 247.179 268.715 248.196 267.868L 246.917 266.331C 245.909 267.169 244.896 267.991 243.867 268.804L 245.106 270.373ZM 251.222 265.281C 252.217 264.408 253.206 263.517 254.178 262.618L 252.82 261.15C 251.857 262.04 250.888 262.913 249.902 263.778L 251.222 265.281ZM 257.064 259.878C 258.013 258.954 258.954 258.013 259.878 257.064L 258.446 255.668C 257.53 256.608 256.608 257.53 255.668 258.446L 257.064 259.878ZM 262.618 254.178C 263.517 253.206 264.408 252.217 265.281 251.222L 263.778 249.902C 262.913 250.888 262.04 251.857 261.15 252.82L 262.618 254.178ZM 267.868 248.196C 268.715 247.179 269.553 246.145 270.373 245.106L 268.804 243.867C 267.991 244.896 267.169 245.909 266.331 246.917L 267.868 248.196ZM 272.799 241.949C 273.592 240.89 274.374 239.814 275.14 238.733L 273.508 237.577C 272.75 238.647 271.982 239.702 271.197 240.752L 272.799 241.949ZM 277.397 235.454C 278.134 234.355 278.859 233.239 279.567 232.12L 277.877 231.051C 277.176 232.159 276.464 233.253 275.735 234.342L 277.397 235.454ZM 281.65 228.728C 282.328 227.591 282.994 226.439 283.643 225.284L 281.899 224.305C 281.257 225.449 280.603 226.578 279.932 227.704L 281.65 228.728ZM 285.545 221.788C 286.162 220.617 286.767 219.432 287.355 218.243L 285.562 217.357C 284.98 218.534 284.387 219.696 283.776 220.855L 285.545 221.788ZM 289.07 214.653C 289.625 213.451 290.167 212.235 290.692 211.017L 288.854 210.226C 288.335 211.433 287.804 212.625 287.254 213.815L 289.07 214.653ZM 292.215 207.343C 292.706 206.113 293.184 204.87 293.643 203.624L 291.767 202.932C 291.312 204.165 290.844 205.384 290.358 206.601L 292.215 207.343ZM 294.971 199.877C 295.396 198.623 295.808 197.355 296.201 196.087L 294.291 195.494C 293.902 196.75 293.498 197.992 293.077 199.234L 294.971 199.877ZM 297.329 192.275C 297.687 191.001 298.031 189.714 298.357 188.427L 296.419 187.936C 296.096 189.21 295.759 190.472 295.404 191.733L 297.329 192.275ZM 299.282 184.56C 299.573 183.27 299.849 181.966 300.107 180.664L 298.145 180.275C 297.89 181.565 297.619 182.843 297.331 184.12L 299.282 184.56ZM 300.827 176.753C 301.05 175.449 301.256 174.134 301.446 172.819L 299.466 172.535C 299.279 173.836 299.076 175.126 298.856 176.416L 300.827 176.753ZM 301.96 168.875C 302.114 167.563 302.251 166.239 302.371 164.916L 300.38 164.735C 300.261 166.045 300.126 167.343 299.973 168.643L 301.96 168.875ZM 302.68 160.95C 302.765 159.632 302.833 158.303 302.885 156.976L 300.886 156.898C 300.835 158.212 300.768 159.516 300.684 160.821L 302.68 160.95ZM 302.987 152.998C 302.996 152.334 303 151.666 303 151L 301 151C 301 151.66 300.996 152.315 300.987 152.972L 302.987 152.998ZM 304 151C 304 150.331 303.996 149.656 303.987 148.989L 299.987 149.041C 299.996 149.695 300 150.344 300 151L 304 151ZM 303.884 144.986C 303.832 143.652 303.763 142.31 303.677 140.986L 299.686 141.244C 299.77 142.542 299.836 143.833 299.887 145.14L 303.884 144.986ZM 303.367 136.994C 303.247 135.664 303.108 134.327 302.953 133.008L 298.98 133.474C 299.132 134.767 299.265 136.052 299.384 137.355L 303.367 136.994ZM 302.435 129.038C 302.245 127.717 302.036 126.389 301.813 125.079L 297.87 125.752C 298.089 127.036 298.29 128.313 298.476 129.608L 302.435 129.038ZM 301.088 121.142C 300.829 119.833 300.55 118.517 300.258 117.22L 296.356 118.099C 296.642 119.371 296.91 120.635 297.164 121.919L 301.088 121.142ZM 299.327 113.328C 298.999 112.034 298.652 110.734 298.291 109.454L 294.441 110.538C 294.794 111.793 295.128 113.042 295.449 114.31L 299.327 113.328ZM 297.156 105.617C 296.761 104.342 296.345 103.062 295.918 101.802L 292.13 103.088C 292.549 104.323 292.949 105.553 293.336 106.802L 297.156 105.617ZM 294.582 98.0294C 294.12 96.7781 293.637 95.5221 293.144 94.2865L 289.429 95.7699C 289.913 96.9811 290.376 98.1878 290.829 99.4143L 294.582 98.0294ZM 291.61 90.588C 291.083 89.3635 290.536 88.1353 289.978 86.9276L 286.346 88.6046C 286.893 89.7884 287.419 90.9685 287.936 92.1688L 291.61 90.588ZM 288.251 83.314C 287.661 82.1195 287.05 80.9222 286.43 79.7457L 282.891 81.6112C 283.499 82.7644 284.087 83.915 284.665 85.0858L 288.251 83.314ZM 284.515 76.227C 283.863 75.0656 283.19 73.9023 282.509 72.7601L 279.073 74.8084C 279.741 75.9282 280.388 77.0461 281.027 78.1846L 284.515 76.227ZM 280.413 69.346C 279.701 68.2208 278.968 67.0945 278.228 65.9894L 274.904 68.2147C 275.63 69.298 276.334 70.3805 277.032 71.4836L 280.413 69.346ZM 275.956 62.6894C 275.187 61.6031 274.396 60.5167 273.6 59.4517L 270.396 61.8474C 271.177 62.8915 271.937 63.9357 272.691 65.0007L 275.956 62.6894ZM 271.158 56.2747C 270.334 55.2299 269.487 54.1861 268.636 53.1637L 265.562 55.7231C 266.397 56.7255 267.21 57.7288 268.019 58.7531L 271.158 56.2747ZM 266.033 50.1188C 265.155 49.1185 264.255 48.12 263.352 47.1431L 260.415 49.859C 261.301 50.8168 262.166 51.7765 263.027 52.7573L 266.033 50.1188ZM 260.594 44.238C 259.665 43.2848 258.715 42.3345 257.762 41.4058L 254.971 44.2707C 255.905 45.1813 256.819 46.0948 257.729 47.0294L 260.594 44.238ZM 254.857 38.648C 253.88 37.7446 252.882 36.845 251.881 35.967L 249.243 38.9734C 250.223 39.8341 251.183 40.6988 252.141 41.5846L 254.857 38.648ZM 248.836 33.3639C 247.814 32.5128 246.77 31.6665 245.725 30.8417L 243.247 33.9813C 244.271 34.7899 245.275 35.6034 246.277 36.438L 248.836 33.3639ZM 242.548 28.4003C 241.483 27.6038 240.397 26.8131 239.311 26.044L 236.999 29.3086C 238.064 30.0626 239.108 30.8225 240.153 31.6035L 242.548 28.4003ZM 236.011 23.7717C 234.906 23.0319 233.779 22.299 232.654 21.5875L 230.516 24.9684C 231.62 25.6658 232.702 26.3702 233.785 27.0956L 236.011 23.7717ZM 229.24 19.4909C 228.098 18.8099 226.934 18.1368 225.773 17.485L 223.815 20.9732C 224.954 21.6121 226.072 22.259 227.192 22.9266L 229.24 19.4909ZM 222.254 15.5705C 221.078 14.9503 219.88 14.339 218.686 13.7488L 216.914 17.3349C 218.085 17.9134 219.236 18.5008 220.389 19.1089L 222.254 15.5705ZM 215.072 12.022C 213.865 11.4644 212.636 10.9167 211.412 10.3898L 209.831 14.0642C 211.031 14.5806 212.212 15.1068 213.395 15.6535L 215.072 12.022ZM 207.714 8.85613C 206.478 8.36274 205.222 7.88026 203.971 7.41841L 202.586 11.171C 203.812 11.6236 205.019 12.0872 206.23 12.5709L 207.714 8.85613ZM 200.198 6.08231C 198.938 5.6547 197.658 5.23898 196.383 4.84356L 195.198 8.66401C 196.447 9.05149 197.677 9.45089 198.912 9.87012L 200.198 6.08231ZM 192.546 3.70872C 191.266 3.34833 189.966 3.00077 188.672 2.67312L 187.69 6.55074C 188.958 6.87181 190.207 7.20572 191.462 7.55907L 192.546 3.70872ZM 184.78 1.74199C 183.483 1.44973 182.167 1.17123 180.858 0.912166L 180.081 4.83612C 181.365 5.08996 182.629 5.35756 183.901 5.64412L 184.78 1.74199ZM 176.921 0.187028C 175.611 -0.0364793 174.283 -0.245365 172.962 -0.435325L 172.392 3.52397C 173.687 3.7101 174.964 3.91083 176.248 4.13002L 176.921 0.187028ZM 168.992 -0.953115C 167.673 -1.1076 166.336 -1.24665 165.006 -1.36734L 164.645 2.61628C 165.948 2.73452 167.233 2.86817 168.526 3.01971L 168.992 -0.953115ZM 161.014 -1.67743C 159.69 -1.76298 158.348 -1.83233 157.014 -1.88393L 156.86 2.11308C 158.167 2.16359 159.458 2.23027 160.756 2.31424L 161.014 -1.67743ZM 153.011 -1.98705C 152.344 -1.99564 151.669 -1.99999 151 -2L 151 2C 151.656 1.99999 152.305 2.00418 152.959 2.01262L 153.011 -1.98705ZM 151 -2C 150.331 -1.99999 149.656 -1.99564 148.989 -1.98705L 149.041 2.01262C 149.695 2.00418 150.344 1.99999 151 2L 151 -2ZM 144.986 -1.88393C 143.652 -1.83233 142.31 -1.76298 140.986 -1.67743L 141.244 2.31424C 142.542 2.23027 143.833 2.16359 145.14 2.11308L 144.986 -1.88393ZM 136.994 -1.36734C 135.664 -1.24665 134.327 -1.1076 133.008 -0.953114L 133.474 3.01971C 134.767 2.86817 136.052 2.73452 137.355 2.61628L 136.994 -1.36734ZM 129.038 -0.435324C 127.717 -0.245364 126.389 -0.0364788 125.079 0.187028L 125.752 4.13002C 127.036 3.91083 128.313 3.7101 129.608 3.52397L 129.038 -0.435324ZM 121.142 0.912165C 119.833 1.17123 118.517 1.44973 117.22 1.74199L 118.099 5.64412C 119.371 5.35756 120.635 5.08996 121.919 4.83612L 121.142 0.912165ZM 113.328 2.67312C 112.034 3.00077 110.734 3.34833 109.454 3.70872L 110.538 7.55907C 111.793 7.20572 113.042 6.87181 114.31 6.55074L 113.328 2.67312ZM 105.617 4.84357C 104.342 5.23898 103.062 5.6547 101.802 6.08232L 103.088 9.87012C 104.323 9.45089 105.553 9.05149 106.802 8.66401L 105.617 4.84357ZM 98.0294 7.41841C 96.7781 7.88026 95.5221 8.36274 94.2865 8.85613L 95.7699 12.5709C 96.9811 12.0872 98.1878 11.6236 99.4143 11.171L 98.0294 7.41841ZM 90.588 10.3898C 89.3635 10.9167 88.1353 11.4644 86.9276 12.022L 88.6046 15.6535C 89.7884 15.1068 90.9685 14.5806 92.1688 14.0642L 90.588 10.3898ZM 83.314 13.7488C 82.1195 14.339 80.9222 14.9503 79.7457 15.5705L 81.6112 19.1089C 82.7644 18.5008 83.915 17.9134 85.0858 17.3349L 83.314 13.7488ZM 76.227 17.485C 75.0656 18.1368 73.9023 18.8099 72.7601 19.4909L 74.8084 22.9266C 75.9282 22.259 77.0461 21.6121 78.1846 20.9732L 76.227 17.485ZM 69.346 21.5875C 68.2208 22.299 67.0945 23.0319 65.9894 23.7717L 68.2147 27.0956C 69.298 26.3702 70.3805 25.6658 71.4836 24.9684L 69.346 21.5875ZM 62.6894 26.044C 61.6031 26.8131 60.5167 27.6038 59.4517 28.4003L 61.8474 31.6035C 62.8915 30.8225 63.9357 30.0626 65.0007 29.3086L 62.6894 26.044ZM 56.2747 30.8417C 55.2299 31.6665 54.1861 32.5128 53.1637 33.3639L 55.7231 36.438C 56.7255 35.6034 57.7288 34.7899 58.7531 33.9813L 56.2747 30.8417ZM 50.1188 35.967C 49.1185 36.845 48.12 37.7446 47.1431 38.648L 49.859 41.5847C 50.8168 40.6988 51.7765 39.8341 52.7573 38.9734L 50.1188 35.967ZM 44.238 41.4058C 43.2848 42.3345 42.3345 43.2848 41.4058 44.238L 44.2707 47.0294C 45.1813 46.0948 46.0948 45.1813 47.0294 44.2707L 44.238 41.4058ZM 38.648 47.1431C 37.7446 48.12 36.845 49.1185 35.967 50.1188L 38.9734 52.7573C 39.8341 51.7765 40.6988 50.8168 41.5846 49.859L 38.648 47.1431ZM 33.3639 53.1637C 32.5128 54.1861 31.6665 55.2299 30.8417 56.2747L 33.9813 58.7531C 34.7899 57.7288 35.6034 56.7255 36.438 55.7231L 33.3639 53.1637ZM 28.4003 59.4517C 27.6038 60.5167 26.8131 61.6031 26.044 62.6894L 29.3086 65.0007C 30.0626 63.9357 30.8225 62.8915 31.6035 61.8474L 28.4003 59.4517ZM 23.7717 65.9894C 23.0319 67.0945 22.299 68.2208 21.5875 69.346L 24.9684 71.4836C 25.6658 70.3805 26.3702 69.298 27.0956 68.2147L 23.7717 65.9894ZM 19.4909 72.7601C 18.8099 73.9024 18.1368 75.0656 17.485 76.227L 20.9732 78.1846C 21.6121 77.0461 22.259 75.9282 22.9266 74.8084L 19.4909 72.7601ZM 15.5705 79.7457C 14.9503 80.9222 14.339 82.1195 13.7488 83.314L 17.3349 85.0858C 17.9134 83.915 18.5008 82.7644 19.1089 81.6112L 15.5705 79.7457ZM 12.022 86.9276C 11.4644 88.1353 10.9167 89.3635 10.3898 90.588L 14.0642 92.1688C 14.5806 90.9685 15.1068 89.7884 15.6535 88.6046L 12.022 86.9276ZM 8.85613 94.2865C 8.36274 95.5221 7.88026 96.7781 7.41841 98.0294L 11.171 99.4143C 11.6236 98.1878 12.0872 96.9811 12.5709 95.7699L 8.85613 94.2865ZM 6.08231 101.802C 5.6547 103.062 5.23898 104.342 4.84356 105.617L 8.66401 106.802C 9.05149 105.553 9.45089 104.323 9.87012 103.088L 6.08231 101.802ZM 3.70872 109.454C 3.34833 110.734 3.00077 112.034 2.67312 113.328L 6.55074 114.31C 6.87181 113.042 7.20572 111.793 7.55907 110.538L 3.70872 109.454ZM 1.74199 117.22C 1.44973 118.517 1.17123 119.833 0.912166 121.142L 4.83612 121.919C 5.08996 120.635 5.35756 119.371 5.64412 118.099L 1.74199 117.22ZM 0.187028 125.079C -0.0364793 126.389 -0.245365 127.717 -0.435325 129.038L 3.52397 129.608C 3.7101 128.313 3.91083 127.036 4.13002 125.752L 0.187028 125.079ZM -0.953115 133.008C -1.1076 134.327 -1.24665 135.664 -1.36734 136.994L 2.61628 137.355C 2.73452 136.052 2.86817 134.767 3.01971 133.474L -0.953115 133.008ZM -1.67743 140.986C -1.76298 142.31 -1.83233 143.652 -1.88393 144.986L 2.11308 145.14C 2.16359 143.833 2.23027 142.542 2.31424 141.244L -1.67743 140.986ZM -1.98705 148.989C -1.99564 149.656 -1.99999 150.331 -2 151L 2 151C 1.99999 150.344 2.00418 149.695 2.01262 149.041L -1.98705 148.989ZM -2 151C -1.99999 151.669 -1.99564 152.344 -1.98705 153.011L 2.01262 152.959C 2.00418 152.305 1.99999 151.656 2 151L -2 151ZM -1.88393 157.014C -1.83233 158.348 -1.76298 159.69 -1.67743 161.014L 2.31424 160.756C 2.23027 159.458 2.16359 158.167 2.11308 156.86L -1.88393 157.014ZM -1.36734 165.006C -1.24665 166.336 -1.1076 167.673 -0.953114 168.992L 3.01971 168.526C 2.86817 167.233 2.73452 165.948 2.61628 164.645L -1.36734 165.006ZM -0.435324 172.962C -0.245364 174.283 -0.0364788 175.611 0.187028 176.921L 4.13002 176.248C 3.91083 174.964 3.7101 173.687 3.52397 172.392L -0.435324 172.962ZM 0.912165 180.858C 1.17123 182.167 1.44973 183.483 1.74199 184.78L 5.64412 183.901C 5.35756 182.629 5.08996 181.365 4.83612 180.081L 0.912165 180.858ZM 2.67312 188.672C 3.00077 189.966 3.34833 191.266 3.70872 192.546L 7.55907 191.462C 7.20572 190.207 6.87181 188.958 6.55074 187.69L 2.67312 188.672ZM 4.84357 196.383C 5.23898 197.658 5.6547 198.938 6.08232 200.198L 9.87012 198.912C 9.45089 197.677 9.05149 196.447 8.66401 195.198L 4.84357 196.383ZM 7.41841 203.971C 7.88026 205.222 8.36274 206.478 8.85613 207.714L 12.5709 206.23C 12.0872 205.019 11.6236 203.812 11.171 202.586L 7.41841 203.971ZM 10.3898 211.412C 10.9167 212.636 11.4644 213.865 12.022 215.072L 15.6535 213.395C 15.1068 212.212 14.5806 211.031 14.0642 209.831L 10.3898 211.412ZM 13.7488 218.686C 14.339 219.88 14.9503 221.078 15.5705 222.254L 19.1089 220.389C 18.5008 219.236 17.9134 218.085 17.3349 216.914L 13.7488 218.686ZM 17.485 225.773C 18.1368 226.934 18.8099 228.098 19.4909 229.24L 22.9266 227.192C 22.259 226.072 21.6121 224.954 20.9732 223.815L 17.485 225.773ZM 21.5875 232.654C 22.299 233.779 23.0319 234.906 23.7717 236.011L 27.0956 233.785C 26.3702 232.702 25.6658 231.62 24.9684 230.516L 21.5875 232.654ZM 26.044 239.311C 26.8131 240.397 27.6038 241.483 28.4003 242.548L 31.6035 240.153C 30.8225 239.108 30.0626 238.064 29.3086 236.999L 26.044 239.311ZM 30.8417 245.725C 31.6665 246.77 32.5128 247.814 33.3639 248.836L 36.438 246.277C 35.6034 245.275 34.7899 244.271 33.9813 243.247L 30.8417 245.725ZM 35.967 251.881C 36.845 252.882 37.7446 253.88 38.648 254.857L 41.5847 252.141C 40.6988 251.183 39.8341 250.223 38.9734 249.243L 35.967 251.881ZM 41.4058 257.762C 42.3345 258.715 43.2848 259.665 44.238 260.594L 47.0294 257.729C 46.0948 256.819 45.1813 255.905 44.2707 254.971L 41.4058 257.762ZM 47.1431 263.352C 48.12 264.255 49.1185 265.155 50.1188 266.033L 52.7573 263.027C 51.7765 262.166 50.8168 261.301 49.859 260.415L 47.1431 263.352ZM 53.1637 268.636C 54.1861 269.487 55.2299 270.334 56.2747 271.158L 58.7531 268.019C 57.7288 267.21 56.7255 266.397 55.7231 265.562L 53.1637 268.636ZM 59.4517 273.6C 60.5167 274.396 61.6031 275.187 62.6894 275.956L 65.0007 272.691C 63.9357 271.937 62.8915 271.177 61.8474 270.396L 59.4517 273.6ZM 65.9894 278.228C 67.0945 278.968 68.2208 279.701 69.346 280.413L 71.4836 277.032C 70.3805 276.334 69.298 275.63 68.2147 274.904L 65.9894 278.228ZM 72.7601 282.509C 73.9024 283.19 75.0656 283.863 76.227 284.515L 78.1846 281.027C 77.0461 280.388 75.9282 279.741 74.8084 279.073L 72.7601 282.509ZM 79.7457 286.43C 80.9222 287.05 82.1195 287.661 83.314 288.251L 85.0858 284.665C 83.915 284.087 82.7644 283.499 81.6112 282.891L 79.7457 286.43ZM 86.9276 289.978C 88.1353 290.536 89.3635 291.083 90.588 291.61L 92.1688 287.936C 90.9685 287.419 89.7884 286.893 88.6046 286.346L 86.9276 289.978ZM 94.2865 293.144C 95.5221 293.637 96.7781 294.12 98.0294 294.582L 99.4143 290.829C 98.1878 290.376 96.9811 289.913 95.7699 289.429L 94.2865 293.144ZM 101.802 295.918C 103.062 296.345 104.342 296.761 105.617 297.156L 106.802 293.336C 105.553 292.949 104.323 292.549 103.088 292.13L 101.802 295.918ZM 109.454 298.291C 110.734 298.652 112.034 298.999 113.328 299.327L 114.31 295.449C 113.042 295.128 111.793 294.794 110.538 294.441L 109.454 298.291ZM 117.22 300.258C 118.517 300.55 119.833 300.829 121.142 301.088L 121.919 297.164C 120.635 296.91 119.371 296.642 118.099 296.356L 117.22 300.258ZM 125.079 301.813C 126.389 302.036 127.717 302.245 129.038 302.435L 129.608 298.476C 128.313 298.29 127.036 298.089 125.752 297.87L 125.079 301.813ZM 133.008 302.953C 134.327 303.108 135.664 303.247 136.994 303.367L 137.355 299.384C 136.052 299.265 134.767 299.132 133.474 298.98L 133.008 302.953ZM 140.986 303.677C 142.31 303.763 143.652 303.832 144.986 303.884L 145.14 299.887C 143.833 299.836 142.542 299.77 141.244 299.686L 140.986 303.677ZM 148.989 303.987C 149.656 303.996 150.331 304 151 304L 151 300C 150.344 300 149.695 299.996 149.041 299.987L 148.989 303.987ZM 151 304C 151.669 304 152.344 303.996 153.011 303.987L 152.959 299.987C 152.305 299.996 151.656 300 151 300L 151 304ZM 157.014 303.884C 158.348 303.832 159.69 303.763 161.014 303.677L 160.756 299.686C 159.458 299.77 158.167 299.836 156.86 299.887L 157.014 303.884ZM 165.006 303.367C 166.336 303.247 167.673 303.108 168.992 302.953L 168.526 298.98C 167.233 299.132 165.948 299.265 164.645 299.384L 165.006 303.367ZM 172.962 302.435C 174.283 302.245 175.611 302.036 176.921 301.813L 176.248 297.87C 174.964 298.089 173.687 298.29 172.392 298.476L 172.962 302.435ZM 180.858 301.088C 182.167 300.829 183.483 300.55 184.78 300.258L 183.901 296.356C 182.629 296.642 181.365 296.91 180.081 297.164L 180.858 301.088ZM 188.672 299.327C 189.966 298.999 191.266 298.652 192.546 298.291L 191.462 294.441C 190.207 294.794 188.958 295.128 187.69 295.449L 188.672 299.327ZM 196.383 297.156C 197.658 296.761 198.938 296.345 200.198 295.918L 198.912 292.13C 197.677 292.549 196.447 292.949 195.198 293.336L 196.383 297.156ZM 203.971 294.582C 205.222 294.12 206.478 293.637 207.714 293.144L 206.23 289.429C 205.019 289.913 203.812 290.376 202.586 290.829L 203.971 294.582ZM 211.412 291.61C 212.636 291.083 213.865 290.536 215.072 289.978L 213.395 286.346C 212.212 286.893 211.031 287.419 209.831 287.936L 211.412 291.61ZM 218.686 288.251C 219.88 287.661 221.078 287.05 222.254 286.43L 220.389 282.891C 219.236 283.499 218.085 284.087 216.914 284.665L 218.686 288.251ZM 225.773 284.515C 226.934 283.863 228.098 283.19 229.24 282.509L 227.192 279.073C 226.072 279.741 224.954 280.388 223.815 281.027L 225.773 284.515ZM 232.654 280.413C 233.779 279.701 234.906 278.968 236.011 278.228L 233.785 274.904C 232.702 275.63 231.62 276.334 230.516 277.032L 232.654 280.413ZM 239.311 275.956C 240.397 275.187 241.483 274.396 242.548 273.6L 240.153 270.396C 239.108 271.177 238.064 271.937 236.999 272.691L 239.311 275.956ZM 245.725 271.158C 246.77 270.334 247.814 269.487 248.836 268.636L 246.277 265.562C 245.275 266.397 244.271 267.21 243.247 268.019L 245.725 271.158ZM 251.881 266.033C 252.882 265.155 253.88 264.255 254.857 263.352L 252.141 260.415C 251.183 261.301 250.223 262.166 249.243 263.027L 251.881 266.033ZM 257.762 260.594C 258.715 259.665 259.665 258.715 260.594 257.762L 257.729 254.971C 256.819 255.905 255.905 256.819 254.971 257.729L 257.762 260.594ZM 263.352 254.857C 264.255 253.88 265.155 252.882 266.033 251.881L 263.027 249.243C 262.166 250.223 261.301 251.183 260.415 252.141L 263.352 254.857ZM 268.636 248.836C 269.487 247.814 270.334 246.77 271.158 245.725L 268.019 243.247C 267.21 244.271 266.397 245.275 265.562 246.277L 268.636 248.836ZM 273.6 242.548C 274.396 241.483 275.187 240.397 275.956 239.311L 272.691 236.999C 271.937 238.064 271.177 239.108 270.396 240.153L 273.6 242.548ZM 278.228 236.011C 278.968 234.906 279.701 233.779 280.413 232.654L 277.032 230.516C 276.334 231.62 275.63 232.702 274.904 233.785L 278.228 236.011ZM 282.509 229.24C 283.19 228.098 283.863 226.934 284.515 225.773L 281.027 223.815C 280.388 224.954 279.741 226.072 279.073 227.192L 282.509 229.24ZM 286.43 222.254C 287.05 221.078 287.661 219.88 288.251 218.686L 284.665 216.914C 284.087 218.085 283.499 219.236 282.891 220.389L 286.43 222.254ZM 289.978 215.072C 290.536 213.865 291.083 212.636 291.61 211.412L 287.936 209.831C 287.419 211.031 286.893 212.212 286.346 213.395L 289.978 215.072ZM 293.144 207.714C 293.637 206.478 294.12 205.222 294.582 203.971L 290.829 202.586C 290.376 203.812 289.913 205.019 289.429 206.23L 293.144 207.714ZM 295.918 200.198C 296.345 198.938 296.761 197.658 297.156 196.383L 293.336 195.198C 292.949 196.447 292.549 197.677 292.13 198.912L 295.918 200.198ZM 298.291 192.546C 298.652 191.266 298.999 189.966 299.327 188.672L 295.449 187.69C 295.128 188.958 294.794 190.207 294.441 191.462L 298.291 192.546ZM 300.258 184.78C 300.55 183.483 300.829 182.167 301.088 180.858L 297.164 180.081C 296.91 181.365 296.642 182.629 296.356 183.901L 300.258 184.78ZM 301.813 176.921C 302.036 175.611 302.245 174.283 302.435 172.962L 298.476 172.392C 298.29 173.687 298.089 174.964 297.87 176.248L 301.813 176.921ZM 302.953 168.992C 303.108 167.673 303.247 166.336 303.367 165.006L 299.384 164.645C 299.265 165.948 299.132 167.233 298.98 168.526L 302.953 168.992ZM 303.677 161.014C 303.763 159.69 303.832 158.348 303.884 157.014L 299.887 156.86C 299.836 158.167 299.77 159.458 299.686 160.756L 303.677 161.014ZM 303.987 153.011C 303.996 152.344 304 151.669 304 151L 300 151C 300 151.656 299.996 152.305 299.987 152.959L 303.987 153.011Z"/>
<path id="path4_fill" d="M 30.3141 21.3999C 31.1042 20.3464 31.4993 19.0953 31.3676 17.7784C 31.0384 14.0252 28.6679 4.80675 27.6144 0.987689C 27.4827 0.395076 26.9559 1.25591e-07 26.3633 1.25591e-07L 5.02924 1.25591e-07C 4.43663 1.25591e-07 3.90986 0.395076 3.77817 0.987689C 2.72464 4.8726 0.354186 14.0252 0.0249561 17.7784C -0.106736 19.0953 0.288339 20.3464 1.07849 21.3999C 2.98802 23.9021 8.71661 29.1039 14.5111 29.7623L 14.5111 45.0386L 3.3831 47.6724C 2.5271 47.87 2.00033 48.5943 2.13202 49.4503C 2.19787 50.3063 2.92217 50.8989 3.77817 50.8989L 27.9436 50.8989C 28.7996 50.8989 29.4581 50.3063 29.5898 49.4503C 29.6556 48.5943 29.1288 47.87 28.3387 47.6724L 17.2107 45.0386L 17.2107 29.7623C 22.8076 28.9722 28.4704 23.8362 30.3141 21.3999ZM 15.6963 27.2602C 10.8237 27.2602 5.16094 22.4535 3.18556 19.8196C 2.79048 19.2928 2.59295 18.6344 2.65879 17.9759C 2.92218 14.947 4.76586 7.37474 6.08278 2.63384L 25.3756 2.63384C 26.6925 7.44059 28.5362 15.0129 28.7996 17.9759C 28.8655 18.6344 28.6679 19.2928 28.2728 19.8196C 26.2316 22.3876 20.5689 27.2602 15.6963 27.2602Z"/>
<path id="path5_stroke" d="M 0.947145 -0.320807C 0.769968 -0.843901 0.202287 -1.12432 -0.320807 -0.947145C -0.843901 -0.769968 -1.12432 -0.202287 -0.947145 0.320807L 0.947145 -0.320807ZM 10.8584 0L 11.8056 -0.320807C 11.673 -0.712198 11.3133 -0.981737 10.9005 -0.999115C 10.4876 -1.01649 10.1066 -0.778133 9.94159 -0.399267L 10.8584 0ZM 21.7169 0L 22.664 -0.320807C 22.5314 -0.712198 22.1718 -0.981737 21.7589 -0.999115C 21.346 -1.01649 20.965 -0.778133 20.8 -0.399267L 21.7169 0ZM 32.5753 0L 33.5224 -0.320807C 33.3899 -0.712198 33.0302 -0.981737 32.6173 -0.999115C 32.2045 -1.01649 31.8234 -0.778133 31.6584 -0.399267L 32.5753 0ZM 43.4337 0L 44.3809 -0.320807C 44.2483 -0.712198 43.8886 -0.981736 43.4758 -0.999115C 43.0629 -1.01649 42.6819 -0.778133 42.5169 -0.399267L 43.4337 0ZM 55.209 0.399267C 55.4295 -0.107087 55.1978 -0.696325 54.6914 -0.916835C 54.185 -1.13734 53.5958 -0.905621 53.3753 -0.399267L 55.209 0.399267ZM 0 0C -0.947145 0.320807 -0.94699 0.321264 -0.94683 0.321734C -0.94677 0.321911 -0.946605 0.322397 -0.946485 0.32275C -0.946345 0.32316 -0.945982 0.324221 -0.945701 0.325042C -0.94534 0.326093 -0.944487 0.328569 -0.943759 0.330669C -0.942714 0.333677 -0.94049 0.340022 -0.938363 0.34601C -0.934954 0.355577 -0.928394 0.373672 -0.921378 0.392464C -0.909138 0.42513 -0.887201 0.481649 -0.861496 0.543812C -0.814087 0.657904 -0.731806 0.84192 -0.628471 1.04304C -0.431514 1.4234 -0.0839818 1.9919 0.377004 2.52684C 1.33082 3.62197 2.89948 4.74013 5.24824 4.74013L 5.24824 2.74013C 3.61558 2.74013 2.56011 1.98822 1.88517 1.21328C 1.53177 0.813196 1.31376 0.446663 1.14877 0.125752C 1.07113 -0.0237676 1.02334 -0.131949 0.985915 -0.222395C 0.969204 -0.262501 0.960037 -0.286336 0.951776 -0.308458C 0.948542 -0.317059 0.947502 -0.319966 0.945874 -0.324551C 0.945483 -0.32564 0.945423 -0.325834 0.945626 -0.325247C 0.945522 -0.325549 0.946216 -0.323536 0.946166 -0.32368C 0.94604 -0.324048 0.946663 -0.322225 0.946601 -0.322408C 0.946682 -0.322169 0.946818 -0.321768 0.946859 -0.321649C 0.946999 -0.321235 0.947145 -0.320807 0 0ZM 5.24824 4.74013C 7.58603 4.74013 9.23224 3.63264 10.265 2.56548C 10.7698 2.0394 11.1628 1.48375 11.3943 1.10696C 11.5154 0.908767 11.6132 0.728944 11.671 0.616109C 11.7021 0.555082 11.7287 0.500222 11.7438 0.468081C 11.7525 0.449788 11.7604 0.432431 11.7646 0.423103C 11.7672 0.417349 11.7699 0.411353 11.7712 0.408458C 11.7721 0.406472 11.7731 0.404165 11.7736 0.403171C 11.7739 0.402405 11.7743 0.401427 11.7745 0.401044C 11.7746 0.400719 11.7748 0.400274 11.7749 0.400112C 11.7751 0.399682 11.7753 0.399267 10.8584 0C 9.94159 -0.399267 9.94176 -0.399654 9.94192 -0.400026C 9.94197 -0.400132 9.94213 -0.400491 9.94222 -0.400703C 9.94215 -0.400548 9.94284 -0.40212 9.9427 -0.401808C 9.94266 -0.40172 9.94333 -0.403226 9.94325 -0.403037C 9.94356 -0.403738 9.94322 -0.402967 9.94262 -0.401645C 9.94044 -0.39682 9.93878 -0.393175 9.93448 -0.384075C 9.92383 -0.361429 9.91154 -0.335934 9.89038 -0.294692C 9.84355 -0.202989 9.78297 -0.0906147 9.68912 0.0618325C 9.49081 0.386313 9.22781 0.765696 8.82776 1.17464C 8.05076 1.97755 6.89187 2.74013 5.24824 2.74013L 5.24824 4.74013ZM 10.8584 0C 9.91128 0.320807 9.91144 0.321264 9.9116 0.321734C 9.91166 0.321911 9.91182 0.322397 9.91194 0.32275C 9.91208 0.32316 9.91244 0.324221 9.91273 0.325043C 9.91309 0.326093 9.91394 0.328569 9.91467 0.330669C 9.91571 0.333677 9.91794 0.340022 9.92006 0.34601C 9.92347 0.355577 9.93003 0.373672 9.93705 0.392465C 9.94929 0.42513 9.97123 0.481649 9.99693 0.543812C 10.0443 0.657905 10.1266 0.84192 10.23 1.04304C 10.4269 1.4234 10.7744 1.9919 11.2354 2.52684C 12.1893 3.62197 13.7579 4.74013 16.1067 4.74013L 16.1067 2.74013C 14.474 2.74013 13.4185 1.98822 12.7436 1.21328C 12.3902 0.813195 12.1722 0.446663 12.0072 0.125752C 11.9296 -0.0237678 11.8818 -0.131949 11.8443 -0.222395C 11.8276 -0.262501 11.8185 -0.286337 11.8102 -0.308458C 11.807 -0.317059 11.8059 -0.319966 11.8043 -0.324551C 11.8039 -0.32564 11.8038 -0.325834 11.8041 -0.325247C 11.8039 -0.325549 11.8046 -0.323536 11.8046 -0.32368C 11.8045 -0.324048 11.8051 -0.322225 11.805 -0.322408C 11.8051 -0.322169 11.8052 -0.321768 11.8053 -0.321649C 11.8054 -0.321235 11.8056 -0.320807 10.8584 0ZM 16.1067 4.74013C 18.4445 4.74013 20.0907 3.63264 21.1234 2.56548C 21.6282 2.0394 22.0213 1.48375 22.2528 1.10696C 22.3738 0.908767 22.4716 0.728943 22.5294 0.616109C 22.5605 0.555082 22.5871 0.500222 22.6023 0.468081C 22.6109 0.449788 22.6188 0.432431 22.6231 0.423103C 22.6257 0.417349 22.6284 0.411353 22.6296 0.408458C 22.6305 0.406472 22.6315 0.404165 22.632 0.40317C 22.6323 0.402405 22.6327 0.401427 22.6329 0.401044C 22.6331 0.400719 22.6332 0.400274 22.6333 0.400112C 22.6335 0.399682 22.6337 0.399267 21.7169 0C 20.8 -0.399267 20.8002 -0.399654 20.8003 -0.400026C 20.8004 -0.400132 20.8006 -0.400491 20.8006 -0.400703C 20.8006 -0.400548 20.8013 -0.40212 20.8011 -0.401808C 20.8011 -0.40172 20.8018 -0.403226 20.8017 -0.403037C 20.802 -0.403738 20.8016 -0.402967 20.801 -0.401645C 20.7989 -0.396819 20.7972 -0.393175 20.7929 -0.384075C 20.7823 -0.361429 20.77 -0.335934 20.7488 -0.294692C 20.702 -0.202988 20.6414 -0.0906146 20.5475 0.0618326C 20.3492 0.386313 20.0862 0.765696 19.6862 1.17464C 18.9092 1.97755 17.7503 2.74013 16.1067 2.74013L 16.1067 4.74013ZM 21.7169 0C 20.7697 0.320807 20.7699 0.321264 20.77 0.321734C 20.7701 0.321911 20.7702 0.322397 20.7704 0.32275C 20.7705 0.32316 20.7709 0.324221 20.7712 0.325043C 20.7715 0.326093 20.7724 0.328569 20.7731 0.330669C 20.7741 0.333677 20.7764 0.340022 20.7785 0.34601C 20.7819 0.355577 20.7885 0.373672 20.7955 0.392465C 20.8077 0.42513 20.8297 0.481649 20.8554 0.543812C 20.9028 0.657905 20.985 0.84192 21.0884 1.04304C 21.2853 1.4234 21.6329 1.9919 22.0939 2.52684C 23.0477 3.62197 24.6163 4.74013 26.9651 4.74013L 26.9651 2.74013C 25.3324 2.74013 24.277 1.98822 23.602 1.21328C 23.2486 0.813195 23.0306 0.446663 22.8656 0.125752C 22.788 -0.0237678 22.7402 -0.131949 22.7028 -0.222395C 22.6861 -0.262501 22.6769 -0.286337 22.6686 -0.308458C 22.6654 -0.317059 22.6644 -0.319966 22.6627 -0.324551C 22.6623 -0.32564 22.6623 -0.325834 22.6625 -0.325247C 22.6624 -0.325549 22.6631 -0.323536 22.663 -0.32368C 22.6629 -0.324048 22.6635 -0.322225 22.6635 -0.322408C 22.6635 -0.322169 22.6637 -0.321768 22.6637 -0.321649C 22.6639 -0.321235 22.664 -0.320807 21.7169 0ZM 26.9651 4.74013C 29.3029 4.74013 30.9491 3.63264 31.9818 2.56548C 32.4866 2.0394 32.8797 1.48375 33.1112 1.10696C 33.2322 0.908767 33.33 0.728943 33.3878 0.616109C 33.419 0.555082 33.4456 0.500222 33.4607 0.468081C 33.4693 0.449788 33.4773 0.432431 33.4815 0.423103C 33.4841 0.417349 33.4868 0.411353 33.4881 0.408458C 33.489 0.406472 33.49 0.404165 33.4904 0.40317C 33.4907 0.402405 33.4912 0.401427 33.4913 0.401044C 33.4915 0.400719 33.4917 0.400274 33.4917 0.400112C 33.4919 0.399682 33.4921 0.399267 32.5753 0C 31.6584 -0.399267 31.6586 -0.399654 31.6588 -0.400026C 31.6588 -0.400132 31.659 -0.400491 31.6591 -0.400703C 31.659 -0.400548 31.6597 -0.40212 31.6596 -0.401808C 31.6595 -0.40172 31.6602 -0.403226 31.6601 -0.403037C 31.6604 -0.403738 31.6601 -0.402967 31.6595 -0.401645C 31.6573 -0.396819 31.6556 -0.393175 31.6513 -0.384075C 31.6407 -0.361429 31.6284 -0.335934 31.6072 -0.294692C 31.5604 -0.202988 31.4998 -0.0906146 31.406 0.0618326C 31.2077 0.386313 30.9447 0.765696 30.5446 1.17464C 29.7676 1.97755 28.6087 2.74013 26.9651 2.74013L 26.9651 4.74013ZM 32.5753 0C 31.6281 0.320807 31.6283 0.321263 31.6284 0.321734C 31.6285 0.32191 31.6287 0.322396 31.6288 0.322749C 31.6289 0.323159 31.6293 0.324221 31.6296 0.325042C 31.6299 0.326092 31.6308 0.328568 31.6315 0.330668C 31.6326 0.333677 31.6348 0.340021 31.6369 0.346009C 31.6403 0.355577 31.6469 0.373672 31.6539 0.392464C 31.6661 0.42513 31.6881 0.481649 31.7138 0.543812C 31.7612 0.657904 31.8435 0.84192 31.9468 1.04304C 32.1438 1.4234 32.4913 1.9919 32.9523 2.52684C 33.9061 3.62197 35.4748 4.74013 37.8235 4.74013L 37.8235 2.74013C 36.1909 2.74013 35.1354 1.98822 34.4604 1.21328C 34.1071 0.813196 33.889 0.446664 33.7241 0.125752C 33.6464 -0.0237673 33.5986 -0.131949 33.5612 -0.222395C 33.5445 -0.262501 33.5353 -0.286336 33.5271 -0.308457C 33.5238 -0.317059 33.5228 -0.319965 33.5212 -0.324551C 33.5208 -0.32564 33.5207 -0.325833 33.5209 -0.325246C 33.5208 -0.325549 33.5215 -0.323535 33.5214 -0.323679C 33.5213 -0.324048 33.5219 -0.322225 33.5219 -0.322408C 33.522 -0.322169 33.5221 -0.321768 33.5221 -0.321648C 33.5223 -0.321235 33.5224 -0.320807 32.5753 0ZM 37.8235 4.74013C 40.1613 4.74013 41.8075 3.63264 42.8402 2.56548C 43.3451 2.0394 43.7381 1.48375 43.9696 1.10696C 44.0907 0.908767 44.1884 0.728944 44.2462 0.616109C 44.2774 0.555082 44.304 0.500223 44.3191 0.468082C 44.3277 0.449789 44.3357 0.432431 44.3399 0.423103C 44.3425 0.417349 44.3452 0.411353 44.3465 0.408459C 44.3474 0.406472 44.3484 0.404165 44.3488 0.403171C 44.3492 0.402405 44.3496 0.401427 44.3498 0.401045C 44.3499 0.40072 44.3501 0.400275 44.3502 0.400112C 44.3504 0.399683 44.3505 0.399267 43.4337 0C 42.5169 -0.399267 42.517 -0.399654 42.5172 -0.400027C 42.5172 -0.400132 42.5174 -0.400492 42.5175 -0.400703C 42.5174 -0.400548 42.5181 -0.402121 42.518 -0.401808C 42.5179 -0.40172 42.5186 -0.403226 42.5185 -0.403037C 42.5188 -0.403738 42.5185 -0.402968 42.5179 -0.401645C 42.5157 -0.39682 42.5141 -0.393175 42.5098 -0.384075C 42.4991 -0.361429 42.4868 -0.335934 42.4657 -0.294692C 42.4188 -0.202989 42.3583 -0.090615 42.2644 0.0618322C 42.0661 0.386313 41.8031 0.765696 41.403 1.17464C 40.626 1.97755 39.4671 2.74013 37.8235 2.74013L 37.8235 4.74013ZM 43.4337 0C 42.4866 0.320807 42.4867 0.321263 42.4869 0.321734C 42.4869 0.32191 42.4871 0.322396 42.4872 0.322749C 42.4874 0.323159 42.4877 0.324221 42.488 0.325042C 42.4884 0.326092 42.4892 0.328568 42.4899 0.330668C 42.491 0.333677 42.4932 0.340021 42.4953 0.346009C 42.4988 0.355577 42.5053 0.373672 42.5123 0.392464C 42.5246 0.42513 42.5465 0.481649 42.5722 0.543812C 42.6196 0.657904 42.7019 0.84192 42.8052 1.04304C 43.0022 1.4234 43.3497 1.9919 43.8107 2.52684C 44.7645 3.62197 46.3332 4.74013 48.6819 4.74013L 48.6819 2.74013C 47.0493 2.74013 45.9938 1.98822 45.3189 1.21328C 44.9655 0.813196 44.7475 0.446664 44.5825 0.125752C 44.5048 -0.0237673 44.457 -0.131949 44.4196 -0.222395C 44.4029 -0.262501 44.3937 -0.286336 44.3855 -0.308457C 44.3822 -0.317059 44.3812 -0.319965 44.3796 -0.324551C 44.3792 -0.32564 44.3791 -0.325833 44.3793 -0.325246C 44.3792 -0.325549 44.3799 -0.323535 44.3799 -0.323679C 44.3797 -0.324048 44.3804 -0.322225 44.3803 -0.322408C 44.3804 -0.322169 44.3805 -0.321768 44.3806 -0.321648C 44.3807 -0.321235 44.3809 -0.320807 43.4337 0ZM 48.6819 4.74013C 51.0197 4.74013 52.6659 3.63264 53.6987 2.56548C 54.2035 2.0394 54.5965 1.48375 54.828 1.10696C 54.9491 0.908767 55.0469 0.728944 55.1047 0.616109C 55.1358 0.555082 55.1624 0.500223 55.1776 0.468082C 55.1862 0.449789 55.1941 0.432431 55.1984 0.423103C 55.201 0.417349 55.2036 0.411353 55.2049 0.408459C 55.2058 0.406472 55.2068 0.404165 55.2073 0.403171C 55.2076 0.402405 55.208 0.401427 55.2082 0.401045C 55.2083 0.40072 55.2085 0.400275 55.2086 0.400112C 55.2088 0.399683 55.209 0.399267 54.2921 0C 53.3753 -0.399267 53.3755 -0.399654 53.3756 -0.400027C 53.3757 -0.400132 53.3758 -0.400492 53.3759 -0.400703C 53.3759 -0.400548 53.3765 -0.402121 53.3764 -0.401808C 53.3764 -0.40172 53.377 -0.403226 53.377 -0.403037C 53.3773 -0.403738 53.3769 -0.402968 53.3763 -0.401645C 53.3741 -0.39682 53.3725 -0.393175 53.3682 -0.384075C 53.3575 -0.361429 53.3452 -0.335934 53.3241 -0.294692C 53.2773 -0.202989 53.2167 -0.090615 53.1228 0.0618322C 52.9245 0.386313 52.6615 0.765696 52.2615 1.17464C 51.4845 1.97755 50.3256 2.74013 48.6819 2.74013L 48.6819 4.74013Z"/>
<path id="path6_stroke" d="M 0.947145 -0.320806C 0.769968 -0.8439 0.202286 -1.12432 -0.320807 -0.947144C -0.843901 -0.769967 -1.12432 -0.202285 -0.947145 0.320808L 0.947145 -0.320806ZM 10.8584 9.2048e-07L 11.8056 -0.320806C 11.673 -0.712197 11.3133 -0.981736 10.9005 -0.999114C 10.4876 -1.01649 10.1066 -0.778132 9.94159 -0.399266L 10.8584 9.2048e-07ZM 21.7169 9.2048e-07L 22.664 -0.320806C 22.5314 -0.712197 22.1718 -0.981736 21.7589 -0.999114C 21.346 -1.01649 20.965 -0.778132 20.8 -0.399266L 21.7169 9.2048e-07ZM 32.5753 9.2048e-07L 33.5224 -0.320806C 33.3899 -0.712197 33.0302 -0.981736 32.6173 -0.999114C 32.2045 -1.01649 31.8234 -0.778132 31.6584 -0.399266L 32.5753 9.2048e-07ZM 43.4337 9.2048e-07L 44.3809 -0.320806C 44.2483 -0.712197 43.8886 -0.981736 43.4758 -0.999114C 43.0629 -1.01649 42.6819 -0.778132 42.5169 -0.399266L 43.4337 9.2048e-07ZM 55.209 0.399268C 55.4295 -0.107085 55.1978 -0.696324 54.6914 -0.916834C 54.185 -1.13734 53.5958 -0.90562 53.3753 -0.399266L 55.209 0.399268ZM 0 9.2048e-07C -0.947145 0.320808 -0.94699 0.321265 -0.94683 0.321735C -0.94677 0.321912 -0.946605 0.322398 -0.946484 0.322751C -0.946345 0.323161 -0.945982 0.324222 -0.945701 0.325044C -0.94534 0.326094 -0.944487 0.32857 -0.943759 0.33067C -0.942714 0.333678 -0.94049 0.340023 -0.938363 0.346011C -0.934954 0.355578 -0.928394 0.373673 -0.921378 0.392466C -0.909138 0.425131 -0.887201 0.48165 -0.861496 0.543813C -0.814087 0.657905 -0.731806 0.841921 -0.628471 1.04304C -0.431514 1.4234 -0.0839816 1.9919 0.377005 2.52684C 1.33082 3.62197 2.89948 4.74012 5.24824 4.74012L 5.24824 2.74012C 3.61558 2.74012 2.56011 1.98822 1.88517 1.21328C 1.53177 0.813195 1.31376 0.446663 1.14877 0.125752C 1.07113 -0.0237672 1.02334 -0.131949 0.985915 -0.222394C 0.969204 -0.262501 0.960037 -0.286336 0.951776 -0.308457C 0.948542 -0.317058 0.947502 -0.319965 0.945874 -0.324551C 0.945483 -0.325639 0.945423 -0.325833 0.945626 -0.325246C 0.945522 -0.325548 0.946216 -0.323535 0.946166 -0.323679C 0.94604 -0.324047 0.946663 -0.322225 0.946601 -0.322407C 0.946682 -0.322168 0.946818 -0.321767 0.946859 -0.321648C 0.946999 -0.321234 0.947145 -0.320806 0 9.2048e-07ZM 5.24824 4.74012C 7.58603 4.74012 9.23224 3.63264 10.265 2.56548C 10.7698 2.0394 11.1628 1.48375 11.3943 1.10696C 11.5154 0.908768 11.6132 0.728945 11.671 0.61611C 11.7021 0.555083 11.7287 0.500223 11.7438 0.468083C 11.7525 0.449789 11.7604 0.432432 11.7646 0.423104C 11.7672 0.41735 11.7699 0.411354 11.7712 0.40846C 11.7721 0.406473 11.7731 0.404166 11.7736 0.403172C 11.7739 0.402406 11.7743 0.401428 11.7745 0.401045C 11.7746 0.40072 11.7748 0.400275 11.7749 0.400113C 11.7751 0.399683 11.7753 0.399268 10.8584 9.2048e-07C 9.94159 -0.399266 9.94176 -0.399653 9.94192 -0.400026C 9.94197 -0.400131 9.94213 -0.400491 9.94222 -0.400702C 9.94215 -0.400547 9.94284 -0.40212 9.9427 -0.401807C 9.94266 -0.401719 9.94333 -0.403225 9.94325 -0.403036C 9.94356 -0.403737 9.94322 -0.402967 9.94262 -0.401644C 9.94044 -0.396819 9.93878 -0.393174 9.93448 -0.384074C 9.92383 -0.361428 9.91154 -0.335933 9.89038 -0.294691C 9.84355 -0.202988 9.78297 -0.0906143 9.68912 0.0618328C 9.49081 0.386313 9.22781 0.765696 8.82776 1.17464C 8.05076 1.97755 6.89187 2.74012 5.24824 2.74012L 5.24824 4.74012ZM 10.8584 9.2048e-07C 9.91128 0.320808 9.91144 0.321265 9.9116 0.321736C 9.91166 0.321912 9.91182 0.322398 9.91194 0.322751C 9.91208 0.323161 9.91244 0.324223 9.91273 0.325044C 9.91309 0.326094 9.91394 0.32857 9.91467 0.33067C 9.91571 0.333678 9.91794 0.340023 9.92006 0.346011C 9.92347 0.355578 9.93003 0.373674 9.93705 0.392466C 9.94929 0.425131 9.97123 0.48165 9.99693 0.543813C 10.0443 0.657906 10.1266 0.841921 10.23 1.04304C 10.4269 1.4234 10.7744 1.9919 11.2354 2.52684C 12.1893 3.62197 13.7579 4.74012 16.1067 4.74012L 16.1067 2.74012C 14.474 2.74012 13.4185 1.98822 12.7436 1.21328C 12.3902 0.813195 12.1722 0.446663 12.0072 0.125752C 11.9296 -0.0237673 11.8818 -0.131949 11.8443 -0.222395C 11.8276 -0.262501 11.8185 -0.286336 11.8102 -0.308457C 11.807 -0.317059 11.8059 -0.319965 11.8043 -0.324551C 11.8039 -0.32564 11.8038 -0.325833 11.8041 -0.325246C 11.8039 -0.325548 11.8046 -0.323535 11.8046 -0.323679C 11.8045 -0.324047 11.8051 -0.322225 11.805 -0.322407C 11.8051 -0.322168 11.8052 -0.321767 11.8053 -0.321648C 11.8054 -0.321234 11.8056 -0.320806 10.8584 9.2048e-07ZM 16.1067 4.74012C 18.4445 4.74012 20.0907 3.63264 21.1234 2.56548C 21.6282 2.0394 22.0213 1.48375 22.2528 1.10696C 22.3738 0.908768 22.4716 0.728944 22.5294 0.61611C 22.5605 0.555083 22.5871 0.500223 22.6023 0.468082C 22.6109 0.449789 22.6188 0.432432 22.6231 0.423104C 22.6257 0.41735 22.6284 0.411354 22.6296 0.408459C 22.6305 0.406473 22.6315 0.404166 22.632 0.403172C 22.6323 0.402406 22.6327 0.401428 22.6329 0.401045C 22.6331 0.40072 22.6332 0.400275 22.6333 0.400113C 22.6335 0.399683 22.6337 0.399268 21.7169 9.2048e-07C 20.8 -0.399266 20.8002 -0.399653 20.8003 -0.400025C 20.8004 -0.400131 20.8006 -0.400491 20.8006 -0.400702C 20.8006 -0.400547 20.8013 -0.40212 20.8011 -0.401807C 20.8011 -0.401719 20.8018 -0.403225 20.8017 -0.403036C 20.802 -0.403737 20.8016 -0.402967 20.801 -0.401644C 20.7989 -0.396819 20.7972 -0.393174 20.7929 -0.384074C 20.7823 -0.361428 20.77 -0.335933 20.7488 -0.294691C 20.702 -0.202988 20.6414 -0.0906142 20.5475 0.0618329C 20.3492 0.386313 20.0862 0.765696 19.6862 1.17464C 18.9092 1.97755 17.7503 2.74012 16.1067 2.74012L 16.1067 4.74012ZM 21.7169 9.2048e-07C 20.7697 0.320808 20.7699 0.321265 20.77 0.321736C 20.7701 0.321912 20.7702 0.322398 20.7704 0.322751C 20.7705 0.323161 20.7709 0.324223 20.7712 0.325044C 20.7715 0.326094 20.7724 0.32857 20.7731 0.33067C 20.7741 0.333678 20.7764 0.340023 20.7785 0.346011C 20.7819 0.355578 20.7885 0.373674 20.7955 0.392466C 20.8077 0.425131 20.8297 0.48165 20.8554 0.543813C 20.9028 0.657906 20.985 0.841921 21.0884 1.04304C 21.2853 1.4234 21.6329 1.9919 22.0939 2.52684C 23.0477 3.62197 24.6163 4.74012 26.9651 4.74012L 26.9651 2.74012C 25.3324 2.74012 24.277 1.98822 23.602 1.21328C 23.2486 0.813195 23.0306 0.446663 22.8656 0.125752C 22.788 -0.0237673 22.7402 -0.131949 22.7028 -0.222395C 22.6861 -0.262501 22.6769 -0.286336 22.6686 -0.308457C 22.6654 -0.317059 22.6644 -0.319965 22.6627 -0.324551C 22.6623 -0.32564 22.6623 -0.325833 22.6625 -0.325246C 22.6624 -0.325548 22.6631 -0.323535 22.663 -0.323679C 22.6629 -0.324047 22.6635 -0.322225 22.6635 -0.322407C 22.6635 -0.322168 22.6637 -0.321767 22.6637 -0.321648C 22.6639 -0.321234 22.664 -0.320806 21.7169 9.2048e-07ZM 26.9651 4.74012C 29.3029 4.74012 30.9491 3.63264 31.9818 2.56548C 32.4866 2.0394 32.8797 1.48375 33.1112 1.10696C 33.2322 0.908768 33.33 0.728944 33.3878 0.61611C 33.419 0.555083 33.4455 0.500223 33.4607 0.468082C 33.4693 0.449789 33.4773 0.432432 33.4815 0.423104C 33.4841 0.41735 33.4868 0.411354 33.4881 0.408459C 33.489 0.406473 33.49 0.404166 33.4904 0.403172C 33.4907 0.402406 33.4912 0.401428 33.4913 0.401045C 33.4915 0.40072 33.4917 0.400275 33.4917 0.400113C 33.4919 0.399683 33.4921 0.399268 32.5753 9.2048e-07C 31.6584 -0.399266 31.6586 -0.399653 31.6588 -0.400025C 31.6588 -0.400131 31.659 -0.400491 31.6591 -0.400702C 31.659 -0.400547 31.6597 -0.40212 31.6596 -0.401807C 31.6595 -0.401719 31.6602 -0.403225 31.6601 -0.403036C 31.6604 -0.403737 31.6601 -0.402967 31.6595 -0.401644C 31.6573 -0.396819 31.6556 -0.393174 31.6513 -0.384074C 31.6407 -0.361428 31.6284 -0.335933 31.6072 -0.294691C 31.5604 -0.202988 31.4998 -0.0906142 31.406 0.0618329C 31.2077 0.386313 30.9447 0.765696 30.5446 1.17464C 29.7676 1.97755 28.6087 2.74012 26.9651 2.74012L 26.9651 4.74012ZM 32.5753 9.2048e-07C 31.6281 0.320808 31.6283 0.321264 31.6284 0.321735C 31.6285 0.321911 31.6287 0.322398 31.6288 0.32275C 31.6289 0.32316 31.6293 0.324222 31.6296 0.325043C 31.6299 0.326093 31.6308 0.328569 31.6315 0.330669C 31.6326 0.333678 31.6348 0.340022 31.6369 0.34601C 31.6403 0.355578 31.6469 0.373673 31.6539 0.392465C 31.6661 0.425131 31.6881 0.48165 31.7138 0.543813C 31.7612 0.657905 31.8435 0.841921 31.9468 1.04304C 32.1438 1.4234 32.4913 1.9919 32.9523 2.52684C 33.9061 3.62197 35.4748 4.74012 37.8235 4.74012L 37.8235 2.74012C 36.1909 2.74012 35.1354 1.98822 34.4604 1.21328C 34.1071 0.813196 33.889 0.446664 33.7241 0.125752C 33.6464 -0.0237669 33.5986 -0.131948 33.5612 -0.222394C 33.5445 -0.2625 33.5353 -0.286335 33.5271 -0.308457C 33.5238 -0.317058 33.5228 -0.319965 33.5212 -0.32455C 33.5208 -0.325639 33.5207 -0.325832 33.5209 -0.325246C 33.5208 -0.325548 33.5215 -0.323535 33.5214 -0.323679C 33.5213 -0.324047 33.5219 -0.322224 33.5219 -0.322407C 33.522 -0.322168 33.5221 -0.321767 33.5221 -0.321648C 33.5223 -0.321234 33.5224 -0.320806 32.5753 9.2048e-07ZM 37.8235 4.74012C 40.1613 4.74012 41.8075 3.63264 42.8402 2.56548C 43.3451 2.0394 43.7381 1.48375 43.9696 1.10696C 44.0907 0.908768 44.1884 0.728945 44.2462 0.61611C 44.2774 0.555083 44.304 0.500224 44.3191 0.468083C 44.3277 0.44979 44.3357 0.432433 44.3399 0.423105C 44.3425 0.417351 44.3452 0.411354 44.3465 0.40846C 44.3474 0.406473 44.3484 0.404166 44.3488 0.403172C 44.3492 0.402407 44.3496 0.401428 44.3498 0.401046C 44.3499 0.400721 44.3501 0.400276 44.3502 0.400113C 44.3504 0.399684 44.3505 0.399268 43.4337 9.2048e-07C 42.5169 -0.399266 42.517 -0.399653 42.5172 -0.400026C 42.5172 -0.400131 42.5174 -0.400491 42.5175 -0.400702C 42.5174 -0.400547 42.5181 -0.40212 42.518 -0.401808C 42.5179 -0.401719 42.5186 -0.403225 42.5185 -0.403036C 42.5188 -0.403738 42.5185 -0.402967 42.5179 -0.401645C 42.5157 -0.396819 42.5141 -0.393175 42.5098 -0.384074C 42.4991 -0.361428 42.4868 -0.335934 42.4657 -0.294691C 42.4188 -0.202988 42.3583 -0.0906146 42.2644 0.0618325C 42.0661 0.386313 41.8031 0.765696 41.403 1.17464C 40.626 1.97755 39.4671 2.74012 37.8235 2.74012L 37.8235 4.74012ZM 43.4337 9.2048e-07C 42.4866 0.320808 42.4867 0.321264 42.4869 0.321735C 42.4869 0.321911 42.4871 0.322398 42.4872 0.32275C 42.4874 0.32316 42.4877 0.324222 42.488 0.325043C 42.4884 0.326093 42.4892 0.328569 42.4899 0.330669C 42.491 0.333678 42.4932 0.340022 42.4953 0.34601C 42.4988 0.355578 42.5053 0.373673 42.5123 0.392465C 42.5246 0.425131 42.5465 0.48165 42.5722 0.543813C 42.6196 0.657905 42.7019 0.841921 42.8052 1.04304C 43.0022 1.4234 43.3497 1.9919 43.8107 2.52684C 44.7645 3.62197 46.3332 4.74012 48.6819 4.74012L 48.6819 2.74012C 47.0493 2.74012 45.9938 1.98822 45.3189 1.21328C 44.9655 0.813196 44.7475 0.446664 44.5825 0.125752C 44.5048 -0.0237669 44.457 -0.131948 44.4196 -0.222394C 44.4029 -0.2625 44.3937 -0.286335 44.3855 -0.308457C 44.3822 -0.317058 44.3812 -0.319965 44.3796 -0.32455C 44.3792 -0.325639 44.3791 -0.325832 44.3793 -0.325246C 44.3792 -0.325548 44.3799 -0.323535 44.3799 -0.323679C 44.3797 -0.324047 44.3804 -0.322224 44.3803 -0.322407C 44.3804 -0.322168 44.3805 -0.321767 44.3806 -0.321648C 44.3807 -0.321234 44.3809 -0.320806 43.4337 9.2048e-07ZM 48.6819 4.74012C 51.0197 4.74012 52.6659 3.63264 53.6987 2.56548C 54.2035 2.0394 54.5965 1.48375 54.828 1.10696C 54.9491 0.908768 55.0469 0.728945 55.1047 0.61611C 55.1358 0.555083 55.1624 0.500224 55.1776 0.468083C 55.1862 0.44979 55.1941 0.432433 55.1984 0.423105C 55.201 0.417351 55.2036 0.411354 55.2049 0.40846C 55.2058 0.406473 55.2068 0.404166 55.2073 0.403172C 55.2076 0.402407 55.208 0.401428 55.2082 0.401046C 55.2083 0.400721 55.2085 0.400276 55.2086 0.400113C 55.2088 0.399684 55.209 0.399268 54.2921 9.2048e-07C 53.3753 -0.399266 53.3755 -0.399653 53.3756 -0.400026C 53.3757 -0.400131 53.3758 -0.400491 53.3759 -0.400702C 53.3759 -0.400547 53.3765 -0.40212 53.3764 -0.401808C 53.3764 -0.401719 53.377 -0.403225 53.377 -0.403036C 53.3773 -0.403738 53.3769 -0.402967 53.3763 -0.401645C 53.3741 -0.396819 53.3725 -0.393175 53.3682 -0.384074C 53.3575 -0.361428 53.3452 -0.335934 53.3241 -0.294691C 53.2773 -0.202988 53.2167 -0.0906146 53.1228 0.0618325C 52.9245 0.386313 52.6615 0.765696 52.2615 1.17464C 51.4845 1.97755 50.3256 2.74012 48.6819 2.74012L 48.6819 4.74012Z"/>
<path id="path7_stroke" d="M 0.947145 -0.320807C 0.769968 -0.843901 0.202287 -1.12432 -0.320807 -0.947145C -0.843901 -0.769968 -1.12432 -0.202287 -0.947145 0.320807L 0.947145 -0.320807ZM 10.8584 -4.6024e-07L 11.8056 -0.320808C 11.673 -0.712199 11.3133 -0.981737 10.9005 -0.999116C 10.4876 -1.01649 10.1066 -0.778133 9.94159 -0.399267L 10.8584 -4.6024e-07ZM 21.7169 -4.6024e-07L 22.664 -0.320808C 22.5314 -0.712199 22.1718 -0.981737 21.7589 -0.999116C 21.346 -1.01649 20.965 -0.778133 20.8 -0.399267L 21.7169 -4.6024e-07ZM 32.5753 -4.6024e-07L 33.5224 -0.320807C 33.3899 -0.712198 33.0302 -0.981737 32.6173 -0.999116C 32.2045 -1.01649 31.8234 -0.778133 31.6584 -0.399267L 32.5753 -4.6024e-07ZM 43.4337 -4.6024e-07L 44.3809 -0.320807C 44.2483 -0.712198 43.8886 -0.981737 43.4758 -0.999116C 43.0629 -1.01649 42.6819 -0.778134 42.5169 -0.399268L 43.4337 -4.6024e-07ZM 55.209 0.399267C 55.4295 -0.107087 55.1978 -0.696326 54.6914 -0.916835C 54.185 -1.13734 53.5958 -0.905621 53.3753 -0.399268L 55.209 0.399267ZM 0 -4.6024e-07C -0.947145 0.320807 -0.94699 0.321263 -0.94683 0.321734C -0.94677 0.32191 -0.946605 0.322396 -0.946485 0.322749C -0.946345 0.323159 -0.945982 0.324221 -0.945701 0.325042C -0.94534 0.326092 -0.944487 0.328568 -0.943759 0.330668C -0.942714 0.333677 -0.94049 0.340021 -0.938363 0.346009C -0.934954 0.355577 -0.928394 0.373672 -0.921378 0.392464C -0.909138 0.42513 -0.887201 0.481649 -0.861496 0.543812C -0.814087 0.657904 -0.731806 0.84192 -0.628471 1.04304C -0.431514 1.4234 -0.0839818 1.9919 0.377004 2.52684C 1.33082 3.62197 2.89948 4.74012 5.24824 4.74012L 5.24824 2.74012C 3.61558 2.74012 2.56011 1.98822 1.88517 1.21328C 1.53177 0.813195 1.31376 0.446663 1.14877 0.125751C 1.07113 -0.0237681 1.02334 -0.13195 0.985915 -0.222396C 0.969204 -0.262502 0.960037 -0.286337 0.951776 -0.308458C 0.948542 -0.31706 0.947502 -0.319966 0.945874 -0.324552C 0.945483 -0.325641 0.945423 -0.325834 0.945626 -0.325247C 0.945522 -0.325549 0.946216 -0.323536 0.946166 -0.32368C 0.94604 -0.324048 0.946663 -0.322226 0.946601 -0.322409C 0.946682 -0.322169 0.946818 -0.321769 0.946859 -0.321649C 0.946999 -0.321236 0.947145 -0.320807 0 -4.6024e-07ZM 5.24824 4.74012C 7.58603 4.74012 9.23224 3.63264 10.265 2.56548C 10.7698 2.0394 11.1628 1.48375 11.3943 1.10696C 11.5154 0.908767 11.6132 0.728943 11.671 0.616108C 11.7021 0.555081 11.7287 0.500222 11.7438 0.468081C 11.7525 0.449788 11.7604 0.432431 11.7646 0.423103C 11.7672 0.417349 11.7699 0.411352 11.7712 0.408458C 11.7721 0.406471 11.7731 0.404164 11.7736 0.40317C 11.7739 0.402405 11.7743 0.401426 11.7745 0.401044C 11.7746 0.400719 11.7748 0.400274 11.7749 0.400111C 11.7751 0.399682 11.7753 0.399266 10.8584 -4.6024e-07C 9.94159 -0.399267 9.94176 -0.399654 9.94192 -0.400027C 9.94197 -0.400132 9.94213 -0.400492 9.94222 -0.400703C 9.94215 -0.400548 9.94284 -0.402121 9.9427 -0.401808C 9.94266 -0.40172 9.94333 -0.403226 9.94325 -0.403037C 9.94356 -0.403738 9.94322 -0.402968 9.94262 -0.401645C 9.94044 -0.39682 9.93878 -0.393175 9.93448 -0.384075C 9.92383 -0.361429 9.91154 -0.335934 9.89038 -0.294692C 9.84355 -0.202989 9.78297 -0.0906152 9.68912 0.061832C 9.49081 0.386312 9.22781 0.765695 8.82776 1.17464C 8.05076 1.97755 6.89187 2.74012 5.24824 2.74012L 5.24824 4.74012ZM 10.8584 -4.6024e-07C 9.91128 0.320807 9.91144 0.321263 9.9116 0.321734C 9.91166 0.32191 9.91182 0.322397 9.91194 0.322749C 9.91208 0.323159 9.91244 0.324221 9.91273 0.325042C 9.91309 0.326092 9.91394 0.328568 9.91467 0.330668C 9.91571 0.333677 9.91794 0.340021 9.92006 0.346009C 9.92347 0.355577 9.93003 0.373672 9.93705 0.392464C 9.94929 0.42513 9.97123 0.481649 9.99693 0.543812C 10.0443 0.657904 10.1266 0.84192 10.23 1.04304C 10.4269 1.4234 10.7744 1.9919 11.2354 2.52684C 12.1893 3.62197 13.7579 4.74012 16.1067 4.74012L 16.1067 2.74012C 14.474 2.74012 13.4185 1.98822 12.7436 1.21328C 12.3902 0.813195 12.1722 0.446663 12.0072 0.125751C 11.9296 -0.0237682 11.8818 -0.13195 11.8443 -0.222396C 11.8276 -0.262502 11.8185 -0.286337 11.8102 -0.308458C 11.807 -0.31706 11.8059 -0.319966 11.8043 -0.324552C 11.8039 -0.325641 11.8038 -0.325834 11.8041 -0.325247C 11.8039 -0.32555 11.8046 -0.323536 11.8046 -0.32368C 11.8045 -0.324049 11.8051 -0.322226 11.805 -0.322409C 11.8051 -0.32217 11.8052 -0.321769 11.8053 -0.321649C 11.8054 -0.321236 11.8056 -0.320808 10.8584 -4.6024e-07ZM 16.1067 4.74012C 18.4445 4.74012 20.0907 3.63264 21.1234 2.56548C 21.6282 2.0394 22.0213 1.48375 22.2528 1.10696C 22.3738 0.908766 22.4716 0.728943 22.5294 0.616108C 22.5605 0.555081 22.5871 0.500222 22.6023 0.468081C 22.6109 0.449788 22.6188 0.432431 22.6231 0.423103C 22.6257 0.417348 22.6284 0.411352 22.6296 0.408458C 22.6305 0.406471 22.6315 0.404164 22.632 0.40317C 22.6323 0.402404 22.6327 0.401426 22.6329 0.401044C 22.6331 0.400719 22.6332 0.400274 22.6333 0.400111C 22.6335 0.399682 22.6337 0.399266 21.7169 -4.6024e-07C 20.8 -0.399267 20.8002 -0.399654 20.8003 -0.400027C 20.8004 -0.400132 20.8006 -0.400492 20.8006 -0.400703C 20.8006 -0.400548 20.8013 -0.402121 20.8011 -0.401808C 20.8011 -0.40172 20.8018 -0.403226 20.8017 -0.403037C 20.802 -0.403738 20.8016 -0.402968 20.801 -0.401645C 20.7989 -0.39682 20.7972 -0.393175 20.7929 -0.384075C 20.7823 -0.361429 20.77 -0.335934 20.7488 -0.294692C 20.702 -0.202989 20.6414 -0.0906151 20.5475 0.0618321C 20.3492 0.386313 20.0862 0.765695 19.6862 1.17464C 18.9092 1.97755 17.7503 2.74012 16.1067 2.74012L 16.1067 4.74012ZM 21.7169 -4.6024e-07C 20.7697 0.320807 20.7699 0.321263 20.77 0.321734C 20.7701 0.32191 20.7702 0.322397 20.7704 0.322749C 20.7705 0.323159 20.7709 0.324221 20.7712 0.325042C 20.7715 0.326092 20.7724 0.328568 20.7731 0.330668C 20.7741 0.333677 20.7764 0.340021 20.7785 0.346009C 20.7819 0.355577 20.7885 0.373672 20.7955 0.392464C 20.8077 0.42513 20.8297 0.481649 20.8554 0.543812C 20.9028 0.657904 20.985 0.84192 21.0884 1.04304C 21.2853 1.4234 21.6329 1.9919 22.0939 2.52684C 23.0477 3.62197 24.6163 4.74012 26.9651 4.74012L 26.9651 2.74012C 25.3324 2.74012 24.277 1.98822 23.602 1.21328C 23.2486 0.813195 23.0306 0.446663 22.8656 0.125751C 22.788 -0.0237682 22.7402 -0.13195 22.7028 -0.222396C 22.6861 -0.262502 22.6769 -0.286337 22.6686 -0.308458C 22.6654 -0.31706 22.6644 -0.319966 22.6627 -0.324552C 22.6623 -0.325641 22.6623 -0.325834 22.6625 -0.325247C 22.6624 -0.32555 22.6631 -0.323536 22.663 -0.32368C 22.6629 -0.324049 22.6635 -0.322226 22.6635 -0.322409C 22.6635 -0.32217 22.6637 -0.321769 22.6637 -0.321649C 22.6639 -0.321236 22.664 -0.320808 21.7169 -4.6024e-07ZM 26.9651 4.74012C 29.3029 4.74012 30.9491 3.63264 31.9818 2.56548C 32.4866 2.0394 32.8797 1.48375 33.1112 1.10696C 33.2322 0.908766 33.33 0.728943 33.3878 0.616108C 33.419 0.555081 33.4456 0.500222 33.4607 0.468081C 33.4693 0.449788 33.4773 0.432431 33.4815 0.423103C 33.4841 0.417348 33.4868 0.411352 33.4881 0.408458C 33.489 0.406471 33.49 0.404164 33.4904 0.40317C 33.4907 0.402404 33.4912 0.401426 33.4913 0.401044C 33.4915 0.400719 33.4917 0.400274 33.4917 0.400111C 33.4919 0.399682 33.4921 0.399266 32.5753 -4.6024e-07C 31.6584 -0.399267 31.6586 -0.399654 31.6588 -0.400027C 31.6588 -0.400132 31.659 -0.400492 31.6591 -0.400703C 31.659 -0.400548 31.6597 -0.402121 31.6596 -0.401808C 31.6595 -0.40172 31.6602 -0.403226 31.6601 -0.403037C 31.6604 -0.403738 31.6601 -0.402968 31.6595 -0.401645C 31.6573 -0.39682 31.6556 -0.393175 31.6513 -0.384075C 31.6407 -0.361429 31.6284 -0.335934 31.6072 -0.294692C 31.5604 -0.202989 31.4998 -0.0906151 31.406 0.0618321C 31.2077 0.386313 30.9447 0.765695 30.5446 1.17464C 29.7676 1.97755 28.6087 2.74012 26.9651 2.74012L 26.9651 4.74012ZM 32.5753 -4.6024e-07C 31.6281 0.320806 31.6283 0.321263 31.6284 0.321733C 31.6285 0.32191 31.6287 0.322396 31.6288 0.322749C 31.6289 0.323159 31.6293 0.32422 31.6296 0.325042C 31.6299 0.326092 31.6308 0.328568 31.6315 0.330668C 31.6326 0.333676 31.6348 0.340021 31.6369 0.346009C 31.6403 0.355576 31.6469 0.373671 31.6539 0.392464C 31.6661 0.425129 31.6881 0.481648 31.7138 0.543811C 31.7612 0.657904 31.8435 0.841919 31.9468 1.04304C 32.1438 1.4234 32.4913 1.9919 32.9523 2.52684C 33.9061 3.62197 35.4748 4.74012 37.8235 4.74012L 37.8235 2.74012C 36.1909 2.74012 35.1354 1.98822 34.4604 1.21328C 34.1071 0.813195 33.889 0.446663 33.7241 0.125751C 33.6464 -0.0237678 33.5986 -0.13195 33.5612 -0.222395C 33.5445 -0.262501 33.5353 -0.286336 33.5271 -0.308458C 33.5238 -0.317059 33.5228 -0.319966 33.5212 -0.324551C 33.5208 -0.32564 33.5207 -0.325834 33.5209 -0.325247C 33.5208 -0.325549 33.5215 -0.323536 33.5214 -0.32368C 33.5213 -0.324048 33.5219 -0.322225 33.5219 -0.322408C 33.522 -0.322169 33.5221 -0.321768 33.5221 -0.321649C 33.5223 -0.321235 33.5224 -0.320807 32.5753 -4.6024e-07ZM 37.8235 4.74012C 40.1613 4.74012 41.8075 3.63264 42.8402 2.56548C 43.3451 2.0394 43.7381 1.48375 43.9696 1.10696C 44.0907 0.908767 44.1884 0.728943 44.2462 0.616109C 44.2774 0.555082 44.304 0.500222 44.3191 0.468081C 44.3277 0.449788 44.3357 0.432431 44.3399 0.423103C 44.3425 0.417349 44.3452 0.411353 44.3465 0.408458C 44.3474 0.406472 44.3484 0.404165 44.3488 0.40317C 44.3492 0.402405 44.3496 0.401427 44.3498 0.401044C 44.3499 0.400719 44.3501 0.400274 44.3502 0.400112C 44.3504 0.399682 44.3505 0.399267 43.4337 -4.6024e-07C 42.5169 -0.399268 42.517 -0.399655 42.5172 -0.400027C 42.5172 -0.400133 42.5174 -0.400492 42.5175 -0.400704C 42.5174 -0.400549 42.5181 -0.402121 42.518 -0.401809C 42.5179 -0.401721 42.5186 -0.403227 42.5185 -0.403038C 42.5188 -0.403739 42.5185 -0.402968 42.5179 -0.401646C 42.5157 -0.39682 42.5141 -0.393176 42.5098 -0.384076C 42.4991 -0.361429 42.4868 -0.335935 42.4657 -0.294692C 42.4188 -0.202989 42.3583 -0.0906155 42.2644 0.0618317C 42.0661 0.386312 41.8031 0.765695 41.403 1.17464C 40.626 1.97755 39.4671 2.74012 37.8235 2.74012L 37.8235 4.74012ZM 43.4337 -4.6024e-07C 42.4866 0.320806 42.4867 0.321263 42.4869 0.321733C 42.4869 0.32191 42.4871 0.322396 42.4872 0.322749C 42.4874 0.323159 42.4877 0.32422 42.488 0.325042C 42.4884 0.326092 42.4892 0.328568 42.4899 0.330668C 42.491 0.333676 42.4932 0.340021 42.4953 0.346009C 42.4988 0.355576 42.5053 0.373671 42.5123 0.392464C 42.5246 0.425129 42.5465 0.481648 42.5722 0.543811C 42.6196 0.657904 42.7019 0.841919 42.8052 1.04304C 43.0022 1.4234 43.3497 1.9919 43.8107 2.52684C 44.7645 3.62197 46.3332 4.74012 48.6819 4.74012L 48.6819 2.74012C 47.0493 2.74012 45.9938 1.98822 45.3189 1.21328C 44.9655 0.813195 44.7475 0.446663 44.5825 0.125751C 44.5048 -0.0237678 44.457 -0.13195 44.4196 -0.222395C 44.4029 -0.262501 44.3937 -0.286336 44.3855 -0.308458C 44.3822 -0.317059 44.3812 -0.319966 44.3796 -0.324551C 44.3792 -0.32564 44.3791 -0.325834 44.3793 -0.325247C 44.3792 -0.325549 44.3799 -0.323536 44.3799 -0.32368C 44.3797 -0.324048 44.3804 -0.322225 44.3803 -0.322408C 44.3804 -0.322169 44.3805 -0.321768 44.3806 -0.321649C 44.3807 -0.321235 44.3809 -0.320807 43.4337 -4.6024e-07ZM 48.6819 4.74012C 51.0197 4.74012 52.6659 3.63264 53.6987 2.56548C 54.2035 2.0394 54.5965 1.48375 54.828 1.10696C 54.9491 0.908767 55.0469 0.728943 55.1047 0.616109C 55.1358 0.555082 55.1624 0.500222 55.1776 0.468081C 55.1862 0.449788 55.1941 0.432431 55.1984 0.423103C 55.201 0.417349 55.2036 0.411353 55.2049 0.408458C 55.2058 0.406472 55.2068 0.404165 55.2073 0.40317C 55.2076 0.402405 55.208 0.401427 55.2082 0.401044C 55.2083 0.400719 55.2085 0.400274 55.2086 0.400112C 55.2088 0.399682 55.209 0.399267 54.2921 -4.6024e-07C 53.3753 -0.399268 53.3755 -0.399655 53.3756 -0.400027C 53.3757 -0.400133 53.3758 -0.400492 53.3759 -0.400704C 53.3759 -0.400549 53.3765 -0.402121 53.3764 -0.401809C 53.3764 -0.401721 53.377 -0.403227 53.377 -0.403038C 53.3773 -0.403739 53.3769 -0.402968 53.3763 -0.401646C 53.3741 -0.39682 53.3725 -0.393176 53.3682 -0.384076C 53.3575 -0.361429 53.3452 -0.335935 53.3241 -0.294692C 53.2773 -0.202989 53.2167 -0.0906155 53.1228 0.0618317C 52.9245 0.386312 52.6615 0.765695 52.2615 1.17464C 51.4845 1.97755 50.3256 2.74012 48.6819 2.74012L 48.6819 4.74012Z"/>
<path id="path8_fill" d="M 40.6179 1.02816C 40.6179 0.460352 40.157 0 39.5897 0L 6.68528 0C 6.68302 0 6.68076 0.000565502 6.6785 0.000565502L 4.95416 0.000565502C 2.17621 0.000565502 -1.42387e-07 2.26783 -1.42387e-07 5.16228L -1.42387e-07 46.2908C -1.42387e-07 46.3236 0.00565517 46.3542 0.00904843 46.3864C 0.0073518 46.4373 0.00169663 46.4865 0.00169663 46.538C 0.00169663 49.0247 1.79786 50.8989 4.18163 50.8989L 39.5891 50.8989C 40.1564 50.8989 40.6173 50.4391 40.6173 49.8696L 40.6173 43.1877C 40.6173 43.1871 40.6173 43.1871 40.6173 43.1866C 40.6173 43.1866 40.6173 43.186 40.6173 43.1854L 40.6173 1.02816L 40.6179 1.02816ZM 7.71401 2.05631L 38.5621 2.05631L 38.5621 42.1584L 7.71401 42.1584L 7.71401 2.05631ZM 4.95416 2.05745L 5.656 2.05745L 5.656 42.1584L 4.25345 42.1584L 4.18219 42.1584C 3.40004 42.1584 2.67728 42.3761 2.05745 42.7534L 2.05745 5.16228C 2.05745 3.39269 3.3039 2.05745 4.95416 2.05745ZM 38.5616 48.8426L 4.18219 48.8426C 2.95157 48.8426 2.05914 47.8744 2.05914 46.5334C 2.05914 46.4831 2.0631 46.4345 2.06536 46.3853L 2.20505 45.8073C 2.55343 44.8962 3.24565 44.3114 4.06399 44.2351L 4.17654 44.2243C 4.20425 44.2209 4.23196 44.2175 4.25288 44.2159L 6.68472 44.2159L 38.561 44.2159L 38.561 48.8426L 38.5616 48.8426Z"/>
<path id="path9_fill" d="M 21.5919 1.8122e-07L 1.02646 1.8122e-07C 0.458656 1.8122e-07 9.14727e-07 0.461482 9.14727e-07 1.02929C 9.14727e-07 1.59709 0.458656 2.05688 1.02646 2.05688L 21.5919 2.05688C 22.1591 2.05688 22.6195 1.59709 22.6195 1.02929C 22.6195 0.461482 22.1591 1.8122e-07 21.5919 1.8122e-07Z"/>
<path id="path10_fill" d="M 21.5919 -8.11173e-07L 1.02646 -8.11173e-07C 0.458656 -8.11173e-07 9.14727e-07 0.461482 9.14727e-07 1.02929C 9.14727e-07 1.59653 0.458656 2.05688 1.02646 2.05688L 21.5919 2.05688C 22.1591 2.05688 22.6195 1.59653 22.6195 1.02929C 22.6195 0.461482 22.1591 -8.11173e-07 21.5919 -8.11173e-07Z"/>
<path id="path11_fill" d="M 16.4494 -7.24878e-07L 1.02646 -7.24878e-07C 0.458656 -7.24878e-07 9.14727e-07 0.461482 9.14727e-07 1.02929C 9.14727e-07 1.59653 0.458656 2.05801 1.02646 2.05801L 16.4494 2.05801C 17.0178 2.05801 17.4792 1.59653 17.4792 1.02929C 17.4792 0.461482 17.0178 -7.24878e-07 16.4494 -7.24878e-07Z"/>
<path id="path12_fill" d="M 1.02759 2.05858L 20.0502 2.05858C 20.6169 2.05858 21.0784 1.59709 21.0784 1.02929C 21.0784 0.461482 20.6169 -1.00102e-06 20.0502 -1.00102e-06L 1.02759 -1.00102e-06C 0.460352 -1.00102e-06 -8.45691e-07 0.461482 -8.45691e-07 1.02929C -8.45691e-07 1.59709 0.460352 2.05858 1.02759 2.05858Z"/>
<path id="path13_fill" fill-rule="evenodd" d="M 0 13.1352C 0 5.89084 5.89062 0 13.1353 0C 20.3794 0 26.2705 5.89084 26.2705 13.1352C 26.2705 20.3795 20.3794 26.2704 13.1353 26.2704C 5.89062 26.2704 0 20.3795 0 13.1352ZM 24.5825 13.1352C 24.5825 6.8031 19.4673 1.68799 13.1353 1.68799C 6.80322 1.68799 1.68799 6.8031 1.68799 13.1352C 1.68799 19.4673 6.80322 24.5824 13.1353 24.5824C 19.4673 24.5824 24.5825 19.4673 24.5825 13.1352ZM 10.4702 11.9661C 10.9712 11.4649 11.2529 10.7851 11.2529 10.0763C 11.2529 9.36749 10.9712 8.68765 10.4702 8.18646C 9.96875 7.68524 9.28906 7.40366 8.58057 7.40366C 7.87158 7.40366 7.19189 7.68524 6.69043 8.18646C 6.18945 8.68765 5.90771 9.36749 5.90771 10.0763C 5.90771 10.7851 6.18945 11.4649 6.69043 11.9661C 7.19189 12.4673 7.87158 12.7489 8.58057 12.7489C 9.28906 12.7489 9.96875 12.4673 10.4702 11.9661ZM 20.3804 10.1114C 20.3804 10.8203 20.0986 11.5 19.5977 12.0013C 19.0962 12.5025 18.4165 12.7841 17.708 12.7841C 16.999 12.7841 16.3193 12.5025 15.8179 12.0013C 15.3169 11.5 15.0352 10.8203 15.0352 10.1114C 15.0352 9.40259 15.3169 8.72281 15.8179 8.22159C 16.3193 7.72037 16.999 7.43878 17.708 7.43878C 18.4165 7.43878 19.0962 7.72037 19.5977 8.22159C 20.0986 8.72281 20.3804 9.40259 20.3804 10.1114ZM 13.1587 19.7163C 15.6719 19.7052 17.916 18.1097 18.7935 15.6892L 20.3804 16.2645C 19.2686 19.332 16.3911 21.3894 13.1655 21.4037C 9.94043 21.4179 7.04541 19.3853 5.90771 16.3277L 7.48975 15.7392C 8.3877 18.1518 10.645 19.7274 13.1587 19.7163ZM 41.1572 0C 33.9126 0 28.022 5.89084 28.022 13.1352C 28.022 20.3795 33.9126 26.2704 41.1572 26.2704C 48.4014 26.2704 54.2925 20.3795 54.2925 13.1352C 54.2925 5.89084 48.4014 0 41.1572 0ZM 41.1572 1.68799C 47.4893 1.68799 52.6045 6.8031 52.6045 13.1352C 52.6045 19.4673 47.4893 24.5824 41.1572 24.5824C 34.8252 24.5824 29.71 19.4673 29.71 13.1352C 29.71 6.8031 34.8252 1.68799 41.1572 1.68799ZM 38.4917 11.9661C 38.9927 11.4649 39.2744 10.7851 39.2744 10.0763C 39.2744 9.36749 38.9927 8.68765 38.4917 8.18646C 37.9902 7.68524 37.3105 7.40366 36.6021 7.40366C 35.8931 7.40366 35.2134 7.68524 34.7119 8.18646C 34.2109 8.68765 33.9292 9.36749 33.9292 10.0763C 33.9292 10.7851 34.2109 11.4649 34.7119 11.9661C 35.2134 12.4673 35.8931 12.7489 36.6021 12.7489C 37.3105 12.7489 37.9902 12.4673 38.4917 11.9661ZM 48.4019 10.1114C 48.4019 10.8203 48.1201 11.5 47.6191 12.0013C 47.1177 12.5025 46.438 12.7841 45.7295 12.7841C 45.0205 12.7841 44.3408 12.5025 43.8394 12.0013C 43.3384 11.5 43.0566 10.8203 43.0566 10.1114C 43.0566 9.40259 43.3384 8.72281 43.8394 8.22159C 44.3408 7.72037 45.0205 7.43878 45.7295 7.43878C 46.438 7.43878 47.1177 7.72037 47.6191 8.22159C 48.1201 8.72281 48.4019 9.40259 48.4019 10.1114ZM 41.1802 19.7163C 43.6934 19.7052 45.9375 18.1097 46.8149 15.6892L 48.4019 16.2645C 47.29 19.332 44.4126 21.3894 41.187 21.4037C 37.9619 21.4179 35.0669 19.3853 33.9292 16.3277L 35.5112 15.7392C 36.4092 18.1518 38.6665 19.7274 41.1802 19.7163Z"/>
<path id="path14_fill" d="M 99.1238 485.522L 99.1238 462.108L 95.5533 460.876C 90.6506 459.161 80.5254 454.661 75.6759 452.036C 47.3787 436.605 27.6612 413.085 20.5203 386.242C 18.1222 377.241 17.4294 370.919 17.4294 358.971C 17.4294 342.791 19.2946 330.896 23.771 318.895C 34.589 289.909 56.6512 270.568 93.9546 257.655L 99.1238 255.834L 99.1238 180.128C 99.1238 115.567 99.0172 104.423 98.3777 104.637C 96.4592 105.387 87.7729 111.227 83.8827 114.335C 64.2185 130.194 52.2281 153.34 49.457 180.718C 48.9241 185.754 48.6577 186.986 47.9649 186.986C 47.5386 186.986 40.3443 186.504 31.9777 185.915C 23.6111 185.379 13.5392 184.736 9.59573 184.575C -1.06236 184.093 -0.209715 184.575 0.216609 179.057C 3.04101 142.838 18.1222 109.406 42.3161 85.5101C 56.4381 71.6335 74.397 60.0607 93.5283 52.5598L 98.8573 50.4703L 99.0172 25.2351L 99.1238 0L 118.308 0L 137.493 0L 137.493 20.7882L 137.493 41.5763L 141.383 41.0406C 145.966 40.3976 183.323 40.2905 191.476 40.8798L 197.178 41.3085L 197.178 20.6274L 197.178 0L 216.363 0L 235.547 0L 235.654 24.4315L 235.814 48.8629L 241.676 50.8989C 271.465 61.1322 293.687 77.5806 308.715 100.458C 315.856 111.388 322.038 126.765 324.756 140.374C 326.674 150.018 327.207 156.072 327.207 168.02C 327.207 177.396 327.047 179.218 325.821 184.736C 316.869 225.027 288.891 253.155 241.676 269.496L 235.814 271.532L 235.654 336.683C 235.601 372.526 235.707 401.833 235.92 401.833C 236.773 401.833 242.582 396.958 246.738 392.725C 258.835 380.509 265.71 364.168 266.882 345.094L 267.255 339.469L 273.917 339.683C 277.594 339.737 288.571 340.005 298.377 340.165L 316.176 340.487L 316.069 345.041C 316.016 347.559 315.59 352.595 315.163 356.292C 311.167 388.867 296.725 415.763 272.211 436.284C 264.164 443.035 250.629 451.232 239.704 455.947L 235.547 457.768L 235.547 483.379L 235.547 508.989L 216.363 508.989L 197.178 508.989L 197.178 488.469L 197.178 467.948L 191.743 468.645C 181.937 469.823 164.724 470.681 150.975 470.627L 137.493 470.627L 137.493 489.808L 137.493 508.989L 118.308 508.989L 99.1238 508.989L 99.1238 485.522ZM 173.304 420.585C 182.47 420.05 186.84 419.568 193.874 418.389L 197.178 417.799L 197.178 349.649L 197.178 281.444L 189.078 283.212C 178.367 285.516 176.075 286.052 166.27 288.891C 161.74 290.231 153.373 292.481 147.778 293.874L 137.493 296.446L 137.493 358.489L 137.493 420.478L 140.85 420.8C 142.662 420.961 145.007 421.228 146.019 421.336C 148.524 421.657 161.74 421.282 173.304 420.585ZM 99.1238 358.435L 99.1238 308.608L 97.152 309.412C 96.0329 309.894 93.2085 311.34 90.8637 312.733C 78.2339 320.074 71.3061 328.807 68.1087 341.558C 67.0429 345.844 66.883 347.666 66.883 358.435L 66.883 370.49L 68.6949 375.687C 72.6917 387.367 81.8043 398.083 94.3276 405.852C 96.5125 407.191 98.4843 408.263 98.6974 408.263C 98.9106 408.263 99.1238 385.814 99.1238 358.435ZM 145.593 243.511C 149.483 242.439 155.452 240.778 158.809 239.761C 162.166 238.743 171.172 236.546 178.793 234.939C 186.414 233.278 193.661 231.67 194.94 231.349L 197.178 230.813L 197.178 161.001L 197.178 91.2429L 195.633 90.9215C 187.693 89.3141 152.468 89.1534 142.289 90.6536L 137.759 91.3501L 137.599 168.395C 137.546 215.597 137.706 245.386 137.973 245.386C 138.239 245.386 141.65 244.529 145.593 243.511ZM 245.992 214.043C 255.158 209.007 263.951 201.56 268.907 194.702C 271.892 190.523 275.675 182.539 277.061 177.342C 278.446 172.36 278.553 162.662 277.327 154.465C 273.97 131.694 262.246 115.514 240.663 103.941L 235.547 101.155L 235.547 160.144L 235.547 219.133L 238.638 217.74C 240.29 216.99 243.648 215.329 245.992 214.043Z"/>
<path id="path15_fill" d="M 26.3941 50.8989L 25.4831 50.3628C 24.9271 50.035 11.7682 42.2023 4.2597 30.3347C 0.270011 24.0341 -0.970542 17.3804 0.76442 11.6032C 2.18608 6.87465 5.48214 3.13488 10.0477 1.08118C 11.6414 0.364016 13.2859 -8.15205e-07 14.9357 -8.15205e-07C 20.2185 -8.15205e-07 24.3186 3.67276 26.3941 6.01442C 28.4713 3.67276 32.5697 -8.15205e-07 37.8542 -8.15205e-07C 39.5041 -8.15205e-07 41.1485 0.362204 42.7404 1.08118C 47.306 3.13488 50.6038 6.87284 52.0255 11.6032C 53.7605 17.3786 52.5181 24.0305 48.5302 30.3365C 41.0217 42.2023 27.8628 50.035 27.3068 50.3628L 26.3941 50.8989ZM 14.9339 3.59489C 13.7948 3.59489 12.6484 3.85386 11.5201 4.36095C 7.91978 5.98182 5.32096 8.92292 4.20356 12.6391C 2.77285 17.4021 3.87033 23.0055 7.29498 28.415C 13.2478 37.8215 23.3262 44.7323 26.3941 46.6991C 29.4619 44.7287 39.5512 37.8052 45.4949 28.415C 48.9178 23.0055 50.0171 17.4021 48.5846 12.6391C 47.4671 8.92111 44.8683 5.98001 41.2662 4.36095C 40.1379 3.85386 38.9916 3.59489 37.8542 3.59489C 32.1604 3.59489 27.9316 9.8393 27.89 9.90269L 26.3941 12.1447L 24.9 9.90269C 24.8583 9.84292 20.5915 3.59489 14.9339 3.59489Z"/>
<path id="path16_fill" fill-rule="evenodd" d="M 40.3354 10.3381C 43.1902 10.3381 45.5045 8.02381 45.5045 5.16903C 45.5045 2.31425 43.1902 0 40.3354 0C 37.4807 0 35.1664 2.31425 35.1664 5.16903C 35.1664 8.02381 37.4807 10.3381 40.3354 10.3381ZM 20.0551 5.16908C 20.0551 8.02385 17.7409 10.3381 14.8861 10.3381C 12.0313 10.3381 9.71706 8.02385 9.71706 5.16908C 9.71706 2.3143 12.0313 4.42266e-05 14.8861 4.42266e-05C 17.7409 4.42266e-05 20.0551 2.3143 20.0551 5.16908ZM 27.6109 22.6671L 24.0604 15.253C 23.3982 13.6799 21.387 11.1185 17.8606 11.1185L 11.9118 11.1185C 8.38471 11.1185 6.37347 13.6799 5.71188 15.253L 0.220975 26.7191C -0.315068 27.8386 0.157586 29.1802 1.27706 29.7163C 2.39407 30.2529 3.73818 29.7797 4.27423 28.6602L 9.42479 17.9036L 9.42479 48.6513C 9.42479 49.8927 10.431 50.8983 11.6717 50.8983C 12.9125 50.8983 13.9187 49.892 13.9187 48.6513L 13.9187 32.9171L 15.8518 32.9171L 15.8518 48.652C 15.8518 49.8933 16.858 50.8989 18.0987 50.8989C 19.3394 50.8989 20.3457 49.8927 20.3457 48.652L 20.3457 17.8932L 25.4969 28.6602C 25.8827 29.4664 26.6871 29.9372 27.5253 29.9372C 27.5524 29.9372 27.5794 29.9367 27.6065 29.9357C 28.4755 29.9701 29.3241 29.4947 29.7238 28.6601L 34.8743 17.9036L 34.8743 48.6513C 34.8743 49.8926 35.8806 50.8982 37.1213 50.8982C 38.362 50.8982 39.3682 49.892 39.3682 48.6513L 39.3682 32.9171L 41.3013 32.9171L 41.3013 48.6519C 41.3013 49.8932 42.3075 50.8989 43.5483 50.8989C 44.789 50.8989 45.7952 49.8926 45.7952 48.6519L 45.7952 17.8931L 50.9464 28.6601C 51.3323 29.4664 52.1366 29.9372 52.9749 29.9372C 53.2998 29.9372 53.6303 29.8658 53.9436 29.7162C 55.0637 29.1802 55.5369 27.8385 55.0009 26.7191L 49.51 15.2529C 48.8478 13.6799 46.8365 11.1184 43.3101 11.1184L 37.3613 11.1184C 33.8342 11.1184 31.823 13.6799 31.1614 15.2529L 27.6109 22.6671Z"/>
<path id="path17_fill" d="M 4.86269 9.72538C 7.54828 9.72538 9.72538 7.54828 9.72538 4.86269C 9.72538 2.1771 7.54828 0 4.86269 0C 2.1771 0 0 2.1771 0 4.86269C 0 7.54828 2.1771 9.72538 4.86269 9.72538Z"/>
<path id="path18_fill" d="M 26.8064 0.208537C 25.7527 -0.297475 24.4906 0.149483 23.9869 1.20203L 18.7959 12.0413L 18.7531 12.1374C 18.6928 12.2747 18.1249 13.476 16.802 13.476L 11.2063 13.476C 9.88337 13.476 9.31541 12.2747 9.26736 12.1676L 4.02082 1.20203C 3.51712 0.148904 2.25499 -0.296317 1.20128 0.208537C 0.148727 0.712812 -0.296494 1.97495 0.207781 3.02808L 5.37327 13.8147C 5.83123 14.902 6.97641 16.4878 8.86614 17.2543L 8.86614 48.7851C 8.86614 49.9529 9.81274 50.8989 10.9799 50.8989C 12.1471 50.8989 13.0937 49.9523 13.0937 48.7851L 13.0937 33.9828L 14.9128 33.9828L 14.9128 48.7851C 14.9128 49.9529 15.8594 50.8989 17.0266 50.8989C 18.1938 50.8989 19.1404 49.9523 19.1404 48.7851L 19.1404 17.2543C 21.0301 16.4878 22.1759 14.902 22.6333 13.8147L 27.7987 3.02808C 28.3042 1.97495 27.859 0.712812 26.8064 0.208537Z"/>
<path id="path19_fill" fill-rule="evenodd" d="M 9.23796 25.8855C 8.75654 25.4988 8.31003 25.1382 7.89777 24.8052C 7.95148 25.2376 8.00452 25.7203 8.05824 26.2555C 8.2543 27.2908 8.80757 28.1778 9.71871 28.9191C 10.0115 29.1581 10.1773 29.465 10.2162 29.8396C 10.2552 30.2143 10.1551 30.5487 9.91612 30.8421C 9.67708 31.1355 9.37023 31.3014 8.99557 31.339C 8.62158 31.3779 8.2872 31.2772 7.99244 31.0395C 6.51326 29.8369 5.63367 28.3846 5.35435 26.6832C 5.34898 26.6496 5.34495 26.6181 5.34159 26.5885C 5.19052 25.0785 5.04146 24.0156 4.89374 23.3992C 4.81116 23.0554 4.85346 22.7311 5.02064 22.4256C 4.10816 21.6366 3.34674 20.9149 2.73573 20.2595C 2.74916 20.8987 2.79751 21.5413 2.87942 22.1866C 3.14195 24.26 3.54012 26.3575 4.07526 28.4786C 4.59159 30.499 5.6095 32.559 7.12897 34.6592C 8.71625 36.8501 10.0685 38.5348 11.1851 39.7138C 12.6375 41.1541 13.1813 43.3403 12.8167 46.2731C 12.7422 46.8727 12.9067 47.3206 13.3096 47.6174C 14.0435 48.0303 15.1983 48.2076 16.7742 48.1478C 20.2281 48.0162 22.4015 47.6644 23.2959 47.0916C 23.7679 46.6337 23.874 45.9179 23.6169 44.9423L 23.6169 44.9464C 23.2502 43.5672 23.0273 42.5399 22.9474 41.8638C 22.8554 41.8309 22.7641 41.798 22.6721 41.7658C 22.6292 41.7496 22.5862 41.7315 22.5446 41.712C 19.891 40.4558 17.5947 38.4737 15.6569 35.7658C 14.9284 34.7472 14.1542 33.4896 13.3351 31.9936L 13.3351 31.9976C 13.0974 31.5659 12.3964 30.2264 11.2308 27.9784L 11.2348 27.9831C 10.936 27.4654 10.2606 26.7571 9.20842 25.858L 9.23796 25.8855ZM 26.5108 5.12795C 26.3684 5.82826 26.3342 6.55476 26.408 7.3061C 26.5343 7.91107 27.0412 8.64428 27.9329 9.50439C 28.1659 9.67024 28.3921 9.84146 28.611 10.018L 28.603 10.01C 29.0622 10.3732 29.547 10.8083 30.0573 11.3166C 29.2563 9.7253 28.5674 8.11384 27.9906 6.48358C 27.6442 5.50462 27.3138 4.78014 26.9996 4.31013C 26.7525 4.54379 26.59 4.81908 26.5101 5.13533L 26.5101 5.12795L 26.5108 5.12795ZM 36.209 23.2105C 35.8028 22.4491 35.3489 21.6669 34.8494 20.8638C 34.0208 19.9688 33.1943 19.0456 32.3711 18.0941L 32.359 18.0814C 30.9617 16.4216 29.9694 15.2607 29.3832 14.5966L 29.3792 14.5926C 28.4727 13.5633 27.6468 12.7515 26.9009 12.1552L 26.8928 12.1472C 26.7109 12.0008 26.5228 11.8585 26.3301 11.7195C 26.3093 11.706 26.2878 11.6926 26.2684 11.6778L 26.2261 11.649C 25.5231 11.1629 24.7455 10.7318 23.8921 10.3544L 23.8874 10.3504C 23.1079 10.008 20.6088 8.54558 16.3915 5.9612C 13.6252 4.2638 11.8908 3.2365 11.1885 2.87862C 11.1858 2.94711 11.1845 3.02097 11.1845 3.10087C 11.1898 3.18413 11.2107 3.32714 11.2462 3.52857L 11.2462 3.5326C 11.3114 3.72464 11.5121 4.09594 11.8505 4.64585C 12.4609 5.04133 13.1196 5.47038 13.8273 5.93233L 13.8313 5.93636C 16.3284 7.57669 19.6298 9.78774 23.735 12.5695C 24.0473 12.783 24.2393 13.0751 24.3105 13.4451C 24.381 13.815 24.3105 14.1561 24.0969 14.4684C 23.8854 14.7826 23.5947 14.9753 23.2261 15.0478C 22.8554 15.119 22.513 15.0498 22.1981 14.8376C 18.1063 12.0633 14.8163 9.85757 12.3273 8.22127L 12.3313 8.2253C 11.537 7.70762 10.8044 7.23224 10.133 6.79983C 10.1249 6.79379 10.1169 6.78842 10.1081 6.78372C 10.0961 6.77566 10.084 6.76827 10.0712 6.75887C 7.52847 5.13265 5.99155 4.19733 5.46044 3.95158C 5.45775 4.05834 5.45641 4.18591 5.45641 4.33363C 5.46111 4.45785 5.48595 4.62369 5.53027 4.8305C 5.53295 4.84258 5.53564 4.85198 5.53832 4.85937C 5.61353 5.07222 5.92172 5.62078 6.4629 6.50306C 7.78429 7.3954 9.60524 8.73224 11.9244 10.5149C 14.9009 12.7985 17.6652 14.9887 20.218 17.0856C 20.5094 17.3253 20.6733 17.6322 20.7109 18.0062C 20.7478 18.3822 20.6464 18.7159 20.4067 19.0093C 20.167 19.3014 19.8601 19.4659 19.4862 19.5021C 19.1115 19.5391 18.7771 19.437 18.4837 19.198C 15.951 17.1192 13.2089 14.9484 10.2559 12.6843C 7.90448 10.8761 6.07951 9.53729 4.78228 8.66912C 4.72924 8.64025 4.67888 8.60735 4.62987 8.57109C 3.95843 8.12324 3.52468 7.83855 3.33063 7.71635C 3.336 7.72776 3.336 7.73985 3.33063 7.75395C 3.32996 7.75663 3.32862 7.75932 3.3266 7.76201C 3.21447 7.98425 3.15673 8.21187 3.15404 8.44486C 3.16478 9.08944 3.34809 9.7723 3.70462 10.4914L 3.70462 10.4954C 4.04034 11.1649 4.60502 12.0048 5.39799 13.0147C 7.71983 14.4254 11.6901 17.6577 17.3073 22.7136C 17.5867 22.9668 17.7357 23.2823 17.7552 23.6584C 17.7753 24.0344 17.6585 24.3634 17.4054 24.6447C 17.1536 24.926 16.8393 25.0771 16.4647 25.0973C 16.088 25.1187 15.7583 25.0032 15.4743 24.7515C 9.9235 19.7553 6.04526 16.5961 3.83958 15.2748C 3.79258 15.2506 3.74692 15.2231 3.70395 15.1928C 3.4112 15.0243 3.17418 14.9008 2.99289 14.8229C 2.99021 14.9276 2.98887 15.0478 2.98887 15.1841C 2.98954 15.3432 3.00901 15.5064 3.04661 15.6736C 3.06272 15.7226 3.07615 15.7716 3.08757 15.822C 3.26819 16.4162 3.62673 17.0514 4.16456 17.7289L 4.16053 17.7208C 4.86017 18.5863 5.915 19.6102 7.32503 20.7947C 8.15896 21.4903 9.36822 22.4753 10.9535 23.749C 10.9622 23.7591 10.9716 23.7685 10.9824 23.7779C 12.4072 24.9945 13.2988 25.9742 13.6574 26.7161L 13.6614 26.7201C 14.8082 28.9325 15.4991 30.2506 15.7328 30.6742L 15.7328 30.6783C 16.4915 32.0634 17.208 33.2284 17.8821 34.1711C 19.5123 36.4506 21.4367 38.1299 23.6565 39.2103C 27.44 40.5645 30.8328 42.7192 33.8355 45.6742C 37.4821 44.657 40.3176 42.1216 42.3427 38.0675C 41.0891 36.8481 40.3706 36.0176 40.1893 35.5771L 40.1934 35.5932C 39.6441 34.5357 39.1258 32.565 38.6403 29.6832C 38.3133 27.7951 37.521 25.6707 36.2648 23.3092C 36.2473 23.277 36.2272 23.2441 36.209 23.2105ZM 34.1256 13.0019L 34.1215 12.9979C 35.6685 15.5312 37.1739 18.5124 38.6376 21.9401C 38.6511 21.9663 38.6638 21.9918 38.6752 22.018C 40.096 24.685 40.9837 27.0861 41.3382 29.2219L 41.3382 29.2266C 41.7619 31.7244 42.1976 33.4352 42.6455 34.3598L 42.6495 34.3759C 42.8624 34.7331 43.6251 35.5308 44.9384 36.7682C 45.1486 36.9663 45.2836 37.2073 45.3413 37.4914C 45.3997 37.7761 45.3695 38.0527 45.2507 38.3213C 42.6703 44.0775 38.8203 47.4811 33.6985 48.5292C 33.4682 48.5768 33.2406 48.5668 33.0164 48.4963C 32.7928 48.4271 32.598 48.3083 32.4322 48.1391C 30.4796 46.12 28.3391 44.4871 26.0092 43.2402C 26.0824 43.5424 26.1677 43.8754 26.2643 44.2387L 26.2643 44.2427C 26.8841 46.5807 26.4436 48.2586 24.9409 49.2772C 23.8639 50.1836 21.1775 50.7187 16.8823 50.8846C 14.5773 50.9725 12.898 50.6543 11.8438 49.9311C 10.4573 49.0912 9.87784 47.7604 10.1055 45.9367C 10.3438 44.0137 10.0444 42.5668 9.20573 41.5966C 8.02131 40.3537 6.5898 38.5757 4.9112 36.2626C 3.16478 33.8475 2.00185 31.4746 1.4224 29.144C 0.861072 26.9148 0.443435 24.7105 0.168816 22.5317C -0.105803 20.3717 -0.0453728 18.2365 0.350106 16.1248C 0.286319 15.8025 0.254761 15.4889 0.255433 15.1834C 0.255433 14.2642 0.352792 13.6364 0.547509 13.3014L 0.551537 13.2886C 0.73954 12.7951 1.0672 12.444 1.53386 12.2372C 1.42642 12.0498 1.33242 11.8712 1.25051 11.7027L 1.25051 11.7067C 0.686497 10.5633 0.409863 9.47552 0.420606 8.44419C 0.417921 7.78081 0.577723 7.13421 0.901357 6.50373L 0.905386 6.49567C 1.37875 5.5852 2.00185 5.07289 2.77535 4.95874C 2.7364 4.71434 2.71895 4.50552 2.72163 4.33363C 2.72163 3.39563 2.82571 2.75776 3.03385 2.42271C 3.03452 2.41936 3.03587 2.41667 3.03788 2.41398C 3.35547 1.57603 4.11689 1.15638 5.32279 1.15638C 5.69276 1.08856 6.74087 1.55588 8.46648 2.55834C 8.50072 1.97889 8.59673 1.55253 8.75385 1.27992L 8.75788 1.27186C 9.11509 0.427863 9.8248 0.00552734 10.8863 0.00552734C 11.4161 -0.0925029 13.7286 1.1134 17.8237 3.6266C 20.4772 5.25283 22.419 6.41778 23.6511 7.12414C 23.6034 6.24858 23.6639 5.39988 23.8324 4.57602L 23.8324 4.56864C 24.0687 3.36139 24.7764 2.39988 25.9568 1.68413L 25.9481 1.69219C 26.9546 0.924729 27.9685 1.1604 28.989 2.39921C 29.5094 3.00149 30.0372 4.05968 30.5716 5.57244C 31.4673 8.0984 32.6524 10.576 34.1256 13.0019Z"/>
</defs>
</svg>
