<svg width="25" height="40" viewBox="0 0 25 40" version="1.1" xmlns="http://www.w3.org/2000/svg" xmlns:xlink="http://www.w3.org/1999/xlink">
<title>communion</title>
<desc>Created using Figma</desc>
<g id="Canvas" transform="translate(-2499 -183)">
<g id="communion">
<g id="Vector">
<use xlink:href="#path0_fill" transform="translate(2499 183)" fill="#FFFFFF"/>
</g>
</g>
</g>
<defs>
<path id="path0_fill" d="M 23.823 16.8176C 24.4439 15.9897 24.7544 15.0065 24.6509 13.9715C 24.3922 11.022 22.5293 3.77749 21.7014 0.776197C 21.5979 0.310479 21.1839 9.86985e-08 20.7182 9.86985e-08L 3.95234 9.86985e-08C 3.48662 9.86985e-08 3.07265 0.310479 2.96916 0.776197C 2.14122 3.82924 0.278345 11.022 0.0196123 13.9715C -0.0838805 15.0065 0.226597 15.9897 0.847555 16.8176C 2.3482 18.784 6.85014 22.8719 11.4038 23.3894L 11.4038 35.3946L 2.65868 37.4644C 1.98598 37.6197 1.572 38.1889 1.6755 38.8616C 1.72724 39.5343 2.29646 40 2.96916 40L 21.9601 40C 22.6328 40 23.1503 39.5343 23.2538 38.8616C 23.3055 38.1889 22.8915 37.6197 22.2706 37.4644L 13.5254 35.3946L 13.5254 23.3894C 17.9239 22.7684 22.3741 18.7322 23.823 16.8176ZM 12.3353 21.423C 8.50603 21.423 4.05583 17.6455 2.50344 15.5757C 2.19296 15.1617 2.03772 14.6442 2.08947 14.1268C 2.29646 11.7464 3.74536 5.7956 4.78029 2.06986L 19.942 2.06986C 20.9769 5.84735 22.4258 11.7982 22.6328 14.1268C 22.6846 14.6442 22.5293 15.1617 22.2188 15.5757C 20.6147 17.5938 16.1645 21.423 12.3353 21.423Z"/>
</defs>
</svg>
