<svg xmlns="http://www.w3.org/2000/svg" xmlns:xlink="http://www.w3.org/1999/xlink" width="46" height="46" viewBox="0 0 46 46">
  <defs>
    <clipPath id="clip-path">
      <rect width="46" height="46" fill="none"/>
    </clipPath>
  </defs>
  <g id="evangelism-2" clip-path="url(#clip-path)">
    <path id="Path_714" data-name="Path 714" d="M34,18a9.991,9.991,0,0,0-9,5.663V2a1,1,0,0,0-2,0V13.663A9.991,9.991,0,0,0,14,8H12v4A10,10,0,0,0,22,22h1V38.253a1,1,0,0,0,2,0V32h1A10,10,0,0,0,36,22V18Z" transform="translate(-1 -1)" fill="#72c472"/>
    <path id="Path_715" data-name="Path 715" d="M46,47H2a1,1,0,0,1,0-2h9.1A5.009,5.009,0,0,1,16,41a4.924,4.924,0,0,1,2.2.523A9,9,0,0,1,34.944,45H46a1,1,0,0,1,0,2Z" transform="translate(-1 -1)" fill="#a67c52"/>
  </g>
</svg>
