<svg width="44" height="40" viewBox="0 0 44 40" version="1.1" xmlns="http://www.w3.org/2000/svg" xmlns:xlink="http://www.w3.org/1999/xlink">
<title>evangelism</title>
<desc>Created using Figma</desc>
<g id="Canvas" transform="translate(-2553 -289)">
<g id="evangelism">
<g id="Union">
<use xlink:href="#path0_fill" transform="translate(2553 289)" fill="#FFFFFF"/>
</g>
</g>
</g>
<defs>
<path id="path0_fill" fill-rule="evenodd" d="M 31.6985 8.12439C 33.9419 8.12439 35.7605 6.30569 35.7605 4.06219C 35.7605 1.8187 33.9419 0 31.6985 0C 29.4549 0 27.6362 1.8187 27.6362 4.06219C 27.6362 6.30569 29.4549 8.12439 31.6985 8.12439ZM 15.7605 4.06229C 15.7605 6.30579 13.9419 8.12448 11.6985 8.12448C 9.45485 8.12448 7.63625 6.30579 7.63625 4.06229C 7.63625 1.81879 9.45485 9.15527e-05 11.6985 9.15527e-05C 13.9419 9.15527e-05 15.7605 1.81879 15.7605 4.06229ZM 21.6985 17.8133L 18.9085 11.9869C 18.388 10.7507 16.8074 8.73773 14.0362 8.73773L 9.3611 8.73773C 6.58937 8.73773 5.00881 10.7507 4.48879 11.9869L 0.173601 20.9978C -0.247541 21.8776 0.123797 22.9319 1.00368 23.3532C 1.88137 23.775 2.93776 23.403 3.3589 22.5233L 7.40676 14.07L 7.40676 38.2337C 7.40676 39.2093 8.19753 39.9995 9.17262 39.9995C 10.1475 39.9995 10.9382 39.2088 10.9382 38.2337L 10.9382 25.8687L 12.4575 25.8687L 12.4575 38.2342C 12.4575 39.2097 13.2483 40 14.2234 40C 15.1983 40 15.989 39.2093 15.989 38.2342L 15.989 14.0618L 20.0374 22.5233C 20.3406 23.1569 20.9727 23.5269 21.6314 23.5269C 21.6528 23.5269 21.6743 23.5265 21.6958 23.5257C 22.3784 23.5525 23.0449 23.1789 23.3589 22.5232L 27.4068 14.0699L 27.4068 38.2337C 27.4068 39.2092 28.1975 39.9995 29.1726 39.9995C 30.1475 39.9995 30.9382 39.2087 30.9382 38.2337L 30.9382 25.8686L 32.4575 25.8686L 32.4575 38.2342C 32.4575 39.2097 33.2483 40 34.2234 40C 35.1983 40 35.989 39.2092 35.989 38.2342L 35.989 14.0617L 40.0374 22.5232C 40.3406 23.1568 40.9727 23.5268 41.6314 23.5268C 41.8867 23.5268 42.1465 23.4707 42.3926 23.3531C 43.273 22.9319 43.6448 21.8775 43.2237 20.9978L 38.9085 11.9868C 38.388 10.7506 36.8074 8.73767 34.0362 8.73767L 29.3611 8.73767C 26.5894 8.73767 25.0088 10.7506 24.4888 11.9868L 21.6985 17.8133Z"/>
</defs>
</svg>
