<?xml version="1.0" encoding="UTF-8" standalone="no"?>
<!DOCTYPE svg PUBLIC "-//W3C//DTD SVG 1.1//EN" "http://www.w3.org/Graphics/SVG/1.1/DTD/svg11.dtd">
<svg width="42" height="40" viewBox="0 0 42 40" version="1.1" xmlns="http://www.w3.org/2000/svg" xmlns:xlink="http://www.w3.org/1999/xlink" xml:space="preserve" xmlns:serif="http://www.serif.com/" style="fill-rule:evenodd;clip-rule:evenodd;stroke-linejoin:round;stroke-miterlimit:2;">
    <path id="path2_fill" d="M20.742,40L20.027,39.579C19.59,39.321 9.248,33.166 3.348,23.839C0.212,18.888 -0.763,13.659 0.601,9.119C1.718,5.403 4.308,2.464 7.896,0.85C9.149,0.286 10.441,0 11.738,0C15.889,0 19.111,2.886 20.742,4.727C22.375,2.886 25.596,0 29.749,0C31.045,0 32.337,0.285 33.589,0.85C37.176,2.464 39.768,5.401 40.885,9.119C42.249,13.657 41.273,18.885 38.139,23.841C32.238,33.166 21.897,39.321 21.46,39.579L20.742,40ZM11.736,2.825C10.841,2.825 9.94,3.029 9.053,3.427C6.224,4.701 4.182,7.012 3.303,9.933C2.179,13.676 3.042,18.079 5.733,22.331C10.411,29.723 18.331,35.154 20.742,36.7C23.153,35.151 31.082,29.71 35.753,22.331C38.443,18.079 39.307,13.676 38.181,9.933C37.303,7.011 35.261,4.7 32.43,3.427C31.543,3.029 30.642,2.825 29.749,2.825C25.274,2.825 21.951,7.732 21.918,7.782L20.742,9.544L19.568,7.782C19.535,7.735 16.182,2.825 11.736,2.825Z" style="fill:white;fill-rule:nonzero;"/>
</svg>
