<svg xmlns="http://www.w3.org/2000/svg" xmlns:xlink="http://www.w3.org/1999/xlink" width="46" height="36.874" viewBox="0 0 46 36.874">
  <defs>
    <clipPath id="clip-path">
      <rect width="46" height="36.874" fill="none"/>
    </clipPath>
  </defs>
  <g id="giving-2" clip-path="url(#clip-path)">
    <g id="handout">
      <ellipse id="Ellipse_350" data-name="Ellipse 350" cx="6" cy="6" rx="6" ry="6" transform="translate(32 14.874)" fill="#efd358"/>
      <ellipse id="Ellipse_351" data-name="Ellipse 351" cx="6" cy="6" rx="6" ry="6" transform="translate(18 24.874)" fill="#efd358"/>
      <path id="Path_890" data-name="Path 890" d="M5,0H1A1,1,0,0,0,1,2H5A1,1,0,0,0,5,0Z" transform="translate(21 29.874)" fill="#b29930"/>
      <path id="Path_891" data-name="Path 891" d="M5,0H1A1,1,0,1,0,1,2H5A1,1,0,1,0,5,0Z" transform="translate(35 19.874)" fill="#b29930"/>
      <path id="Path_892" data-name="Path 892" d="M41.012,11.614,23.491,10.09a8,8,0,0,0-4.662,1.024L14,13.874H25.268A2.732,2.732,0,0,1,28,16.606h0a2.732,2.732,0,0,1-2.229,2.686l-10.117,1.9a39.991,39.991,0,0,1-7.371.685H0V7.395L16.449.537A9.6,9.6,0,0,1,22.138.332L44,8.874h0A2.75,2.75,0,0,1,41.012,11.614Z" transform="translate(2 0)" fill="#ead8c5"/>
      <path id="Path_893" data-name="Path 893" d="M6,0H1A1,1,0,0,0,0,1V20a1,1,0,0,0,1,1H6a1,1,0,0,0,1-1V1A1,1,0,0,0,6,0Z" transform="translate(0 2.874)" fill="#5a7a84"/>
    </g>
  </g>
</svg>
