<svg width="26" height="40" viewBox="0 0 26 40" version="1.1" xmlns="http://www.w3.org/2000/svg" xmlns:xlink="http://www.w3.org/1999/xlink">
<title>giving</title>
<desc>Created using Figma</desc>
<g id="Canvas" transform="translate(-2421 -183)">
<g id="giving">
<g id="Group">
<g id="Vector">
<use xlink:href="#path0_fill" transform="matrix(1 0 0 -1 2421 223)" fill="#FFFFFF"/>
</g>
</g>
</g>
</g>
<defs>
<path id="path0_fill" d="M 7.78986 38.1558L 7.78986 36.3158L 7.50927 36.219C 7.12397 36.0842 6.32826 35.7305 5.94716 35.5242C 3.72336 34.3116 2.17382 32.4632 1.61263 30.3537C 1.42417 29.6463 1.36973 29.1495 1.36973 28.2105C 1.36973 26.9389 1.51631 26.0042 1.8681 25.0611C 2.71825 22.7832 4.45206 21.2632 7.38363 20.2484L 7.78986 20.1053L 7.78986 14.1558C 7.78986 9.08211 7.78148 8.20632 7.73123 8.22316C 7.58046 8.28211 6.89783 8.74105 6.5921 8.98526C 5.04675 10.2316 4.10446 12.0505 3.88669 14.2021C 3.84481 14.5979 3.82387 14.6947 3.76943 14.6947C 3.73592 14.6947 3.17055 14.6568 2.51304 14.6105C 1.85553 14.5684 1.06401 14.5179 0.754102 14.5053C -0.0834881 14.4674 -0.0164809 14.5053 0.0170227 14.0716C 0.238984 11.2253 1.42417 8.5979 3.3255 6.72C 4.43531 5.62947 5.84665 4.72 7.35012 4.13053L 7.76892 3.96632L 7.78148 1.98316L 7.78986 0L 9.29752 0L 10.8052 0L 10.8052 1.63368L 10.8052 3.26737L 11.1109 3.22526C 11.4711 3.17474 14.4068 3.16632 15.0476 3.21263L 15.4957 3.24632L 15.4957 1.62105L 15.4957 0L 17.0033 0L 18.511 0L 18.5194 1.92L 18.532 3.84L 18.9926 4C 21.3337 4.80421 23.0801 6.09684 24.2611 7.89474C 24.8223 8.75369 25.3081 9.96211 25.5216 11.0316C 25.6724 11.7895 25.7143 12.2653 25.7143 13.2042C 25.7143 13.9411 25.7017 14.0842 25.6054 14.5179C 24.9018 17.6842 22.7031 19.8947 18.9926 21.1789L 18.532 21.3389L 18.5194 26.4589C 18.5152 29.2758 18.5236 31.579 18.5403 31.579C 18.6073 31.579 19.0638 31.1958 19.3905 30.8632C 20.3411 29.9032 20.8814 28.619 20.9735 27.12L 21.0028 26.6779L 21.5263 26.6947C 21.8153 26.6989 22.678 26.72 23.4486 26.7326L 24.8474 26.7579L 24.839 27.1158C 24.8348 27.3137 24.8013 27.7095 24.7678 28C 24.4537 30.56 23.3188 32.6737 21.3923 34.2863C 20.7599 34.8168 19.6962 35.4611 18.8377 35.8316L 18.511 35.9747L 18.511 37.9874L 18.511 40L 17.0033 40L 15.4957 40L 15.4957 38.3874L 15.4957 36.7747L 15.0685 36.8295C 14.2979 36.9221 12.9452 36.9895 11.8647 36.9853L 10.8052 36.9853L 10.8052 38.4926L 10.8052 40L 9.29752 40L 7.78986 40L 7.78986 38.1558ZM 13.6195 33.0526C 14.3398 33.0105 14.6832 32.9726 15.236 32.88L 15.4957 32.8337L 15.4957 27.4779L 15.4957 22.1179L 14.8591 22.2568C 14.0173 22.4379 13.8373 22.48 13.0667 22.7032C 12.7107 22.8084 12.0532 22.9853 11.6135 23.0947L 10.8052 23.2968L 10.8052 28.1726L 10.8052 33.0442L 11.069 33.0695C 11.2114 33.0821 11.3957 33.1032 11.4753 33.1116C 11.6721 33.1368 12.7107 33.1074 13.6195 33.0526ZM 7.78986 28.1684L 7.78986 24.2526L 7.6349 24.3158C 7.54696 24.3537 7.325 24.4674 7.14073 24.5768C 6.14818 25.1537 5.60375 25.84 5.35247 26.8421C 5.26871 27.1789 5.25615 27.3221 5.25615 28.1684L 5.25615 29.1158L 5.39854 29.5242C 5.71264 30.4421 6.42877 31.2842 7.41294 31.8947C 7.58465 32 7.7396 32.0842 7.75635 32.0842C 7.77311 32.0842 7.78986 30.32 7.78986 28.1684ZM 11.4418 19.1368C 11.7475 19.0526 12.2165 18.9221 12.4804 18.8421C 12.7442 18.7621 13.452 18.5895 14.0508 18.4632C 14.6497 18.3326 15.2193 18.2063 15.3198 18.1811L 15.4957 18.1389L 15.4957 12.6526L 15.4957 7.17053L 15.3742 7.14526C 14.7502 7.01895 11.982 7.00632 11.1821 7.12421L 10.8261 7.17895L 10.8136 13.2337C 10.8094 16.9432 10.8219 19.2842 10.8429 19.2842C 10.8638 19.2842 11.1318 19.2168 11.4418 19.1368ZM 19.3318 16.8211C 20.0522 16.4253 20.7432 15.84 21.1327 15.3011C 21.3672 14.9726 21.6645 14.3453 21.7734 13.9368C 21.8823 13.5453 21.8907 12.7832 21.7944 12.1389C 21.5305 10.3495 20.6092 9.0779 18.9131 8.16842L 18.511 7.94947L 18.511 12.5853L 18.511 17.2211L 18.7539 17.1116C 18.8837 17.0526 19.1476 16.9221 19.3318 16.8211Z"/>
</defs>
</svg>
