<?xml version="1.0" encoding="UTF-8" standalone="no"?>
<!DOCTYPE svg PUBLIC "-//W3C//DTD SVG 1.1//EN" "http://www.w3.org/Graphics/SVG/1.1/DTD/svg11.dtd">
<svg width="46" height="41" viewBox="0 0 46 41" version="1.1" xmlns="http://www.w3.org/2000/svg" xmlns:xlink="http://www.w3.org/1999/xlink" xml:space="preserve" xmlns:serif="http://www.serif.com/" style="fill-rule:evenodd;clip-rule:evenodd;stroke-linejoin:round;stroke-miterlimit:2;">
    <g id="Path_804" transform="matrix(1,0,0,1,-0.99816,-3.00066)">
        <path d="M43.2,6.809C38.152,1.773 29.858,1.773 24.81,6.809C24.529,7.09 24.26,7.386 24.003,7.696C23.746,7.385 23.477,7.09 23.195,6.808C20.757,4.371 17.448,3.001 14.002,3.001C6.868,3.001 0.998,8.871 0.998,16.004C0.998,19.452 2.37,22.762 4.808,25.2L23.3,43.688C23.688,44.076 24.326,44.076 24.714,43.688L43.2,25.2C48.238,20.153 48.238,11.856 43.2,6.809Z" style="fill:rgb(232,108,96);fill-rule:nonzero;"/>
    </g>
</svg>
