<svg width="40" height="20" viewBox="0 0 40 20" version="1.1" xmlns="http://www.w3.org/2000/svg" xmlns:xlink="http://www.w3.org/1999/xlink">
<title>Leadership</title>
<desc>Created using Figma</desc>
<g id="Canvas" transform="translate(-2337 -300)">
<g id="Leadership">
<g id="Union">
<use xlink:href="#path0_fill" transform="translate(2337 300)" fill="#FFFFFF"/>
</g>
</g>
</g>
<defs>
<path id="path0_fill" fill-rule="evenodd" d="M 0 9.6774C 0 4.34009 4.34009 0 9.67749 0C 15.0146 0 19.3547 4.34009 19.3547 9.6774C 19.3547 15.0147 15.0146 19.3548 9.67749 19.3548C 4.34009 19.3548 0 15.0147 0 9.6774ZM 18.1111 9.6774C 18.1111 5.01221 14.3425 1.24362 9.67749 1.24362C 5.01221 1.24362 1.24365 5.01221 1.24365 9.6774C 1.24365 14.3426 5.01221 18.1112 9.67749 18.1112C 14.3425 18.1112 18.1111 14.3426 18.1111 9.6774ZM 7.71362 8.8161C 8.08301 8.44684 8.29053 7.94598 8.29053 7.42377C 8.29053 6.90152 8.08301 6.4007 7.71362 6.0314C 7.34448 5.66214 6.84351 5.45468 6.32129 5.45468C 5.79907 5.45468 5.29834 5.66214 4.92896 6.0314C 4.55981 6.4007 4.35229 6.90152 4.35229 7.42377C 4.35229 7.94598 4.55981 8.44684 4.92896 8.8161C 5.29834 9.18536 5.79907 9.39282 6.32129 9.39282C 6.84351 9.39282 7.34448 9.18536 7.71362 8.8161ZM 15.0154 7.44965C 15.0154 7.97186 14.8079 8.47272 14.4385 8.84198C 14.0693 9.21124 13.5684 9.4187 13.0461 9.4187C 12.5239 9.4187 12.0232 9.21124 11.6538 8.84198C 11.2847 8.47272 11.0771 7.97186 11.0771 7.44965C 11.0771 6.9274 11.2847 6.42657 11.6538 6.05728C 12.0232 5.68802 12.5239 5.48056 13.0461 5.48056C 13.5684 5.48056 14.0693 5.68802 14.4385 6.05728C 14.8079 6.42657 15.0154 6.9274 15.0154 7.44965ZM 9.69434 14.526C 11.5461 14.5179 13.1995 13.3424 13.8459 11.5591L 15.0151 11.9829C 14.1958 14.2429 12.0759 15.7587 9.69971 15.7693C 7.32324 15.7797 5.19067 14.2822 4.35229 12.0294L 5.51782 11.5959C 6.1792 13.3734 7.84253 14.5342 9.69434 14.526ZM 30.3228 0C 24.9854 0 20.6453 4.34009 20.6453 9.6774C 20.6453 15.0147 24.9854 19.3548 30.3228 19.3548C 35.6599 19.3548 40 15.0147 40 9.6774C 40 4.34009 35.6599 0 30.3228 0ZM 30.3228 1.24362C 34.9878 1.24362 38.7563 5.01221 38.7563 9.6774C 38.7563 14.3426 34.9878 18.1112 30.3228 18.1112C 25.6575 18.1112 21.8889 14.3426 21.8889 9.6774C 21.8889 5.01221 25.6575 1.24362 30.3228 1.24362ZM 28.3589 8.8161C 28.7283 8.44684 28.9358 7.94598 28.9358 7.42377C 28.9358 6.90152 28.7283 6.4007 28.3589 6.0314C 27.9897 5.66214 27.4888 5.45468 26.9666 5.45468C 26.4443 5.45468 25.9436 5.66214 25.5742 6.0314C 25.2051 6.4007 24.9976 6.90152 24.9976 7.42377C 24.9976 7.94598 25.2051 8.44684 25.5742 8.8161C 25.9436 9.18536 26.4443 9.39282 26.9666 9.39282C 27.4888 9.39282 27.9897 9.18536 28.3589 8.8161ZM 35.6602 7.44965C 35.6602 7.97186 35.4526 8.47272 35.0833 8.84198C 34.7141 9.21124 34.2131 9.4187 33.6909 9.4187C 33.1687 9.4187 32.668 9.21124 32.2986 8.84198C 31.9294 8.47272 31.7219 7.97186 31.7219 7.44965C 31.7219 6.9274 31.9294 6.42657 32.2986 6.05728C 32.668 5.68802 33.1687 5.48056 33.6909 5.48056C 34.2131 5.48056 34.7141 5.68802 35.0833 6.05728C 35.4526 6.42657 35.6602 6.9274 35.6602 7.44965ZM 30.3396 14.526C 32.1914 14.5179 33.8447 13.3424 34.4912 11.5591L 35.6604 11.9829C 34.8411 14.2429 32.7212 15.7587 30.345 15.7693C 27.9685 15.7797 25.8359 14.2822 24.9976 12.0294L 26.1631 11.5959C 26.8245 13.3734 28.4878 14.5342 30.3396 14.526Z"/>
</defs>
</svg>
