<svg xmlns="http://www.w3.org/2000/svg" xmlns:xlink="http://www.w3.org/1999/xlink" width="46" height="21.763" viewBox="0 0 46 21.763">
  <defs>
    <clipPath id="clip-path">
      <rect width="46" height="21.763" fill="none"/>
    </clipPath>
  </defs>
  <g id="leadership-2" clip-path="url(#clip-path)">
    <g id="Group_855" data-name="Group 855" transform="translate(-6500 1489)">
      <g id="smile" transform="translate(6500 -1489)">
        <path id="Path_815" data-name="Path 815" d="M12.645,23.763A10.765,10.765,0,0,1,2,12.882,10.765,10.765,0,0,1,12.645,2,10.765,10.765,0,0,1,23.29,12.882,10.778,10.778,0,0,1,12.645,23.763Z" transform="translate(-2 -2)" fill="#ffd764"/>
        <path id="Path_816" data-name="Path 816" d="M12.452,21.9A1.452,1.452,0,1,1,13.9,20.452,1.452,1.452,0,0,1,12.452,21.9Z" transform="translate(-6.645 -10.563)" fill="#444"/>
        <path id="Path_817" data-name="Path 817" d="M32.452,21.9A1.452,1.452,0,1,1,33.9,20.452,1.452,1.452,0,0,1,32.452,21.9Z" transform="translate(-16.968 -10.563)" fill="#444"/>
        <path id="Path_818" data-name="Path 818" d="M19.9,35.886a4.366,4.366,0,0,1-3.779-2.2.484.484,0,1,1,.84-.481,3.382,3.382,0,0,0,5.878,0,.484.484,0,1,1,.84.481A4.366,4.366,0,0,1,19.9,35.886Z" transform="translate(-9.256 -17.596)" fill="#444"/>
      </g>
      <g id="smile-2" data-name="smile" transform="translate(6524.709 -1489)">
        <path id="Path_815-2" data-name="Path 815" d="M12.645,23.763A10.765,10.765,0,0,1,2,12.882,10.765,10.765,0,0,1,12.645,2,10.765,10.765,0,0,1,23.29,12.882,10.778,10.778,0,0,1,12.645,23.763Z" transform="translate(-2 -2)" fill="#ffd764"/>
        <path id="Path_816-2" data-name="Path 816" d="M12.452,21.9A1.452,1.452,0,1,1,13.9,20.452,1.452,1.452,0,0,1,12.452,21.9Z" transform="translate(-6.645 -10.563)" fill="#444"/>
        <path id="Path_817-2" data-name="Path 817" d="M32.452,21.9A1.452,1.452,0,1,1,33.9,20.452,1.452,1.452,0,0,1,32.452,21.9Z" transform="translate(-16.968 -10.563)" fill="#444"/>
        <path id="Path_818-2" data-name="Path 818" d="M19.9,35.886a4.366,4.366,0,0,1-3.779-2.2.484.484,0,1,1,.84-.481,3.382,3.382,0,0,0,5.878,0,.484.484,0,1,1,.84.481A4.366,4.366,0,0,1,19.9,35.886Z" transform="translate(-9.256 -17.596)" fill="#444"/>
      </g>
    </g>
  </g>
</svg>
