<svg xmlns="http://www.w3.org/2000/svg" viewBox="0 0 34.55 39.37"><defs><style>.cls-1{fill:#414042;}.cls-2{fill:#43a6dd;}.cls-3{fill:#fff;}.cls-4{fill:#e59c33;}.cls-5{fill:#58595b;}</style></defs><g id="Layer_2" data-name="Layer 2"><g id="Layer_1-2" data-name="Layer 1"><path class="cls-1" d="M26.48,35.49v-2.7a.4.4,0,0,0-.39-.39H8.46a.4.4,0,0,0-.39.39v2.7a.39.39,0,0,1-.39.4H.39a.39.39,0,0,0-.39.39V39a.39.39,0,0,0,.39.39H34.16a.39.39,0,0,0,.39-.39v-2.7a.39.39,0,0,0-.39-.39H26.87A.39.39,0,0,1,26.48,35.49Z"/><path class="cls-2" d="M25.92,6.69a16.64,16.64,0,0,1-6.54,2.37l-2.11,7L15.14,9a19.48,19.48,0,0,1-6.5-2.37L7.13,10a23.87,23.87,0,0,0,6.51,2.45V27.8h7.27V12.59a20.75,20.75,0,0,0,6.52-2.49v0Z"/><path class="cls-3" d="M19.38,9.06A15.08,15.08,0,0,1,15.14,9l2.13,7.06Z"/><circle class="cls-4" cx="17.27" cy="3.64" r="3.64"/><path class="cls-5" d="M13.64,29.24a1.84,1.84,0,0,0,1.84,1.83,1.81,1.81,0,0,0,1.79-1.63,1.83,1.83,0,0,0,3.64-.2V27.8H13.64Z"/><path class="cls-4" d="M29.63,6.45a1.82,1.82,0,0,0-2.2-.61,1.61,1.61,0,0,0-.36.15c-.38.27-.77.46-1.15.7l1.51,3.39v0C28,9.76,28.59,9.41,29.16,9A1.84,1.84,0,0,0,29.63,6.45Z"/><path class="cls-4" d="M7.12,5.84a1.81,1.81,0,0,0-2.24.68,1.83,1.83,0,0,0,.57,2.53c.56.36,1.11.66,1.67,1h0L8.64,6.63C8.23,6.4,7.83,6.21,7.41,6A1.45,1.45,0,0,0,7.12,5.84Z"/><path class="cls-1" d="M17.62,10.15h.05a.12.12,0,0,0,.12-.13V9.23a.12.12,0,0,0-.12-.12h-.79a.12.12,0,0,0-.12.12V10a.12.12,0,0,0,.12.13h.05l-.67,1.53,1,3.36,1-3.36Z"/></g></g></svg>