<svg height='50px' width='50px'  fill="#000000" xmlns="http://www.w3.org/2000/svg" viewBox="0 0 100 100" x="0px" y="0px"><g><path d="M85,76.5A2.5,2.5,0,0,0,82.5,79v3.5H79a2.5,2.5,0,0,0,0,5h6A2.5,2.5,0,0,0,87.5,85V79A2.5,2.5,0,0,0,85,76.5Z"></path><path d="M67.4,82.5H55.8a2.5,2.5,0,0,0,0,5H67.4a2.5,2.5,0,0,0,0-5Z"></path><path d="M44.2,82.5H32.6a2.5,2.5,0,1,0,0,5H44.2a2.5,2.5,0,0,0,0-5Z"></path><path d="M21,82.5H17.5V79a2.5,2.5,0,0,0-5,0v6A2.5,2.5,0,0,0,15,87.5h6a2.5,2.5,0,0,0,0-5Z"></path><path d="M15,69.9a2.5,2.5,0,0,0,2.5-2.5V55.8a2.5,2.5,0,0,0-5,0V67.4A2.5,2.5,0,0,0,15,69.9Z"></path><path d="M15,46.7a2.5,2.5,0,0,0,2.5-2.5V32.6a2.5,2.5,0,0,0-5,0V44.2A2.5,2.5,0,0,0,15,46.7Z"></path><path d="M21,12.5H15A2.5,2.5,0,0,0,12.5,15v6a2.5,2.5,0,0,0,5,0V17.5H21a2.5,2.5,0,0,0,0-5Z"></path><path d="M55.8,17.5H67.4a2.5,2.5,0,0,0,0-5H55.8a2.5,2.5,0,0,0,0,5Z"></path><path d="M32.6,17.5H44.2a2.5,2.5,0,0,0,0-5H32.6a2.5,2.5,0,0,0,0,5Z"></path><path d="M85,12.5H79a2.5,2.5,0,0,0,0,5h3.5V21a2.5,2.5,0,0,0,5,0V15A2.5,2.5,0,0,0,85,12.5Z"></path><path d="M85,53.3a2.5,2.5,0,0,0-2.5,2.5V67.4a2.5,2.5,0,0,0,5,0V55.8A2.5,2.5,0,0,0,85,53.3Z"></path><path d="M85,30.1a2.5,2.5,0,0,0-2.5,2.5V44.2a2.5,2.5,0,0,0,5,0V32.6A2.5,2.5,0,0,0,85,30.1Z"></path></g></svg>