<svg xmlns="http://www.w3.org/2000/svg" width="18" height="18" viewBox="0 0 18 18">
  <g id="notifications-line" transform="translate(-260 -614)">
    <g id="Path_648" data-name="Path 648" transform="translate(261 615)" fill="none">
      <path d="M10,14H6a2,2,0,0,0,4,0Z" stroke="none"/>
      <path d="M 6 14 C 6 15.10000038146973 6.899999618530273 16 8 16 C 9.100000381469727 16 10 15.10000038146973 10 14 L 6 14 M 5 13 L 6 13 L 10 13 L 11 13 L 11 14 C 11 15.65421009063721 9.654210090637207 17 8 17 C 6.345789909362793 17 5 15.65421009063721 5 14 L 5 13 Z" stroke="none" fill="#707070"/>
    </g>
    <g id="Path_649" data-name="Path 649" transform="translate(261 615)" fill="none">
      <path d="M15,11h-.5A4.351,4.351,0,0,1,13,8V5A4.951,4.951,0,0,0,8,0,4.951,4.951,0,0,0,3,5V8a4.351,4.351,0,0,1-1.5,3H1a1,1,0,0,0,0,2H15a1,1,0,0,0,0-2Z" stroke="none"/>
      <path d="M 15 13 C 15.60000038146973 13 16 12.60000038146973 16 12 C 16 11.39999961853027 15.60000038146973 11 15 11 L 14.5 11 C 13.80000019073486 10.30000019073486 13 9.300000190734863 13 8 L 13 5 C 13 2.200000047683716 10.80000019073486 -8.881784197001252e-16 8 -8.881784197001252e-16 C 5.199999809265137 -8.881784197001252e-16 3 2.200000047683716 3 5 L 3 8 C 3 9.300000190734863 2.200000047683716 10.30000019073486 1.5 11 L 1 11 C 0.4000000059604645 11 0 11.39999961853027 0 12 C 0 12.60000038146973 0.4000000059604645 13 1 13 L 15 13 M 15 14 L 1 14 C -0.1588799953460693 14 -1 13.15888023376465 -1 12 C -1 10.84111976623535 -0.1588799953460693 10 1 10 L 1.07075309753418 10 C 1.70308780670166 9.294093132019043 2 8.651790618896484 2 8 L 2 5 C 2 3.378679990768433 2.618969917297363 1.866819977760315 3.742889881134033 0.7428900003433228 C 4.866819858551025 -0.3810299932956696 6.378680229187012 -1 8 -1 C 9.621319770812988 -1 11.13317966461182 -0.3810299932956696 12.25710964202881 0.7428900003433228 C 13.38103008270264 1.866819977760315 14 3.378679990768433 14 5 L 14 8 C 14 8.651790618896484 14.29691219329834 9.294093132019043 14.92924690246582 10 L 15 10 C 16.15888023376465 10 17 10.84111976623535 17 12 C 17 13.15888023376465 16.15888023376465 14 15 14 Z" stroke="none" fill="#707070"/>
    </g>
  </g>
</svg>
