<svg xmlns="http://www.w3.org/2000/svg" width="16" height="16" viewBox="0 0 16 16">
  <g id="nav-notifications" transform="translate(-261 -615)">
    <path id="Path_648" data-name="Path 648" d="M10,14H6a2,2,0,0,0,4,0Z" transform="translate(261 615)" fill="#3f729b"/>
    <path id="Path_649" data-name="Path 649" d="M15,11h-.5A4.351,4.351,0,0,1,13,8V5A4.951,4.951,0,0,0,8,0,4.951,4.951,0,0,0,3,5V8a4.351,4.351,0,0,1-1.5,3H1a1,1,0,0,0,0,2H15a1,1,0,0,0,0-2Z" transform="translate(261 615)" fill="#3f729b"/>
  </g>
</svg>
