<svg xmlns="http://www.w3.org/2000/svg" width="14" height="14" viewBox="0 0 14 14">
  <path id="nav-settings" d="M11.637,4.55,12.6,2.712,11.375,1.487,9.538,2.45a3.135,3.135,0,0,0-.963-.35L7.875,0H6.125l-.7,2.013a3.657,3.657,0,0,0-.875.35L2.712,1.4,1.4,2.712,2.362,4.55a3.657,3.657,0,0,0-.35.875L0,6.125v1.75l2.013.7c.087.35.262.613.35.963L1.4,11.375,2.625,12.6l1.838-.963a3.134,3.134,0,0,0,.962.35L6.125,14h1.75l.7-2.012c.35-.088.613-.263.963-.35l1.837.963L12.6,11.375l-.963-1.837a3.134,3.134,0,0,0,.35-.963L14,7.875V6.125l-2.012-.7A3.657,3.657,0,0,0,11.637,4.55ZM7,9.625A2.578,2.578,0,0,1,4.375,7,2.578,2.578,0,0,1,7,4.375,2.578,2.578,0,0,1,9.625,7,2.578,2.578,0,0,1,7,9.625Z" fill="#3f729b"/>
</svg>
