<svg xmlns="http://www.w3.org/2000/svg" width="17" height="17.046" viewBox="0 0 17 17.046">
  <g id="groups-line" transform="translate(-223.5 -615.489)">
    <path id="Path_683" data-name="Path 683" d="M10.2,11.4l-2.7-2A3.646,3.646,0,0,0,9,6.5V5.7A3.622,3.622,0,0,0,5.7,2,3.525,3.525,0,0,0,2,5.5v1A3.646,3.646,0,0,0,3.5,9.4L.8,11.5A2.088,2.088,0,0,0,0,13.1V15a.945.945,0,0,0,1,1h9a.945.945,0,0,0,1-1V13A2.088,2.088,0,0,0,10.2,11.4Z" transform="translate(224 616.034)" fill="none" stroke="#707070" stroke-width="1"/>
    <path id="Path_684" data-name="Path 684" d="M15.1,6.4,13.3,5.2A2.413,2.413,0,0,0,14,3.5V2.6A2.677,2.677,0,0,0,11.9,0,2.616,2.616,0,0,0,9.2,1.4a5.366,5.366,0,0,1,1.8,4v1a5.135,5.135,0,0,1-.6,2.5,10.592,10.592,0,0,1,1.2,1H15a.945.945,0,0,0,1-1V8.1A1.965,1.965,0,0,0,15.1,6.4Z" transform="translate(224 616.034)" fill="none" stroke="#707070" stroke-width="1"/>
  </g>
</svg>
