<svg width="23" height="40" viewBox="0 0 23 40" version="1.1" xmlns="http://www.w3.org/2000/svg" xmlns:xlink="http://www.w3.org/1999/xlink">
<title>praise</title>
<desc>Created using Figma</desc>
<g id="Canvas" transform="translate(-2500 -290)">
<g id="praise">
<g id="Group">
<g id="Vector">
<use xlink:href="#path0_fill" transform="translate(2507.18 292.371)" fill="#FFFFFF"/>
</g>
<g id="Vector">
<use xlink:href="#path1_fill" transform="translate(2500 290)" fill="#FFFFFF"/>
</g>
</g>
</g>
</g>
<defs>
<path id="path0_fill" d="M 3.82145 7.64291C 5.93198 7.64291 7.64291 5.93198 7.64291 3.82145C 7.64291 1.71092 5.93198 0 3.82145 0C 1.71092 0 0 1.71092 0 3.82145C 0 5.93198 1.71092 7.64291 3.82145 7.64291Z"/>
<path id="path1_fill" d="M 21.0664 0.163884C 20.2383 -0.233777 19.2464 0.117475 18.8506 0.944645L 14.7712 9.46295L 14.7375 9.53848C 14.6902 9.64631 14.2438 10.5904 13.2042 10.5904L 8.80672 10.5904C 7.76707 10.5904 7.32072 9.64631 7.28296 9.56214L 3.15985 0.944645C 2.76401 0.11702 1.77213 -0.232867 0.94405 0.163884C 0.11688 0.560179 -0.233006 1.55206 0.163289 2.37968L 4.2227 10.8566C 4.5826 11.7111 5.48257 12.9573 6.96765 13.5597L 6.96765 38.3388C 6.96765 39.2565 7.71156 40 8.62882 40C 9.54607 40 10.29 39.2561 10.29 38.3388L 10.29 26.7061L 11.7196 26.7061L 11.7196 38.3388C 11.7196 39.2565 12.4635 40 13.3807 40C 14.298 40 15.0419 39.2561 15.0419 38.3388L 15.0419 13.5597C 16.527 12.9573 17.4274 11.7111 17.7868 10.8566L 21.8463 2.37968C 22.2435 1.55206 21.8936 0.560179 21.0664 0.163884Z"/>
</defs>
</svg>
