<svg xmlns="http://www.w3.org/2000/svg" xmlns:xlink="http://www.w3.org/1999/xlink" width="46" height="45" viewBox="0 0 46 45">
  <defs>
    <clipPath id="clip-path">
      <rect width="46" height="45" fill="none"/>
    </clipPath>
  </defs>
  <g id="praise-2" clip-path="url(#clip-path)">
    <g id="raising-hands" transform="translate(-1 -1)">
      <path id="Path_819" data-name="Path 819" d="M23,29a2,2,0,0,0-3.691-1.057L17,31.773V17a2,2,0,0,0-4,0V15a2,2,0,0,0-4,0,2,2,0,0,0-4,0v3a2,2,0,0,0-4,0V35.883a7.257,7.257,0,0,0,2,5.033V45a1,1,0,0,0,1,1H15a1,1,0,0,0,1-1V41c3.562-2.938,6.884-11.351,6.89-11.375A1.963,1.963,0,0,0,23,29Z" fill="#ffd764"/>
      <path id="Path_820" data-name="Path 820" d="M13,28a1,1,0,0,1-1-1V18a1,1,0,0,1,2,0v9A1,1,0,0,1,13,28Z" fill="#e2ac4b"/>
      <path id="Path_821" data-name="Path 821" d="M9,28a1,1,0,0,1-1-1V16a1,1,0,0,1,2,0V27A1,1,0,0,1,9,28Z" fill="#e2ac4b"/>
      <path id="Path_822" data-name="Path 822" d="M5,29a1,1,0,0,1-1-1V19a1,1,0,0,1,2,0v9A1,1,0,0,1,5,29Z" fill="#e2ac4b"/>
      <path id="Path_823" data-name="Path 823" d="M11,37a1,1,0,0,1-1-.913,5.79,5.79,0,0,1,1.674-4.513,5.7,5.7,0,0,1,4.413-1.554,1,1,0,1,1-.183,1.991,3.59,3.59,0,0,0-3.9,3.9A1,1,0,0,1,11.087,37q-.043,0-.087,0Z" fill="#e2ac4b"/>
      <path id="Path_824" data-name="Path 824" d="M25,29a2,2,0,0,1,3.691-1.057L31,31.773V17a2,2,0,0,1,4,0V15a2,2,0,0,1,4,0,2,2,0,0,1,4,0v3a2,2,0,0,1,4,0V35.883a7.257,7.257,0,0,1-2,5.033V45a1,1,0,0,1-1,1H33a1,1,0,0,1-1-1V41c-3.563-2.937-6.884-11.351-6.89-11.375A1.963,1.963,0,0,1,25,29Z" fill="#ffd764"/>
      <path id="Path_825" data-name="Path 825" d="M35,28a1,1,0,0,0,1-1V18a1,1,0,0,0-2,0v9A1,1,0,0,0,35,28Z" fill="#e2ac4b"/>
      <path id="Path_826" data-name="Path 826" d="M39,28a1,1,0,0,0,1-1V16a1,1,0,0,0-2,0V27A1,1,0,0,0,39,28Z" fill="#e2ac4b"/>
      <path id="Path_827" data-name="Path 827" d="M43,29a1,1,0,0,0,1-1V19a1,1,0,0,0-2,0v9A1,1,0,0,0,43,29Z" fill="#e2ac4b"/>
      <path id="Path_828" data-name="Path 828" d="M37,37a1,1,0,0,0,1-.913,5.79,5.79,0,0,0-1.674-4.513,5.7,5.7,0,0,0-4.413-1.554,1,1,0,1,0,.183,1.991,3.59,3.59,0,0,1,3.9,3.9A1,1,0,0,0,36.913,37q.043,0,.087,0Z" fill="#e2ac4b"/>
      <path id="Path_829" data-name="Path 829" d="M25,1H23a1,1,0,0,0-.99,1.142l1,7a1,1,0,0,0,1.98,0l1-7A1,1,0,0,0,25,1Z" fill="#b3b3b3"/>
      <path id="Path_830" data-name="Path 830" d="M15.717,3.667a1,1,0,0,0-1.4-.554l-1.774.925a1,1,0,0,0-.351,1.47l4.125,5.744a1,1,0,0,0,1.755-.916Z" fill="#b3b3b3"/>
      <path id="Path_831" data-name="Path 831" d="M35.973,4.693a1,1,0,0,0-.511-.655l-1.774-.925a1,1,0,0,0-1.4.554l-2.35,6.669a1,1,0,0,0,1.755.916l4.124-5.744a1,1,0,0,0,.161-.815Z" fill="#b3b3b3"/>
    </g>
  </g>
</svg>
