<svg width="36" height="40" viewBox="0 0 36 40" version="1.1" xmlns="http://www.w3.org/2000/svg" xmlns:xlink="http://www.w3.org/1999/xlink">
<title>prayer</title>
<desc>Created using Figma</desc>
<g id="Canvas" transform="translate(-2647 -182)">
<g id="prayer">
<g id="Group">
<g id="Vector">
<use xlink:href="#path0_fill" transform="matrix(-1 0 0 1 2682.66 182)" fill="#FFFFFF"/>
</g>
</g>
</g>
</g>
<defs>
<path id="path0_fill" fill-rule="evenodd" d="M 7.25985 20.3427C 6.88152 20.0388 6.53062 19.7554 6.20663 19.4937C 6.24885 19.8335 6.29053 20.2129 6.33275 20.6335C 6.48682 21.4471 6.92162 22.1442 7.63766 22.7267C 7.86773 22.9146 7.99806 23.1557 8.02866 23.4501C 8.05927 23.7446 7.98065 24.0073 7.7928 24.2379C 7.60495 24.4685 7.3638 24.5989 7.06937 24.6284C 6.77546 24.659 6.51268 24.5799 6.28103 24.3931C 5.11859 23.448 4.42734 22.3067 4.20783 20.9696C 4.20361 20.9432 4.20045 20.9184 4.19781 20.8952C 4.07908 19.7085 3.96194 18.8732 3.84586 18.3888C 3.78095 18.1186 3.81419 17.8637 3.94558 17.6236C 3.22849 17.0036 2.63011 16.4364 2.14994 15.9214C 2.16049 16.4237 2.19848 16.9287 2.26286 17.4358C 2.46917 19.0652 2.78208 20.7137 3.20263 22.3806C 3.60841 23.9683 4.40835 25.5872 5.60246 27.2377C 6.84986 28.9595 7.91258 30.2834 8.79009 31.21C 9.93143 32.3418 10.3588 34.0599 10.0723 36.3648C 10.0137 36.836 10.143 37.1879 10.4596 37.4211C 11.0364 37.7457 11.9439 37.885 13.1824 37.838C 15.8967 37.7346 17.6047 37.4581 18.3076 37.008C 18.6786 36.6481 18.7619 36.0856 18.5598 35.3189L 18.5598 35.3221C 18.2717 34.2383 18.0965 33.4309 18.0337 32.8996C 17.9615 32.8737 17.8897 32.8479 17.8174 32.8225C 17.7836 32.8099 17.7499 32.7956 17.7171 32.7803C 15.6318 31.7931 13.8272 30.2354 12.3043 28.1073C 11.7318 27.3068 11.1234 26.3185 10.4797 25.1429L 10.4797 25.1461C 10.2929 24.8068 9.742 23.7541 8.82597 21.9874L 8.82913 21.9911C 8.59432 21.5843 8.06349 21.0276 7.23664 20.3211L 7.25985 20.3427ZM 20.8341 4.02991C 20.7222 4.58026 20.6953 5.1512 20.7533 5.74166C 20.8525 6.21708 21.2509 6.7933 21.9517 7.46924C 22.1348 7.59957 22.3126 7.73413 22.4846 7.8729L 22.4783 7.86657C 22.8392 8.15204 23.2202 8.49396 23.6212 8.89341C 22.9917 7.64284 22.4503 6.37644 21.997 5.09527C 21.7248 4.32593 21.4652 3.75658 21.2182 3.38721C 21.024 3.57084 20.8963 3.78718 20.8335 4.03571L 20.8335 4.02991L 20.8341 4.02991ZM 28.4557 18.2405C 28.1364 17.6421 27.7797 17.0274 27.3872 16.3963C 26.736 15.6929 26.0865 14.9674 25.4395 14.2197L 25.43 14.2096C 24.332 12.9053 23.5521 11.9929 23.0914 11.4711L 23.0883 11.4679C 22.3759 10.659 21.7269 10.021 21.1406 9.55246L 21.1343 9.54613C 20.9913 9.4311 20.8436 9.31923 20.6921 9.21001C 20.6758 9.19945 20.6589 9.1889 20.6436 9.17729L 20.6103 9.1546C 20.0579 8.77257 19.4468 8.43381 18.7762 8.13726L 18.7725 8.1341C 18.1599 7.86499 16.1959 6.71573 12.8816 4.68474C 10.7076 3.3508 9.34466 2.54347 8.79273 2.26223C 8.79062 2.31605 8.78956 2.37409 8.78956 2.43688C 8.79378 2.50232 8.81014 2.61471 8.83811 2.77301L 8.83811 2.77617C 8.88929 2.92709 9.04706 3.21889 9.313 3.65104C 9.79265 3.96184 10.3103 4.29902 10.8665 4.66205L 10.8696 4.66522C 12.832 5.95431 15.4265 7.69191 18.6527 9.87803C 18.8981 10.0458 19.049 10.2754 19.1049 10.5661C 19.1603 10.8569 19.1049 11.1249 18.9371 11.3703C 18.7709 11.6172 18.5424 11.7687 18.2527 11.8256C 17.9615 11.8816 17.6923 11.8272 17.4449 11.6605C 14.2293 9.48017 11.6437 7.74679 9.68765 6.46087L 9.69081 6.46403C 9.06658 6.0572 8.4909 5.68361 7.96323 5.3438C 7.9569 5.33905 7.95057 5.33483 7.94371 5.33113C 7.93421 5.3248 7.92471 5.319 7.91469 5.31161C 5.91642 4.0336 4.70859 3.29856 4.29121 3.10544C 4.28909 3.18934 4.28804 3.28959 4.28804 3.40568C 4.29173 3.5033 4.31126 3.63363 4.34608 3.79615C 4.34819 3.80565 4.3503 3.81304 4.35241 3.81884C 4.41151 3.98611 4.65371 4.41722 5.07901 5.11057C 6.11746 5.81184 7.54849 6.86242 9.37105 8.26337C 11.7102 10.058 13.8826 11.7792 15.8888 13.4271C 16.1178 13.6155 16.2465 13.8566 16.2761 14.1505C 16.3051 14.446 16.2254 14.7083 16.0371 14.9389C 15.8487 15.1684 15.6075 15.2977 15.3136 15.3262C 15.0192 15.3552 14.7564 15.275 14.5258 15.0872C 12.5355 13.4535 10.3805 11.7476 8.0598 9.96826C 6.21191 8.54726 4.77771 7.49509 3.75826 6.81282C 3.71658 6.79013 3.677 6.76427 3.63848 6.73578C 3.11082 6.38383 2.76994 6.1601 2.61745 6.06406C 2.62167 6.07303 2.62167 6.08253 2.61745 6.09361C 2.61692 6.09572 2.61587 6.09783 2.61428 6.09994C 2.52616 6.2746 2.48078 6.45348 2.47867 6.63658C 2.48712 7.14314 2.63117 7.67978 2.91136 8.24491L 2.91136 8.24807C 3.17519 8.77415 3.61896 9.43427 4.24213 10.2279C 6.0668 11.3365 9.18689 13.8767 13.6013 17.85C 13.8209 18.0489 13.938 18.2969 13.9533 18.5924C 13.9691 18.8879 13.8773 19.1465 13.6784 19.3676C 13.4805 19.5887 13.2336 19.7074 12.9391 19.7232C 12.6431 19.7401 12.384 19.6494 12.1608 19.4515C 7.7986 15.5251 4.7508 13.0424 3.01742 12.004C 2.98048 11.985 2.9446 11.9634 2.91083 11.9396C 2.68077 11.8072 2.4945 11.7101 2.35203 11.6489C 2.34992 11.7312 2.34887 11.8256 2.34887 11.9328C 2.34939 12.0578 2.3647 12.186 2.39424 12.3174C 2.40691 12.356 2.41746 12.3945 2.42643 12.434C 2.56838 12.901 2.85015 13.4002 3.27281 13.9326L 3.26964 13.9263C 3.81947 14.6064 4.64844 15.4111 5.75653 16.3419C 6.4119 16.8886 7.36222 17.6627 8.60804 18.6637C 8.6149 18.6716 8.62229 18.679 8.63073 18.6864C 9.75044 19.6425 10.4512 20.4124 10.733 20.9954L 10.7361 20.9986C 11.6374 22.7373 12.1803 23.7731 12.364 24.106L 12.364 24.1092C 12.9602 25.1978 13.5233 26.1133 14.053 26.8541C 15.3342 28.6455 16.8465 29.9652 18.591 30.8142C 21.5644 31.8785 24.2307 33.5718 26.5904 35.8941C 29.4561 35.0947 31.6845 33.1022 33.2759 29.9162C 32.2908 28.9579 31.7262 28.3052 31.5837 27.959L 31.5868 27.9717C 31.1552 27.1406 30.7479 25.5919 30.3664 23.3272C 30.1094 21.8434 29.4867 20.1739 28.4995 18.3181C 28.4858 18.2927 28.4699 18.2669 28.4557 18.2405ZM 26.8183 10.2178L 26.8152 10.2147C 28.0309 12.2056 29.2139 14.5484 30.3642 17.2421C 30.3748 17.2627 30.3848 17.2828 30.3938 17.3034C 31.5103 19.3992 32.2079 21.2862 32.4865 22.9647L 32.4865 22.9684C 32.8195 24.9313 33.1619 26.2758 33.5139 27.0024L 33.5171 27.015C 33.6843 27.2958 34.2837 27.9226 35.3159 28.8951C 35.481 29.0508 35.5871 29.2402 35.6325 29.4634C 35.6784 29.6871 35.6546 29.9045 35.5612 30.1156C 33.5334 34.6393 30.5078 37.314 26.4827 38.1377C 26.3017 38.1752 26.1229 38.1673 25.9466 38.1119C 25.7709 38.0575 25.6179 37.9641 25.4876 37.8311C 23.9531 36.2445 22.2709 34.9612 20.4399 33.9813C 20.4974 34.2187 20.5644 34.4805 20.6404 34.7659L 20.6404 34.7691C 21.1274 36.6064 20.7813 37.9251 19.6004 38.7255C 18.754 39.4379 16.6428 39.8584 13.2673 39.9888C 11.4559 40.0579 10.1362 39.8078 9.30773 39.2395C 8.2181 38.5794 7.76272 37.5335 7.9416 36.1004C 8.12892 34.5892 7.89358 33.452 7.23453 32.6896C 6.30372 31.7129 5.17874 30.3156 3.85957 28.4978C 2.48711 26.5998 1.5732 24.735 1.11782 22.9035C 0.676692 21.1516 0.348483 19.4193 0.132668 17.707C -0.0831475 16.0095 -0.0356572 14.3315 0.275138 12.672C 0.22501 12.4187 0.20021 12.1723 0.200737 11.9322C 0.200737 11.2099 0.277249 10.7165 0.430272 10.4532L 0.433438 10.4432C 0.581184 10.0553 0.838686 9.77936 1.20541 9.61684C 1.12099 9.46962 1.04711 9.32926 0.982738 9.19682L 0.982738 9.19998C 0.539499 8.30137 0.3221 7.44655 0.330543 6.63605C 0.328432 6.11472 0.454016 5.60657 0.708352 5.1111L 0.711518 5.10476C 1.08352 4.38925 1.5732 3.98664 2.18107 3.89694C 2.15046 3.70487 2.13674 3.54076 2.13885 3.40568C 2.13885 2.66853 2.22064 2.16725 2.38422 1.90394C 2.38475 1.9013 2.3858 1.89919 2.38739 1.89708C 2.63697 1.23855 3.23535 0.908763 4.18303 0.908763C 4.47378 0.855469 5.29746 1.22272 6.65357 2.01053C 6.68048 1.55515 6.75593 1.22009 6.87941 1.00585L 6.88257 0.999522C 7.16329 0.336246 7.72104 0.00434378 8.55528 0.00434378C 8.9716 -0.0726955 10.7889 0.874993 14.0071 2.85005C 16.0925 4.12805 17.6185 5.04355 18.5867 5.59866C 18.5493 4.91058 18.5968 4.24361 18.7292 3.59617L 18.7292 3.59036C 18.9149 2.64162 19.4711 1.886 20.3987 1.32351L 20.3919 1.32984C 21.1829 0.726719 21.9796 0.911929 22.7817 1.88547C 23.1906 2.35879 23.6054 3.19039 24.0254 4.37922C 24.7293 6.3643 25.6606 8.31139 26.8183 10.2178Z"/>
</defs>
</svg>
